<svg width="22" height="24" viewBox="0 0 22 24" fill="none" xmlns="http://www.w3.org/2000/svg">
    <path d="M0 5.26313C0 4.68179 0.422131 4.21052 0.942857 4.21052L4.19915 4.20995C4.84614 4.19165 5.41691 3.73237 5.63706 3.05292C5.64285 3.03506 5.6495 3.01302 5.67338 2.93307L5.81368 2.46306C5.89955 2.17487 5.97435 1.92381 6.07902 1.6994C6.49255 0.812825 7.25765 0.197181 8.14179 0.0395613C8.36559 -0.000335877 8.60259 -0.00016715 8.87463 2.65938e-05H13.1256C13.3976 -0.00016715 13.6346 -0.000335877 13.8584 0.0395613C14.7426 0.197181 15.5077 0.812825 15.9212 1.6994C16.0259 1.92381 16.1007 2.17487 16.1865 2.46306L16.3268 2.93307C16.3507 3.01302 16.3574 3.03506 16.3631 3.05292C16.5833 3.73237 17.2673 4.19221 17.9143 4.21052H21.0571C21.5779 4.21052 22 4.68179 22 5.26313C22 5.84448 21.5779 6.31575 21.0571 6.31575H0.942857C0.422131 6.31575 0 5.84448 0 5.26313Z"
          fill="#F81B11"/>
    <path fill-rule="evenodd" clip-rule="evenodd"
          d="M10.5057 24H11.4943C14.8954 24 16.5959 24 17.7016 22.9369C18.8073 21.8738 18.9204 20.1299 19.1466 16.6423L19.4726 11.6168C19.5954 9.72442 19.6567 8.77823 19.102 8.17864C18.5474 7.57905 17.6107 7.57905 15.7373 7.57905H6.26272C4.38933 7.57905 3.45263 7.57905 2.89795 8.17864C2.34327 8.77823 2.40465 9.72442 2.5274 11.6168L2.85339 16.6422C3.07963 20.1299 3.19275 21.8738 4.29842 22.9369C5.40409 24 7.10464 24 10.5057 24ZM8.85656 12.2262C8.80619 11.7056 8.35698 11.3258 7.85323 11.3779C7.34948 11.4299 6.98195 11.8942 7.03233 12.4148L7.64344 18.7305C7.69381 19.2511 8.14302 19.631 8.64677 19.5789C9.15051 19.5269 9.51805 19.0626 9.46767 18.542L8.85656 12.2262ZM14.1468 11.3779C14.6505 11.4299 15.018 11.8942 14.9677 12.4148L14.3566 18.7305C14.3062 19.2511 13.857 19.631 13.3532 19.5789C12.8495 19.5269 12.482 19.0626 12.5323 18.542L13.1434 12.2262C13.1938 11.7056 13.643 11.3258 14.1468 11.3779Z"
          fill="#F81B11"/>
</svg>
