<svg width="14" height="14" viewBox="0 0 14 14" fill="none" xmlns="http://www.w3.org/2000/svg">
    <path d="M7 0C3.13401 0 0 3.13835 0 7.0097C0 10.7043 2.85432 13.7313 6.47519 14L6.47495 9.75711C5.37416 9.51643 4.55 8.53469 4.55 7.36019V7.0097C4.55 6.62257 4.8634 6.30873 5.25 6.30873H5.425V4.90679C5.425 4.61644 5.66005 4.38106 5.95 4.38106C6.23995 4.38106 6.475 4.61644 6.475 4.90679V6.30873H7.525V4.90679C7.525 4.61644 7.76005 4.38106 8.05 4.38106C8.33995 4.38106 8.575 4.61644 8.575 4.90679V6.30873H8.75C9.1366 6.30873 9.45 6.62257 9.45 7.0097V7.36019C9.45 8.53472 8.62579 9.51648 7.52495 9.75713L7.5248 14C11.1457 13.7313 14 10.7043 14 7.0097C14 3.13835 10.866 0 7 0Z"
          fill="#F81B11"/>
</svg>