<svg width="20" height="24" viewBox="0 0 20 24" fill="none" xmlns="http://www.w3.org/2000/svg">
    <path fill-rule="evenodd" clip-rule="evenodd"
          d="M0 23C0 22.4477 0.383756 22 0.857143 22H19.1429C19.6162 22 20 22.4477 20 23C20 23.5523 19.6162 24 19.1429 24H0.857143C0.383756 24 0 23.5523 0 23Z"
          fill="#7211F8"/>
    <path d="M17.9634 1.0366C19.3455 2.41873 19.3455 4.65962 17.9634 6.04175L17.1649 6.84024C17.132 6.82935 17.0987 6.81806 17.065 6.80635C16.2216 6.51374 15.1159 5.96163 14.0773 4.92302C13.0387 3.88441 12.4866 2.77875 12.1939 1.93532C12.1822 1.90142 12.1708 1.86795 12.1599 1.83493L12.9583 1.0366C14.3404 -0.345533 16.5813 -0.345533 17.9634 1.0366Z"
          fill="#7211F8"/>
    <path d="M9.46009 14.5451C8.94067 15.0645 8.68092 15.3242 8.39455 15.5476C8.05674 15.8111 7.69122 16.037 7.30448 16.2213C6.97663 16.3775 6.62816 16.4937 5.93126 16.726L2.25626 17.951C1.9133 18.0653 1.53519 17.9761 1.27957 17.7204C1.02394 17.4648 0.934685 17.0867 1.049 16.7437L2.274 13.0687C2.50631 12.3718 2.62246 12.0234 2.77871 11.6955C2.96302 11.3088 3.18892 10.9433 3.45241 10.6055C3.67577 10.3191 3.93551 10.0593 4.45494 9.53991L11.1113 2.88351C11.4884 3.78952 12.1078 4.86268 13.1227 5.87761C14.1375 6.89238 15.2104 7.51173 16.1164 7.88878L9.46009 14.5451Z"
          fill="#7211F8"/>
</svg>