<svg width="18" height="15" viewBox="0 0 18 15" fill="none" xmlns="http://www.w3.org/2000/svg">
    <path d="M10.8086 0.683652L15.7864 5.10839C16.717 5.93557 17.1823 6.34916 17.3538 6.83754C17.5043 7.26642 17.5043 7.73379 17.3538 8.16267C17.1823 8.65104 16.717 9.06463 15.7864 9.89181L10.8086 14.3166C10.3863 14.6919 10.1751 14.8796 9.99579 14.8863C9.83999 14.8922 9.69038 14.825 9.59123 14.7047C9.47709 14.5662 9.47709 14.2836 9.47709 13.7186V10.9287C7.049 10.9287 4.48444 11.7085 2.61183 13.0929C1.63693 13.8136 1.14947 14.174 0.963807 14.1597C0.782831 14.1459 0.667979 14.0752 0.574079 13.9199C0.477748 13.7605 0.562832 13.2626 0.733001 12.2668C1.83797 5.80066 6.28795 4.07153 9.47709 4.07153V1.28158C9.47709 0.716564 9.47709 0.434057 9.59123 0.295554C9.69038 0.175229 9.83999 0.108044 9.99579 0.113876C10.1751 0.120588 10.3863 0.308276 10.8086 0.683652Z"
          fill="white"/>
</svg>