<svg width="26" height="26" viewBox="0 0 26 26" fill="none" xmlns="http://www.w3.org/2000/svg">
    <path fill-rule="evenodd" clip-rule="evenodd"
          d="M13 26C20.1797 26 26 20.1797 26 13C26 5.8203 20.1797 0 13 0C5.8203 0 0 5.8203 0 13C0 20.1797 5.8203 26 13 26ZM7.89896 8.60251C7.8 8.84141 7.8 9.14428 7.8 9.75V16.25C7.8 16.8557 7.8 17.1586 7.89896 17.3975C8.0309 17.716 8.28397 17.9691 8.60251 18.101C8.84141 18.2 9.14428 18.2 9.75 18.2C10.3557 18.2 10.6586 18.2 10.8975 18.101C11.216 17.9691 11.4691 17.716 11.601 17.3975C11.7 17.1586 11.7 16.8557 11.7 16.25V9.75C11.7 9.14428 11.7 8.84141 11.601 8.60251C11.4691 8.28397 11.216 8.0309 10.8975 7.89896C10.6586 7.8 10.3557 7.8 9.75 7.8C9.14428 7.8 8.84141 7.8 8.60251 7.89896C8.28397 8.0309 8.0309 8.28397 7.89896 8.60251ZM14.399 8.60251C14.3 8.84141 14.3 9.14428 14.3 9.75V16.25C14.3 16.8557 14.3 17.1586 14.399 17.3975C14.5309 17.716 14.784 17.9691 15.1025 18.101C15.3414 18.2 15.6443 18.2 16.25 18.2C16.8557 18.2 17.1586 18.2 17.3975 18.101C17.716 17.9691 17.9691 17.716 18.101 17.3975C18.2 17.1586 18.2 16.8557 18.2 16.25V9.75C18.2 9.14428 18.2 8.84141 18.101 8.60251C17.9691 8.28397 17.716 8.0309 17.3975 7.89896C17.1586 7.8 16.8557 7.8 16.25 7.8C15.6443 7.8 15.3414 7.8 15.1025 7.89896C14.784 8.0309 14.5309 8.28397 14.399 8.60251Z"
          fill="white" fill-opacity="0.4"/>
</svg>
