<svg width="15" height="15" viewBox="0 0 15 15" fill="none" xmlns="http://www.w3.org/2000/svg">
    <path d="M10.3125 0.523256C10.3125 0.23427 10.0607 0 9.75 0C9.43934 0 9.1875 0.23427 9.1875 0.523256V14.4767C9.1875 14.7657 9.43934 15 9.75 15C10.0607 15 10.3125 14.7657 10.3125 14.4767V13.0775C12.2894 13.0582 13.3906 12.9438 14.1213 12.264C15 11.4466 15 10.1311 15 7.5C15 4.8689 15 3.55336 14.1213 2.73598C13.3906 2.05622 12.2894 1.94177 10.3125 1.92251V0.523256Z" fill="white" fill-opacity="0.4"/>
    <path fill-rule="evenodd" clip-rule="evenodd" d="M6 13.0814C3.17157 13.0814 1.75736 13.0814 0.87868 12.264C0 11.4466 0 10.1311 0 7.5C0 4.8689 0 3.55336 0.87868 2.73598C1.75736 1.9186 3.17157 1.9186 6 1.9186H8.25V13.0814H6ZM3.61337 4.56093C3.83834 4.53483 4.11321 4.53486 4.41287 4.53489H6.08715C6.38681 4.53486 6.66167 4.53483 6.88664 4.56093C7.13315 4.58953 7.39592 4.65642 7.62184 4.84316C7.66037 4.87502 7.69686 4.90896 7.73111 4.94481C7.93186 5.15496 8.00376 5.39941 8.03451 5.62871C8.06257 5.83799 8.06254 6.09368 8.06251 6.37244L8.0625 6.40117C8.0625 6.69015 7.81066 6.92442 7.5 6.92442C7.18934 6.92442 6.9375 6.69015 6.9375 6.40117C6.9375 6.08405 6.93648 5.89487 6.91816 5.75824C6.89984 5.62162 6.7474 5.5994 6.7474 5.5994C6.60052 5.58235 6.39715 5.5814 6.05625 5.5814H5.8125V9.41861H6.75C7.06066 9.41861 7.3125 9.65288 7.3125 9.94186C7.3125 10.2309 7.06066 10.4651 6.75 10.4651H3.75C3.43934 10.4651 3.1875 10.2309 3.1875 9.94186C3.1875 9.65288 3.43934 9.41861 3.75 9.41861H4.6875V5.5814H4.44375C4.10285 5.5814 3.89948 5.58235 3.75261 5.5994C3.75261 5.5994 3.60017 5.62162 3.58185 5.75824C3.56353 5.89487 3.5625 6.08405 3.5625 6.40117C3.5625 6.69015 3.31066 6.92442 3 6.92442C2.68934 6.92442 2.4375 6.69015 2.4375 6.40117L2.4375 6.37244C2.43747 6.09368 2.43744 5.83799 2.4655 5.62871C2.49625 5.39941 2.56815 5.15496 2.7689 4.94481C2.80315 4.90896 2.83963 4.87502 2.87817 4.84316C3.10409 4.65642 3.36686 4.58953 3.61337 4.56093Z" fill="white" fill-opacity="0.4"/>
</svg>