<svg width="33" height="16" viewBox="0 0 33 16" fill="none" xmlns="http://www.w3.org/2000/svg">
    <path d="M32.5385 7.65793C33.1538 8.03218 33.1538 8.96782 32.5385 9.34207L28.3846 11.8683C27.7692 12.2425 27 11.7747 27 11.0262L27 5.97379C27 5.22528 27.7692 4.75747 28.3846 5.13172L32.5385 7.65793Z" fill="black"/>
    <path d="M32.5385 7.65793C33.1538 8.03218 33.1538 8.96782 32.5385 9.34207L28.3846 11.8683C27.7692 12.2425 27 11.7747 27 11.0262L27 5.97379C27 5.22528 27.7692 4.75747 28.3846 5.13172L32.5385 7.65793Z" fill="#7211F8"/>
    <path fill-rule="evenodd" clip-rule="evenodd" d="M4.78162e-08 7.4C0.307673 3.26196 3.77184 0 8 0C7.33347 -1.77428e-07 6.74001 0.291366 6.2518 0.736901C5.76604 1.1802 5.35554 1.79902 5.02352 2.53052C4.68954 3.26634 4.43011 4.12695 4.25453 5.06089C4.11377 5.80955 4.02811 6.59881 3.99956 7.4H4.78162e-08ZM0 8.6H3.99956C4.02811 9.40119 4.11377 10.1904 4.25453 10.9391C4.43011 11.8731 4.68954 12.7337 5.02352 13.4695C5.35554 14.201 5.76604 14.8198 6.2518 15.2631C6.74001 15.7086 7.33347 16 8 16C3.77184 16 0.307673 12.738 0 8.6Z" fill="#7211F8"/>
    <path d="M8 1.11628C7.77938 1.11628 7.49438 1.20989 7.16296 1.51233C6.82911 1.81701 6.49488 2.29452 6.19959 2.9451C5.90625 3.59136 5.66807 4.37152 5.50416 5.24335C5.37507 5.92994 5.295 6.65775 5.26689 7.4H10.7331C10.705 6.65775 10.6249 5.92994 10.4958 5.24336C10.3319 4.37153 10.0938 3.59137 9.80042 2.9451C9.50513 2.29452 9.1709 1.81701 8.83704 1.51233C8.50563 1.20989 8.22062 1.11628 8 1.11628Z" fill="#7211F8"/>
    <path d="M5.50416 10.7566C5.66807 11.6285 5.90625 12.4086 6.19959 13.0549C6.49488 13.7055 6.8291 14.183 7.16296 14.4877C7.49438 14.7901 7.77938 14.8837 8 14.8837C8.22062 14.8837 8.50563 14.7901 8.83704 14.4877C9.1709 14.183 9.50512 13.7055 9.80042 13.0549C10.0937 12.4086 10.3319 11.6285 10.4958 10.7566C10.6249 10.0701 10.705 9.34225 10.7331 8.6H5.26689C5.295 9.34225 5.37507 10.0701 5.50416 10.7566Z" fill="#7211F8"/>
    <path d="M8 0C8.66654 1.77428e-07 9.25999 0.291367 9.7482 0.736902C10.234 1.1802 10.6445 1.79902 10.9765 2.53052C11.3105 3.26634 11.5699 4.12695 11.7455 5.06089C11.8862 5.80955 11.9719 6.59881 12.0004 7.4H16C15.6923 3.26196 12.2282 0 8 0Z" fill="#7211F8"/>
    <path d="M11.7455 10.9391C11.5699 11.8731 11.3105 12.7337 10.9765 13.4695C10.6445 14.201 10.234 14.8198 9.7482 15.2631C9.25999 15.7086 8.66654 16 8 16C12.2282 16 15.6923 12.738 16 8.6H12.0004C11.9719 9.40119 11.8862 10.1904 11.7455 10.9391Z" fill="#7211F8"/>
</svg>