<svg width="33" height="17" viewBox="0 0 33 17" fill="none" xmlns="http://www.w3.org/2000/svg">
    <path d="M32.5385 7.65793C33.1538 8.03218 33.1538 8.96782 32.5385 9.34207L28.3846 11.8683C27.7692 12.2425 27 11.7747 27 11.0262L27 5.97379C27 5.22528 27.7692 4.75747 28.3846 5.13172L32.5385 7.65793Z" fill="black"/>
    <path d="M32.5385 7.65793C33.1538 8.03218 33.1538 8.96782 32.5385 9.34207L28.3846 11.8683C27.7692 12.2425 27 11.7747 27 11.0262L27 5.97379C27 5.22528 27.7692 4.75747 28.3846 5.13172L32.5385 7.65793Z" fill="#7211F8"/>
    <path d="M6.41494 1.39843L7.10452 2.63404C7.72682 3.74912 7.47701 5.21191 6.49688 6.19204C6.49688 6.19204 5.30801 7.38092 7.46355 9.53645C9.61905 11.692 10.808 10.5031 10.808 10.5031C11.7881 9.52299 13.2509 9.27318 14.366 9.89548L15.6016 10.5851C17.2853 11.5248 17.4842 13.8861 16.0042 15.3661C15.1149 16.2554 14.0254 16.9474 12.8211 16.993C10.7937 17.0699 7.35067 16.5568 3.89693 13.1031C0.443198 9.64933 -0.069897 6.2063 0.00696113 4.17891C0.0526171 2.97458 0.744603 1.88512 1.63392 0.995809C3.11393 -0.4842 5.47525 -0.285348 6.41494 1.39843Z" fill="#7211F8"/>
</svg>
