<svg width="342" height="336" viewBox="0 0 342 336" fill="none" xmlns="http://www.w3.org/2000/svg">
    <path d="M321 162.5H171M171 312V162.5M21 162.5H171M171 13V162.5M171 162.5L246.117 33.0682M171 162.5L300.986 87.842M171 162.5L95.8827 33.0682M171 162.5L41.014 87.842M171 162.5L41.014 237.158M171 162.5L95.8827 291.932M171 162.5L300.986 237.158M171 162.5L246.117 291.932" stroke="#8730FF" stroke-opacity="0.42"/>
    <circle cx="171" cy="163" r="162.7" fill="#7211F8" fill-opacity="0.05" stroke="#492B73" stroke-width="0.6"/>
    <g filter="url(#filter0_i_0_1)">
        <ellipse cx="171" cy="162.5" rx="149" ry="149.5" fill="#7211F8" fill-opacity="0.1"/>
    </g>
    <path d="M171 13.2998C253.124 13.2998 319.7 80.0982 319.7 162.5C319.7 244.902 253.124 311.7 171 311.7C88.8762 311.7 22.2998 244.902 22.2998 162.5C22.2998 80.0982 88.8762 13.2998 171 13.2998Z" stroke="#492B73" stroke-width="0.6"/>
    <g filter="url(#filter1_i_0_1)">
        <ellipse cx="171" cy="162.5" rx="111" ry="110.5" fill="#7211F8" fill-opacity="0.05"/>
    </g>
    <path d="M171 52.2998C232.139 52.2998 281.7 101.639 281.7 162.5C281.7 223.361 232.139 272.7 171 272.7C109.861 272.7 60.2998 223.361 60.2998 162.5C60.2998 101.639 109.861 52.2998 171 52.2998Z" stroke="#492B73" stroke-width="0.6"/>
    <g filter="url(#filter2_i_0_1)">
        <circle cx="171" cy="162" r="74" fill="#7211F8" fill-opacity="0.05"/>
    </g>
    <circle cx="171" cy="162" r="73.7" stroke="#492B73" stroke-width="0.6"/>
    <g filter="url(#filter3_i_0_1)">
        <ellipse cx="171" cy="162.5" rx="40" ry="39.5" fill="#1130F8" fill-opacity="0.05"/>
    </g>
    <path d="M171 123.3C192.929 123.3 210.7 140.854 210.7 162.5C210.7 184.146 192.929 201.7 171 201.7C149.071 201.7 131.3 184.146 131.3 162.5C131.3 140.854 149.071 123.3 171 123.3Z" stroke="#492B73" stroke-width="0.6"/>
    <circle cx="171" cy="13" r="1.5" fill="#3C196B" stroke="#633A9C"/>
    <circle cx="170.82" cy="122.82" r="1.32" fill="#3C196B" stroke="#633A9C"/>
    <circle cx="170.82" cy="52.82" r="1.32" fill="#3C196B" stroke="#633A9C"/>
    <circle cx="246.034" cy="32.8414" r="1.32123" transform="rotate(30 246.034 32.8414)" fill="#3C196B" stroke="#633A9C"/>
    <circle cx="191.092" cy="128" r="1.32123" transform="rotate(30 191.092 128)" fill="#3C196B" stroke="#633A9C"/>
    <circle cx="208.088" cy="98.5582" r="1.32123" transform="rotate(30 208.088 98.5582)" fill="#3C196B" stroke="#633A9C"/>
    <circle cx="226.303" cy="67.0152" r="1.32123" transform="rotate(30 226.303 67.0152)" fill="#3C196B" stroke="#633A9C"/>
    <circle cx="300.822" cy="88.0855" r="1.32123" transform="rotate(60 300.822 88.0855)" fill="#3C196B" stroke="#633A9C"/>
    <circle cx="205.662" cy="143.027" r="1.32123" transform="rotate(60 205.662 143.027)" fill="#3C196B" stroke="#633A9C"/>
    <circle cx="235.103" cy="126.029" r="1.32123" transform="rotate(60 235.103 126.029)" fill="#3C196B" stroke="#633A9C"/>
    <circle cx="266.65" cy="107.816" r="1.32123" transform="rotate(60 266.65 107.816)" fill="#3C196B" stroke="#633A9C"/>
    <path d="M322.5 163C322.5 163.828 321.828 164.5 321 164.5C320.172 164.5 319.5 163.828 319.5 163C319.5 162.172 320.172 161.5 321 161.5C321.828 161.5 322.5 162.172 322.5 163Z" fill="#3C196B" stroke="#633A9C"/>
    <circle cx="211.18" cy="162.82" r="1.32" transform="rotate(90 211.18 162.82)" fill="#3C196B" stroke="#633A9C"/>
    <circle cx="244.18" cy="162.82" r="1.32" transform="rotate(90 244.18 162.82)" fill="#3C196B" stroke="#633A9C"/>
    <circle cx="281.18" cy="162.82" r="1.32" transform="rotate(90 281.18 162.82)" fill="#3C196B" stroke="#633A9C"/>
    <circle cx="1.82123" cy="1.82123" r="1.32123" transform="matrix(-0.866025 0.5 0.5 0.866025 96.6328 30.3535)" fill="#3C196B" stroke="#633A9C"/>
    <circle cx="1.82123" cy="1.82123" r="1.32123" transform="matrix(-0.866025 0.5 0.5 0.866025 151.574 125.512)" fill="#3C196B" stroke="#633A9C"/>
    <circle cx="1.82123" cy="1.82123" r="1.32123" transform="matrix(-0.866025 0.5 0.5 0.866025 134.578 96.0703)" fill="#3C196B" stroke="#633A9C"/>
    <g filter="url(#filter4_d_0_1)">
        <circle cx="1.82123" cy="1.82123" r="1.82123" transform="matrix(-0.866025 0.5 0.5 0.866025 116.363 64.5273)" fill="#4F1A95"/>
        <circle cx="1.82123" cy="1.82123" r="1.32123" transform="matrix(-0.866025 0.5 0.5 0.866025 116.363 64.5273)" stroke="#7211F8"/>
    </g>
    <g filter="url(#filter5_d_0_1)">
        <circle cx="1.82123" cy="1.82123" r="1.82123" transform="matrix(-0.866025 0.5 0.5 0.866025 171.156 86)" fill="#4F1A95"/>
        <circle cx="1.82123" cy="1.82123" r="1.32123" transform="matrix(-0.866025 0.5 0.5 0.866025 171.156 86)" stroke="#7211F8"/>
    </g>
    <g filter="url(#filter6_d_0_1)">
        <circle cx="1.82123" cy="1.82123" r="1.82123" transform="matrix(-0.866025 0.5 0.5 0.866025 247.156 30)" fill="#4F1A95"/>
        <circle cx="1.82123" cy="1.82123" r="1.32123" transform="matrix(-0.866025 0.5 0.5 0.866025 247.156 30)" stroke="#7211F8"/>
    </g>
    <circle cx="1.82123" cy="1.82123" r="1.32123" transform="matrix(-0.5 0.866025 0.866025 0.5 40.5117 85.5977)" fill="#3C196B" stroke="#633A9C"/>
    <circle cx="1.82123" cy="1.82123" r="1.32123" transform="matrix(-0.5 0.866025 0.866025 0.5 135.672 140.539)" fill="#3C196B" stroke="#633A9C"/>
    <circle cx="1.82123" cy="1.82123" r="1.32123" transform="matrix(-0.5 0.866025 0.866025 0.5 106.23 123.541)" fill="#3C196B" stroke="#633A9C"/>
    <circle cx="1.82123" cy="1.82123" r="1.32123" transform="matrix(-0.5 0.866025 0.866025 0.5 74.6836 105.328)" fill="#3C196B" stroke="#633A9C"/>
    <path d="M19.5 163C19.5 163.828 20.1716 164.5 21 164.5C21.8284 164.5 22.5 163.828 22.5 163C22.5 162.172 21.8284 161.5 21 161.5C20.1716 161.5 19.5 162.172 19.5 163Z" fill="#3C196B" stroke="#633A9C"/>
    <circle cx="1.82" cy="1.82" r="1.32" transform="matrix(3.26082e-08 1 1 -3.26082e-08 129 161)" fill="#3C196B" stroke="#633A9C"/>
    <circle cx="1.82" cy="1.82" r="1.32" transform="matrix(3.26082e-08 1 1 -3.26082e-08 96 161)" fill="#3C196B" stroke="#633A9C"/>
    <circle cx="1.82" cy="1.82" r="1.32" transform="matrix(3.26082e-08 1 1 -3.26082e-08 59 161)" fill="#3C196B" stroke="#633A9C"/>
    <g filter="url(#filter7_d_0_1)">
        <circle cx="1.82123" cy="1.82123" r="1.82123" transform="matrix(-0.866025 0.5 0.5 0.866025 108.156 123)" fill="#4F1A95"/>
        <circle cx="1.82123" cy="1.82123" r="1.32123" transform="matrix(-0.866025 0.5 0.5 0.866025 108.156 123)" stroke="#7211F8"/>
    </g>
    <rect y="163" width="342" height="173" fill="url(#paint0_linear_0_1)"/>
    <path fill-rule="evenodd" clip-rule="evenodd" d="M286.516 48.2584C222.861 -15.3971 119.655 -15.3971 55.9994 48.2584L171.258 163.517L286.516 48.2584Z" fill="url(#paint1_linear_0_1)"/>
    <g filter="url(#filter8_f_0_1)">
        <path d="M151 154.438H190.064V184.579H151V154.438Z" fill="#5214A7"/>
    </g>
    <g filter="url(#filter9_f_0_1)">
        <path d="M151 154.438H190.064V184.579H151V154.438Z" fill="#5214A7" fill-opacity="0.33"/>
    </g>
    <path d="M188.614 172.26C188.614 178.132 183.881 182.893 178.043 182.893L163.014 182.893C157.176 182.893 152.443 178.132 152.443 172.26L152.443 156.632C152.443 150.76 157.176 145.999 163.014 145.999L178.043 145.999C183.881 145.999 188.614 150.76 188.614 156.632L188.614 172.26Z" fill="black"/>
    <mask id="mask0_0_1" style="mask-type:alpha" maskUnits="userSpaceOnUse" x="152" y="145" width="37" height="38">
        <path d="M188.614 172.26C188.614 178.132 183.881 182.893 178.043 182.893L163.014 182.893C157.176 182.893 152.443 178.132 152.443 172.26L152.443 156.632C152.443 150.759 157.176 145.999 163.014 145.999L178.043 145.999C183.881 145.999 188.614 150.759 188.614 156.632L188.614 172.26Z" fill="black"/>
    </mask>
    <g mask="url(#mask0_0_1)">
        <path fill-rule="evenodd" clip-rule="evenodd" d="M162.263 169.801L164.061 157.794L160.403 154.197H174.009C176.362 154.197 178.599 155.204 180.137 156.955L181.051 157.996C181.731 158.77 182.105 159.758 182.105 160.781C182.105 162.123 181.461 163.387 180.368 164.192L177.715 166.144L178.694 163.218H174.072H170.944L174.398 163.757L176.276 169.801C172.404 169.801 169.256 172.095 169.256 174.935C169.256 172.095 166.135 169.801 162.263 169.801ZM170.572 157.001L171.06 158.669H173.47C174.246 158.669 175.004 158.908 175.635 159.353L177.144 160.415L176.25 158.445C175.851 157.567 174.964 157.001 173.985 157.001H170.572Z" fill="url(#paint2_linear_0_1)"/>
        <g filter="url(#filter10_f_0_1)">
            <path d="M196.09 185.54C196.09 191.402 191.335 196.154 185.469 196.154L155.59 196.154C149.725 196.154 144.97 191.402 144.97 185.54L144.97 166.741C144.97 160.878 149.725 156.126 155.59 156.126L185.469 156.126C191.335 156.126 196.09 160.878 196.09 166.741L196.09 185.54Z" fill="url(#paint3_radial_0_1)"/>
        </g>
        <g filter="url(#filter11_f_0_1)">
            <path d="M199.108 204.449C195.135 208.783 188.401 209.076 184.067 205.103L179.292 200.726C174.958 196.752 174.666 190.018 178.639 185.684L194.663 168.204C198.636 163.87 205.371 163.578 209.705 167.551L214.48 171.928C218.814 175.901 219.106 182.636 215.133 186.97L199.108 204.449Z" fill="#AF75FF"/>
        </g>
        <g filter="url(#filter12_f_0_1)">
            <path d="M215.885 184.319C214.952 190.124 209.49 194.074 203.684 193.14L197.289 192.112C191.484 191.179 187.535 185.716 188.468 179.911L192.232 156.499C193.165 150.693 198.628 146.744 204.433 147.677L210.828 148.705C216.633 149.639 220.583 155.101 219.649 160.906L215.885 184.319Z" fill="#AF75FF"/>
        </g>
        <g filter="url(#filter13_f_0_1)">
            <path d="M218.249 171.867C218.166 177.746 213.332 182.444 207.453 182.361L200.976 182.269C195.097 182.185 190.399 177.351 190.482 171.472L190.635 160.702C190.645 159.98 190.582 159.26 190.447 158.551L188.281 147.223C187.971 145.601 188.143 143.925 188.776 142.401C190.101 139.21 193.236 137.149 196.691 137.198L208.092 137.36C213.971 137.443 218.669 142.277 218.586 148.156L218.249 171.867Z" fill="#F3C58D" fill-opacity="0.5"/>
        </g>
        <g filter="url(#filter14_f_0_1)">
            <path d="M122.876 171.867C122.96 177.746 127.794 182.444 133.673 182.361L140.149 182.269C146.028 182.185 150.727 177.351 150.643 171.472L150.49 160.702C150.48 159.98 150.543 159.26 150.679 158.551L152.845 147.223C153.155 145.601 152.982 143.925 152.35 142.401C151.025 139.21 147.889 137.149 144.434 137.198L133.034 137.36C127.154 137.443 122.456 142.277 122.54 148.156L122.876 171.867Z" fill="#F3C58D" fill-opacity="0.5"/>
        </g>
        <g filter="url(#filter15_f_0_1)">
            <path d="M125.021 184.319C125.955 190.124 131.417 194.074 137.222 193.14L143.618 192.112C149.423 191.179 153.372 185.716 152.439 179.911L148.675 156.499C147.742 150.693 142.279 146.744 136.474 147.677L130.079 148.705C124.273 149.639 120.324 155.101 121.257 160.906L125.021 184.319Z" fill="#AF75FF"/>
        </g>
        <g filter="url(#filter16_f_0_1)">
            <path d="M142.017 204.449C145.99 208.783 152.725 209.076 157.059 205.103L161.833 200.726C166.167 196.752 166.46 190.018 162.487 185.684L146.462 168.204C142.489 163.87 135.755 163.578 131.421 167.551L126.646 171.928C122.312 175.901 122.019 182.636 125.993 186.97L142.017 204.449Z" fill="#AF75FF"/>
        </g>
        <g filter="url(#filter17_f_0_1)">
            <path d="M190.319 200.011C190.319 205.887 185.577 210.649 179.728 210.649L160.398 210.649C154.549 210.649 149.808 205.887 149.808 200.011L149.808 192.834C149.808 186.958 154.549 182.196 160.398 182.196L179.728 182.196C185.577 182.196 190.319 186.958 190.319 192.834L190.319 200.011Z" fill="#AF75FF"/>
        </g>
    </g>
    <g clip-path="url(#clip0_0_1)">
        <rect x="254" y="20" width="80" height="23" rx="8" fill="#2D1351"/>
        <path d="M266.453 32.3594H264.859V33.9492H264.406V32.3594H262.812V31.9023H264.406V30.3125H264.859V31.9023H266.453V32.3594ZM270.273 29.375C269.953 29.7214 269.697 30.0625 269.504 30.3984C269.311 30.7344 269.163 31.0859 269.059 31.4531C268.954 31.8177 268.884 32.2083 268.848 32.625C268.811 33.0391 268.79 33.4974 268.785 34H268.223C268.228 33.526 268.253 33.0794 268.297 32.6602C268.344 32.2409 268.424 31.8411 268.539 31.4609C268.654 31.0781 268.81 30.7135 269.008 30.3672C269.206 30.0208 269.456 29.6849 269.758 29.3594H267.328V30.3594H266.871V28.9023H270.273V29.375ZM273.02 35.4492C272.741 35.2305 272.493 34.9818 272.277 34.7031C272.061 34.4271 271.88 34.1315 271.734 33.8164C271.589 33.5013 271.477 33.1719 271.398 32.8281C271.32 32.4844 271.281 32.1367 271.281 31.7852C271.281 31.4336 271.32 31.0872 271.398 30.7461C271.477 30.4023 271.589 30.0742 271.734 29.7617C271.88 29.4466 272.061 29.151 272.277 28.875C272.493 28.5964 272.741 28.3477 273.02 28.1289L273.301 28.4805C273.053 28.6784 272.832 28.9023 272.637 29.1523C272.444 29.4023 272.28 29.6706 272.145 29.957C272.012 30.2409 271.91 30.5378 271.84 30.8477C271.772 31.1576 271.738 31.4701 271.738 31.7852C271.738 32.1055 271.772 32.4206 271.84 32.7305C271.91 33.0378 272.012 33.3333 272.145 33.6172C272.28 33.8984 272.443 34.1654 272.633 34.418C272.826 34.6732 273.048 34.8997 273.301 35.0977L273.02 35.4492ZM274.324 30.6406C274.324 30.3568 274.371 30.1029 274.465 29.8789C274.559 29.6549 274.688 29.4648 274.852 29.3086C275.018 29.1497 275.215 29.0286 275.441 28.9453C275.668 28.8594 275.913 28.8164 276.176 28.8164C276.533 28.8164 276.835 28.8906 277.082 29.0391C277.329 29.1849 277.527 29.3802 277.676 29.625C277.827 29.8698 277.935 30.1497 278 30.4648C278.068 30.7799 278.102 31.1081 278.102 31.4492C278.102 31.7956 278.056 32.1276 277.965 32.4453C277.874 32.763 277.738 33.0443 277.559 33.2891C277.382 33.5339 277.156 33.7292 276.883 33.875C276.612 34.0182 276.298 34.0898 275.941 34.0898C275.436 34.0898 275.016 33.9128 274.68 33.5586L275.031 33.2461C275.148 33.3763 275.284 33.474 275.438 33.5391C275.594 33.6016 275.762 33.6328 275.941 33.6328C276.215 33.6328 276.454 33.5807 276.66 33.4766C276.868 33.3724 277.043 33.2279 277.184 33.043C277.327 32.8555 277.432 32.6315 277.5 32.3711C277.57 32.1081 277.605 31.819 277.605 31.5039C277.564 31.6367 277.493 31.7617 277.395 31.8789C277.296 31.9961 277.18 32.0977 277.047 32.1836C276.914 32.2695 276.768 32.3385 276.609 32.3906C276.453 32.4401 276.299 32.4648 276.148 32.4648C275.883 32.4648 275.638 32.4193 275.414 32.3281C275.19 32.237 274.997 32.112 274.836 31.9531C274.677 31.7917 274.552 31.599 274.461 31.375C274.37 31.151 274.324 30.9062 274.324 30.6406ZM274.863 30.6406C274.863 30.8333 274.892 31.0143 274.949 31.1836C275.009 31.3503 275.094 31.4948 275.203 31.6172C275.312 31.7396 275.447 31.8359 275.605 31.9062C275.767 31.974 275.948 32.0078 276.148 32.0078C276.346 32.0078 276.527 31.9766 276.691 31.9141C276.858 31.849 277 31.7591 277.117 31.6445C277.234 31.5299 277.324 31.3919 277.387 31.2305C277.452 31.0664 277.484 30.8854 277.484 30.6875C277.484 30.4948 277.457 30.3138 277.402 30.1445C277.35 29.9727 277.27 29.8216 277.16 29.6914C277.053 29.5612 276.918 29.4596 276.754 29.3867C276.592 29.3112 276.4 29.2734 276.176 29.2734C275.983 29.2734 275.806 29.306 275.645 29.3711C275.486 29.4336 275.348 29.5234 275.23 29.6406C275.113 29.7578 275.022 29.9023 274.957 30.0742C274.895 30.2435 274.863 30.4323 274.863 30.6406ZM278.191 30.6406C278.191 30.3568 278.238 30.1029 278.332 29.8789C278.426 29.6549 278.555 29.4648 278.719 29.3086C278.885 29.1497 279.082 29.0286 279.309 28.9453C279.535 28.8594 279.78 28.8164 280.043 28.8164C280.4 28.8164 280.702 28.8906 280.949 29.0391C281.197 29.1849 281.395 29.3802 281.543 29.625C281.694 29.8698 281.802 30.1497 281.867 30.4648C281.935 30.7799 281.969 31.1081 281.969 31.4492C281.969 31.7956 281.923 32.1276 281.832 32.4453C281.741 32.763 281.605 33.0443 281.426 33.2891C281.249 33.5339 281.023 33.7292 280.75 33.875C280.479 34.0182 280.165 34.0898 279.809 34.0898C279.303 34.0898 278.883 33.9128 278.547 33.5586L278.898 33.2461C279.016 33.3763 279.151 33.474 279.305 33.5391C279.461 33.6016 279.629 33.6328 279.809 33.6328C280.082 33.6328 280.322 33.5807 280.527 33.4766C280.736 33.3724 280.91 33.2279 281.051 33.043C281.194 32.8555 281.299 32.6315 281.367 32.3711C281.438 32.1081 281.473 31.819 281.473 31.5039C281.431 31.6367 281.361 31.7617 281.262 31.8789C281.163 31.9961 281.047 32.0977 280.914 32.1836C280.781 32.2695 280.635 32.3385 280.477 32.3906C280.32 32.4401 280.167 32.4648 280.016 32.4648C279.75 32.4648 279.505 32.4193 279.281 32.3281C279.057 32.237 278.865 32.112 278.703 31.9531C278.544 31.7917 278.419 31.599 278.328 31.375C278.237 31.151 278.191 30.9062 278.191 30.6406ZM278.73 30.6406C278.73 30.8333 278.759 31.0143 278.816 31.1836C278.876 31.3503 278.961 31.4948 279.07 31.6172C279.18 31.7396 279.314 31.8359 279.473 31.9062C279.634 31.974 279.815 32.0078 280.016 32.0078C280.214 32.0078 280.395 31.9766 280.559 31.9141C280.725 31.849 280.867 31.7591 280.984 31.6445C281.102 31.5299 281.191 31.3919 281.254 31.2305C281.319 31.0664 281.352 30.8854 281.352 30.6875C281.352 30.4948 281.324 30.3138 281.27 30.1445C281.217 29.9727 281.137 29.8216 281.027 29.6914C280.921 29.5612 280.785 29.4596 280.621 29.3867C280.46 29.3112 280.267 29.2734 280.043 29.2734C279.85 29.2734 279.673 29.306 279.512 29.3711C279.353 29.4336 279.215 29.5234 279.098 29.6406C278.98 29.7578 278.889 29.9023 278.824 30.0742C278.762 30.2435 278.73 30.4323 278.73 30.6406ZM282.059 30.6406C282.059 30.3568 282.105 30.1029 282.199 29.8789C282.293 29.6549 282.422 29.4648 282.586 29.3086C282.753 29.1497 282.949 29.0286 283.176 28.9453C283.402 28.8594 283.647 28.8164 283.91 28.8164C284.267 28.8164 284.569 28.8906 284.816 29.0391C285.064 29.1849 285.262 29.3802 285.41 29.625C285.561 29.8698 285.669 30.1497 285.734 30.4648C285.802 30.7799 285.836 31.1081 285.836 31.4492C285.836 31.7956 285.79 32.1276 285.699 32.4453C285.608 32.763 285.473 33.0443 285.293 33.2891C285.116 33.5339 284.891 33.7292 284.617 33.875C284.346 34.0182 284.033 34.0898 283.676 34.0898C283.171 34.0898 282.75 33.9128 282.414 33.5586L282.766 33.2461C282.883 33.3763 283.018 33.474 283.172 33.5391C283.328 33.6016 283.496 33.6328 283.676 33.6328C283.949 33.6328 284.189 33.5807 284.395 33.4766C284.603 33.3724 284.777 33.2279 284.918 33.043C285.061 32.8555 285.167 32.6315 285.234 32.3711C285.305 32.1081 285.34 31.819 285.34 31.5039C285.298 31.6367 285.228 31.7617 285.129 31.8789C285.03 31.9961 284.914 32.0977 284.781 32.1836C284.648 32.2695 284.503 32.3385 284.344 32.3906C284.188 32.4401 284.034 32.4648 283.883 32.4648C283.617 32.4648 283.372 32.4193 283.148 32.3281C282.924 32.237 282.732 32.112 282.57 31.9531C282.411 31.7917 282.286 31.599 282.195 31.375C282.104 31.151 282.059 30.9062 282.059 30.6406ZM282.598 30.6406C282.598 30.8333 282.626 31.0143 282.684 31.1836C282.743 31.3503 282.828 31.4948 282.938 31.6172C283.047 31.7396 283.181 31.8359 283.34 31.9062C283.501 31.974 283.682 32.0078 283.883 32.0078C284.081 32.0078 284.262 31.9766 284.426 31.9141C284.592 31.849 284.734 31.7591 284.852 31.6445C284.969 31.5299 285.059 31.3919 285.121 31.2305C285.186 31.0664 285.219 30.8854 285.219 30.6875C285.219 30.4948 285.191 30.3138 285.137 30.1445C285.085 29.9727 285.004 29.8216 284.895 29.6914C284.788 29.5612 284.652 29.4596 284.488 29.3867C284.327 29.3112 284.134 29.2734 283.91 29.2734C283.717 29.2734 283.54 29.306 283.379 29.3711C283.22 29.4336 283.082 29.5234 282.965 29.6406C282.848 29.7578 282.757 29.9023 282.691 30.0742C282.629 30.2435 282.598 30.4323 282.598 30.6406ZM288.938 31.793C288.938 32.1445 288.898 32.4909 288.82 32.832C288.742 33.1732 288.628 33.5013 288.477 33.8164C288.328 34.1315 288.146 34.4271 287.93 34.7031C287.716 34.9818 287.47 35.2305 287.191 35.4492L286.91 35.0977C287.158 34.8997 287.378 34.6745 287.57 34.4219C287.766 34.1719 287.931 33.9049 288.066 33.6211C288.204 33.3346 288.307 33.0378 288.375 32.7305C288.445 32.4206 288.48 32.1081 288.48 31.793C288.48 31.4779 288.445 31.1641 288.375 30.8516C288.307 30.5391 288.204 30.2409 288.066 29.957C287.931 29.6706 287.766 29.4023 287.57 29.1523C287.378 28.9023 287.158 28.6784 286.91 28.4805L287.191 28.1289C287.47 28.3477 287.716 28.5964 287.93 28.875C288.146 29.151 288.328 29.4466 288.477 29.7617C288.628 30.0742 288.742 30.4036 288.82 30.75C288.898 31.0938 288.938 31.4414 288.938 31.793ZM293.387 31.4531L292.051 32.1719L293.387 32.9102L293.172 33.2773L291.875 32.4844L291.93 33.9961H291.477L291.531 32.4844L290.234 33.2773L290.02 32.9102L291.355 32.1719L290.02 31.4531L290.234 31.0781L291.531 31.8789L291.477 30.3555H291.93L291.875 31.8789L293.172 31.0781L293.387 31.4531ZM297.254 31.4531L295.918 32.1719L297.254 32.9102L297.039 33.2773L295.742 32.4844L295.797 33.9961H295.344L295.398 32.4844L294.102 33.2773L293.887 32.9102L295.223 32.1719L293.887 31.4531L294.102 31.0781L295.398 31.8789L295.344 30.3555H295.797L295.742 31.8789L297.039 31.0781L297.254 31.4531ZM301.121 31.4531L299.785 32.1719L301.121 32.9102L300.906 33.2773L299.609 32.4844L299.664 33.9961H299.211L299.266 32.4844L297.969 33.2773L297.754 32.9102L299.09 32.1719L297.754 31.4531L297.969 31.0781L299.266 31.8789L299.211 30.3555H299.664L299.609 31.8789L300.906 31.0781L301.121 31.4531ZM305.125 32.3594H301.484V31.9023H305.125V32.3594ZM308.855 31.4531L307.52 32.1719L308.855 32.9102L308.641 33.2773L307.344 32.4844L307.398 33.9961H306.945L307 32.4844L305.703 33.2773L305.488 32.9102L306.824 32.1719L305.488 31.4531L305.703 31.0781L307 31.8789L306.945 30.3555H307.398L307.344 31.8789L308.641 31.0781L308.855 31.4531ZM312.723 31.4531L311.387 32.1719L312.723 32.9102L312.508 33.2773L311.211 32.4844L311.266 33.9961H310.812L310.867 32.4844L309.57 33.2773L309.355 32.9102L310.691 32.1719L309.355 31.4531L309.57 31.0781L310.867 31.8789L310.812 30.3555H311.266L311.211 31.8789L312.508 31.0781L312.723 31.4531ZM316.727 32.3594H313.086V31.9023H316.727V32.3594ZM320.457 31.4531L319.121 32.1719L320.457 32.9102L320.242 33.2773L318.945 32.4844L319 33.9961H318.547L318.602 32.4844L317.305 33.2773L317.09 32.9102L318.426 32.1719L317.09 31.4531L317.305 31.0781L318.602 31.8789L318.547 30.3555H319L318.945 31.8789L320.242 31.0781L320.457 31.4531ZM324.324 31.4531L322.988 32.1719L324.324 32.9102L324.109 33.2773L322.812 32.4844L322.867 33.9961H322.414L322.469 32.4844L321.172 33.2773L320.957 32.9102L322.293 32.1719L320.957 31.4531L321.172 31.0781L322.469 31.8789L322.414 30.3555H322.867L322.812 31.8789L324.109 31.0781L324.324 31.4531Z" fill="#7211F8"/>
    </g>
    <rect x="254.25" y="20.25" width="79.5" height="22.5" rx="7.75" stroke="#7211F8" stroke-width="0.5"/>
    <g clip-path="url(#clip1_0_1)">
        <rect x="179" y="76" width="80" height="23" rx="8" fill="#2D1351"/>
        <path d="M191.453 88.3594H189.859V89.9492H189.406V88.3594H187.812V87.9023H189.406V86.3125H189.859V87.9023H191.453V88.3594ZM195.273 85.375C194.953 85.7214 194.697 86.0625 194.504 86.3984C194.311 86.7344 194.163 87.0859 194.059 87.4531C193.954 87.8177 193.884 88.2083 193.848 88.625C193.811 89.0391 193.79 89.4974 193.785 90H193.223C193.228 89.526 193.253 89.0794 193.297 88.6602C193.344 88.2409 193.424 87.8411 193.539 87.4609C193.654 87.0781 193.81 86.7135 194.008 86.3672C194.206 86.0208 194.456 85.6849 194.758 85.3594H192.328V86.3594H191.871V84.9023H195.273V85.375ZM198.02 91.4492C197.741 91.2305 197.493 90.9818 197.277 90.7031C197.061 90.4271 196.88 90.1315 196.734 89.8164C196.589 89.5013 196.477 89.1719 196.398 88.8281C196.32 88.4844 196.281 88.1367 196.281 87.7852C196.281 87.4336 196.32 87.0872 196.398 86.7461C196.477 86.4023 196.589 86.0742 196.734 85.7617C196.88 85.4466 197.061 85.151 197.277 84.875C197.493 84.5964 197.741 84.3477 198.02 84.1289L198.301 84.4805C198.053 84.6784 197.832 84.9023 197.637 85.1523C197.444 85.4023 197.28 85.6706 197.145 85.957C197.012 86.2409 196.91 86.5378 196.84 86.8477C196.772 87.1576 196.738 87.4701 196.738 87.7852C196.738 88.1055 196.772 88.4206 196.84 88.7305C196.91 89.0378 197.012 89.3333 197.145 89.6172C197.28 89.8984 197.443 90.1654 197.633 90.418C197.826 90.6732 198.048 90.8997 198.301 91.0977L198.02 91.4492ZM199.324 86.6406C199.324 86.3568 199.371 86.1029 199.465 85.8789C199.559 85.6549 199.688 85.4648 199.852 85.3086C200.018 85.1497 200.215 85.0286 200.441 84.9453C200.668 84.8594 200.913 84.8164 201.176 84.8164C201.533 84.8164 201.835 84.8906 202.082 85.0391C202.329 85.1849 202.527 85.3802 202.676 85.625C202.827 85.8698 202.935 86.1497 203 86.4648C203.068 86.7799 203.102 87.1081 203.102 87.4492C203.102 87.7956 203.056 88.1276 202.965 88.4453C202.874 88.763 202.738 89.0443 202.559 89.2891C202.382 89.5339 202.156 89.7292 201.883 89.875C201.612 90.0182 201.298 90.0898 200.941 90.0898C200.436 90.0898 200.016 89.9128 199.68 89.5586L200.031 89.2461C200.148 89.3763 200.284 89.474 200.438 89.5391C200.594 89.6016 200.762 89.6328 200.941 89.6328C201.215 89.6328 201.454 89.5807 201.66 89.4766C201.868 89.3724 202.043 89.2279 202.184 89.043C202.327 88.8555 202.432 88.6315 202.5 88.3711C202.57 88.1081 202.605 87.819 202.605 87.5039C202.564 87.6367 202.493 87.7617 202.395 87.8789C202.296 87.9961 202.18 88.0977 202.047 88.1836C201.914 88.2695 201.768 88.3385 201.609 88.3906C201.453 88.4401 201.299 88.4648 201.148 88.4648C200.883 88.4648 200.638 88.4193 200.414 88.3281C200.19 88.237 199.997 88.112 199.836 87.9531C199.677 87.7917 199.552 87.599 199.461 87.375C199.37 87.151 199.324 86.9062 199.324 86.6406ZM199.863 86.6406C199.863 86.8333 199.892 87.0143 199.949 87.1836C200.009 87.3503 200.094 87.4948 200.203 87.6172C200.312 87.7396 200.447 87.8359 200.605 87.9062C200.767 87.974 200.948 88.0078 201.148 88.0078C201.346 88.0078 201.527 87.9766 201.691 87.9141C201.858 87.849 202 87.7591 202.117 87.6445C202.234 87.5299 202.324 87.3919 202.387 87.2305C202.452 87.0664 202.484 86.8854 202.484 86.6875C202.484 86.4948 202.457 86.3138 202.402 86.1445C202.35 85.9727 202.27 85.8216 202.16 85.6914C202.053 85.5612 201.918 85.4596 201.754 85.3867C201.592 85.3112 201.4 85.2734 201.176 85.2734C200.983 85.2734 200.806 85.306 200.645 85.3711C200.486 85.4336 200.348 85.5234 200.23 85.6406C200.113 85.7578 200.022 85.9023 199.957 86.0742C199.895 86.2435 199.863 86.4323 199.863 86.6406ZM203.191 86.6406C203.191 86.3568 203.238 86.1029 203.332 85.8789C203.426 85.6549 203.555 85.4648 203.719 85.3086C203.885 85.1497 204.082 85.0286 204.309 84.9453C204.535 84.8594 204.78 84.8164 205.043 84.8164C205.4 84.8164 205.702 84.8906 205.949 85.0391C206.197 85.1849 206.395 85.3802 206.543 85.625C206.694 85.8698 206.802 86.1497 206.867 86.4648C206.935 86.7799 206.969 87.1081 206.969 87.4492C206.969 87.7956 206.923 88.1276 206.832 88.4453C206.741 88.763 206.605 89.0443 206.426 89.2891C206.249 89.5339 206.023 89.7292 205.75 89.875C205.479 90.0182 205.165 90.0898 204.809 90.0898C204.303 90.0898 203.883 89.9128 203.547 89.5586L203.898 89.2461C204.016 89.3763 204.151 89.474 204.305 89.5391C204.461 89.6016 204.629 89.6328 204.809 89.6328C205.082 89.6328 205.322 89.5807 205.527 89.4766C205.736 89.3724 205.91 89.2279 206.051 89.043C206.194 88.8555 206.299 88.6315 206.367 88.3711C206.438 88.1081 206.473 87.819 206.473 87.5039C206.431 87.6367 206.361 87.7617 206.262 87.8789C206.163 87.9961 206.047 88.0977 205.914 88.1836C205.781 88.2695 205.635 88.3385 205.477 88.3906C205.32 88.4401 205.167 88.4648 205.016 88.4648C204.75 88.4648 204.505 88.4193 204.281 88.3281C204.057 88.237 203.865 88.112 203.703 87.9531C203.544 87.7917 203.419 87.599 203.328 87.375C203.237 87.151 203.191 86.9062 203.191 86.6406ZM203.73 86.6406C203.73 86.8333 203.759 87.0143 203.816 87.1836C203.876 87.3503 203.961 87.4948 204.07 87.6172C204.18 87.7396 204.314 87.8359 204.473 87.9062C204.634 87.974 204.815 88.0078 205.016 88.0078C205.214 88.0078 205.395 87.9766 205.559 87.9141C205.725 87.849 205.867 87.7591 205.984 87.6445C206.102 87.5299 206.191 87.3919 206.254 87.2305C206.319 87.0664 206.352 86.8854 206.352 86.6875C206.352 86.4948 206.324 86.3138 206.27 86.1445C206.217 85.9727 206.137 85.8216 206.027 85.6914C205.921 85.5612 205.785 85.4596 205.621 85.3867C205.46 85.3112 205.267 85.2734 205.043 85.2734C204.85 85.2734 204.673 85.306 204.512 85.3711C204.353 85.4336 204.215 85.5234 204.098 85.6406C203.98 85.7578 203.889 85.9023 203.824 86.0742C203.762 86.2435 203.73 86.4323 203.73 86.6406ZM207.059 86.6406C207.059 86.3568 207.105 86.1029 207.199 85.8789C207.293 85.6549 207.422 85.4648 207.586 85.3086C207.753 85.1497 207.949 85.0286 208.176 84.9453C208.402 84.8594 208.647 84.8164 208.91 84.8164C209.267 84.8164 209.569 84.8906 209.816 85.0391C210.064 85.1849 210.262 85.3802 210.41 85.625C210.561 85.8698 210.669 86.1497 210.734 86.4648C210.802 86.7799 210.836 87.1081 210.836 87.4492C210.836 87.7956 210.79 88.1276 210.699 88.4453C210.608 88.763 210.473 89.0443 210.293 89.2891C210.116 89.5339 209.891 89.7292 209.617 89.875C209.346 90.0182 209.033 90.0898 208.676 90.0898C208.171 90.0898 207.75 89.9128 207.414 89.5586L207.766 89.2461C207.883 89.3763 208.018 89.474 208.172 89.5391C208.328 89.6016 208.496 89.6328 208.676 89.6328C208.949 89.6328 209.189 89.5807 209.395 89.4766C209.603 89.3724 209.777 89.2279 209.918 89.043C210.061 88.8555 210.167 88.6315 210.234 88.3711C210.305 88.1081 210.34 87.819 210.34 87.5039C210.298 87.6367 210.228 87.7617 210.129 87.8789C210.03 87.9961 209.914 88.0977 209.781 88.1836C209.648 88.2695 209.503 88.3385 209.344 88.3906C209.188 88.4401 209.034 88.4648 208.883 88.4648C208.617 88.4648 208.372 88.4193 208.148 88.3281C207.924 88.237 207.732 88.112 207.57 87.9531C207.411 87.7917 207.286 87.599 207.195 87.375C207.104 87.151 207.059 86.9062 207.059 86.6406ZM207.598 86.6406C207.598 86.8333 207.626 87.0143 207.684 87.1836C207.743 87.3503 207.828 87.4948 207.938 87.6172C208.047 87.7396 208.181 87.8359 208.34 87.9062C208.501 87.974 208.682 88.0078 208.883 88.0078C209.081 88.0078 209.262 87.9766 209.426 87.9141C209.592 87.849 209.734 87.7591 209.852 87.6445C209.969 87.5299 210.059 87.3919 210.121 87.2305C210.186 87.0664 210.219 86.8854 210.219 86.6875C210.219 86.4948 210.191 86.3138 210.137 86.1445C210.085 85.9727 210.004 85.8216 209.895 85.6914C209.788 85.5612 209.652 85.4596 209.488 85.3867C209.327 85.3112 209.134 85.2734 208.91 85.2734C208.717 85.2734 208.54 85.306 208.379 85.3711C208.22 85.4336 208.082 85.5234 207.965 85.6406C207.848 85.7578 207.757 85.9023 207.691 86.0742C207.629 86.2435 207.598 86.4323 207.598 86.6406ZM213.938 87.793C213.938 88.1445 213.898 88.4909 213.82 88.832C213.742 89.1732 213.628 89.5013 213.477 89.8164C213.328 90.1315 213.146 90.4271 212.93 90.7031C212.716 90.9818 212.47 91.2305 212.191 91.4492L211.91 91.0977C212.158 90.8997 212.378 90.6745 212.57 90.4219C212.766 90.1719 212.931 89.9049 213.066 89.6211C213.204 89.3346 213.307 89.0378 213.375 88.7305C213.445 88.4206 213.48 88.1081 213.48 87.793C213.48 87.4779 213.445 87.1641 213.375 86.8516C213.307 86.5391 213.204 86.2409 213.066 85.957C212.931 85.6706 212.766 85.4023 212.57 85.1523C212.378 84.9023 212.158 84.6784 211.91 84.4805L212.191 84.1289C212.47 84.3477 212.716 84.5964 212.93 84.875C213.146 85.151 213.328 85.4466 213.477 85.7617C213.628 86.0742 213.742 86.4036 213.82 86.75C213.898 87.0938 213.938 87.4414 213.938 87.793ZM218.387 87.4531L217.051 88.1719L218.387 88.9102L218.172 89.2773L216.875 88.4844L216.93 89.9961H216.477L216.531 88.4844L215.234 89.2773L215.02 88.9102L216.355 88.1719L215.02 87.4531L215.234 87.0781L216.531 87.8789L216.477 86.3555H216.93L216.875 87.8789L218.172 87.0781L218.387 87.4531ZM222.254 87.4531L220.918 88.1719L222.254 88.9102L222.039 89.2773L220.742 88.4844L220.797 89.9961H220.344L220.398 88.4844L219.102 89.2773L218.887 88.9102L220.223 88.1719L218.887 87.4531L219.102 87.0781L220.398 87.8789L220.344 86.3555H220.797L220.742 87.8789L222.039 87.0781L222.254 87.4531ZM226.121 87.4531L224.785 88.1719L226.121 88.9102L225.906 89.2773L224.609 88.4844L224.664 89.9961H224.211L224.266 88.4844L222.969 89.2773L222.754 88.9102L224.09 88.1719L222.754 87.4531L222.969 87.0781L224.266 87.8789L224.211 86.3555H224.664L224.609 87.8789L225.906 87.0781L226.121 87.4531ZM230.125 88.3594H226.484V87.9023H230.125V88.3594ZM233.855 87.4531L232.52 88.1719L233.855 88.9102L233.641 89.2773L232.344 88.4844L232.398 89.9961H231.945L232 88.4844L230.703 89.2773L230.488 88.9102L231.824 88.1719L230.488 87.4531L230.703 87.0781L232 87.8789L231.945 86.3555H232.398L232.344 87.8789L233.641 87.0781L233.855 87.4531ZM237.723 87.4531L236.387 88.1719L237.723 88.9102L237.508 89.2773L236.211 88.4844L236.266 89.9961H235.812L235.867 88.4844L234.57 89.2773L234.355 88.9102L235.691 88.1719L234.355 87.4531L234.57 87.0781L235.867 87.8789L235.812 86.3555H236.266L236.211 87.8789L237.508 87.0781L237.723 87.4531ZM241.727 88.3594H238.086V87.9023H241.727V88.3594ZM245.457 87.4531L244.121 88.1719L245.457 88.9102L245.242 89.2773L243.945 88.4844L244 89.9961H243.547L243.602 88.4844L242.305 89.2773L242.09 88.9102L243.426 88.1719L242.09 87.4531L242.305 87.0781L243.602 87.8789L243.547 86.3555H244L243.945 87.8789L245.242 87.0781L245.457 87.4531ZM249.324 87.4531L247.988 88.1719L249.324 88.9102L249.109 89.2773L247.812 88.4844L247.867 89.9961H247.414L247.469 88.4844L246.172 89.2773L245.957 88.9102L247.293 88.1719L245.957 87.4531L246.172 87.0781L247.469 87.8789L247.414 86.3555H247.867L247.812 87.8789L249.109 87.0781L249.324 87.4531Z" fill="#7211F8"/>
    </g>
    <rect x="179.25" y="76.25" width="79.5" height="22.5" rx="7.75" stroke="#7211F8" stroke-width="0.5"/>
    <g clip-path="url(#clip2_0_1)">
        <rect x="26" y="55" width="80" height="23" rx="8" fill="#2D1351"/>
        <path d="M38.4531 67.3594H36.8594V68.9492H36.4062V67.3594H34.8125V66.9023H36.4062V65.3125H36.8594V66.9023H38.4531V67.3594ZM42.2734 64.375C41.9531 64.7214 41.6966 65.0625 41.5039 65.3984C41.3112 65.7344 41.1628 66.0859 41.0586 66.4531C40.9544 66.8177 40.8841 67.2083 40.8477 67.625C40.8112 68.0391 40.7904 68.4974 40.7852 69H40.2227C40.2279 68.526 40.2526 68.0794 40.2969 67.6602C40.3438 67.2409 40.4245 66.8411 40.5391 66.4609C40.6536 66.0781 40.8099 65.7135 41.0078 65.3672C41.2057 65.0208 41.4557 64.6849 41.7578 64.3594H39.3281V65.3594H38.8711V63.9023H42.2734V64.375ZM45.0195 70.4492C44.7409 70.2305 44.4935 69.9818 44.2773 69.7031C44.0612 69.4271 43.8802 69.1315 43.7344 68.8164C43.5885 68.5013 43.4766 68.1719 43.3984 67.8281C43.3203 67.4844 43.2812 67.1367 43.2812 66.7852C43.2812 66.4336 43.3203 66.0872 43.3984 65.7461C43.4766 65.4023 43.5885 65.0742 43.7344 64.7617C43.8802 64.4466 44.0612 64.151 44.2773 63.875C44.4935 63.5964 44.7409 63.3477 45.0195 63.1289L45.3008 63.4805C45.0534 63.6784 44.832 63.9023 44.6367 64.1523C44.444 64.4023 44.2799 64.6706 44.1445 64.957C44.0117 65.2409 43.9102 65.5378 43.8398 65.8477C43.7721 66.1576 43.7383 66.4701 43.7383 66.7852C43.7383 67.1055 43.7721 67.4206 43.8398 67.7305C43.9102 68.0378 44.0117 68.3333 44.1445 68.6172C44.2799 68.8984 44.4427 69.1654 44.6328 69.418C44.8255 69.6732 45.0482 69.8997 45.3008 70.0977L45.0195 70.4492ZM46.3242 65.6406C46.3242 65.3568 46.3711 65.1029 46.4648 64.8789C46.5586 64.6549 46.6875 64.4648 46.8516 64.3086C47.0182 64.1497 47.2148 64.0286 47.4414 63.9453C47.668 63.8594 47.9128 63.8164 48.1758 63.8164C48.5326 63.8164 48.8346 63.8906 49.082 64.0391C49.3294 64.1849 49.5273 64.3802 49.6758 64.625C49.8268 64.8698 49.9349 65.1497 50 65.4648C50.0677 65.7799 50.1016 66.1081 50.1016 66.4492C50.1016 66.7956 50.056 67.1276 49.9648 67.4453C49.8737 67.763 49.7383 68.0443 49.5586 68.2891C49.3815 68.5339 49.1562 68.7292 48.8828 68.875C48.612 69.0182 48.2982 69.0898 47.9414 69.0898C47.4362 69.0898 47.0156 68.9128 46.6797 68.5586L47.0312 68.2461C47.1484 68.3763 47.2839 68.474 47.4375 68.5391C47.5938 68.6016 47.7617 68.6328 47.9414 68.6328C48.2148 68.6328 48.4544 68.5807 48.6602 68.4766C48.8685 68.3724 49.043 68.2279 49.1836 68.043C49.3268 67.8555 49.4323 67.6315 49.5 67.3711C49.5703 67.1081 49.6055 66.819 49.6055 66.5039C49.5638 66.6367 49.4935 66.7617 49.3945 66.8789C49.2956 66.9961 49.1797 67.0977 49.0469 67.1836C48.9141 67.2695 48.7682 67.3385 48.6094 67.3906C48.4531 67.4401 48.2995 67.4648 48.1484 67.4648C47.8828 67.4648 47.638 67.4193 47.4141 67.3281C47.1901 67.237 46.9974 67.112 46.8359 66.9531C46.6771 66.7917 46.5521 66.599 46.4609 66.375C46.3698 66.151 46.3242 65.9062 46.3242 65.6406ZM46.8633 65.6406C46.8633 65.8333 46.8919 66.0143 46.9492 66.1836C47.0091 66.3503 47.0938 66.4948 47.2031 66.6172C47.3125 66.7396 47.4466 66.8359 47.6055 66.9062C47.7669 66.974 47.9479 67.0078 48.1484 67.0078C48.3464 67.0078 48.5273 66.9766 48.6914 66.9141C48.8581 66.849 49 66.7591 49.1172 66.6445C49.2344 66.5299 49.3242 66.3919 49.3867 66.2305C49.4518 66.0664 49.4844 65.8854 49.4844 65.6875C49.4844 65.4948 49.457 65.3138 49.4023 65.1445C49.3503 64.9727 49.2695 64.8216 49.1602 64.6914C49.0534 64.5612 48.918 64.4596 48.7539 64.3867C48.5924 64.3112 48.3997 64.2734 48.1758 64.2734C47.9831 64.2734 47.806 64.306 47.6445 64.3711C47.4857 64.4336 47.3477 64.5234 47.2305 64.6406C47.1133 64.7578 47.0221 64.9023 46.957 65.0742C46.8945 65.2435 46.8633 65.4323 46.8633 65.6406ZM50.1914 65.6406C50.1914 65.3568 50.2383 65.1029 50.332 64.8789C50.4258 64.6549 50.5547 64.4648 50.7188 64.3086C50.8854 64.1497 51.082 64.0286 51.3086 63.9453C51.5352 63.8594 51.7799 63.8164 52.043 63.8164C52.3997 63.8164 52.7018 63.8906 52.9492 64.0391C53.1966 64.1849 53.3945 64.3802 53.543 64.625C53.694 64.8698 53.8021 65.1497 53.8672 65.4648C53.9349 65.7799 53.9688 66.1081 53.9688 66.4492C53.9688 66.7956 53.9232 67.1276 53.832 67.4453C53.7409 67.763 53.6055 68.0443 53.4258 68.2891C53.2487 68.5339 53.0234 68.7292 52.75 68.875C52.4792 69.0182 52.1654 69.0898 51.8086 69.0898C51.3034 69.0898 50.8828 68.9128 50.5469 68.5586L50.8984 68.2461C51.0156 68.3763 51.151 68.474 51.3047 68.5391C51.4609 68.6016 51.6289 68.6328 51.8086 68.6328C52.082 68.6328 52.3216 68.5807 52.5273 68.4766C52.7357 68.3724 52.9102 68.2279 53.0508 68.043C53.194 67.8555 53.2995 67.6315 53.3672 67.3711C53.4375 67.1081 53.4727 66.819 53.4727 66.5039C53.431 66.6367 53.3607 66.7617 53.2617 66.8789C53.1628 66.9961 53.0469 67.0977 52.9141 67.1836C52.7812 67.2695 52.6354 67.3385 52.4766 67.3906C52.3203 67.4401 52.1667 67.4648 52.0156 67.4648C51.75 67.4648 51.5052 67.4193 51.2812 67.3281C51.0573 67.237 50.8646 67.112 50.7031 66.9531C50.5443 66.7917 50.4193 66.599 50.3281 66.375C50.237 66.151 50.1914 65.9062 50.1914 65.6406ZM50.7305 65.6406C50.7305 65.8333 50.7591 66.0143 50.8164 66.1836C50.8763 66.3503 50.9609 66.4948 51.0703 66.6172C51.1797 66.7396 51.3138 66.8359 51.4727 66.9062C51.6341 66.974 51.8151 67.0078 52.0156 67.0078C52.2135 67.0078 52.3945 66.9766 52.5586 66.9141C52.7253 66.849 52.8672 66.7591 52.9844 66.6445C53.1016 66.5299 53.1914 66.3919 53.2539 66.2305C53.319 66.0664 53.3516 65.8854 53.3516 65.6875C53.3516 65.4948 53.3242 65.3138 53.2695 65.1445C53.2174 64.9727 53.1367 64.8216 53.0273 64.6914C52.9206 64.5612 52.7852 64.4596 52.6211 64.3867C52.4596 64.3112 52.2669 64.2734 52.043 64.2734C51.8503 64.2734 51.6732 64.306 51.5117 64.3711C51.3529 64.4336 51.2148 64.5234 51.0977 64.6406C50.9805 64.7578 50.8893 64.9023 50.8242 65.0742C50.7617 65.2435 50.7305 65.4323 50.7305 65.6406ZM54.0586 65.6406C54.0586 65.3568 54.1055 65.1029 54.1992 64.8789C54.293 64.6549 54.4219 64.4648 54.5859 64.3086C54.7526 64.1497 54.9492 64.0286 55.1758 63.9453C55.4023 63.8594 55.6471 63.8164 55.9102 63.8164C56.2669 63.8164 56.569 63.8906 56.8164 64.0391C57.0638 64.1849 57.2617 64.3802 57.4102 64.625C57.5612 64.8698 57.6693 65.1497 57.7344 65.4648C57.8021 65.7799 57.8359 66.1081 57.8359 66.4492C57.8359 66.7956 57.7904 67.1276 57.6992 67.4453C57.6081 67.763 57.4727 68.0443 57.293 68.2891C57.1159 68.5339 56.8906 68.7292 56.6172 68.875C56.3464 69.0182 56.0326 69.0898 55.6758 69.0898C55.1706 69.0898 54.75 68.9128 54.4141 68.5586L54.7656 68.2461C54.8828 68.3763 55.0182 68.474 55.1719 68.5391C55.3281 68.6016 55.4961 68.6328 55.6758 68.6328C55.9492 68.6328 56.1888 68.5807 56.3945 68.4766C56.6029 68.3724 56.7773 68.2279 56.918 68.043C57.0612 67.8555 57.1667 67.6315 57.2344 67.3711C57.3047 67.1081 57.3398 66.819 57.3398 66.5039C57.2982 66.6367 57.2279 66.7617 57.1289 66.8789C57.0299 66.9961 56.9141 67.0977 56.7812 67.1836C56.6484 67.2695 56.5026 67.3385 56.3438 67.3906C56.1875 67.4401 56.0339 67.4648 55.8828 67.4648C55.6172 67.4648 55.3724 67.4193 55.1484 67.3281C54.9245 67.237 54.7318 67.112 54.5703 66.9531C54.4115 66.7917 54.2865 66.599 54.1953 66.375C54.1042 66.151 54.0586 65.9062 54.0586 65.6406ZM54.5977 65.6406C54.5977 65.8333 54.6263 66.0143 54.6836 66.1836C54.7435 66.3503 54.8281 66.4948 54.9375 66.6172C55.0469 66.7396 55.181 66.8359 55.3398 66.9062C55.5013 66.974 55.6823 67.0078 55.8828 67.0078C56.0807 67.0078 56.2617 66.9766 56.4258 66.9141C56.5924 66.849 56.7344 66.7591 56.8516 66.6445C56.9688 66.5299 57.0586 66.3919 57.1211 66.2305C57.1862 66.0664 57.2188 65.8854 57.2188 65.6875C57.2188 65.4948 57.1914 65.3138 57.1367 65.1445C57.0846 64.9727 57.0039 64.8216 56.8945 64.6914C56.7878 64.5612 56.6523 64.4596 56.4883 64.3867C56.3268 64.3112 56.1341 64.2734 55.9102 64.2734C55.7174 64.2734 55.5404 64.306 55.3789 64.3711C55.2201 64.4336 55.082 64.5234 54.9648 64.6406C54.8477 64.7578 54.7565 64.9023 54.6914 65.0742C54.6289 65.2435 54.5977 65.4323 54.5977 65.6406ZM60.9375 66.793C60.9375 67.1445 60.8984 67.4909 60.8203 67.832C60.7422 68.1732 60.6276 68.5013 60.4766 68.8164C60.3281 69.1315 60.1458 69.4271 59.9297 69.7031C59.7161 69.9818 59.4701 70.2305 59.1914 70.4492L58.9102 70.0977C59.1576 69.8997 59.3776 69.6745 59.5703 69.4219C59.7656 69.1719 59.931 68.9049 60.0664 68.6211C60.2044 68.3346 60.3073 68.0378 60.375 67.7305C60.4453 67.4206 60.4805 67.1081 60.4805 66.793C60.4805 66.4779 60.4453 66.1641 60.375 65.8516C60.3073 65.5391 60.2044 65.2409 60.0664 64.957C59.931 64.6706 59.7656 64.4023 59.5703 64.1523C59.3776 63.9023 59.1576 63.6784 58.9102 63.4805L59.1914 63.1289C59.4701 63.3477 59.7161 63.5964 59.9297 63.875C60.1458 64.151 60.3281 64.4466 60.4766 64.7617C60.6276 65.0742 60.7422 65.4036 60.8203 65.75C60.8984 66.0938 60.9375 66.4414 60.9375 66.793ZM65.3867 66.4531L64.0508 67.1719L65.3867 67.9102L65.1719 68.2773L63.875 67.4844L63.9297 68.9961H63.4766L63.5312 67.4844L62.2344 68.2773L62.0195 67.9102L63.3555 67.1719L62.0195 66.4531L62.2344 66.0781L63.5312 66.8789L63.4766 65.3555H63.9297L63.875 66.8789L65.1719 66.0781L65.3867 66.4531ZM69.2539 66.4531L67.918 67.1719L69.2539 67.9102L69.0391 68.2773L67.7422 67.4844L67.7969 68.9961H67.3438L67.3984 67.4844L66.1016 68.2773L65.8867 67.9102L67.2227 67.1719L65.8867 66.4531L66.1016 66.0781L67.3984 66.8789L67.3438 65.3555H67.7969L67.7422 66.8789L69.0391 66.0781L69.2539 66.4531ZM73.1211 66.4531L71.7852 67.1719L73.1211 67.9102L72.9062 68.2773L71.6094 67.4844L71.6641 68.9961H71.2109L71.2656 67.4844L69.9688 68.2773L69.7539 67.9102L71.0898 67.1719L69.7539 66.4531L69.9688 66.0781L71.2656 66.8789L71.2109 65.3555H71.6641L71.6094 66.8789L72.9062 66.0781L73.1211 66.4531ZM77.125 67.3594H73.4844V66.9023H77.125V67.3594ZM80.8555 66.4531L79.5195 67.1719L80.8555 67.9102L80.6406 68.2773L79.3438 67.4844L79.3984 68.9961H78.9453L79 67.4844L77.7031 68.2773L77.4883 67.9102L78.8242 67.1719L77.4883 66.4531L77.7031 66.0781L79 66.8789L78.9453 65.3555H79.3984L79.3438 66.8789L80.6406 66.0781L80.8555 66.4531ZM84.7227 66.4531L83.3867 67.1719L84.7227 67.9102L84.5078 68.2773L83.2109 67.4844L83.2656 68.9961H82.8125L82.8672 67.4844L81.5703 68.2773L81.3555 67.9102L82.6914 67.1719L81.3555 66.4531L81.5703 66.0781L82.8672 66.8789L82.8125 65.3555H83.2656L83.2109 66.8789L84.5078 66.0781L84.7227 66.4531ZM88.7266 67.3594H85.0859V66.9023H88.7266V67.3594ZM92.457 66.4531L91.1211 67.1719L92.457 67.9102L92.2422 68.2773L90.9453 67.4844L91 68.9961H90.5469L90.6016 67.4844L89.3047 68.2773L89.0898 67.9102L90.4258 67.1719L89.0898 66.4531L89.3047 66.0781L90.6016 66.8789L90.5469 65.3555H91L90.9453 66.8789L92.2422 66.0781L92.457 66.4531ZM96.3242 66.4531L94.9883 67.1719L96.3242 67.9102L96.1094 68.2773L94.8125 67.4844L94.8672 68.9961H94.4141L94.4688 67.4844L93.1719 68.2773L92.957 67.9102L94.293 67.1719L92.957 66.4531L93.1719 66.0781L94.4688 66.8789L94.4141 65.3555H94.8672L94.8125 66.8789L96.1094 66.0781L96.3242 66.4531Z" fill="#7211F8"/>
    </g>
    <rect x="26.25" y="55.25" width="79.5" height="22.5" rx="7.75" stroke="#7211F8" stroke-width="0.5"/>
    <g clip-path="url(#clip3_0_1)">
        <rect x="56" y="50" width="21" height="10" rx="5" fill="#3C4819"/>
        <path d="M61.8857 53.3188L60.0156 57.0859L59.7764 56.959L61.6465 53.1943L61.8857 53.3188ZM64.6152 53.3188L62.7451 57.0859L62.5059 56.959L64.376 53.1943L64.6152 53.3188ZM67.291 54.2246V56.5H66.9541V54.5103H65.9263V55.9946C65.9263 56.0841 65.9108 56.1639 65.8799 56.2339C65.8506 56.3039 65.8107 56.3625 65.7603 56.4097C65.7098 56.4569 65.6512 56.4927 65.5845 56.5171C65.5177 56.5431 65.4478 56.5562 65.3745 56.5562C65.2378 56.5562 65.1377 56.5358 65.0742 56.4951L65.1401 56.229C65.1629 56.2437 65.1882 56.2542 65.2158 56.2607C65.2451 56.2673 65.2834 56.2705 65.3306 56.2705C65.5031 56.2705 65.5894 56.1785 65.5894 55.9946V54.2246H67.291ZM67.9844 54.2246H68.3188V56.0605L69.5493 54.2246H70.0205V56.5H69.6836V54.5811L68.3994 56.5H67.9844V54.2246ZM70.5942 56.2144C70.6707 56.1981 70.744 56.1541 70.814 56.0825C70.884 56.0109 70.945 55.9116 70.9971 55.7847C71.0492 55.6577 71.0907 55.5039 71.1216 55.3232C71.1541 55.141 71.1704 54.9318 71.1704 54.6958V54.2246H72.4131V56.2144H72.8696V57.2788H72.5693V56.5H70.8945V57.2788H70.5942V56.2144ZM71.5049 54.6958C71.5049 54.8846 71.491 55.062 71.4634 55.228C71.4373 55.3924 71.4023 55.5397 71.3584 55.6699C71.3161 55.8001 71.2673 55.9124 71.2119 56.0068C71.1566 56.0996 71.1021 56.1688 71.0483 56.2144H72.0786V54.5103H71.5049V54.6958Z" fill="#BEF811"/>
    </g>
    <rect x="56.25" y="50.25" width="20.5" height="9.5" rx="4.75" stroke="#BEF811" stroke-width="0.5"/>
    <g clip-path="url(#clip4_0_1)">
        <rect x="116" y="113" width="80" height="23" rx="8" fill="#2D1351"/>
        <path d="M128.453 125.359H126.859V126.949H126.406V125.359H124.812V124.902H126.406V123.312H126.859V124.902H128.453V125.359ZM132.273 122.375C131.953 122.721 131.697 123.062 131.504 123.398C131.311 123.734 131.163 124.086 131.059 124.453C130.954 124.818 130.884 125.208 130.848 125.625C130.811 126.039 130.79 126.497 130.785 127H130.223C130.228 126.526 130.253 126.079 130.297 125.66C130.344 125.241 130.424 124.841 130.539 124.461C130.654 124.078 130.81 123.714 131.008 123.367C131.206 123.021 131.456 122.685 131.758 122.359H129.328V123.359H128.871V121.902H132.273V122.375ZM135.02 128.449C134.741 128.23 134.493 127.982 134.277 127.703C134.061 127.427 133.88 127.132 133.734 126.816C133.589 126.501 133.477 126.172 133.398 125.828C133.32 125.484 133.281 125.137 133.281 124.785C133.281 124.434 133.32 124.087 133.398 123.746C133.477 123.402 133.589 123.074 133.734 122.762C133.88 122.447 134.061 122.151 134.277 121.875C134.493 121.596 134.741 121.348 135.02 121.129L135.301 121.48C135.053 121.678 134.832 121.902 134.637 122.152C134.444 122.402 134.28 122.671 134.145 122.957C134.012 123.241 133.91 123.538 133.84 123.848C133.772 124.158 133.738 124.47 133.738 124.785C133.738 125.105 133.772 125.421 133.84 125.73C133.91 126.038 134.012 126.333 134.145 126.617C134.28 126.898 134.443 127.165 134.633 127.418C134.826 127.673 135.048 127.9 135.301 128.098L135.02 128.449ZM136.324 123.641C136.324 123.357 136.371 123.103 136.465 122.879C136.559 122.655 136.688 122.465 136.852 122.309C137.018 122.15 137.215 122.029 137.441 121.945C137.668 121.859 137.913 121.816 138.176 121.816C138.533 121.816 138.835 121.891 139.082 122.039C139.329 122.185 139.527 122.38 139.676 122.625C139.827 122.87 139.935 123.15 140 123.465C140.068 123.78 140.102 124.108 140.102 124.449C140.102 124.796 140.056 125.128 139.965 125.445C139.874 125.763 139.738 126.044 139.559 126.289C139.382 126.534 139.156 126.729 138.883 126.875C138.612 127.018 138.298 127.09 137.941 127.09C137.436 127.09 137.016 126.913 136.68 126.559L137.031 126.246C137.148 126.376 137.284 126.474 137.438 126.539C137.594 126.602 137.762 126.633 137.941 126.633C138.215 126.633 138.454 126.581 138.66 126.477C138.868 126.372 139.043 126.228 139.184 126.043C139.327 125.855 139.432 125.632 139.5 125.371C139.57 125.108 139.605 124.819 139.605 124.504C139.564 124.637 139.493 124.762 139.395 124.879C139.296 124.996 139.18 125.098 139.047 125.184C138.914 125.27 138.768 125.339 138.609 125.391C138.453 125.44 138.299 125.465 138.148 125.465C137.883 125.465 137.638 125.419 137.414 125.328C137.19 125.237 136.997 125.112 136.836 124.953C136.677 124.792 136.552 124.599 136.461 124.375C136.37 124.151 136.324 123.906 136.324 123.641ZM136.863 123.641C136.863 123.833 136.892 124.014 136.949 124.184C137.009 124.35 137.094 124.495 137.203 124.617C137.312 124.74 137.447 124.836 137.605 124.906C137.767 124.974 137.948 125.008 138.148 125.008C138.346 125.008 138.527 124.977 138.691 124.914C138.858 124.849 139 124.759 139.117 124.645C139.234 124.53 139.324 124.392 139.387 124.23C139.452 124.066 139.484 123.885 139.484 123.688C139.484 123.495 139.457 123.314 139.402 123.145C139.35 122.973 139.27 122.822 139.16 122.691C139.053 122.561 138.918 122.46 138.754 122.387C138.592 122.311 138.4 122.273 138.176 122.273C137.983 122.273 137.806 122.306 137.645 122.371C137.486 122.434 137.348 122.523 137.23 122.641C137.113 122.758 137.022 122.902 136.957 123.074C136.895 123.243 136.863 123.432 136.863 123.641ZM140.191 123.641C140.191 123.357 140.238 123.103 140.332 122.879C140.426 122.655 140.555 122.465 140.719 122.309C140.885 122.15 141.082 122.029 141.309 121.945C141.535 121.859 141.78 121.816 142.043 121.816C142.4 121.816 142.702 121.891 142.949 122.039C143.197 122.185 143.395 122.38 143.543 122.625C143.694 122.87 143.802 123.15 143.867 123.465C143.935 123.78 143.969 124.108 143.969 124.449C143.969 124.796 143.923 125.128 143.832 125.445C143.741 125.763 143.605 126.044 143.426 126.289C143.249 126.534 143.023 126.729 142.75 126.875C142.479 127.018 142.165 127.09 141.809 127.09C141.303 127.09 140.883 126.913 140.547 126.559L140.898 126.246C141.016 126.376 141.151 126.474 141.305 126.539C141.461 126.602 141.629 126.633 141.809 126.633C142.082 126.633 142.322 126.581 142.527 126.477C142.736 126.372 142.91 126.228 143.051 126.043C143.194 125.855 143.299 125.632 143.367 125.371C143.438 125.108 143.473 124.819 143.473 124.504C143.431 124.637 143.361 124.762 143.262 124.879C143.163 124.996 143.047 125.098 142.914 125.184C142.781 125.27 142.635 125.339 142.477 125.391C142.32 125.44 142.167 125.465 142.016 125.465C141.75 125.465 141.505 125.419 141.281 125.328C141.057 125.237 140.865 125.112 140.703 124.953C140.544 124.792 140.419 124.599 140.328 124.375C140.237 124.151 140.191 123.906 140.191 123.641ZM140.73 123.641C140.73 123.833 140.759 124.014 140.816 124.184C140.876 124.35 140.961 124.495 141.07 124.617C141.18 124.74 141.314 124.836 141.473 124.906C141.634 124.974 141.815 125.008 142.016 125.008C142.214 125.008 142.395 124.977 142.559 124.914C142.725 124.849 142.867 124.759 142.984 124.645C143.102 124.53 143.191 124.392 143.254 124.23C143.319 124.066 143.352 123.885 143.352 123.688C143.352 123.495 143.324 123.314 143.27 123.145C143.217 122.973 143.137 122.822 143.027 122.691C142.921 122.561 142.785 122.46 142.621 122.387C142.46 122.311 142.267 122.273 142.043 122.273C141.85 122.273 141.673 122.306 141.512 122.371C141.353 122.434 141.215 122.523 141.098 122.641C140.98 122.758 140.889 122.902 140.824 123.074C140.762 123.243 140.73 123.432 140.73 123.641ZM144.059 123.641C144.059 123.357 144.105 123.103 144.199 122.879C144.293 122.655 144.422 122.465 144.586 122.309C144.753 122.15 144.949 122.029 145.176 121.945C145.402 121.859 145.647 121.816 145.91 121.816C146.267 121.816 146.569 121.891 146.816 122.039C147.064 122.185 147.262 122.38 147.41 122.625C147.561 122.87 147.669 123.15 147.734 123.465C147.802 123.78 147.836 124.108 147.836 124.449C147.836 124.796 147.79 125.128 147.699 125.445C147.608 125.763 147.473 126.044 147.293 126.289C147.116 126.534 146.891 126.729 146.617 126.875C146.346 127.018 146.033 127.09 145.676 127.09C145.171 127.09 144.75 126.913 144.414 126.559L144.766 126.246C144.883 126.376 145.018 126.474 145.172 126.539C145.328 126.602 145.496 126.633 145.676 126.633C145.949 126.633 146.189 126.581 146.395 126.477C146.603 126.372 146.777 126.228 146.918 126.043C147.061 125.855 147.167 125.632 147.234 125.371C147.305 125.108 147.34 124.819 147.34 124.504C147.298 124.637 147.228 124.762 147.129 124.879C147.03 124.996 146.914 125.098 146.781 125.184C146.648 125.27 146.503 125.339 146.344 125.391C146.188 125.44 146.034 125.465 145.883 125.465C145.617 125.465 145.372 125.419 145.148 125.328C144.924 125.237 144.732 125.112 144.57 124.953C144.411 124.792 144.286 124.599 144.195 124.375C144.104 124.151 144.059 123.906 144.059 123.641ZM144.598 123.641C144.598 123.833 144.626 124.014 144.684 124.184C144.743 124.35 144.828 124.495 144.938 124.617C145.047 124.74 145.181 124.836 145.34 124.906C145.501 124.974 145.682 125.008 145.883 125.008C146.081 125.008 146.262 124.977 146.426 124.914C146.592 124.849 146.734 124.759 146.852 124.645C146.969 124.53 147.059 124.392 147.121 124.23C147.186 124.066 147.219 123.885 147.219 123.688C147.219 123.495 147.191 123.314 147.137 123.145C147.085 122.973 147.004 122.822 146.895 122.691C146.788 122.561 146.652 122.46 146.488 122.387C146.327 122.311 146.134 122.273 145.91 122.273C145.717 122.273 145.54 122.306 145.379 122.371C145.22 122.434 145.082 122.523 144.965 122.641C144.848 122.758 144.757 122.902 144.691 123.074C144.629 123.243 144.598 123.432 144.598 123.641ZM150.938 124.793C150.938 125.145 150.898 125.491 150.82 125.832C150.742 126.173 150.628 126.501 150.477 126.816C150.328 127.132 150.146 127.427 149.93 127.703C149.716 127.982 149.47 128.23 149.191 128.449L148.91 128.098C149.158 127.9 149.378 127.674 149.57 127.422C149.766 127.172 149.931 126.905 150.066 126.621C150.204 126.335 150.307 126.038 150.375 125.73C150.445 125.421 150.48 125.108 150.48 124.793C150.48 124.478 150.445 124.164 150.375 123.852C150.307 123.539 150.204 123.241 150.066 122.957C149.931 122.671 149.766 122.402 149.57 122.152C149.378 121.902 149.158 121.678 148.91 121.48L149.191 121.129C149.47 121.348 149.716 121.596 149.93 121.875C150.146 122.151 150.328 122.447 150.477 122.762C150.628 123.074 150.742 123.404 150.82 123.75C150.898 124.094 150.938 124.441 150.938 124.793ZM155.387 124.453L154.051 125.172L155.387 125.91L155.172 126.277L153.875 125.484L153.93 126.996H153.477L153.531 125.484L152.234 126.277L152.02 125.91L153.355 125.172L152.02 124.453L152.234 124.078L153.531 124.879L153.477 123.355H153.93L153.875 124.879L155.172 124.078L155.387 124.453ZM159.254 124.453L157.918 125.172L159.254 125.91L159.039 126.277L157.742 125.484L157.797 126.996H157.344L157.398 125.484L156.102 126.277L155.887 125.91L157.223 125.172L155.887 124.453L156.102 124.078L157.398 124.879L157.344 123.355H157.797L157.742 124.879L159.039 124.078L159.254 124.453ZM163.121 124.453L161.785 125.172L163.121 125.91L162.906 126.277L161.609 125.484L161.664 126.996H161.211L161.266 125.484L159.969 126.277L159.754 125.91L161.09 125.172L159.754 124.453L159.969 124.078L161.266 124.879L161.211 123.355H161.664L161.609 124.879L162.906 124.078L163.121 124.453ZM167.125 125.359H163.484V124.902H167.125V125.359ZM170.855 124.453L169.52 125.172L170.855 125.91L170.641 126.277L169.344 125.484L169.398 126.996H168.945L169 125.484L167.703 126.277L167.488 125.91L168.824 125.172L167.488 124.453L167.703 124.078L169 124.879L168.945 123.355H169.398L169.344 124.879L170.641 124.078L170.855 124.453ZM174.723 124.453L173.387 125.172L174.723 125.91L174.508 126.277L173.211 125.484L173.266 126.996H172.812L172.867 125.484L171.57 126.277L171.355 125.91L172.691 125.172L171.355 124.453L171.57 124.078L172.867 124.879L172.812 123.355H173.266L173.211 124.879L174.508 124.078L174.723 124.453ZM178.727 125.359H175.086V124.902H178.727V125.359ZM182.457 124.453L181.121 125.172L182.457 125.91L182.242 126.277L180.945 125.484L181 126.996H180.547L180.602 125.484L179.305 126.277L179.09 125.91L180.426 125.172L179.09 124.453L179.305 124.078L180.602 124.879L180.547 123.355H181L180.945 124.879L182.242 124.078L182.457 124.453ZM186.324 124.453L184.988 125.172L186.324 125.91L186.109 126.277L184.812 125.484L184.867 126.996H184.414L184.469 125.484L183.172 126.277L182.957 125.91L184.293 125.172L182.957 124.453L183.172 124.078L184.469 124.879L184.414 123.355H184.867L184.812 124.879L186.109 124.078L186.324 124.453Z" fill="#7211F8"/>
    </g>
    <rect x="116.25" y="113.25" width="79.5" height="22.5" rx="7.75" stroke="#7211F8" stroke-width="0.5"/>
    <g clip-path="url(#clip5_0_1)">
        <rect x="146" y="108" width="21" height="10" rx="5" fill="#3C4819"/>
        <path d="M151.886 111.319L150.016 115.086L149.776 114.959L151.646 111.194L151.886 111.319ZM154.615 111.319L152.745 115.086L152.506 114.959L154.376 111.194L154.615 111.319ZM157.291 112.225V114.5H156.954V112.51H155.926V113.995C155.926 114.084 155.911 114.164 155.88 114.234C155.851 114.304 155.811 114.362 155.76 114.41C155.71 114.457 155.651 114.493 155.584 114.517C155.518 114.543 155.448 114.556 155.375 114.556C155.238 114.556 155.138 114.536 155.074 114.495L155.14 114.229C155.163 114.244 155.188 114.254 155.216 114.261C155.245 114.267 155.283 114.271 155.331 114.271C155.503 114.271 155.589 114.179 155.589 113.995V112.225H157.291ZM157.984 112.225H158.319V114.061L159.549 112.225H160.021V114.5H159.684V112.581L158.399 114.5H157.984V112.225ZM160.594 114.214C160.671 114.198 160.744 114.154 160.814 114.083C160.884 114.011 160.945 113.912 160.997 113.785C161.049 113.658 161.091 113.504 161.122 113.323C161.154 113.141 161.17 112.932 161.17 112.696V112.225H162.413V114.214H162.87V115.279H162.569V114.5H160.895V115.279H160.594V114.214ZM161.505 112.696C161.505 112.885 161.491 113.062 161.463 113.228C161.437 113.392 161.402 113.54 161.358 113.67C161.316 113.8 161.267 113.912 161.212 114.007C161.157 114.1 161.102 114.169 161.048 114.214H162.079V112.51H161.505V112.696Z" fill="#BEF811"/>
    </g>
    <rect x="146.25" y="108.25" width="20.5" height="9.5" rx="4.75" stroke="#BEF811" stroke-width="0.5"/>
    <g clip-path="url(#clip6_0_1)">
        <rect x="209" y="71" width="21" height="10" rx="5" fill="#3C4819"/>
        <path d="M214.886 74.3188L213.016 78.0859L212.776 77.959L214.646 74.1943L214.886 74.3188ZM217.615 74.3188L215.745 78.0859L215.506 77.959L217.376 74.1943L217.615 74.3188ZM220.291 75.2246V77.5H219.954V75.5103H218.926V76.9946C218.926 77.0841 218.911 77.1639 218.88 77.2339C218.851 77.3039 218.811 77.3625 218.76 77.4097C218.71 77.4569 218.651 77.4927 218.584 77.5171C218.518 77.5431 218.448 77.5562 218.375 77.5562C218.238 77.5562 218.138 77.5358 218.074 77.4951L218.14 77.229C218.163 77.2437 218.188 77.2542 218.216 77.2607C218.245 77.2673 218.283 77.2705 218.331 77.2705C218.503 77.2705 218.589 77.1785 218.589 76.9946V75.2246H220.291ZM220.984 75.2246H221.319V77.0605L222.549 75.2246H223.021V77.5H222.684V75.5811L221.399 77.5H220.984V75.2246ZM223.594 77.2144C223.671 77.1981 223.744 77.1541 223.814 77.0825C223.884 77.0109 223.945 76.9116 223.997 76.7847C224.049 76.6577 224.091 76.5039 224.122 76.3232C224.154 76.141 224.17 75.9318 224.17 75.6958V75.2246H225.413V77.2144H225.87V78.2788H225.569V77.5H223.895V78.2788H223.594V77.2144ZM224.505 75.6958C224.505 75.8846 224.491 76.062 224.463 76.228C224.437 76.3924 224.402 76.5397 224.358 76.6699C224.316 76.8001 224.267 76.9124 224.212 77.0068C224.157 77.0996 224.102 77.1688 224.048 77.2144H225.079V75.5103H224.505V75.6958Z" fill="#BEF811"/>
    </g>
    <rect x="209.25" y="71.25" width="20.5" height="9.5" rx="4.75" stroke="#BEF811" stroke-width="0.5"/>
    <g clip-path="url(#clip7_0_1)">
        <rect x="284" y="15" width="21" height="10" rx="5" fill="#3C4819"/>
        <path d="M289.886 18.3188L288.016 22.0859L287.776 21.959L289.646 18.1943L289.886 18.3188ZM292.615 18.3188L290.745 22.0859L290.506 21.959L292.376 18.1943L292.615 18.3188ZM295.291 19.2246V21.5H294.954V19.5103H293.926V20.9946C293.926 21.0841 293.911 21.1639 293.88 21.2339C293.851 21.3039 293.811 21.3625 293.76 21.4097C293.71 21.4569 293.651 21.4927 293.584 21.5171C293.518 21.5431 293.448 21.5562 293.375 21.5562C293.238 21.5562 293.138 21.5358 293.074 21.4951L293.14 21.229C293.163 21.2437 293.188 21.2542 293.216 21.2607C293.245 21.2673 293.283 21.2705 293.331 21.2705C293.503 21.2705 293.589 21.1785 293.589 20.9946V19.2246H295.291ZM295.984 19.2246H296.319V21.0605L297.549 19.2246H298.021V21.5H297.684V19.5811L296.399 21.5H295.984V19.2246ZM298.594 21.2144C298.671 21.1981 298.744 21.1541 298.814 21.0825C298.884 21.0109 298.945 20.9116 298.997 20.7847C299.049 20.6577 299.091 20.5039 299.122 20.3232C299.154 20.141 299.17 19.9318 299.17 19.6958V19.2246H300.413V21.2144H300.87V22.2788H300.569V21.5H298.895V22.2788H298.594V21.2144ZM299.505 19.6958C299.505 19.8846 299.491 20.062 299.463 20.228C299.437 20.3924 299.402 20.5397 299.358 20.6699C299.316 20.8001 299.267 20.9124 299.212 21.0068C299.157 21.0996 299.102 21.1688 299.048 21.2144H300.079V19.5103H299.505V19.6958Z" fill="#BEF811"/>
    </g>
    <rect x="284.25" y="15.25" width="20.5" height="9.5" rx="4.75" stroke="#BEF811" stroke-width="0.5"/>
    <defs>
        <filter id="filter0_i_0_1" x="22" y="13" width="298" height="299" filterUnits="userSpaceOnUse" color-interpolation-filters="sRGB">
            <feFlood flood-opacity="0" result="BackgroundImageFix"/>
            <feBlend mode="normal" in="SourceGraphic" in2="BackgroundImageFix" result="shape"/>
            <feColorMatrix in="SourceAlpha" type="matrix" values="0 0 0 0 0 0 0 0 0 0 0 0 0 0 0 0 0 0 127 0" result="hardAlpha"/>
            <feOffset/>
            <feGaussianBlur stdDeviation="24.65"/>
            <feComposite in2="hardAlpha" operator="arithmetic" k2="-1" k3="1"/>
            <feColorMatrix type="matrix" values="0 0 0 0 0.447059 0 0 0 0 0.0666667 0 0 0 0 0.972549 0 0 0 0.2 0"/>
            <feBlend mode="normal" in2="shape" result="effect1_innerShadow_0_1"/>
        </filter>
        <filter id="filter1_i_0_1" x="60" y="52" width="222" height="221" filterUnits="userSpaceOnUse" color-interpolation-filters="sRGB">
            <feFlood flood-opacity="0" result="BackgroundImageFix"/>
            <feBlend mode="normal" in="SourceGraphic" in2="BackgroundImageFix" result="shape"/>
            <feColorMatrix in="SourceAlpha" type="matrix" values="0 0 0 0 0 0 0 0 0 0 0 0 0 0 0 0 0 0 127 0" result="hardAlpha"/>
            <feOffset/>
            <feGaussianBlur stdDeviation="20"/>
            <feComposite in2="hardAlpha" operator="arithmetic" k2="-1" k3="1"/>
            <feColorMatrix type="matrix" values="0 0 0 0 0.447059 0 0 0 0 0.0666667 0 0 0 0 0.972549 0 0 0 0.2 0"/>
            <feBlend mode="normal" in2="shape" result="effect1_innerShadow_0_1"/>
        </filter>
        <filter id="filter2_i_0_1" x="97" y="88" width="148" height="148" filterUnits="userSpaceOnUse" color-interpolation-filters="sRGB">
            <feFlood flood-opacity="0" result="BackgroundImageFix"/>
            <feBlend mode="normal" in="SourceGraphic" in2="BackgroundImageFix" result="shape"/>
            <feColorMatrix in="SourceAlpha" type="matrix" values="0 0 0 0 0 0 0 0 0 0 0 0 0 0 0 0 0 0 127 0" result="hardAlpha"/>
            <feOffset/>
            <feGaussianBlur stdDeviation="30"/>
            <feComposite in2="hardAlpha" operator="arithmetic" k2="-1" k3="1"/>
            <feColorMatrix type="matrix" values="0 0 0 0 0.447059 0 0 0 0 0.0666667 0 0 0 0 0.972549 0 0 0 0.3 0"/>
            <feBlend mode="normal" in2="shape" result="effect1_innerShadow_0_1"/>
        </filter>
        <filter id="filter3_i_0_1" x="131" y="123" width="80" height="79" filterUnits="userSpaceOnUse" color-interpolation-filters="sRGB">
            <feFlood flood-opacity="0" result="BackgroundImageFix"/>
            <feBlend mode="normal" in="SourceGraphic" in2="BackgroundImageFix" result="shape"/>
            <feColorMatrix in="SourceAlpha" type="matrix" values="0 0 0 0 0 0 0 0 0 0 0 0 0 0 0 0 0 0 127 0" result="hardAlpha"/>
            <feOffset/>
            <feGaussianBlur stdDeviation="21.15"/>
            <feComposite in2="hardAlpha" operator="arithmetic" k2="-1" k3="1"/>
            <feColorMatrix type="matrix" values="0 0 0 0 0.416172 0 0 0 0 0.215372 0 0 0 0 0.693566 0 0 0 0.47 0"/>
            <feBlend mode="normal" in2="shape" result="effect1_innerShadow_0_1"/>
        </filter>
        <filter id="filter4_d_0_1" x="103.575" y="54.8936" width="24.2431" height="24.2431" filterUnits="userSpaceOnUse" color-interpolation-filters="sRGB">
            <feFlood flood-opacity="0" result="BackgroundImageFix"/>
            <feColorMatrix in="SourceAlpha" type="matrix" values="0 0 0 0 0 0 0 0 0 0 0 0 0 0 0 0 0 0 127 0" result="hardAlpha"/>
            <feMorphology radius="4" operator="dilate" in="SourceAlpha" result="effect1_dropShadow_0_1"/>
            <feOffset/>
            <feGaussianBlur stdDeviation="3.15"/>
            <feComposite in2="hardAlpha" operator="out"/>
            <feColorMatrix type="matrix" values="0 0 0 0 0.447059 0 0 0 0 0.0666667 0 0 0 0 0.972549 0 0 0 1 0"/>
            <feBlend mode="normal" in2="BackgroundImageFix" result="effect1_dropShadow_0_1"/>
            <feBlend mode="normal" in="SourceGraphic" in2="effect1_dropShadow_0_1" result="shape"/>
        </filter>
        <filter id="filter5_d_0_1" x="158.368" y="76.3663" width="24.2431" height="24.2431" filterUnits="userSpaceOnUse" color-interpolation-filters="sRGB">
            <feFlood flood-opacity="0" result="BackgroundImageFix"/>
            <feColorMatrix in="SourceAlpha" type="matrix" values="0 0 0 0 0 0 0 0 0 0 0 0 0 0 0 0 0 0 127 0" result="hardAlpha"/>
            <feMorphology radius="4" operator="dilate" in="SourceAlpha" result="effect1_dropShadow_0_1"/>
            <feOffset/>
            <feGaussianBlur stdDeviation="3.15"/>
            <feComposite in2="hardAlpha" operator="out"/>
            <feColorMatrix type="matrix" values="0 0 0 0 0.447059 0 0 0 0 0.0666667 0 0 0 0 0.972549 0 0 0 1 0"/>
            <feBlend mode="normal" in2="BackgroundImageFix" result="effect1_dropShadow_0_1"/>
            <feBlend mode="normal" in="SourceGraphic" in2="effect1_dropShadow_0_1" result="shape"/>
        </filter>
        <filter id="filter6_d_0_1" x="234.368" y="20.3663" width="24.2431" height="24.2431" filterUnits="userSpaceOnUse" color-interpolation-filters="sRGB">
            <feFlood flood-opacity="0" result="BackgroundImageFix"/>
            <feColorMatrix in="SourceAlpha" type="matrix" values="0 0 0 0 0 0 0 0 0 0 0 0 0 0 0 0 0 0 127 0" result="hardAlpha"/>
            <feMorphology radius="4" operator="dilate" in="SourceAlpha" result="effect1_dropShadow_0_1"/>
            <feOffset/>
            <feGaussianBlur stdDeviation="3.15"/>
            <feComposite in2="hardAlpha" operator="out"/>
            <feColorMatrix type="matrix" values="0 0 0 0 0.447059 0 0 0 0 0.0666667 0 0 0 0 0.972549 0 0 0 1 0"/>
            <feBlend mode="normal" in2="BackgroundImageFix" result="effect1_dropShadow_0_1"/>
            <feBlend mode="normal" in="SourceGraphic" in2="effect1_dropShadow_0_1" result="shape"/>
        </filter>
        <filter id="filter7_d_0_1" x="95.3682" y="113.366" width="24.2431" height="24.2431" filterUnits="userSpaceOnUse" color-interpolation-filters="sRGB">
            <feFlood flood-opacity="0" result="BackgroundImageFix"/>
            <feColorMatrix in="SourceAlpha" type="matrix" values="0 0 0 0 0 0 0 0 0 0 0 0 0 0 0 0 0 0 127 0" result="hardAlpha"/>
            <feMorphology radius="4" operator="dilate" in="SourceAlpha" result="effect1_dropShadow_0_1"/>
            <feOffset/>
            <feGaussianBlur stdDeviation="3.15"/>
            <feComposite in2="hardAlpha" operator="out"/>
            <feColorMatrix type="matrix" values="0 0 0 0 0.447059 0 0 0 0 0.0666667 0 0 0 0 0.972549 0 0 0 1 0"/>
            <feBlend mode="normal" in2="BackgroundImageFix" result="effect1_dropShadow_0_1"/>
            <feBlend mode="normal" in="SourceGraphic" in2="effect1_dropShadow_0_1" result="shape"/>
        </filter>
        <filter id="filter8_f_0_1" x="131" y="134.438" width="79.0637" height="70.1418" filterUnits="userSpaceOnUse" color-interpolation-filters="sRGB">
            <feFlood flood-opacity="0" result="BackgroundImageFix"/>
            <feBlend mode="normal" in="SourceGraphic" in2="BackgroundImageFix" result="shape"/>
            <feGaussianBlur stdDeviation="10" result="effect1_foregroundBlur_0_1"/>
        </filter>
        <filter id="filter9_f_0_1" x="101" y="104.438" width="139.064" height="130.142" filterUnits="userSpaceOnUse" color-interpolation-filters="sRGB">
            <feFlood flood-opacity="0" result="BackgroundImageFix"/>
            <feBlend mode="normal" in="SourceGraphic" in2="BackgroundImageFix" result="shape"/>
            <feGaussianBlur stdDeviation="25" result="effect1_foregroundBlur_0_1"/>
        </filter>
        <filter id="filter10_f_0_1" x="104.97" y="116.126" width="131.12" height="120.028" filterUnits="userSpaceOnUse" color-interpolation-filters="sRGB">
            <feFlood flood-opacity="0" result="BackgroundImageFix"/>
            <feBlend mode="normal" in="SourceGraphic" in2="BackgroundImageFix" result="shape"/>
            <feGaussianBlur stdDeviation="20" result="effect1_foregroundBlur_0_1"/>
        </filter>
        <filter id="filter11_f_0_1" x="167.84" y="156.752" width="58.0913" height="59.1489" filterUnits="userSpaceOnUse" color-interpolation-filters="sRGB">
            <feFlood flood-opacity="0" result="BackgroundImageFix"/>
            <feBlend mode="normal" in="SourceGraphic" in2="BackgroundImageFix" result="shape"/>
            <feGaussianBlur stdDeviation="4" result="effect1_foregroundBlur_0_1"/>
        </filter>
        <filter id="filter12_f_0_1" x="180.331" y="139.541" width="47.4546" height="61.7361" filterUnits="userSpaceOnUse" color-interpolation-filters="sRGB">
            <feFlood flood-opacity="0" result="BackgroundImageFix"/>
            <feBlend mode="normal" in="SourceGraphic" in2="BackgroundImageFix" result="shape"/>
            <feGaussianBlur stdDeviation="4" result="effect1_foregroundBlur_0_1"/>
        </filter>
        <filter id="filter13_f_0_1" x="180.131" y="129.197" width="46.4563" height="61.1646" filterUnits="userSpaceOnUse" color-interpolation-filters="sRGB">
            <feFlood flood-opacity="0" result="BackgroundImageFix"/>
            <feBlend mode="normal" in="SourceGraphic" in2="BackgroundImageFix" result="shape"/>
            <feGaussianBlur stdDeviation="4" result="effect1_foregroundBlur_0_1"/>
        </filter>
        <filter id="filter14_f_0_1" x="114.539" y="129.197" width="46.4563" height="61.1646" filterUnits="userSpaceOnUse" color-interpolation-filters="sRGB">
            <feFlood flood-opacity="0" result="BackgroundImageFix"/>
            <feBlend mode="normal" in="SourceGraphic" in2="BackgroundImageFix" result="shape"/>
            <feGaussianBlur stdDeviation="4" result="effect1_foregroundBlur_0_1"/>
        </filter>
        <filter id="filter15_f_0_1" x="116.121" y="142.541" width="41.4546" height="55.7361" filterUnits="userSpaceOnUse" color-interpolation-filters="sRGB">
            <feFlood flood-opacity="0" result="BackgroundImageFix"/>
            <feBlend mode="normal" in="SourceGraphic" in2="BackgroundImageFix" result="shape"/>
            <feGaussianBlur stdDeviation="2.5" result="effect1_foregroundBlur_0_1"/>
        </filter>
        <filter id="filter16_f_0_1" x="115.194" y="156.752" width="58.0913" height="59.1489" filterUnits="userSpaceOnUse" color-interpolation-filters="sRGB">
            <feFlood flood-opacity="0" result="BackgroundImageFix"/>
            <feBlend mode="normal" in="SourceGraphic" in2="BackgroundImageFix" result="shape"/>
            <feGaussianBlur stdDeviation="4" result="effect1_foregroundBlur_0_1"/>
        </filter>
        <filter id="filter17_f_0_1" x="141.808" y="174.196" width="56.5105" height="44.4539" filterUnits="userSpaceOnUse" color-interpolation-filters="sRGB">
            <feFlood flood-opacity="0" result="BackgroundImageFix"/>
            <feBlend mode="normal" in="SourceGraphic" in2="BackgroundImageFix" result="shape"/>
            <feGaussianBlur stdDeviation="4" result="effect1_foregroundBlur_0_1"/>
        </filter>
        <linearGradient id="paint0_linear_0_1" x1="171" y1="163" x2="171" y2="336" gradientUnits="userSpaceOnUse">
            <stop stop-color="#1C1C1C"/>
            <stop offset="1" stop-color="#1B1B1B"/>
        </linearGradient>
        <linearGradient id="paint1_linear_0_1" x1="228.533" y1="106.241" x2="113.629" y2="105.888" gradientUnits="userSpaceOnUse">
            <stop stop-color="#7211F8" stop-opacity="0.59"/>
            <stop offset="1" stop-color="#430A92" stop-opacity="0"/>
        </linearGradient>
        <linearGradient id="paint2_linear_0_1" x1="171.254" y1="154.197" x2="171.254" y2="174.935" gradientUnits="userSpaceOnUse">
            <stop stop-color="#9B53FF"/>
            <stop offset="0.379808" stop-color="#7211F8"/>
            <stop offset="1"/>
        </linearGradient>
        <radialGradient id="paint3_radial_0_1" cx="0" cy="0" r="1" gradientTransform="matrix(-0.511838 -30.8524 96.3725 -1.59693 169.954 157.309)" gradientUnits="userSpaceOnUse">
            <stop/>
            <stop offset="1" stop-color="#7211F8"/>
        </radialGradient>
        <clipPath id="clip0_0_1">
            <rect x="254" y="20" width="80" height="23" rx="8" fill="white"/>
        </clipPath>
        <clipPath id="clip1_0_1">
            <rect x="179" y="76" width="80" height="23" rx="8" fill="white"/>
        </clipPath>
        <clipPath id="clip2_0_1">
            <rect x="26" y="55" width="80" height="23" rx="8" fill="white"/>
        </clipPath>
        <clipPath id="clip3_0_1">
            <rect x="56" y="50" width="21" height="10" rx="5" fill="white"/>
        </clipPath>
        <clipPath id="clip4_0_1">
            <rect x="116" y="113" width="80" height="23" rx="8" fill="white"/>
        </clipPath>
        <clipPath id="clip5_0_1">
            <rect x="146" y="108" width="21" height="10" rx="5" fill="white"/>
        </clipPath>
        <clipPath id="clip6_0_1">
            <rect x="209" y="71" width="21" height="10" rx="5" fill="white"/>
        </clipPath>
        <clipPath id="clip7_0_1">
            <rect x="284" y="15" width="21" height="10" rx="5" fill="white"/>
        </clipPath>
    </defs>
</svg>
