<svg width="38" height="19" viewBox="0 0 38 19" fill="none" xmlns="http://www.w3.org/2000/svg">
    <path d="M37.5385 8.65793C38.1538 9.03218 38.1538 9.96782 37.5385 10.3421L33.3846 12.8683C32.7692 13.2425 32 12.7747 32 12.0262L32 6.97379C32 6.22528 32.7692 5.75747 33.3846 6.13172L37.5385 8.65793Z" fill="black"/>
    <path fill-rule="evenodd" clip-rule="evenodd" d="M3.23175 9.57736C4.68594 6.68641 7.63932 4.74212 11 4.74212C14.3607 4.74212 17.3141 6.68641 18.7683 9.57736L22 7.26132C19.8173 3.40157 15.7087 0.800781 11 0.800781C6.29128 0.800781 2.18271 3.40157 1.10214e-05 7.26132L3.23175 9.57736Z" fill="black"/>
    <path fill-rule="evenodd" clip-rule="evenodd" d="M18.7683 9.57736C17.3141 12.4683 14.3607 14.4126 11 14.4126C7.63931 14.4126 4.68594 12.4683 3.23175 9.57736L0 11.8934C2.1827 15.7532 6.29127 18.354 11 18.354C15.7087 18.354 19.8173 15.7532 22 11.8934L18.7683 9.57736Z" fill="black"/>
    <path d="M11.0387 6.49609C11.0387 8.15491 9.69397 9.49964 8.03516 9.49964C9.69397 9.49964 11.0387 10.8444 11.0387 12.5032C11.0387 10.8444 12.3834 9.49964 14.0422 9.49964C12.3834 9.49964 11.0387 8.15491 11.0387 6.49609Z" fill="black"/>
</svg>