<svg width="181" height="128" viewBox="0 0 181 128" fill="none" xmlns="http://www.w3.org/2000/svg">
    <mask id="mask0_1573_3500" style="mask-type:alpha" maskUnits="userSpaceOnUse" x="0" y="0" width="181" height="128">
        <path d="M161 0C172.046 0 181 8.95431 181 20V108C181 119.046 172.046 128 161 128H20C8.95431 128 0 119.046 0 108V20C0 8.95431 8.95431 0 20 0H161Z" fill="#141414"/>
    </mask>
    <g mask="url(#mask0_1573_3500)">
        <g filter="url(#filter0_dddd_1573_3500)">
            <g filter="url(#filter1_i_1573_3500)">
                <path d="M122.778 178.567C163.529 169.733 189.403 129.537 180.568 88.7863C171.734 48.0356 131.537 22.1618 90.7859 30.9961C50.035 39.8305 24.1618 80.0278 32.9961 120.778C41.8305 161.529 82.027 187.402 122.778 178.567Z" fill="url(#paint0_radial_1573_3500)"/>
            </g>
            <g filter="url(#filter2_i_1573_3500)">
                <path d="M90.6271 30.2632C128.529 22.0466 165.956 43.5596 178.606 79.1581C178.907 79.8977 179.159 80.6474 179.365 81.4058C180.119 83.7564 180.767 86.1647 181.301 88.6273C183.115 96.9956 183.48 105.341 182.564 113.402C182.499 114.402 182.363 115.407 182.158 116.414C177.477 146.7 154.676 172.419 122.937 179.3C91.252 186.169 59.9005 172.262 43.0771 146.718C42.4035 145.802 41.808 144.854 41.2931 143.877C37.1614 136.954 34.0656 129.252 32.2631 120.937C23.3411 79.7818 49.4715 39.1854 90.6271 30.2632ZM68.1462 160.891C68.371 161.269 68.5977 161.642 68.8302 162.009C73.918 170.04 80.6331 175.254 88.2769 177.207L88.2734 177.219C98.9468 179.955 110.386 180.363 121.885 177.988C121.794 177.571 121.666 176.977 121.5 176.212C121.14 174.551 120.603 172.08 119.901 168.842C119.371 166.395 118.751 163.542 118.056 160.335C100.723 163.998 83.3128 164.288 69.1017 161.114C68.781 161.042 68.4628 160.966 68.1462 160.891ZM164.4 140.454C152.78 149.228 136.814 156.173 119.522 160.018C120.217 163.224 120.836 166.076 121.367 168.523C122.069 171.761 122.605 174.233 122.966 175.895C123.132 176.659 123.26 177.253 123.351 177.671C134.801 175.07 145.044 169.962 153.626 163.052L153.617 163.042C160.103 157.828 164.086 149.785 165.186 139.849C164.926 140.051 164.665 140.254 164.4 140.454ZM49.7406 153.113C57.1956 161.896 66.581 168.828 77.0861 173.385C73.5011 170.676 70.2941 167.123 67.5634 162.812C67.0644 162.024 66.583 161.214 66.1191 160.381C59.6303 158.648 54.092 156.189 49.7406 153.113ZM178.723 125.13C176.037 129.738 172.011 134.276 166.816 138.547C166.314 144.696 164.767 150.23 162.225 154.924C169.903 146.42 175.577 136.219 178.723 125.13ZM59.9748 136.367C61.2301 144.982 63.6635 152.7 67.1253 159.095C67.8793 159.289 68.6472 159.475 69.4289 159.65C83.3874 162.768 100.573 162.495 117.738 158.87L112.736 135.794C99.249 138.633 85.6501 139.578 73.4172 138.508C68.6388 138.091 64.1351 137.37 59.9748 136.367ZM179.877 89.1478C179.406 92.8968 177.937 96.7529 175.504 100.594C172.726 104.979 168.751 109.26 163.776 113.286C165.026 117.514 165.929 121.71 166.456 125.813C166.931 129.518 167.091 133.086 166.945 136.482C174.616 129.907 179.309 122.867 180.684 116.129C180.831 115.174 180.96 114.214 181.07 113.25C181.102 112.736 181.116 112.225 181.108 111.717L181.228 111.715C181.912 104.35 181.506 96.7599 179.877 89.1478ZM149.757 86.7312C147.925 88.167 145.946 89.5669 143.829 90.9172C133.806 97.3095 121.153 102.355 107.672 105.358C109.816 115.247 111.928 124.988 113.884 134.012C127.322 131.044 140.061 126.294 150.691 120.29C154.896 117.915 158.698 115.383 162.046 112.747C159.364 104.036 155.187 95.1826 149.757 86.7312ZM60.1886 106.149C58.9402 114.755 58.6624 123.298 59.3891 131.379C59.4919 132.523 59.6142 133.653 59.7562 134.769C63.986 135.824 68.6073 136.582 73.5479 137.014C85.6143 138.069 99.0611 137.139 112.418 134.328C110.462 125.305 108.35 115.564 106.206 105.675C92.6935 108.524 79.0881 109.172 67.3192 107.504C64.8327 107.151 62.4513 106.697 60.1886 106.149ZM164.823 61.112C165.029 63.7107 164.66 66.4204 163.694 69.1878C161.704 74.8892 157.287 80.5693 150.934 85.7877C156.353 94.1985 160.556 103.022 163.302 111.738C167.951 107.91 171.647 103.879 174.236 99.7906C177.929 93.9599 179.234 88.2383 178.199 83.0075C175.492 74.9356 170.953 67.4906 164.823 61.112ZM35.8663 89.0685C33.3914 96.0965 32.2589 103.346 32.4873 110.517L32.589 110.516C32.6601 117.29 36.4184 123.39 43.6276 128.105C47.6001 130.703 52.5193 132.81 58.1949 134.361C58.0815 133.421 57.9805 132.472 57.8943 131.513C57.1521 123.26 57.4435 114.545 58.7271 105.777C50.7839 103.658 44.4117 100.317 40.2393 95.9515C38.214 93.8326 36.7553 91.5191 35.8663 89.0685ZM66.7322 80.7583C65.1733 84.8928 63.8257 89.1641 62.7117 93.5239C61.7669 97.2218 61.0001 100.944 60.4133 104.659C62.6592 105.208 65.0352 105.665 67.5298 106.018C79.0975 107.657 92.5219 107.025 105.888 104.209C104.126 96.0791 102.385 88.0491 100.735 80.4356C88.5919 82.9706 76.4365 83.0987 66.7322 80.7583ZM133.283 66.3317C125.419 72.4802 114.302 77.3971 102.2 80.1178C103.851 87.7313 105.592 95.7613 107.354 103.891C120.689 100.92 133.171 95.9353 143.022 89.6522C145.146 88.2979 147.118 86.8987 148.934 85.4697C146.867 82.3397 144.63 79.2685 142.232 76.2857C139.403 72.7668 136.405 69.4401 133.283 66.3317ZM144.556 46.8056C145.193 52.9474 141.484 59.5285 134.459 65.3834C137.58 68.4997 140.575 71.8298 143.401 75.3458C145.797 78.3258 148.036 81.3948 150.108 84.5247C156.243 79.4583 160.416 74.0272 162.278 68.6935C163.409 65.4533 163.663 62.3135 163.065 59.3566C157.761 54.2579 151.504 50.0246 144.556 46.8056ZM48.3882 67.6549C43.3982 73.4616 39.4556 79.9057 36.7391 86.7429C37.4198 89.6817 38.9524 92.4342 41.3237 94.9151C45.2266 98.9985 51.2723 102.214 58.9533 104.285C59.5446 100.569 60.3149 96.848 61.2592 93.1523C62.3727 88.7947 63.7164 84.5224 65.2708 80.3826C56.4528 77.9628 50.3526 73.508 48.3882 67.6549ZM34.8717 84.3238C33.9549 87.5356 33.2508 90.8219 32.771 94.1632C33.407 91.6248 34.2093 89.1055 35.1772 86.6178C35.0244 85.8632 34.9225 85.0983 34.8717 84.3238ZM163.763 56.3814C164.038 57.1074 164.262 57.8457 164.435 58.5959C166.347 60.4594 168.12 62.4203 169.75 64.4674C167.93 61.6249 165.928 58.9252 163.763 56.3814ZM92.4545 42.2418C87.2577 46.5931 82.3492 52.1529 77.9561 58.7138C73.7925 64.9321 70.1887 71.905 67.2743 79.3457C76.6822 81.5749 88.5229 81.4513 100.417 78.9697L92.4545 42.2418ZM90.0564 42.33C78.3635 45.3098 67.4846 50.6899 58.3613 58.0245C55.1669 60.5926 52.2252 63.3711 49.5597 66.3248C49.5617 66.3327 49.5638 66.3405 49.5658 66.3484C50.9819 71.9192 56.6617 76.4993 65.8082 78.9761C68.7722 71.3732 72.4487 64.2417 76.7089 57.879C80.7634 51.8237 85.2683 46.583 90.0564 42.33ZM96.1407 41.0109C97.1099 41.31 98.0849 41.6354 99.0652 41.9867C110.909 46.2322 122.84 54.0547 133.388 64.3255C140.688 58.2832 143.962 51.7623 142.944 46.1051C142.942 46.0967 142.94 46.0886 142.938 46.0802C139.29 44.4961 135.463 43.1848 131.493 42.1704C120.15 39.2721 108.019 38.8805 96.1407 41.0109ZM49.0786 57.261C44.534 62.7868 40.7935 68.9447 37.9848 75.536L37.9914 75.5386C36.7835 78.38 36.2406 81.1555 36.3462 83.8103C39.1958 77.391 43.1076 71.3532 47.9317 65.8953C47.4101 63.0925 47.8249 60.1755 49.0786 57.261ZM139.619 37.6287C141.969 39.7627 143.555 42.2462 144.242 45.0142C150.894 47.9844 156.956 51.8611 162.209 56.5246C161.205 54.0645 159.563 51.7626 157.287 49.6766L157.291 49.6717C152.003 44.8339 146.046 40.7768 139.619 37.6287ZM89.5992 40.8982C77.7856 38.5731 67.3961 40.5378 59.9458 46.5274L59.9348 46.5138C59.5153 46.8516 59.0986 47.1924 58.6871 47.5387L58.6976 47.5504C52.0197 53.1612 48.8329 59.1353 49.2541 64.4405C51.7574 61.7537 54.4858 59.2158 57.4223 56.8551C66.6955 49.4001 77.7379 43.9339 89.5992 40.8982ZM125.287 32.3611C117.643 30.408 109.251 31.7613 100.934 36.3676C99.2602 37.2945 97.6031 38.3472 95.9678 39.5176C108.021 37.3689 120.335 37.7716 131.863 40.7171C135.512 41.6496 139.046 42.8293 142.436 44.2376C140.622 39.2351 135.248 35.1176 126.847 32.7763L126.851 32.7605C126.333 32.6157 125.812 32.4781 125.29 32.3443L125.287 32.3611ZM90.2127 31.8919C82.8138 33.5722 75.9187 36.2997 69.6501 39.884C76.2393 37.9744 83.8333 37.9706 91.9415 39.8708C91.363 37.2018 90.9134 35.1247 90.598 33.669C90.4321 32.9034 90.3032 32.3097 90.2127 31.8919ZM92.0639 33.3512C92.3793 34.8068 92.829 36.884 93.4074 39.553C95.6292 37.8385 97.9007 36.3327 100.207 35.0551C104.697 32.5688 109.241 30.9859 113.711 30.335C106.519 29.6675 99.1114 30.0391 91.6787 31.5741C91.7692 31.9918 91.898 32.5856 92.0639 33.3512ZM119.204 158.552C136.328 154.743 152.083 147.875 163.496 139.257C164.138 138.772 164.763 138.282 165.371 137.791C165.627 134.088 165.5 130.144 164.968 126.004C164.476 122.17 163.648 118.249 162.507 114.291C159.203 116.851 155.494 119.3 151.428 121.596C140.653 127.682 127.769 132.482 114.202 135.478L119.204 158.552ZM33.729 120.619C35.3938 128.298 38.1841 135.444 41.8881 141.92L41.9934 141.875C42.177 142.297 42.3776 142.714 42.5933 143.126C43.1397 144.041 43.7046 144.942 44.2873 145.829C48.345 151.341 55.5037 155.766 65.1475 158.554C61.8593 152.081 59.5737 144.42 58.402 135.971C52.3472 134.372 47.0722 132.151 42.8068 129.361C38.6608 126.65 35.5482 123.448 33.5762 119.882C33.626 120.128 33.6758 120.374 33.729 120.619ZM101.883 78.6518C113.736 75.9855 124.565 71.1942 132.205 65.2693C121.823 55.1921 110.123 47.5434 98.5588 43.3985C96.9952 42.8381 95.4479 42.3479 93.9206 41.9249L101.883 78.6518Z" fill="url(#paint1_radial_1573_3500)"/>
            </g>
            <path fill-rule="evenodd" clip-rule="evenodd" d="M106.165 114.553L109.633 117.977L111.389 113.421L108.928 106.298L111.947 111.89L113.128 108.814L112.157 106.94L117.509 104.438L121.503 105.173L116.779 101.07L125.089 106.335L123.05 103.723L129.408 107.675L117.511 94.3168C117.212 93.9803 116.85 93.7344 116.462 93.5818L115.751 95.6842L115.872 93.4245C115.183 93.3227 114.462 93.4907 113.874 93.9411C113.8 93.9976 113.735 94.0648 113.674 94.1362L111.138 97.1407L108.13 98.1118L106.9 95.8946L105.538 95.9685L106.73 95.71L108.491 95.3283L108.367 96.5575L109.211 95.5722C109.559 95.1661 109.697 94.6168 109.583 94.0898C109.496 93.6885 109.269 93.3314 108.945 93.0838L108.508 92.7508C107.773 92.1905 106.835 91.9802 105.938 92.1746L100.754 93.2984L102.454 94.4077L102.791 99.2692L99.6511 99.631L96.0985 97.9465C96.0141 97.9064 95.9269 97.8723 95.8363 97.8515C95.114 97.6852 94.3886 97.8306 93.8036 98.2087L94.8498 100.215L93.3319 98.5961C93.0411 98.896 92.8142 99.2694 92.6808 99.6999L87.3841 116.785L91.5347 110.556L90.7607 113.777L96.1439 105.544L93.5434 111.235L96.8739 108.911L102.782 108.973L102.674 111.081L105.023 113.391L105.456 107.051L106.165 114.553ZM104.867 93.559L105.195 94.1733L106.113 93.9743C106.409 93.9102 106.718 93.9414 106.997 94.0637L107.662 94.3558L107.154 93.6568C106.927 93.3449 106.541 93.1962 106.168 93.277L104.867 93.559Z" fill="#7211F8"/>
            <path d="M105.09 88.2655C107.013 87.8486 109.008 88.2481 110.617 89.3417L110.933 89.5699L111.37 89.9029C111.576 90.0603 111.77 90.2315 111.951 90.4134C112.461 90.0931 113.002 89.8485 113.559 89.6801L114.017 88.3247L117.212 89.5805L120.061 90.0001L119.999 91.1539C120.172 91.3119 120.34 91.4783 120.498 91.6561L132.396 105.015L130.294 107.511L135.187 111.76L127.854 110.41L127.297 111.073L125.547 109.985L123.109 109.536L122.948 109.714L122.486 109.421L118.044 108.603L117.373 108.917L115.681 113.324L115.631 113.451L115.647 113.495L111.169 125.115L102.32 116.378L102.315 116.338L102.218 116.243L98.8525 112.932L98.1113 112.924L94.4069 115.509L94.1083 115.966L93.8879 115.871L91.8541 117.289L90.7129 119.004L89.9307 118.632L83.8158 122.897L86.51 117.003L83.5631 115.601L88.8602 98.5149L88.9912 98.1328C89.027 98.0376 89.0662 97.9441 89.106 97.8511L88.5721 96.8267L90.9905 95.2652L93.1036 93.0834L90.552 91.4172L105.09 88.2655ZM102.454 94.4078L102.79 99.2692L99.6512 99.6309L96.0983 97.946C96.014 97.9061 95.9265 97.8728 95.8361 97.852C95.114 97.6858 94.389 97.8307 93.804 98.2086L94.8496 100.215L93.3314 98.5958C93.0407 98.8958 92.8139 99.2698 92.6805 99.7002L87.3841 116.785L91.5344 110.556L90.7609 113.777L96.1438 105.544L93.5432 111.234L96.8737 108.912L102.783 108.973L102.674 111.081L105.023 113.391L105.456 107.051L106.165 114.554L109.633 117.978L111.389 113.421L108.928 106.298L111.947 111.89L113.128 108.814L112.157 106.94L117.51 104.438L121.503 105.173L116.78 101.071L125.089 106.335L123.05 103.723L129.408 107.675L117.512 94.317C117.212 93.9805 116.851 93.734 116.462 93.5813L115.751 95.6841L115.871 93.4246C115.183 93.3228 114.463 93.4912 113.874 93.9415C113.8 93.9979 113.735 94.0644 113.674 94.1357L111.138 97.1407L108.13 98.1115L106.9 95.8941L105.538 95.9685L108.491 95.3283L108.367 96.5574L109.211 95.5719C109.559 95.1658 109.697 94.6164 109.582 94.0895C109.495 93.6883 109.269 93.3312 108.945 93.0836L108.508 92.7507C107.773 92.1904 106.834 91.9803 105.938 92.1747L100.754 93.2984L102.454 94.4078ZM106.168 93.2769C106.541 93.1961 106.927 93.345 107.153 93.6568L107.662 94.356L106.997 94.0635C106.718 93.9412 106.409 93.9101 106.113 93.9743L105.195 94.1733L104.867 93.5589L106.168 93.2769Z" fill="#29104B"/>
        </g>
    </g>
    <defs>
        <filter id="filter0_dddd_1573_3500" x="-49.4838" y="-60.4836" width="240.532" height="248.531" filterUnits="userSpaceOnUse" color-interpolation-filters="sRGB">
            <feFlood flood-opacity="0" result="BackgroundImageFix"/>
            <feColorMatrix in="SourceAlpha" type="matrix" values="0 0 0 0 0 0 0 0 0 0 0 0 0 0 0 0 0 0 127 0" result="hardAlpha"/>
            <feOffset dx="-3" dy="-4"/>
            <feGaussianBlur stdDeviation="5.5"/>
            <feColorMatrix type="matrix" values="0 0 0 0 0.415686 0 0 0 0 0 0 0 0 0 1 0 0 0 0.1 0"/>
            <feBlend mode="normal" in2="BackgroundImageFix" result="effect1_dropShadow_1573_3500"/>
            <feColorMatrix in="SourceAlpha" type="matrix" values="0 0 0 0 0 0 0 0 0 0 0 0 0 0 0 0 0 0 127 0" result="hardAlpha"/>
            <feOffset dx="-12" dy="-15"/>
            <feGaussianBlur stdDeviation="9.5"/>
            <feColorMatrix type="matrix" values="0 0 0 0 0.415686 0 0 0 0 0 0 0 0 0 1 0 0 0 0.09 0"/>
            <feBlend mode="normal" in2="effect1_dropShadow_1573_3500" result="effect2_dropShadow_1573_3500"/>
            <feColorMatrix in="SourceAlpha" type="matrix" values="0 0 0 0 0 0 0 0 0 0 0 0 0 0 0 0 0 0 127 0" result="hardAlpha"/>
            <feOffset dx="-28" dy="-33"/>
            <feGaussianBlur stdDeviation="13"/>
            <feColorMatrix type="matrix" values="0 0 0 0 0.415686 0 0 0 0 0 0 0 0 0 1 0 0 0 0.05 0"/>
            <feBlend mode="normal" in2="effect2_dropShadow_1573_3500" result="effect3_dropShadow_1573_3500"/>
            <feColorMatrix in="SourceAlpha" type="matrix" values="0 0 0 0 0 0 0 0 0 0 0 0 0 0 0 0 0 0 127 0" result="hardAlpha"/>
            <feOffset dx="-49" dy="-58"/>
            <feGaussianBlur stdDeviation="15.5"/>
            <feColorMatrix type="matrix" values="0 0 0 0 0.415686 0 0 0 0 0 0 0 0 0 1 0 0 0 0.01 0"/>
            <feBlend mode="normal" in2="effect3_dropShadow_1573_3500" result="effect4_dropShadow_1573_3500"/>
            <feBlend mode="normal" in="SourceGraphic" in2="effect4_dropShadow_1573_3500" result="shape"/>
        </filter>
        <filter id="filter1_i_1573_3500" x="31.2664" y="29.2664" width="151.032" height="155.031" filterUnits="userSpaceOnUse" color-interpolation-filters="sRGB">
            <feFlood flood-opacity="0" result="BackgroundImageFix"/>
            <feBlend mode="normal" in="SourceGraphic" in2="BackgroundImageFix" result="shape"/>
            <feColorMatrix in="SourceAlpha" type="matrix" values="0 0 0 0 0 0 0 0 0 0 0 0 0 0 0 0 0 0 127 0" result="hardAlpha"/>
            <feOffset dy="4"/>
            <feGaussianBlur stdDeviation="5.2"/>
            <feComposite in2="hardAlpha" operator="arithmetic" k2="-1" k3="1"/>
            <feColorMatrix type="matrix" values="0 0 0 0 0.447059 0 0 0 0 0.0666667 0 0 0 0 0.972549 0 0 0 0.34 0"/>
            <feBlend mode="normal" in2="shape" result="effect1_innerShadow_1573_3500"/>
        </filter>
        <filter id="filter2_i_1573_3500" x="30.5162" y="28.5164" width="152.532" height="156.531" filterUnits="userSpaceOnUse" color-interpolation-filters="sRGB">
            <feFlood flood-opacity="0" result="BackgroundImageFix"/>
            <feBlend mode="normal" in="SourceGraphic" in2="BackgroundImageFix" result="shape"/>
            <feColorMatrix in="SourceAlpha" type="matrix" values="0 0 0 0 0 0 0 0 0 0 0 0 0 0 0 0 0 0 127 0" result="hardAlpha"/>
            <feOffset dy="4"/>
            <feGaussianBlur stdDeviation="5.2"/>
            <feComposite in2="hardAlpha" operator="arithmetic" k2="-1" k3="1"/>
            <feColorMatrix type="matrix" values="0 0 0 0 0.447059 0 0 0 0 0.0666667 0 0 0 0 0.972549 0 0 0 0.34 0"/>
            <feBlend mode="normal" in2="shape" result="effect1_innerShadow_1573_3500"/>
        </filter>
        <radialGradient id="paint0_radial_1573_3500" cx="0" cy="0" r="1" gradientUnits="userSpaceOnUse" gradientTransform="translate(106.782 104.782) rotate(74.9859) scale(156.337 156.338)">
            <stop stop-color="#290A54"/>
            <stop offset="1" stop-opacity="0"/>
        </radialGradient>
        <radialGradient id="paint1_radial_1573_3500" cx="0" cy="0" r="1" gradientUnits="userSpaceOnUse" gradientTransform="translate(106.782 104.782) rotate(-100.491) scale(54.9176 82.0333)">
            <stop stop-color="#7211F8"/>
            <stop offset="1" stop-color="#7211F8" stop-opacity="0.13"/>
        </radialGradient>
    </defs>
</svg>
