<svg width="50" height="29" viewBox="0 0 50 29" fill="none" xmlns="http://www.w3.org/2000/svg">
    <path fill-rule="evenodd" clip-rule="evenodd"
          d="M29.0286 18.5295L30.0229 11.581L28 9.5H35.5234C36.8246 9.5 38.0615 10.0825 38.9118 11.0957L39.4173 11.6981C39.7932 12.1459 40 12.7179 40 13.3095C40 14.0865 39.6441 14.818 39.0395 15.2836L37.5727 16.4132L38.1143 14.7202H35.5585H33.8286L35.7387 15.0319L36.7771 18.5295C34.6362 18.5295 32.8954 19.8567 32.8954 21.5C32.8954 19.8567 31.1695 18.5295 29.0286 18.5295ZM33.6229 11.1225L33.8929 12.0877H35.2253C35.6548 12.0877 36.0735 12.226 36.4227 12.4832L37.2571 13.0977L36.7627 11.9582C36.5421 11.4498 36.0515 11.1225 35.5104 11.1225H33.6229Z"
          fill="#202020"/>
    <path d="M15.5282 8.98713L16.015 9.85933C16.4542 10.6464 16.2779 11.679 15.586 12.3709C15.586 12.3709 14.7468 13.2101 16.2684 14.7316C17.7899 16.2531 18.6291 15.414 18.6291 15.414C19.321 14.7221 20.3536 14.5458 21.1407 14.985L22.0129 15.4718C23.2014 16.1351 23.3418 17.8019 22.2971 18.8466C21.6693 19.4744 20.9003 19.9629 20.0502 19.9951C18.6191 20.0493 16.1887 19.6872 13.7508 17.2492C11.3128 14.8113 10.9507 12.3809 11.0049 10.9498C11.0371 10.0997 11.5256 9.33068 12.1534 8.70292C13.1981 7.65821 14.8649 7.79858 15.5282 8.98713Z"
          fill="#202020"/>
    <path d="M9.31797 1V1C4.72408 1 1 4.72408 1 9.31797V19.682C1 24.2759 4.72408 28 9.31797 28V28M40.682 1V1C45.2759 1 49 4.72408 49 9.31797V19.682C49 24.2759 45.2759 28 40.682 28V28"
          stroke="#202020" stroke-width="1.5"/>
</svg>
