<svg width="13" height="14" viewBox="0 0 13 14" fill="none" xmlns="http://www.w3.org/2000/svg">
    <path fill-rule="evenodd" clip-rule="evenodd"
          d="M13 4.59073C13 6.84998 11.161 8.68147 8.89249 8.68147C8.47855 8.68147 7.53605 8.58633 7.07754 8.2058L6.50437 8.77662C6.16739 9.11223 6.25839 9.21104 6.40829 9.3738C6.47084 9.44171 6.54365 9.52076 6.5999 9.6328C6.5999 9.6328 7.07751 10.2987 6.5999 10.9647C6.31332 11.3452 5.51093 11.8779 4.5939 10.9647L4.40285 11.1549C4.40285 11.1549 4.97599 11.8209 4.49838 12.4868C4.21181 12.8673 3.44762 13.2479 2.77895 12.5819L2.11029 13.2479C1.65177 13.7045 1.09139 13.4381 0.868505 13.2479L0.295364 12.6771C-0.239568 12.1443 0.0724753 11.5672 0.295364 11.3452L5.26259 6.39827C5.26259 6.39827 4.78497 5.6372 4.78497 4.59073C4.78497 2.33148 6.62397 0.5 8.89249 0.5C11.161 0.5 13 2.33148 13 4.59073ZM8.89262 6.01779C9.68396 6.01779 10.3255 5.3789 10.3255 4.59079C10.3255 3.80268 9.68396 3.16379 8.89262 3.16379C8.10128 3.16379 7.45977 3.80268 7.45977 4.59079C7.45977 5.3789 8.10128 6.01779 8.89262 6.01779Z"
          fill="currentColor"/>
</svg>