<svg width="30" height="21" viewBox="0 0 30 21" fill="none" xmlns="http://www.w3.org/2000/svg">
    <path d="M22.742 0C24.1266 0 25.2804 0.146035 26.2035 0.438107C27.1415 0.73018 27.8859 1.13178 28.4367 1.64291C29.0025 2.13943 29.4045 2.73088 29.6427 3.41725C29.8809 4.10362 30 4.8411 30 5.62969V5.6516C30 6.44019 29.8809 7.17768 29.6427 7.86405C29.4045 8.53581 29.0025 9.12726 28.4367 9.63839C27.8859 10.1495 27.1415 10.5511 26.2035 10.8432C25.2804 11.1353 24.1266 11.2813 22.742 11.2813H6.57329V21H2.91077V11.2813V8.03929V0H22.742ZM6.57329 8.03929H22.742C23.4268 8.03929 24 7.98818 24.4616 7.88595C24.9231 7.78373 25.2879 7.63039 25.5558 7.42594C25.8387 7.22149 26.0397 6.97323 26.1588 6.68115C26.2779 6.37448 26.3375 6.03129 26.3375 5.6516V5.62969C26.3375 5.25 26.2779 4.91412 26.1588 4.62204C26.0397 4.31537 25.8387 4.0598 25.5558 3.85535C25.2879 3.6509 24.9231 3.49757 24.4616 3.39534C24 3.29311 23.4268 3.242 22.742 3.242H6.57329V8.03929Z" fill="currentColor"/>
    <path d="M2.91077 11.2813V8.03929H0V11.2813H2.91077Z" fill="currentColor"/>
    <path d="M17.7991 16.94V13.698H0V16.94H17.7991Z" fill="currentColor"/>
</svg>
