<svg width="16" height="14" viewBox="0 0 16 14" fill="none" xmlns="http://www.w3.org/2000/svg">
    <path fill-rule="evenodd" clip-rule="evenodd"
          d="M2.35036 6.99999C3.40795 4.85893 5.55587 3.41898 8 3.41898C10.4441 3.41898 12.5921 4.85893 13.6496 6.99999L16 5.28472C14.4126 2.42616 11.4245 0.5 8 0.5C4.57548 0.5 1.58743 2.42616 8.01554e-06 5.28472L2.35036 6.99999Z"
          fill="currentColor"/>
    <path fill-rule="evenodd" clip-rule="evenodd"
          d="M13.6496 6.99999C12.5921 9.14105 10.4441 10.581 8 10.581C5.55586 10.581 3.40795 9.14105 2.35036 6.99999L0 8.71528C1.58742 11.5738 4.57547 13.5 8 13.5C11.4245 13.5 14.4126 11.5738 16 8.71529L13.6496 6.99999Z"
          fill="currentColor"/>
    <path d="M8.02815 4.71798C8.02815 5.94651 7.05016 6.94243 5.84375 6.94243C7.05016 6.94243 8.02815 7.93835 8.02815 9.16687C8.02815 7.93835 9.00613 6.94243 10.2125 6.94243C9.00613 6.94243 8.02815 5.94651 8.02815 4.71798Z"
          fill="currentColor"/>
</svg>