<svg width="253" height="184" viewBox="0 0 235 184" fill="none" xmlns="http://www.w3.org/2000/svg">
    <path fill-rule="evenodd" clip-rule="evenodd"
          d="M21.6857 183.599L42.6486 42.3138L0 0H158.618C186.053 0 212.13 11.8435 230.058 32.4463L240.716 44.6938C248.64 53.8001 253 65.4296 253 77.4603C253 93.2581 245.496 108.132 232.749 117.599L201.824 140.568L213.243 106.143H159.358H122.886L163.158 112.483L185.051 183.599C139.914 183.599 103.211 210.587 103.211 244C103.211 210.587 66.8232 183.599 21.6857 183.599ZM118.549 32.9905L124.241 52.6173H152.334C161.388 52.6173 170.216 55.429 177.579 60.6582L195.171 73.1527L184.746 49.9834C180.095 39.6469 169.753 32.9905 158.343 32.9905H118.549Z"
          fill="currentColor"/>
</svg>
