<svg width="33" height="19" viewBox="0 0 33 19" fill="none" xmlns="http://www.w3.org/2000/svg">
    <path fill-rule="evenodd" clip-rule="evenodd"
          d="M14.4487 16.0175L16.4935 19L18.5513 16.0175L17.8632 10.5497L19.2185 15.0107L20.6047 12.9969L20.1808 11.5083L24.6022 10.5497L27.4778 11.6932L24.6022 8.03176L29.9784 13.0784L28.874 10.8972L33 14.7038L26.2494 3.3218C26.0793 3.03505 25.8484 2.80352 25.5816 2.63431L24.7063 4.02569L25.1648 2.4307C24.6645 2.25126 24.0968 2.2597 23.5821 2.49028C23.5176 2.51919 23.4577 2.55705 23.4009 2.59871L21.0103 4.35183L18.5959 4.57954L18.0341 2.80568L17.0005 2.64755H17.9365H19.3194L19.0264 3.50621L19.8201 2.9333C20.1472 2.69716 20.3398 2.32615 20.3398 1.9321C20.3398 1.63202 20.2279 1.34194 20.0245 1.1148L19.751 0.809314C19.2909 0.295414 18.6216 0 17.9175 0H13.8467L14.9412 1.05544L14.4033 4.57954L11.9897 4.35183L9.5991 2.59871C9.54228 2.55705 9.48244 2.51919 9.41791 2.49028C8.90322 2.2597 8.33551 2.25126 7.83521 2.4307L8.29366 4.02569L7.41845 2.63431C7.15163 2.80352 6.92071 3.03505 6.75064 3.3218L0 14.7038L4.12599 10.8972L3.02156 13.0784L8.39785 8.03176L5.52216 11.6932L8.39785 10.5497L12.8192 11.5083L12.3953 12.9969L13.7815 15.0107L15.1368 10.5497L14.4487 16.0175ZM16.8892 0.822886L17.0353 1.31244H17.7562C17.9886 1.31244 18.2152 1.38257 18.4042 1.51301L18.8557 1.82466L18.5881 1.24674C18.4687 0.988919 18.2033 0.822886 17.9105 0.822886H16.8892Z"
          fill="currentColor"/>
</svg>