<svg width="13" height="13" viewBox="0 0 13 13" fill="none" xmlns="http://www.w3.org/2000/svg">
    <path fill-rule="evenodd" clip-rule="evenodd"
          d="M9.74946 12.1282C6.64108 13.9229 2.6664 12.8578 0.871775 9.74946C-0.922851 6.64108 0.14216 2.6664 3.25054 0.871775C4.51758 0.140253 5.92854 -0.116133 7.27713 0.0473331C9.237 0.284895 11.0651 1.40919 12.1282 3.25054C13.1913 5.09189 13.2509 7.23724 12.4767 9.05332C11.944 10.303 11.0165 11.3967 9.74946 12.1282ZM7.96244 2.92578C8.23163 2.92578 8.44986 2.70756 8.44986 2.43836C8.44986 2.16917 8.23163 1.95094 7.96244 1.95094C7.69325 1.95094 7.47502 2.16917 7.47502 2.43836C7.47502 2.70756 7.69325 2.92578 7.96244 2.92578ZM7.96244 5.85029C8.4111 5.85029 8.7748 5.48659 8.7748 5.03793C8.7748 4.58927 8.4111 4.22556 7.96244 4.22556C7.51378 4.22556 7.15008 4.58927 7.15008 5.03793C7.15008 5.48659 7.51378 5.85029 7.96244 5.85029ZM7.96244 8.7748C8.4111 8.7748 8.7748 8.4111 8.7748 7.96244C8.7748 7.51378 8.4111 7.15008 7.96244 7.15008C7.51378 7.15008 7.15008 7.51378 7.15008 7.96244C7.15008 8.4111 7.51378 8.7748 7.96244 8.7748ZM5.85029 7.96244C5.85029 8.4111 5.48659 8.7748 5.03793 8.7748C4.58927 8.7748 4.22556 8.4111 4.22556 7.96244C4.22556 7.51378 4.58927 7.15008 5.03793 7.15008C5.48659 7.15008 5.85029 7.51378 5.85029 7.96244ZM5.03793 5.85029C5.48659 5.85029 5.85029 5.48659 5.85029 5.03793C5.85029 4.58927 5.48659 4.22556 5.03793 4.22556C4.58927 4.22556 4.22556 4.58927 4.22556 5.03793C4.22556 5.48659 4.58927 5.85029 5.03793 5.85029ZM8.44986 10.562C8.44986 10.8312 8.23163 11.0494 7.96244 11.0494C7.69325 11.0494 7.47502 10.8312 7.47502 10.562C7.47502 10.2928 7.69325 10.0746 7.96244 10.0746C8.23163 10.0746 8.44986 10.2928 8.44986 10.562ZM5.03793 11.0494C5.30712 11.0494 5.52535 10.8312 5.52535 10.562C5.52535 10.2928 5.30712 10.0746 5.03793 10.0746C4.76873 10.0746 4.55051 10.2928 4.55051 10.562C4.55051 10.8312 4.76873 11.0494 5.03793 11.0494ZM5.03793 2.92578C5.30712 2.92578 5.52535 2.70756 5.52535 2.43836C5.52535 2.16917 5.30712 1.95094 5.03793 1.95094C4.76873 1.95094 4.55051 2.16917 4.55051 2.43836C4.55051 2.70756 4.76873 2.92578 5.03793 2.92578ZM10.562 4.55051C10.8312 4.55051 11.0494 4.76873 11.0494 5.03793C11.0494 5.30712 10.8312 5.52535 10.562 5.52535C10.2928 5.52535 10.0746 5.30712 10.0746 5.03793C10.0746 4.76873 10.2928 4.55051 10.562 4.55051ZM2.92578 5.03793C2.92578 4.76873 2.70756 4.55051 2.43836 4.55051C2.16917 4.55051 1.95094 4.76873 1.95094 5.03793C1.95094 5.30712 2.16917 5.52535 2.43836 5.52535C2.70756 5.52535 2.92578 5.30712 2.92578 5.03793ZM10.562 7.47502C10.8312 7.47502 11.0494 7.69325 11.0494 7.96244C11.0494 8.23163 10.8312 8.44986 10.562 8.44986C10.2928 8.44986 10.0746 8.23163 10.0746 7.96244C10.0746 7.69325 10.2928 7.47502 10.562 7.47502ZM2.92578 7.96244C2.92578 7.69325 2.70756 7.47502 2.43836 7.47502C2.16917 7.47502 1.95094 7.69325 1.95094 7.96244C1.95094 8.23163 2.16917 8.44986 2.43836 8.44986C2.70756 8.44986 2.92578 8.23163 2.92578 7.96244Z"
          fill="currentColor"/>
</svg>
