<svg width="25" height="25" viewBox="0 0 25 25" fill="none" xmlns="http://www.w3.org/2000/svg">
    <path fill-rule="evenodd" clip-rule="evenodd"
          d="M12.5 25C19.4036 25 25 19.4036 25 12.5C25 5.59644 19.4036 0 12.5 0C5.59644 0 0 5.59644 0 12.5C0 19.4036 5.59644 25 12.5 25ZM13.4375 8.75C13.4375 8.23223 13.0178 7.8125 12.5 7.8125C11.9822 7.8125 11.5625 8.23223 11.5625 8.75L11.5625 11.5625H8.75C8.23223 11.5625 7.8125 11.9823 7.8125 12.5C7.8125 13.0178 8.23223 13.4375 8.75 13.4375H11.5625V16.25C11.5625 16.7678 11.9822 17.1875 12.5 17.1875C13.0178 17.1875 13.4375 16.7678 13.4375 16.25L13.4375 13.4375H16.25C16.7678 13.4375 17.1875 13.0178 17.1875 12.5C17.1875 11.9823 16.7678 11.5625 16.25 11.5625H13.4375V8.75Z"
          fill="var(--content-color)"/>
</svg>
