<svg width="21" height="24" viewBox="0 0 21 24" fill="none" xmlns="http://www.w3.org/2000/svg">
    <path fill-rule="evenodd" clip-rule="evenodd"
          d="M0.75 23C0.75 22.4477 1.13376 22 1.60714 22H19.8929C20.3662 22 20.75 22.4477 20.75 23C20.75 23.5523 20.3662 24 19.8929 24H1.60714C1.13376 24 0.75 23.5523 0.75 23Z"
          fill="var(--content-color)"/>
    <path d="M18.7134 1.0366C20.0955 2.41873 20.0955 4.65962 18.7134 6.04175L17.9149 6.84024C17.882 6.82935 17.8487 6.81806 17.815 6.80635C16.9716 6.51374 15.8659 5.96163 14.8273 4.92302C13.7887 3.88441 13.2366 2.77875 12.9439 1.93532C12.9322 1.90142 12.9208 1.86795 12.9099 1.83493L13.7083 1.0366C15.0904 -0.345533 17.3313 -0.345533 18.7134 1.0366Z"
          fill="var(--content-color)"/>
    <path d="M10.2101 14.5451C9.69067 15.0645 9.43092 15.3242 9.14455 15.5476C8.80674 15.8111 8.44122 16.037 8.05448 16.2213C7.72663 16.3775 7.37816 16.4937 6.68126 16.726L3.00626 17.951C2.6633 18.0653 2.28519 17.9761 2.02957 17.7204C1.77394 17.4648 1.68469 17.0867 1.799 16.7437L3.024 13.0687C3.25631 12.3718 3.37246 12.0234 3.52871 11.6955C3.71302 11.3088 3.93892 10.9433 4.20241 10.6055C4.42577 10.3191 4.68551 10.0593 5.20494 9.53991L11.8613 2.88351C12.2384 3.78952 12.8578 4.86268 13.8727 5.87761C14.8875 6.89238 15.9604 7.51173 16.8664 7.88879L10.2101 14.5451Z"
          fill="var(--content-color)"/>
</svg>
