<svg width="143" height="115" viewBox="0 0 143 115" fill="none" xmlns="http://www.w3.org/2000/svg">
    <path fill-rule="evenodd" clip-rule="evenodd"
          d="M59.0654 96.9482L70.9621 115L82.9346 96.9482L78.9315 63.8532L86.8167 90.8545L94.8819 78.6652L92.4156 69.6555L118.14 63.8532L134.871 70.7748L118.14 48.6133L149.42 79.1588L142.994 65.957L167 88.9968L127.724 20.1056C126.734 18.3701 125.391 16.9687 123.838 15.9445L118.746 24.366L121.413 14.7121C118.503 13.626 115.199 13.6771 112.205 15.0727C111.829 15.2477 111.481 15.4769 111.151 15.7291L97.2415 26.34L83.1945 27.7183L79.9254 16.9817L73.9119 16.0246H79.3579H87.404L85.6989 21.2218L90.3167 17.7542C92.22 16.3249 93.3406 14.0793 93.3406 11.6943C93.3406 9.87802 92.6895 8.12228 91.5063 6.74749L89.9149 4.89848C87.2378 1.78803 83.344 0 79.2475 0H55.5626L61.9309 6.38819L58.8007 27.7183L44.7585 26.34L30.8493 15.7291C30.5187 15.4769 30.1706 15.2477 29.7951 15.0727C26.8005 13.6771 23.4975 13.626 20.5867 14.7121L23.254 24.366L18.1619 15.9445C16.6095 16.9687 15.2659 18.3701 14.2764 20.1056L-25 88.9968L-0.994244 65.957L-7.42003 79.1588L23.8602 48.6133L7.12892 70.7748L23.8602 63.8532L49.5844 69.6555L47.1181 78.6652L55.1833 90.8545L63.0685 63.8532L59.0654 96.9482ZM73.2643 4.98062L74.1143 7.94372H78.3091C79.6611 7.94372 80.9793 8.36821 82.0787 9.15767L84.7056 11.044L83.1489 7.54608C82.4544 5.98556 80.9101 4.98062 79.2065 4.98062H73.2643Z"
          fill="var(--content-color)"/>
</svg>
