<svg width="63" height="37" viewBox="0 0 63 37" fill="none" xmlns="http://www.w3.org/2000/svg">
    <path d="M0 12.2406C0 5.4803 5.49145 0 12.2655 0H50.7345C57.5086 0 63 5.4803 63 12.2406V24.7594C63 31.5197 57.5086 37 50.7345 37H12.2655C5.49145 37 0 31.5197 0 24.7594V12.2406Z"
          fill="#202020"/>
    <g transform="translate(10,10)">
        <path fill-rule="evenodd" clip-rule="evenodd"
              d="M1.45714 12.7917L2.86571 2.9481L0 0H10.6582C12.5016 0 14.2538 0.825162 15.4585 2.2606L16.1746 3.11391C16.707 3.74836 17 4.55862 17 5.39682C17 6.49749 16.4958 7.53379 15.6393 8.1934L13.5613 9.79367L14.3286 7.39522H10.7078H8.25714L10.9632 7.83693L12.4343 12.7917C9.40133 12.7917 6.93513 14.6721 6.93513 17C6.93513 14.6721 4.4901 12.7917 1.45714 12.7917ZM7.96571 2.29852L8.34824 3.66596H10.2359C10.8443 3.66596 11.4374 3.86186 11.9322 4.22619L13.1143 5.09671L12.4138 3.48245C12.1013 2.76229 11.4063 2.29852 10.6397 2.29852H7.96571Z"
              fill="var(--content-color)"/>
    </g>
    <g transform="translate(40,15)">
        <path d="M5.53846 2.65793C6.15385 3.03218 6.15385 3.96782 5.53846 4.34207L1.38461 6.86828C0.76923 7.24253 1.80705e-07 6.77472 2.13423e-07 6.02621L4.34272e-07 0.973788C4.6699e-07 0.225281 0.769231 -0.242534 1.38462 0.131719L5.53846 2.65793Z"
              fill="var(--content-color)"/>
    </g>
</svg>
