<svg width="58" height="37" viewBox="0 0 58 37" fill="none" xmlns="http://www.w3.org/2000/svg">
    <path d="M0 12.2406C0 5.48031 5.49145 0 12.2655 0H45.7345C52.5086 0 58 5.48031 58 12.2406V24.7594C58 31.5197 52.5086 37 45.7345 37H12.2655C5.49145 37 0 31.5197 0 24.7594V12.2406Z"
          fill="#202020"/>

    <path transform="translate(14 10)" fill-rule="evenodd" clip-rule="venodd"
          d="M1.45714 12.7917L2.86571 2.9481L0 0H10.6582C12.5016 0 14.2538 0.825162 15.4585 2.2606L16.1746 3.11391C16.707 3.74836 17 4.55862 17 5.39682C17 6.49749 16.4958 7.53379 15.6393 8.1934L13.5613 9.79367L14.3286 7.39522H10.7078H8.25714L10.9632 7.83693L12.4343 12.7917C9.40133 12.7917 6.93513 14.6721 6.93513 17C6.93513 14.6721 4.4901 12.7917 1.45714 12.7917ZM7.96571 2.29852L8.34824 3.66596H10.2359C10.8443 3.66596 11.4374 3.86186 11.9322 4.22619L13.1143 5.09671L12.4138 3.48245C12.1013 2.76229 11.4063 2.29852 10.6397 2.29852H7.96571Z"
          fill="var(--content-color)"/>

    <path transform="translate(40.5 15.5)"
          d="M4.84207 6.03846C4.46782 6.65385 3.53218 6.65385 3.15793 6.03846L0.63172 1.88461C0.257466 1.26923 0.725283 0.5 1.47379 0.5L6.52621 0.5C7.27472 0.5 7.74253 1.26923 7.36828 1.88462L4.84207 6.03846Z"
          fill="var(--content-color)"/>
</svg>
