<svg width="25" height="23" viewBox="0 0 25 23" fill="none" xmlns="http://www.w3.org/2000/svg">
    <path d="M13.2285 0.5C19.2196 0.500101 24.1982 5.48396 24.1982 11.5C24.1982 17.5058 19.2295 22.5 13.2393 22.5C7.26011 22.4998 2.28126 17.5054 2.28125 11.5C2.28125 5.48294 7.24955 0.5 13.2285 0.5Z" fill="black" fill-opacity="0.2" stroke="black"/>
    <path d="M9.28802 16.4294C8.74954 16.4294 8.32812 15.9942 8.32812 15.4532C8.32812 15.1943 8.42177 14.9473 8.60906 14.7708L11.8516 11.5008L8.60906 8.24256C8.42177 8.05437 8.32812 7.81911 8.32812 7.56033C8.32812 7.00748 8.74954 6.59579 9.28802 6.59579C9.55726 6.59579 9.76797 6.68989 9.95527 6.86633L13.2213 10.1364L16.5107 6.85456C16.7097 6.65461 16.9204 6.57227 17.1779 6.57227C17.7163 6.57227 18.1496 6.99572 18.1496 7.53681C18.1496 7.80735 18.0676 8.01908 17.8568 8.2308L14.6026 11.5008L17.8452 14.7591C18.0442 14.9356 18.1378 15.1825 18.1378 15.4532C18.1378 15.9942 17.7047 16.4294 17.1545 16.4294C16.8853 16.4294 16.6394 16.3353 16.4638 16.1471L13.2213 12.8771L9.99038 16.1471C9.80309 16.3353 9.55726 16.4294 9.28802 16.4294Z" fill="black"/>
</svg>
