<svg width="18" height="19" viewBox="0 0 18 19" fill="none" xmlns="http://www.w3.org/2000/svg">
    <path fill-rule="evenodd" clip-rule="evenodd" d="M9.97799 18.4184L10.4659 17.5483C10.8443 16.8734 11.0335 16.536 11.3375 16.3494C11.6414 16.1628 12.024 16.1559 12.7893 16.1419C13.9192 16.1214 14.6278 16.0483 15.2221 15.7885C16.3247 15.3064 17.2007 14.3817 17.6575 13.2178C18 12.3449 18 11.2383 18 9.02504V8.07503C18 4.96526 18 3.41038 17.3369 2.26814C16.9658 1.629 16.4567 1.09163 15.8512 0.699962C14.7691 0 13.2961 0 10.35 0H7.65C4.70391 0 3.23087 0 2.14876 0.699962C1.54326 1.09163 1.03417 1.629 0.663119 2.26814C0 3.41038 0 4.96526 0 8.07503V9.02504C0 11.2383 0 12.3449 0.342542 13.2178C0.799265 14.3817 1.6753 15.3064 2.77792 15.7885C3.3722 16.0483 4.0808 16.1214 5.21062 16.1419C5.97593 16.1559 6.35858 16.1628 6.66251 16.3494C6.96644 16.536 7.15565 16.8734 7.53409 17.5483L8.02197 18.4184C8.45682 19.1939 9.54314 19.1939 9.97799 18.4184ZM9 4.03752C9.37279 4.03752 9.675 4.35652 9.675 4.75002V12.3501C9.675 12.7436 9.37279 13.0626 9 13.0626C8.62721 13.0626 8.325 12.7436 8.325 12.3501V4.75002C8.325 4.35652 8.62721 4.03752 9 4.03752ZM6.075 6.65003C6.075 6.25652 5.77279 5.93752 5.4 5.93752C5.02721 5.93752 4.725 6.25652 4.725 6.65003V10.45C4.725 10.8435 5.02721 11.1625 5.4 11.1625C5.77279 11.1625 6.075 10.8435 6.075 10.45V6.65003ZM12.6 5.93752C12.9728 5.93752 13.275 6.25652 13.275 6.65003V10.45C13.275 10.8435 12.9728 11.1625 12.6 11.1625C12.2272 11.1625 11.925 10.8435 11.925 10.45V6.65003C11.925 6.25652 12.2272 5.93752 12.6 5.93752Z" fill="#7211F8"/>
</svg>