<svg width="16" height="16" viewBox="0 0 16 16" fill="none" xmlns="http://www.w3.org/2000/svg">
    <g clip-path="url(#clip0_0_1745)">
        <path fill-rule="evenodd" clip-rule="evenodd"
              d="M8 16C12.4183 16 16 12.4183 16 8C16 3.58172 12.4183 0 8 0C3.58172 0 0 3.58172 0 8C0 12.4183 3.58172 16 8 16ZM9.62426 5.17574C9.85858 5.41005 9.85858 5.78995 9.62426 6.02426L7.64853 8L9.62426 9.97574C9.85858 10.2101 9.85858 10.5899 9.62426 10.8243C9.38995 11.0586 9.01005 11.0586 8.77574 10.8243L6.37574 8.42426C6.14142 8.18995 6.14142 7.81005 6.37574 7.57574L8.77574 5.17574C9.01005 4.94142 9.38995 4.94142 9.62426 5.17574Z"
              fill="#7211F8"/>
    </g>
    <defs>
        <clipPath id="clip0_0_1745">
            <rect width="16" height="16" fill="white"/>
        </clipPath>
    </defs>
</svg>
