<svg width="59" height="37" viewBox="0 0 59 37" fill="none" xmlns="http://www.w3.org/2000/svg">
    <path d="M0 12.2406C0 5.48031 5.49145 0 12.2655 0H46.7345C53.5086 0 59 5.48031 59 12.2406V24.7594C59 31.5197 53.5086 37 46.7345 37H12.2655C5.49145 37 0 31.5197 0 24.7594V12.2406Z"
          fill="#7211F8"/>
    <svg x="12" y="12" width="18" height="15" viewBox="0 0 18 15" fill="none" xmlns="http://www.w3.org/2000/svg">
        <path d="M0 11.332V1.71029C0 0.762286 0.79767 -0.00783802 1.78416 0.0503169C2.6629 0.102119 3.70214 0.204514 4.5 0.40646C5.44429 0.645468 6.5665 1.15453 7.45403 1.60468C7.73037 1.74484 8.02424 1.84206 8.325 1.89687L8.325 15C8.05235 14.9424 7.78636 14.8493 7.53517 14.7209C6.63564 14.261 5.47331 13.7277 4.5 13.4813C3.71096 13.2816 2.68585 13.1793 1.81337 13.1269C0.815441 13.0671 0 12.2911 0 11.332Z"
              fill="#070707"/>
        <path d="M9.675 15C9.94765 14.9424 10.2136 14.8493 10.4648 14.7209C11.3644 14.261 12.5267 13.7277 13.5 13.4813C14.289 13.2816 15.3141 13.1793 16.1866 13.1269C17.1846 13.0671 18 12.2911 18 11.332V1.65452C18 0.728717 17.2384 -0.0312405 16.2738 0.000988747C15.2581 0.0349255 13.9922 0.1359 13.05 0.40646C12.2331 0.641025 11.2818 1.11152 10.5065 1.54192C10.2441 1.68754 9.96374 1.7945 9.675 1.86232V15Z"
              fill="#070707"/>
    </svg>
    <svg x="43" y="15" width="6" height="7" viewBox="0 0 6 7" fill="none" xmlns="http://www.w3.org/2000/svg">
        <path d="M5.53846 2.65793C6.15385 3.03218 6.15385 3.96782 5.53846 4.34207L1.38461 6.86828C0.76923 7.24253 1.80705e-07 6.77472 2.13423e-07 6.02621L4.34272e-07 0.973788C4.6699e-07 0.225281 0.769231 -0.242534 1.38462 0.131719L5.53846 2.65793Z"
              fill="black"/>
    </svg>
</svg>
