<svg width="60" height="55" viewBox="0 0 60 55" fill="none" xmlns="http://www.w3.org/2000/svg">
    <path fill-rule="evenodd" clip-rule="evenodd"
          d="M50.0649 23.7157C41.3098 7.90522 36.9322 -2.01665e-06 30 -2.62268e-06C23.0678 -3.22872e-06 18.6902 7.90521 9.93515 23.7156L8.84417 25.6858C1.56874 38.8242 -2.06897 45.3934 1.21877 50.1967C4.50651 55 12.6407 55 28.909 55L31.091 55C47.3593 55 55.4935 55 58.7812 50.1967C62.069 45.3934 58.4313 38.8242 51.1558 25.6858L50.0649 23.7157ZM30 12.9861C28.7574 12.9861 27.75 14.0121 27.75 15.2778L27.75 30.5556C27.75 31.8212 28.7574 32.8472 30 32.8472C31.2426 32.8472 32.25 31.8212 32.25 30.5556L32.25 15.2778C32.25 14.0121 31.2426 12.9861 30 12.9861ZM30 42.7778C28.3431 42.7778 27 41.4098 27 39.7222C27 38.0347 28.3431 36.6667 30 36.6667C31.6569 36.6667 33 38.0347 33 39.7222C33 41.4098 31.6569 42.7778 30 42.7778Z"
          fill="#F81B11"/>
</svg>