<svg width="130" height="64" viewBox="0 0 130 64" fill="none" xmlns="http://www.w3.org/2000/svg">
    <path d="M64.236 0.795539C64.4039 -0.0385327 65.5961 -0.0385308 65.764 0.795541C71.9906 31.7282 95.798 55.9018 126.262 62.2242L130 63L126.262 63.7758C95.798 70.0982 71.9906 94.2718 65.764 125.204L65 129L64.236 125.204C58.0094 94.2718 34.202 70.0982 3.73803 63.7758L0 63L3.73803 62.2242C34.202 55.9018 58.0094 31.7282 64.236 0.795539Z"
          fill="#141414"/>
    <path fill-rule="evenodd" clip-rule="evenodd"
          d="M1.37143 12.0393L2.69714 2.77468L0 0H10.0312C11.7662 0 13.4153 0.776623 14.5491 2.12763L15.2231 2.93074C15.7243 3.52787 16 4.29047 16 5.07936C16 6.11529 15.5254 7.09063 14.7193 7.71143L12.7635 9.21757L13.4857 6.96021H10.078H7.77143L10.3183 7.37593L11.7029 12.0393C8.84831 12.0393 6.52718 13.809 6.52718 16C6.52718 13.809 4.22598 12.0393 1.37143 12.0393ZM7.49714 2.16331L7.85717 3.45031H9.63374C10.2064 3.45031 10.7647 3.63469 11.2303 3.97759L12.3429 4.7969L11.6835 3.2776C11.3894 2.5998 10.7353 2.16331 10.0138 2.16331H7.49714Z"
          fill="#5F5F5F" transform="translate(57, 37)"/>
</svg>
