<svg width="167" height="13" viewBox="0 0 167 13" fill="none" xmlns="http://www.w3.org/2000/svg">
    <path d="M7.54702 13H20.8309V9.00032H7.54702C6.2959 9.00032 5.49098 8.75377 5.00748 8.38392C4.58218 8.05858 4.29532 7.49959 4.29532 6.51654V6.5C4.29532 5.51695 4.58218 4.95796 5.00748 4.63263L5.01064 4.63021L5.01377 4.62776C5.49649 4.25065 6.29871 3.99968 7.54702 3.99968H16.1439L20.8309 3.95005L20.8309 0H7.54702C5.26539 0 3.38931 0.501669 2.03256 1.61775C0.641618 2.76194 0 4.43752 0 6.5V6.51654C0 8.57657 0.634416 10.2515 2.01307 11.3965L2.01618 11.399L2.01931 11.4016C3.37646 12.5052 5.25722 13 7.54702 13Z"
          fill="white"/>
    <path d="M154.539 9.38498V0H150.11V13H167V9.38498H154.539Z" fill="white"/>
    <path fill-rule="evenodd" clip-rule="evenodd"
          d="M138.404 0H135.062L123.614 13H128.822L130.805 10.7499L134.05 7.04804L136.733 3.9911L139.416 7.04804L142.659 10.7499L144.625 13H149.852L138.404 0Z"
          fill="white"/>
    <path fill-rule="evenodd" clip-rule="evenodd" d="M118.874 0H123.303V13H119.551L105.388 5.09577V13H100.96V0H104.712L118.874 7.90423V0Z" fill="white"/>
    <path fill-rule="evenodd" clip-rule="evenodd" d="M94.6902 13V0H99.1188V13H94.6902Z" fill="white"/>
    <path fill-rule="evenodd" clip-rule="evenodd"
          d="M70.4677 13H65.4167L63.1003 9.62488H51.9459V13H47.6506V0H63.2633C64.353 0 65.3048 0.113917 66.0957 0.366065C66.8718 0.599296 67.5393 0.93905 68.058 1.41225C68.5597 1.86995 68.9248 2.41463 69.136 3.04173C69.3319 3.61301 69.4272 4.21596 69.4272 4.84553V4.86207C69.4272 5.29576 69.376 5.72386 69.2738 6.14512C69.1774 6.57839 69.0125 6.98632 68.7805 7.36574C68.5413 7.75683 68.2306 8.10298 67.8587 8.40631L67.8521 8.41165L67.8454 8.41685C67.7009 8.52958 67.546 8.63345 67.3816 8.72904L70.4677 13ZM64.3339 5.69175C64.6106 5.62882 64.7848 5.54995 64.8886 5.47942C64.9908 5.40999 65.0357 5.34572 65.0597 5.28909C65.1006 5.19275 65.1318 5.05591 65.1318 4.86207V4.84553C65.1318 4.66741 65.1021 4.53503 65.0597 4.43506C65.0357 4.37843 64.9908 4.31415 64.8886 4.24473C64.792 4.17908 64.6241 4.10478 64.3481 4.05173L64.3335 4.04893L64.319 4.04557C64.0628 3.98622 63.7155 3.95005 63.2633 3.95005H51.9459V5.7741H63.2633C63.7156 5.7741 64.0687 5.74349 64.3339 5.69175Z"
          fill="white"/>
    <path fill-rule="evenodd" clip-rule="evenodd"
          d="M35.9139 0H32.5716L21.1235 13H26.3315L28.3146 10.7499L31.5599 7.04804L34.2427 3.9911L36.9255 7.04804L40.1689 10.7499L42.1353 13H47.3619L35.9139 0Z"
          fill="white"/>
    <path fill-rule="evenodd" clip-rule="evenodd"
          d="M91.5761 11.3988L91.5755 11.3993C90.2282 12.5054 88.3508 13 86.0617 13H70.6989V0H86.0617C88.3433 0 90.2194 0.501669 91.5761 1.61775C92.9671 2.76194 93.6087 4.43752 93.6087 6.5V6.51654C93.6087 8.57903 92.9671 10.2546 91.5761 11.3988ZM75.1276 9.00032H86.0617C87.4173 9.00032 88.2142 8.73654 88.6354 8.37706C89.0453 8.02726 89.3134 7.4587 89.3134 6.51654V6.5C89.3134 5.5439 89.0436 4.97131 88.6354 4.62294C88.2142 4.26345 87.4173 3.99968 86.0617 3.99968H75.1276V9.00032Z"
          fill="white"/>
</svg>
