<svg width="187" height="111" viewBox="0 0 187 111" fill="none" xmlns="http://www.w3.org/2000/svg">
    <path fill-rule="evenodd" clip-rule="evenodd"
          d="M81.8762 93.5761L93.4631 111L105.124 93.5761L101.225 61.6322L108.905 87.6944L116.76 75.929L114.358 67.2327L139.412 61.6322L155.708 68.3131L139.412 46.9224L169.878 76.4054L163.619 63.6628L187 85.9012L148.746 19.4063C147.783 17.7311 146.474 16.3785 144.962 15.3899L140.003 23.5185L142.6 14.2004C139.765 13.1521 136.548 13.2014 133.632 14.5485C133.266 14.7174 132.927 14.9385 132.605 15.182L119.058 25.4238L105.377 26.7541L102.193 16.3911L96.3361 15.4672H101.64H109.477L107.816 20.4836L112.314 17.1366C114.167 15.7571 115.259 13.5896 115.259 11.2876C115.259 9.53444 114.625 7.83977 113.472 6.5128L111.922 4.72809C109.315 1.72584 105.523 0 101.533 0H78.4646L84.6671 6.16599L81.6184 26.7541L67.9419 25.4238L54.3949 15.182C54.0729 14.9385 53.7338 14.7174 53.3682 14.5485C50.4516 13.2014 47.2345 13.1521 44.3995 14.2004L46.9974 23.5185L42.0379 15.3899C40.5259 16.3785 39.2173 17.7311 38.2536 19.4063L0 85.9012L23.3806 63.6628L17.1222 76.4054L47.5878 46.9224L31.2922 68.3131L47.5878 61.6322L72.6421 67.2327L70.2401 75.929L78.0952 87.6944L85.7751 61.6322L81.8762 93.5761ZM95.7053 4.80738L96.5332 7.66741H100.619C101.936 7.66741 103.219 8.07714 104.29 8.83914L106.849 10.6599L105.333 7.2836C104.656 5.77737 103.152 4.80738 101.493 4.80738H95.7053Z"
          fill="white"/>
</svg>
