<svg width="21" height="15" viewBox="0 0 21 15" fill="none" xmlns="http://www.w3.org/2000/svg">
    <path d="M19.8884 3.18881C20.4976 3.76206 20.7596 4.48386 20.8821 5.34111C21 6.1668 21 7.21664 21 8.51912V8.62363C21 9.92611 21 10.976 20.8821 11.8016C20.7596 12.6589 20.4976 13.3807 19.8884 13.9539C19.2793 14.5272 18.5123 14.7738 17.6013 14.889C16.724 15 15.6084 15 14.2243 15H9.0531C7.66906 15 6.55348 15 5.67609 14.889C4.76515 14.7738 3.99816 14.5272 3.389 13.9539C3.01944 13.6062 2.77762 13.2037 2.61724 12.7495C3.53227 12.8574 4.66431 12.8573 5.97226 12.8573H11.2323C12.578 12.8573 13.7375 12.8574 14.666 12.7399C15.6611 12.614 16.615 12.3301 17.3887 11.602C18.1624 10.8739 18.4641 9.97624 18.5979 9.03978C18.7227 8.16597 18.7226 7.07481 18.7226 5.80839V5.6203C18.7226 4.38912 18.7227 3.32356 18.608 2.46234C19.0909 2.61328 19.5187 2.84088 19.8884 3.18881Z"
          fill="white"/>
    <path d="M8.60226 4.04765C7.62413 4.04765 6.83121 4.79385 6.83121 5.71433C6.83121 6.63482 7.62413 7.38101 8.60226 7.38101C9.58039 7.38101 10.3733 6.63482 10.3733 5.71433C10.3733 4.79385 9.58039 4.04765 8.60226 4.04765Z"
          fill="white"/>
    <path fill-rule="evenodd" clip-rule="evenodd"
          d="M0.889251 0.836845C0 1.67369 0 3.02057 0 5.71433C0 8.4081 0 9.75498 0.889251 10.5918C1.7785 11.4287 3.20973 11.4287 6.07218 11.4287H11.1323C13.9948 11.4287 15.426 11.4287 16.3153 10.5918C17.2045 9.75498 17.2045 8.4081 17.2045 5.71433C17.2045 3.02057 17.2045 1.67369 16.3153 0.836845C15.426 0 13.9948 0 11.1323 0H6.07218C3.20973 0 1.7785 0 0.889251 0.836845ZM5.31316 5.71433C5.31316 4.00487 6.78574 2.61907 8.60226 2.61907C10.4188 2.61907 11.8914 4.00487 11.8914 5.71433C11.8914 7.4238 10.4188 8.8096 8.60226 8.8096C6.78574 8.8096 5.31316 7.4238 5.31316 5.71433ZM14.1684 8.3334C13.7492 8.3334 13.4094 8.0136 13.4094 7.61911V3.80956C13.4094 3.41506 13.7492 3.09526 14.1684 3.09526C14.5876 3.09526 14.9274 3.41506 14.9274 3.80956V7.61911C14.9274 8.0136 14.5876 8.3334 14.1684 8.3334ZM2.27707 7.61911C2.27707 8.0136 2.6169 8.3334 3.03609 8.3334C3.45529 8.3334 3.79511 8.0136 3.79511 7.61911L3.79511 3.80956C3.79511 3.41506 3.45529 3.09526 3.03609 3.09526C2.61689 3.09526 2.27707 3.41506 2.27707 3.80956L2.27707 7.61911Z"
          fill="white"/>
</svg>
