<svg width="214" height="126" viewBox="0 0 214 126" fill="none" xmlns="http://www.w3.org/2000/svg">
    <path fill-rule="evenodd" clip-rule="evenodd"
          d="M106.958 126L93.7601 106.221L98.201 69.9609L89.4534 99.5449L80.5061 86.1897L83.242 76.3182L54.7043 69.9609L36.143 77.5446L54.7043 53.2632L20.0028 86.7305L27.1314 72.2659L0.5 97.5095L44.0723 22.0288C45.17 20.1272 46.6605 18.5918 48.3827 17.4696L54.0318 26.6967L51.0727 16.1194C54.3019 14.9294 57.9662 14.9854 61.2883 16.5145C61.7049 16.7062 62.0911 16.9573 62.4578 17.2336L77.8884 28.8595L93.4664 30.3696L96.939 6.99924L89.8742 0H116.15C120.694 0 125.014 1.95906 127.984 5.36703L129.749 7.3929C131.062 8.8992 131.784 10.8229 131.784 12.8129C131.784 15.4261 130.541 17.8864 128.429 19.4524L123.307 23.2517L125.198 17.5574H116.272H110.23L116.902 18.6061L120.528 30.3696L136.112 28.8595L151.542 17.2336C151.909 16.9573 152.295 16.7062 152.712 16.5145C156.034 14.9854 159.698 14.9294 162.927 16.1194L159.968 26.6967L165.617 17.4696C167.339 18.5918 168.83 20.1272 169.928 22.0288L213.5 97.5095L186.869 72.2659L193.997 86.7305L159.296 53.2632L177.857 77.5446L159.296 69.9609L130.758 76.3182L133.494 86.1897L124.547 99.5449L115.799 69.9609L120.24 106.221L106.958 126ZM110.455 8.70355L109.512 5.45703H116.104C117.994 5.45703 119.707 6.5581 120.478 8.26787L122.205 12.1004L119.29 10.0336C118.071 9.16865 116.608 8.70355 115.108 8.70355H110.455ZM106.5 35C101.654 35 97.725 39.078 97.725 44.1084V46.8809C96.2758 46.9933 95.3321 47.2769 94.6423 47.9929C93.5 49.1786 93.5 51.0869 93.5 54.9036C93.5 58.7203 93.5 60.6286 94.6423 61.8143C95.7846 63 97.623 63 101.3 63H111.7C115.377 63 117.215 63 118.358 61.8143C119.5 60.6286 119.5 58.7203 119.5 54.9036C119.5 51.0869 119.5 49.1786 118.358 47.9929C117.668 47.2769 116.724 46.9933 115.275 46.8809V44.1084C115.275 39.078 111.346 35 106.5 35ZM106.5 37.0241C102.731 37.0241 99.675 40.1959 99.675 44.1084V46.8121C100.173 46.8072 100.713 46.8072 101.3 46.8072H111.7C112.287 46.8072 112.827 46.8072 113.325 46.8121V44.1084C113.325 40.1959 110.269 37.0241 106.5 37.0241ZM106.5 57.6024C107.936 57.6024 109.1 56.3941 109.1 54.9036C109.1 53.4131 107.936 52.2048 106.5 52.2048C105.064 52.2048 103.9 53.4131 103.9 54.9036C103.9 56.3941 105.064 57.6024 106.5 57.6024Z"
          fill="#F81B11"/>
</svg>
