<svg width="76" height="76" viewBox="0 0 76 76" fill="none" xmlns="http://www.w3.org/2000/svg">
    <circle cx="37.5652" cy="37.5652" r="37.0652" fill="#BEF811" fill-opacity="0.3" stroke="#BEF811"/>

    <path d="M2.28864 12.2673L6.48632 5.84555C9.1997 1.69458 10.5564 -0.380914 11.8222 0.0576808C13.0879 0.496276 13.0879 3.04186 13.0879 8.13303V8.61307C13.0879 10.4493 13.0879 11.3675 13.6068 11.9434L13.6343 11.9732C14.1644 12.537 15.0095 12.537 16.6998 12.537C19.7415 12.537 21.2624 12.537 21.7764 13.58C21.7849 13.5973 21.7932 13.6147 21.8012 13.6322C22.2864 14.6915 21.4058 16.0386 19.6446 18.7328L15.447 25.1544C12.7335 29.3054 11.3768 31.3809 10.111 30.9423C8.84527 30.5037 8.8453 27.9581 8.84537 22.8669L8.84538 22.387C8.8454 20.5507 8.84541 19.6326 8.3265 19.0567L8.29904 19.0268C7.76893 18.4631 6.92379 18.4631 5.2335 18.4631C2.1918 18.4631 0.67095 18.4631 0.156956 17.42C0.148446 17.4028 0.140172 17.3854 0.132139 17.3678C-0.35307 16.3086 0.527501 14.9615 2.28864 12.2673Z"
          fill="#BEF811" transform="translate(14 22)"/>
    <path d="M27.3553 12.2673L31.553 5.84555C34.2664 1.69458 35.6231 -0.380914 36.8888 0.0576808C38.1546 0.496276 38.1546 3.04186 38.1546 8.13303V8.61307C38.1546 10.4493 38.1546 11.3675 38.6735 11.9434L38.701 11.9732C39.2311 12.537 40.0762 12.537 41.7665 12.537C44.8082 12.537 46.3291 12.537 46.843 13.58C46.8516 13.5973 46.8598 13.6147 46.8679 13.6322C47.3531 14.6915 46.4725 16.0386 44.7113 18.7328L40.5136 25.1544C37.8002 29.3054 36.4435 31.3809 35.1777 30.9423C33.9119 30.5037 33.912 27.9581 33.912 22.8669L33.912 22.387C33.9121 20.5507 33.9121 19.6326 33.3932 19.0567L33.3657 19.0268C32.8356 18.4631 31.9905 18.4631 30.3002 18.4631C27.2585 18.4631 25.7376 18.4631 25.2236 17.42C25.2151 17.4028 25.2068 17.3854 25.1988 17.3678C24.7136 16.3086 25.5942 14.9615 27.3553 12.2673Z"
          fill="#BEF811" transform="translate(14 22)"/>
</svg>
