<svg width="12" height="12" viewBox="0 0 12 12" fill="none" xmlns="http://www.w3.org/2000/svg">
    <path d="M5.44652 0.923532L5.51054 1.24203C6.03228 3.83767 8.02716 5.86614 10.5798 6.39667L10.893 6.46177L10.5798 6.52686C8.02716 7.05739 6.03228 9.08586 5.51054 11.6815L5.44652 12L5.3825 11.6815C4.86076 9.08586 2.86588 7.05739 0.313219 6.52686L0 6.46177L0.313219 6.39667C2.86588 5.86614 4.86076 3.83767 5.3825 1.24203L5.44652 0.923532Z"
          fill="#7211F8"/>
    <path d="M10.1534 0L10.1751 0.111491C10.352 1.02012 11.0284 1.7302 11.8938 1.91592L12 1.9387L11.8938 1.96149C11.0284 2.14721 10.352 2.85729 10.1751 3.76592L10.1534 3.87741L10.1317 3.76592C9.95482 2.85729 9.27848 2.14721 8.41302 1.96149L8.30683 1.9387L8.41302 1.91592C9.27848 1.7302 9.95482 1.02012 10.1317 0.111491L10.1534 0Z"
          fill="#7211F8"/>
</svg>
