<svg width="26" height="26" viewBox="0 0 26 26" fill="none" xmlns="http://www.w3.org/2000/svg">
    <path d="M11.7996 2.00098L11.9383 2.69104C13.0686 8.3149 17.3904 12.7099 22.9205 13.8594L23.5991 14.0004L22.9205 14.1415C17.3904 15.2909 13.0686 19.6859 11.9383 25.3098L11.7996 25.9999L11.6609 25.3098C10.5306 19.6859 6.20885 15.2909 0.678718 14.1415L0.000152588 14.0004L0.678718 13.8594C6.20885 12.7099 10.5306 8.3149 11.6609 2.69104L11.7996 2.00098Z"
          fill="#F81B11"/>
    <path d="M21.9965 0L22.0435 0.241563C22.4268 2.21024 23.892 3.74875 25.7669 4.15113L25.997 4.2005L25.7669 4.24988C23.892 4.65226 22.4268 6.19076 22.0435 8.15944L21.9965 8.40101L21.9495 8.15944C21.5663 6.19076 20.101 4.65226 18.2261 4.24988L17.996 4.2005L18.2261 4.15113C20.101 3.74875 21.5663 2.21024 21.9495 0.241563L21.9965 0Z"
          fill="#F81B11"/>
</svg>
