<svg width="76" height="76" viewBox="0 0 76 76" fill="none" xmlns="http://www.w3.org/2000/svg">
    <circle cx="38.0008" cy="37.5652" r="37.0652" fill="#F81B11" fill-opacity="0.3" stroke="#F81B11"/>
    <path fill-rule="evenodd" clip-rule="evenodd"
          d="M5.62991 13.367C10.5911 4.45567 13.0717 0 17 0C20.9283 0 23.4089 4.45567 28.3701 13.367L28.9883 14.4775C33.111 21.8827 35.1724 25.5854 33.3094 28.2927C31.4463 31 26.8369 31 17.6182 31H16.3818C7.16305 31 2.55369 31 0.690637 28.2927C-1.17242 25.5854 0.88895 21.8827 5.01169 14.4775L5.62991 13.367ZM17 7.31944C17.7042 7.31944 18.275 7.89774 18.275 8.61111V17.2222C18.275 17.9356 17.7042 18.5139 17 18.5139C16.2958 18.5139 15.725 17.9356 15.725 17.2222V8.61111C15.725 7.89774 16.2958 7.31944 17 7.31944ZM17 24.1111C17.9389 24.1111 18.7 23.34 18.7 22.3889C18.7 21.4377 17.9389 20.6667 17 20.6667C16.0611 20.6667 15.3 21.4377 15.3 22.3889C15.3 23.34 16.0611 24.1111 17 24.1111Z"
          fill="#F81B11" transform="translate(21.5, 20)"/>
</svg>
