<svg width="17" height="19" viewBox="0 0 17 19" fill="none" xmlns="http://www.w3.org/2000/svg">
    <path fill-rule="evenodd" clip-rule="evenodd"
          d="M8.15149 18.8111C12.6534 18.8111 16.303 15.1582 16.303 10.6521C16.303 6.14597 12.6534 2.49304 8.15149 2.49304C3.64954 2.49304 0 6.14597 0 10.6521C0 15.1582 3.64954 18.8111 8.15149 18.8111ZM8.15149 6.34592C8.52665 6.34592 8.83078 6.65033 8.83078 7.02584V10.6521C8.83078 11.0276 8.52665 11.332 8.15149 11.332C7.77633 11.332 7.4722 11.0276 7.4722 10.6521V7.02584C7.4722 6.65033 7.77633 6.34592 8.15149 6.34592Z"
          fill="#7211F8"/>
    <path fill-rule="evenodd" clip-rule="evenodd"
          d="M5.66075 0.67992C5.66075 0.304411 5.96488 0 6.34005 0H9.96293C10.3381 0 10.6422 0.304411 10.6422 0.67992C10.6422 1.05543 10.3381 1.35984 9.96293 1.35984H6.34005C5.96488 1.35984 5.66075 1.05543 5.66075 0.67992Z"
          fill="#7211F8"/>
</svg>