<svg width="390" height="370" viewBox="0 0 390 370" fill="none" xmlns="http://www.w3.org/2000/svg">
    <path fill-rule="evenodd" clip-rule="evenodd"
          d="M156.586 311.92L194.878 369.999L233.414 311.92L220.529 205.441L245.91 292.315L271.87 253.097L263.932 224.109L346.731 205.441L400.585 227.71L346.731 156.408L447.414 254.685L426.731 212.209L504 286.337L377.579 64.6877C374.394 59.1037 370.069 54.5949 365.073 51.2997L348.682 78.395L357.268 47.3347C347.899 43.8403 337.267 44.0047 327.628 48.4949C326.42 49.0579 325.299 49.7951 324.235 50.6065L279.465 84.7461L234.251 89.1805L223.729 54.6369L204.373 51.5575H221.902H247.8L242.312 68.2788L257.176 57.1221C263.302 52.5235 266.909 45.2987 266.909 37.6252C266.909 31.7815 264.813 26.1326 261.005 21.7093L255.882 15.7603C247.265 5.7528 234.732 0 221.547 0H145.311L165.809 20.5533L155.734 89.1805L110.535 84.7461L65.765 50.6065C64.7009 49.7951 63.5803 49.0579 62.3718 48.4949C52.733 44.0047 42.1013 43.8403 32.7322 47.3347L41.3176 78.395L24.9273 51.2997C19.9305 54.5949 15.606 59.1037 12.421 64.6877L-114 286.337L-36.7315 212.209L-57.4145 254.685L43.2688 156.408L-10.585 227.71L43.2688 205.441L126.068 224.109L118.13 253.097L144.09 292.315L169.471 205.441L156.586 311.92ZM202.288 16.0246L205.024 25.558H218.526C222.878 25.558 227.121 26.9238 230.66 29.4638L239.115 35.5328L234.104 24.2787C231.869 19.2579 226.898 16.0246 221.415 16.0246H202.288Z"
          fill="url(#paint0_linear_1562_3463)"/>
    <defs>
        <linearGradient id="paint0_linear_1562_3463" x1="195" y1="0" x2="195" y2="370" gradientUnits="userSpaceOnUse">
            <stop stop-color="#3D0C80"/>
            <stop offset="1" stop-color="#5B0FC5"/>
        </linearGradient>
    </defs>
</svg>