<svg width="20" height="20" viewBox="0 0 20 20" fill="none" xmlns="http://www.w3.org/2000/svg">
    <path d="M7.18109 7.18109C7.2342 7.12798 7.32905 7.0623 7.63166 7.02161C7.95434 6.97823 8.39227 6.97675 9.06977 6.97675H10.9302C11.6077 6.97675 12.0457 6.97823 12.3684 7.02161C12.671 7.0623 12.7658 7.12798 12.8189 7.18109C12.872 7.2342 12.9377 7.32905 12.9784 7.63166C13.0218 7.95434 13.0233 8.39227 13.0233 9.06977V10.9302C13.0233 11.6077 13.0218 12.0457 12.9784 12.3684C12.9377 12.671 12.872 12.7658 12.8189 12.8189C12.7658 12.872 12.671 12.9377 12.3684 12.9784C12.0457 13.0218 11.6077 13.0233 10.9302 13.0233H9.06977C8.39227 13.0233 7.95434 13.0218 7.63166 12.9784C7.32905 12.9377 7.2342 12.872 7.18109 12.8189C7.12798 12.7658 7.0623 12.671 7.02161 12.3684C6.97823 12.0457 6.97675 11.6077 6.97675 10.9302V9.06977C6.97675 8.39227 6.97823 7.95434 7.02161 7.63166C7.0623 7.32905 7.12798 7.2342 7.18109 7.18109Z"
          fill="#F81B11"/>
    <path fill-rule="evenodd" clip-rule="evenodd"
          d="M10 0C10.3853 0 10.6977 0.312359 10.6977 0.697674V3.48884C11.2084 3.48991 11.6717 3.49342 12.0932 3.50495L12.093 3.48837V0.697675C12.093 0.31236 12.4054 0 12.7907 0C13.176 0 13.4884 0.312359 13.4884 0.697674V3.48837C13.4884 3.52487 13.4856 3.56071 13.4802 3.5957C14.4162 3.71067 15.0648 3.94879 15.558 4.44198C16.0512 4.93517 16.2893 5.58381 16.4043 6.51984C16.4393 6.51443 16.4751 6.51163 16.5116 6.51163H19.3023C19.6876 6.51163 20 6.82399 20 7.2093C20 7.59462 19.6876 7.90698 19.3023 7.90698H16.5116L16.495 7.90678C16.5066 8.32827 16.5106 8.79158 16.5116 9.30233H19.3023C19.6876 9.30233 20 9.61469 20 10C20 10.3853 19.6876 10.6977 19.3023 10.6977L16.5112 10.6977C16.5101 11.2084 16.5066 11.6717 16.495 12.0932L16.5116 12.093H19.3023C19.6876 12.093 20 12.4054 20 12.7907C20 13.176 19.6876 13.4884 19.3023 13.4884H16.5116C16.4751 13.4884 16.4393 13.4856 16.4043 13.4802C16.2893 14.4162 16.0512 15.0648 15.558 15.558C15.0648 16.0512 14.4162 16.2893 13.4802 16.4043C13.4856 16.4393 13.4884 16.4751 13.4884 16.5116V19.3023C13.4884 19.6876 13.176 20 12.7907 20C12.4054 20 12.093 19.6876 12.093 19.3023V16.5116L12.0932 16.495C11.6717 16.5066 11.2084 16.5106 10.6977 16.5116V19.3023C10.6977 19.6876 10.3853 20 10 20C9.61469 20 9.30233 19.6876 9.30233 19.3023L9.30233 16.5112C8.79159 16.5101 8.32827 16.5066 7.90678 16.495L7.90698 16.5116V19.3023C7.90698 19.6876 7.59462 20 7.2093 20C6.82399 20 6.51163 19.6876 6.51163 19.3023V16.5116C6.51163 16.4751 6.51443 16.4393 6.51984 16.4043C5.58381 16.2893 4.93517 16.0512 4.44198 15.558C3.94879 15.0648 3.71067 14.4162 3.5957 13.4802C3.56071 13.4856 3.52487 13.4884 3.48837 13.4884H0.697674C0.312359 13.4884 0 13.176 0 12.7907C0 12.4054 0.312359 12.093 0.697674 12.093H3.48837L3.50495 12.0932C3.49342 11.6717 3.48944 11.2084 3.48837 10.6977H0.697674C0.312359 10.6977 0 10.3853 0 10C0 9.61469 0.312359 9.30233 0.697674 9.30233L3.48884 9.30233C3.48991 8.79159 3.49342 8.32827 3.50495 7.90678L3.48837 7.90698H0.697674C0.312359 7.90698 0 7.59462 0 7.2093C0 6.82399 0.312359 6.51163 0.697674 6.51163H3.48837C3.52487 6.51163 3.56071 6.51443 3.5957 6.51984C3.71067 5.58381 3.94879 4.93517 4.44198 4.44198C4.93517 3.94879 5.58381 3.71067 6.51984 3.5957C6.51443 3.56071 6.51163 3.52487 6.51163 3.48837V0.697675C6.51163 0.31236 6.82399 0 7.2093 0C7.59462 0 7.90698 0.312359 7.90698 0.697674V3.48837L7.90678 3.50495C8.32826 3.49342 8.79158 3.48944 9.30233 3.48837V0.697675C9.30233 0.31236 9.61469 0 10 0ZM9.02384 5.5814C8.40537 5.58136 7.87247 5.58133 7.44573 5.63871C6.98839 5.70019 6.55001 5.83885 6.19443 6.19443C5.83885 6.55001 5.70019 6.98839 5.63871 7.44573C5.58133 7.87247 5.58136 8.40536 5.5814 9.02383V10.9762C5.58136 11.5946 5.58133 12.1275 5.63871 12.5543C5.70019 13.0116 5.83885 13.45 6.19443 13.8056C6.55001 14.1612 6.98839 14.2998 7.44573 14.3613C7.87247 14.4187 8.40536 14.4186 9.02384 14.4186H10.9762C11.5946 14.4186 12.1275 14.4187 12.5543 14.3613C13.0116 14.2998 13.45 14.1612 13.8056 13.8056C14.1612 13.45 14.2998 13.0116 14.3613 12.5543C14.4187 12.1275 14.4186 11.5946 14.4186 10.9762V9.02385C14.4186 8.40537 14.4187 7.87247 14.3613 7.44573C14.2998 6.98839 14.1612 6.55001 13.8056 6.19443C13.45 5.83885 13.0116 5.70019 12.5543 5.63871C12.1275 5.58133 11.5947 5.58136 10.9762 5.5814H9.02384Z"
          fill="#F81B11"/>
</svg>
