<svg width="19" height="19" viewBox="0 0 19 19" fill="none" xmlns="http://www.w3.org/2000/svg">
    <path fill-rule="evenodd" clip-rule="evenodd"
          d="M1.62857 14.2966L3.20286 3.29493L0 0H11.9121C13.9724 0 15.9307 0.922239 17.2771 2.52656L18.0775 3.48025C18.6726 4.18935 19 5.09493 19 6.03174C19 7.2619 18.4364 8.42012 17.4792 9.15733L15.1567 10.9459L16.0143 8.26525H11.9676H9.22857L12.253 8.75892L13.8971 14.2966C10.5074 14.2966 7.75103 16.3982 7.75103 19C7.75103 16.3982 5.01835 14.2966 1.62857 14.2966ZM8.90286 2.56893L9.33038 4.09725H11.4401C12.1201 4.09725 12.783 4.31619 13.336 4.72338L14.6571 5.69632L13.8742 3.89215C13.5249 3.08726 12.7482 2.56893 11.8914 2.56893H8.90286Z"
          fill="#7211F8"/>
</svg>
