<svg width="31" height="28" viewBox="0 0 31 28" fill="none" xmlns="http://www.w3.org/2000/svg">
    <path d="M16.4014 0.5C23.9057 0.5 30.124 6.6249 30.124 14C30.124 21.3623 23.9184 27.5 16.415 27.5C8.92547 27.4998 2.70704 21.3619 2.70703 14C2.70703 6.62396 8.91201 0.500026 16.4014 0.5Z"
          fill="#7211F8" fill-opacity="0.2" stroke="#7211F8"/>
    <path d="M11.5184 20C10.8507 20 10.3281 19.4702 10.3281 18.8115C10.3281 18.4964 10.4442 18.1957 10.6765 17.9808L14.6973 14L10.6765 10.0334C10.4442 9.8043 10.3281 9.51789 10.3281 9.20286C10.3281 8.52982 10.8507 8.02864 11.5184 8.02864C11.8523 8.02864 12.1135 8.14319 12.3458 8.35799L16.3956 12.3389L20.4745 8.34367C20.7212 8.10024 20.9826 8 21.3018 8C21.9695 8 22.5067 8.51551 22.5067 9.17422C22.5067 9.50358 22.405 9.76133 22.1437 10.0191L18.1085 14L22.1293 17.9666C22.376 18.1814 22.4921 18.482 22.4921 18.8115C22.4921 19.4702 21.9551 20 21.2728 20C20.939 20 20.6341 19.8855 20.4164 19.6563L16.3956 15.6754L12.3893 19.6563C12.1571 19.8855 11.8523 20 11.5184 20Z"
          fill="#7211F8"/>
</svg>