<svg width="10" height="11" viewBox="0 0 10 11" fill="none" xmlns="http://www.w3.org/2000/svg">
    <path fill-rule="evenodd" clip-rule="evenodd"
          d="M10 5.5C10 8.26142 7.76142 10.5 5 10.5C2.23858 10.5 0 8.26142 0 5.5C0 2.73858 2.23858 0.5 5 0.5C7.76142 0.5 10 2.73858 10 5.5ZM5 3.375C4.68934 3.375 4.4375 3.62684 4.4375 3.9375C4.4375 4.14461 4.26961 4.3125 4.0625 4.3125C3.85539 4.3125 3.6875 4.14461 3.6875 3.9375C3.6875 3.21263 4.27513 2.625 5 2.625C5.72487 2.625 6.3125 3.21263 6.3125 3.9375C6.3125 4.29292 6.17073 4.61599 5.94148 4.85198C5.89535 4.89947 5.85134 4.94344 5.80936 4.98538C5.70145 5.0932 5.6069 5.18767 5.52395 5.29425C5.41444 5.43496 5.375 5.53838 5.375 5.625V6C5.375 6.20711 5.20711 6.375 5 6.375C4.79289 6.375 4.625 6.20711 4.625 6V5.625C4.625 5.29741 4.7775 5.03222 4.93208 4.8336C5.04646 4.68665 5.19022 4.54317 5.30689 4.42673C5.34208 4.39161 5.37481 4.35894 5.40352 4.32939C5.50229 4.22772 5.5625 4.09002 5.5625 3.9375C5.5625 3.62684 5.31066 3.375 5 3.375ZM5 8C5.27614 8 5.5 7.77614 5.5 7.5C5.5 7.22386 5.27614 7 5 7C4.72386 7 4.5 7.22386 4.5 7.5C4.5 7.77614 4.72386 8 5 8Z"
          fill="white"/>
</svg>