<svg width="21" height="20" viewBox="0 0 21 20" fill="none" xmlns="http://www.w3.org/2000/svg">
    <path fill-rule="evenodd" clip-rule="evenodd"
          d="M11.5867 19.3877L12.1288 18.4718C12.5492 17.7614 12.7595 17.4062 13.0972 17.2098C13.4349 17.0134 13.86 17.0061 14.7104 16.9915C15.9658 16.9698 16.7531 16.8929 17.4134 16.6194C18.6386 16.1119 19.6119 15.1386 20.1194 13.9134C20.5 12.9946 20.5 11.8297 20.5 9.5V8.5C20.5 5.22657 20.5 3.58985 19.7632 2.38751C19.3509 1.71473 18.7853 1.14908 18.1125 0.736799C16.9101 0 15.2734 0 12 0H9C5.72657 0 4.08985 0 2.88751 0.736799C2.21473 1.14908 1.64908 1.71473 1.2368 2.38751C0.5 3.58985 0.5 5.22657 0.5 8.5V9.5C0.5 11.8297 0.5 12.9946 0.880602 13.9134C1.38807 15.1386 2.36144 16.1119 3.58658 16.6194C4.24689 16.8929 5.03422 16.9698 6.28958 16.9915C7.13992 17.0061 7.56509 17.0134 7.90279 17.2098C8.24049 17.4063 8.45073 17.7614 8.87121 18.4718L9.41331 19.3877C9.89647 20.204 11.1035 20.204 11.5867 19.3877ZM14.0303 6.46967C14.3232 6.76256 14.3232 7.23744 14.0303 7.53033L10.0303 11.5303C9.74165 11.819 9.27511 11.8238 8.9806 11.541L6.9806 9.62104C6.68179 9.33418 6.6721 8.85941 6.95896 8.5606C7.24582 8.26179 7.72059 8.2521 8.0194 8.53896L9.48929 9.95005L12.9697 6.46967C13.2626 6.17678 13.7374 6.17678 14.0303 6.46967Z"
          fill="#F8E811"/>
</svg>
