<svg width="15" height="15" viewBox="0 0 15 15" fill="none" xmlns="http://www.w3.org/2000/svg">
    <path fill-rule="evenodd" clip-rule="evenodd"
          d="M15 7.5C15 11.6421 11.6421 15 7.5 15C3.35786 15 0 11.6421 0 7.5C0 3.35786 3.35786 0 7.5 0C11.6421 0 15 3.35786 15 7.5ZM5.22722 5.22724C5.44689 5.00757 5.80305 5.00757 6.02272 5.22724L7.49998 6.7045L8.97722 5.22725C9.19689 5.00758 9.55305 5.00758 9.77272 5.22725C9.99239 5.44692 9.99239 5.80308 9.77272 6.02275L8.29547 7.49999L9.7727 8.97722C9.99237 9.19689 9.99237 9.55305 9.7727 9.77272C9.55303 9.99239 9.19687 9.99239 8.97721 9.77272L7.49998 8.29549L6.02273 9.77273C5.80306 9.9924 5.44691 9.9924 5.22724 9.77273C5.00757 9.55306 5.00757 9.19691 5.22724 8.97724L6.70448 7.49999L5.22722 6.02273C5.00755 5.80306 5.00755 5.44691 5.22722 5.22724Z"
          fill="#F81B11"/>
</svg>
