<svg width="390" height="361" viewBox="0 0 390 361" fill="none" xmlns="http://www.w3.org/2000/svg">
    <path fill-rule="evenodd" clip-rule="evenodd"
          d="M157.58 304.333L194.881 360.999L232.42 304.333L219.868 200.443L244.592 285.204L269.88 246.94L262.147 218.658L342.803 200.443L395.262 222.171L342.803 152.603L440.879 248.49L420.732 207.048L496 279.372L372.852 63.1142C369.75 57.666 365.537 53.267 360.67 50.0519L344.704 76.4881L353.067 46.1833C343.94 42.7739 333.584 42.9343 324.195 47.3153C323.017 47.8646 321.926 48.5839 320.889 49.3756L277.278 82.6847L233.235 87.0112L222.985 53.3079L204.13 50.3034H221.206H246.433L241.087 66.618L255.566 55.7327C261.534 51.2459 265.047 44.1969 265.047 36.71C265.047 31.0084 263.006 25.4969 259.296 21.1813L254.306 15.377C245.912 5.61287 233.704 0 220.859 0H146.597L166.565 20.0534L156.75 87.0112L112.722 82.6847L69.1109 49.3756C68.0744 48.5839 66.9828 47.8646 65.8055 47.3153C56.4163 42.9343 46.0598 42.7739 36.9333 46.1833L45.2964 76.4881L29.3304 50.0519C24.4631 53.267 20.2505 57.666 17.148 63.1142L-106 279.372L-30.7319 207.048L-50.8795 248.49L47.1971 152.603L-5.26245 222.171L47.1971 200.443L127.853 218.658L120.12 246.94L145.408 285.204L170.132 200.443L157.58 304.333ZM202.099 15.6348L204.765 24.9364H217.917C222.156 24.9364 226.289 26.2689 229.736 28.7471L237.973 34.6685L233.092 23.6881C230.914 18.7895 226.072 15.6348 220.731 15.6348H202.099Z"
          fill="#141414"/>
</svg>
