<svg width="131" height="131" viewBox="0 0 131 131" fill="none" xmlns="http://www.w3.org/2000/svg">
    <circle cx="65.5" cy="65.5" r="65.5" fill="#7211F8" fill-opacity="0.2"/>
    <path fill-rule="evenodd" clip-rule="evenodd"
          d="M4.71428 41.385L9.27143 9.53795L0 0L34.4823 6.02907e-06C40.4463 7.07185e-06 46.1152 2.66965 50.0126 7.31373L52.3295 10.0744C54.0522 12.1271 55 14.7485 55 17.4603C55 21.0213 53.3686 24.374 50.5976 26.5081L43.8747 31.6854L46.3571 23.9257L34.643 23.9257L26.7143 23.9257L35.4692 25.3548L40.2286 41.385C30.4161 41.385 22.4372 47.4684 22.4372 55C22.4372 47.4684 14.5268 41.385 4.71428 41.385ZM25.7714 7.43637L27.009 11.8605L33.116 11.8605C35.0844 11.8605 37.0035 12.4942 38.6041 13.673L42.4286 16.4894L40.1622 11.2667C39.1511 8.93681 36.9028 7.43638 34.4225 7.43638L25.7714 7.43637Z"
          fill="#7211F8" transform="translate(40,39)"/>
</svg>
