<svg width="142" height="142" viewBox="0 0 142 142" fill="none" xmlns="http://www.w3.org/2000/svg">
    <circle cx="71" cy="71" r="70" fill="#7211F8" fill-opacity="0.4" stroke="#7211F8" stroke-width="2"/>
    <path fill-rule="evenodd" clip-rule="evenodd"
          d="M6.68571 58.6915L13.1486 13.5266L0 0H48.9021C57.3602 0 65.3997 3.78604 70.927 10.3722L74.2128 14.2873C76.6558 17.1984 78 20.916 78 24.7619C78 29.812 75.6864 34.5668 71.7566 37.5932L62.2223 44.9357L65.7429 33.931H49.1301H37.8857L50.3017 35.9577L57.0514 58.6915C43.1355 58.6915 31.82 67.3188 31.82 78C31.82 67.3188 20.6016 58.6915 6.68571 58.6915ZM36.5486 10.5461L38.3037 16.8203H46.9645C49.7561 16.8203 52.4777 17.7191 54.7476 19.3907L60.1714 23.3849L56.9573 15.9783C55.5234 12.674 52.3348 10.5461 48.8173 10.5461H36.5486Z"
          fill="#7211F8" transform="translate(36,33)"/>
</svg>
