<svg width="16" height="15" viewBox="0 0 16 15" fill="none" xmlns="http://www.w3.org/2000/svg">
    <g clip-path="url(#clip0_0_1663)">
        <path d="M8.29998 15C12.4029 15 15.8 11.5956 15.8 7.49999C15.8 3.39706 12.3956 0 8.29262 0C4.19704 0 0.799988 3.39706 0.799988 7.49999C0.799988 11.5956 4.20439 15 8.29998 15Z"
              fill="#7211F8" fill-opacity="0.29"/>
        <path d="M5.71539 10.7142C5.36293 10.7142 5.0871 10.4304 5.0871 10.0775C5.0871 9.90872 5.14839 9.7476 5.27098 9.63252L7.3934 7.49993L5.27098 5.37497C5.14839 5.25223 5.0871 5.0988 5.0871 4.93003C5.0871 4.56948 5.36293 4.30099 5.71539 4.30099C5.89162 4.30099 6.02954 4.36235 6.15214 4.47743L8.28988 6.61005L10.443 4.46975C10.5732 4.33934 10.7111 4.28564 10.8797 4.28564C11.2321 4.28564 11.5157 4.56181 11.5157 4.91469C11.5157 5.09113 11.462 5.22922 11.3241 5.3673L9.19402 7.49993L11.3165 9.6249C11.4467 9.73998 11.508 9.90102 11.508 10.0775C11.508 10.4304 11.2245 10.7142 10.8644 10.7142C10.6881 10.7142 10.5272 10.6529 10.4123 10.5301L8.28988 8.39749L6.17512 10.5301C6.05253 10.6529 5.89162 10.7142 5.71539 10.7142Z"
              fill="#7211F8"/>
    </g>
    <defs>
        <clipPath id="clip0_0_1663">
            <rect width="15" height="15" fill="white" transform="translate(0.799988)"/>
        </clipPath>
    </defs>
</svg>
