<svg width="24" height="19" viewBox="0 0 24 19" fill="none" xmlns="http://www.w3.org/2000/svg">
    <path d="M3.27907 6.98529L3.75494 5.07947C4.36406 2.64 4.66862 1.42027 5.57703 0.710135C6.48544 0 7.74118 0 10.2526 0H13.7474C16.2588 0 17.5146 0 18.423 0.710135C19.3314 1.42027 19.6359 2.64 20.2451 5.07947L20.7209 6.98529H23.1628C23.6252 6.98529 24 7.36059 24 7.82353C24 8.28647 23.6252 8.66177 23.1628 8.66177H0.837209C0.374831 8.66177 0 8.28647 0 7.82353C0 7.36059 0.374831 6.98529 0.837209 6.98529H3.27907Z"
          fill="#7211F8"/>
    <path d="M9.63814 16.09C9.1962 17.7651 7.67237 19 5.86047 19C3.7027 19 1.95349 17.2486 1.95349 15.0882C1.95349 12.9278 3.7027 11.1765 5.86047 11.1765C7.71359 11.1765 9.26538 12.4682 9.66661 14.2014L10.1279 13.9705C11.3064 13.3805 12.6936 13.3805 13.8721 13.9705L14.3334 14.2014C14.7346 12.4682 16.2864 11.1765 18.1395 11.1765C20.2973 11.1765 22.0465 12.9278 22.0465 15.0882C22.0465 17.2486 20.2973 19 18.1395 19C16.3276 19 14.8038 17.7651 14.3619 16.09L13.1232 15.47C12.4161 15.116 11.5839 15.116 10.8768 15.47L9.63814 16.09Z"
          fill="#7211F8"/>
</svg>
