<svg width="357" height="141" viewBox="0 0 357 141" fill="none" xmlns="http://www.w3.org/2000/svg">
    <mask id="mask0_4342_7202" style="mask-type:alpha" maskUnits="userSpaceOnUse" x="0" y="0" width="357" height="141">
        <rect width="357" height="141" fill="#D9D9D9"/>
    </mask>
    <g mask="url(#mask0_4342_7202)">
        <rect x="215" width="148" height="141" rx="14" fill="url(#paint0_linear_4342_7202)"/>
        <path d="M4 11.618C4 5.20154 10.4477 0 18.4013 0H188.599C196.552 0 203 5.20155 203 11.618V129.382C203 135.798 196.552 141 188.599 141H18.4013C10.4477 141 4 135.798 4 129.382V11.618Z"
              fill="url(#paint1_linear_4342_7202)"/>
        <path d="M189.599 140.348V141H19.4013V140.348H189.599ZM203.345 126.663V14.3371C203.345 6.77885 197.191 0.651688 189.599 0.651685H19.4013C11.8092 0.651685 5.65461 6.77885 5.65461 14.3371V126.663C5.65461 134.221 11.8092 140.348 19.4013 140.348V141C11.5719 141 5.20147 134.78 5.00447 127.033L5 126.663V14.3371C5 6.54255 11.2479 0.200575 19.0299 0.00445488L19.4013 0H189.599L189.97 0.00445488C197.752 0.200578 204 6.54255 204 14.3371V126.663C204 134.581 197.552 141 189.599 141V140.348C197.191 140.348 203.345 134.221 203.345 126.663Z"
              fill="url(#paint2_linear_4342_7202)" fill-opacity="0.16"/>
        <path opacity="0.5"
              d="M37 117.5C37 121.642 33.6421 125 29.5 125C25.3579 125 22 121.642 22 117.5C22 113.358 25.3579 110 29.5 110C33.6421 110 37 113.358 37 117.5Z"
              fill="#7211F8" fill-opacity="0.08"/>
        <path d="M37.3073 21.9928H36.6469V16.3079H33.972V21.9928H33.3164V15.748H37.3073V21.9928Z" fill="url(#paint3_linear_4342_7202)"/>
        <path d="M86.3122 23.7771H84.5273V23.2364H85.7859V15.3886H84.5273V14.8574H86.3122V23.7771Z" fill="url(#paint4_linear_4342_7202)"/>
        <path d="M75.1819 20.2062C74.6523 20.1807 74.2456 20.0627 73.9616 19.8521C73.6777 19.6384 73.5357 19.313 73.5357 18.8759C73.5357 18.4101 73.6937 18.0704 74.0095 17.8566C74.3285 17.6397 74.7847 17.5312 75.3781 17.5312H77.7516V21.9911H77.0912V20.2062H76.0241L74.3971 21.9911H73.4688L75.1819 20.2062ZM74.1913 18.8759C74.1913 19.1247 74.2966 19.3162 74.5072 19.4501C74.7209 19.5841 75.0144 19.6511 75.3876 19.6511H77.0912V18.0911H75.3876C75.0144 18.0911 74.7209 18.1597 74.5072 18.2969C74.2966 18.4341 74.1913 18.6271 74.1913 18.8759Z"
              fill="url(#paint5_linear_4342_7202)"/>
        <path d="M68.707 17.5312H69.3626V21.1298L71.7744 17.5312H72.6979V21.9911H72.0376V18.2299L69.5205 21.9911H68.707V17.5312Z"
              fill="url(#paint6_linear_4342_7202)"/>
        <path d="M67.7064 21.1487C67.5182 21.4422 67.2598 21.6751 66.9312 21.8474C66.6058 22.0164 66.2182 22.101 65.7684 22.101C65.4207 22.101 65.1017 22.0436 64.8114 21.9287C64.5211 21.8139 64.2722 21.6544 64.0649 21.4502C63.8607 21.2428 63.7012 20.9972 63.5863 20.7133C63.4715 20.4293 63.4141 20.1135 63.4141 19.7658C63.4141 19.4276 63.4667 19.115 63.572 18.8279C63.6772 18.5376 63.8272 18.2903 64.0218 18.0861C64.2164 17.8788 64.4541 17.7177 64.7348 17.6028C65.0187 17.4848 65.333 17.4258 65.6775 17.4258C65.8147 17.4258 65.955 17.4417 66.0986 17.4736C66.2422 17.5055 66.3777 17.555 66.5053 17.622C66.6329 17.6858 66.7478 17.7639 66.8499 17.8565C66.952 17.9458 67.0285 18.0527 67.0796 18.1771V17.5311H67.6682V19.316H67.0796C67.0796 19.1182 67.0429 18.9379 66.9695 18.7752C66.8993 18.6125 66.802 18.4722 66.6776 18.3541C66.5532 18.2361 66.4049 18.1452 66.2326 18.0814C66.0603 18.0144 65.8753 17.9809 65.6775 17.9809C65.4095 17.9809 65.175 18.0271 64.9741 18.1196C64.7763 18.2122 64.6104 18.3382 64.4764 18.4977C64.3424 18.6572 64.2403 18.8454 64.1701 19.0623C64.1031 19.2761 64.0696 19.5106 64.0696 19.7658C64.0696 20.021 64.1079 20.2571 64.1845 20.474C64.2642 20.6877 64.3775 20.8728 64.5242 21.0291C64.6742 21.1854 64.8528 21.3098 65.0602 21.4023C65.2707 21.4948 65.5068 21.5411 65.7684 21.5411C66.1002 21.5411 66.3953 21.4773 66.6537 21.3497C66.9121 21.2221 67.1099 21.0498 67.2471 20.8329L67.7064 21.1487Z"
              fill="url(#paint7_linear_4342_7202)"/>
        <path d="M59.0146 19.9907C59.0624 20.4628 59.2347 20.8393 59.5314 21.12C59.8281 21.4007 60.2141 21.5411 60.6894 21.5411C61.0244 21.5411 61.3227 21.4725 61.5843 21.3353C61.8458 21.1982 62.042 21.0275 62.1728 20.8233L62.6322 21.1391C62.4089 21.4518 62.1425 21.691 61.8331 21.8569C61.5236 22.0196 61.1424 22.101 60.6894 22.101C60.3449 22.101 60.029 22.0436 59.7419 21.9287C59.4548 21.8139 59.206 21.6544 58.9954 21.4502C58.7881 21.2428 58.627 20.9972 58.5121 20.7133C58.3973 20.4293 58.3398 20.1135 58.3398 19.7658C58.3398 19.4276 58.3909 19.1166 58.493 18.8326C58.5982 18.5455 58.7482 18.2983 58.9428 18.0909C59.1406 17.8804 59.3798 17.7177 59.6606 17.6028C59.9413 17.4848 60.2555 17.4258 60.6033 17.4258C60.9829 17.4258 61.3147 17.4896 61.5986 17.6172C61.8825 17.7448 62.1186 17.9219 62.3068 18.1484C62.4982 18.3717 62.6386 18.6396 62.7279 18.9523C62.8204 19.2649 62.8667 19.6111 62.8667 19.9907H59.0146ZM62.1728 19.4308C62.0995 18.9427 61.9224 18.579 61.6417 18.3398C61.3609 18.1005 61.0148 17.9809 60.6033 17.9809C60.3927 17.9809 60.1981 18.016 60.0195 18.0861C59.8408 18.1531 59.6829 18.2504 59.5457 18.378C59.4086 18.5057 59.2937 18.6604 59.2012 18.8422C59.1087 19.0209 59.0497 19.2171 59.0241 19.4308H62.1728Z"
              fill="url(#paint8_linear_4342_7202)"/>
        <path d="M55.2026 18.4374C55.0207 18.1343 54.7958 17.9828 54.5279 17.9828C54.2918 17.9828 54.1147 18.1199 53.9967 18.3943C53.8819 18.6687 53.8244 19.1264 53.8244 19.7677C53.8244 20.4089 53.8819 20.8651 53.9967 21.1363C54.1147 21.4074 54.2918 21.543 54.5279 21.543C54.7958 21.543 55.0207 21.3931 55.2026 21.0932V18.4374ZM55.2026 21.6913C55.0335 21.9657 54.8086 22.1029 54.5279 22.1029C54.0717 22.1029 53.7303 21.9019 53.5038 21.4999C53.2773 21.098 53.1641 20.5205 53.1641 19.7677C53.1641 19.018 53.2773 18.4406 53.5038 18.0354C53.7303 17.6302 54.0717 17.4277 54.5279 17.4277C54.8086 17.4277 55.0335 17.5649 55.2026 17.8392V15.748H55.8629V17.8392C56.032 17.5649 56.2569 17.4277 56.5377 17.4277C56.9939 17.4277 57.3352 17.6302 57.5617 18.0354C57.7882 18.4406 57.9015 19.018 57.9015 19.7677C57.9015 20.5205 57.7882 21.098 57.5617 21.4999C57.3352 21.9019 56.9939 22.1029 56.5377 22.1029C56.2569 22.1029 56.032 21.9657 55.8629 21.6913V23.7777H55.2026V21.6913ZM55.8629 21.0932C56.0448 21.3931 56.2697 21.543 56.5377 21.543C56.7737 21.543 56.9492 21.4074 57.064 21.1363C57.1821 20.8651 57.2411 20.4089 57.2411 19.7677C57.2411 19.1264 57.1821 18.6687 57.064 18.3943C56.9492 18.1199 56.7737 17.9828 56.5377 17.9828C56.2697 17.9828 56.0448 18.1343 55.8629 18.4374V21.0932Z"
              fill="url(#paint9_linear_4342_7202)"/>
        <path d="M50.1479 18.4374C49.9661 18.1343 49.7411 17.9828 49.4732 17.9828C49.2371 17.9828 49.06 18.1199 48.942 18.3943C48.8272 18.6687 48.7697 19.1264 48.7697 19.7677C48.7697 20.4089 48.8272 20.8651 48.942 21.1363C49.06 21.4074 49.2371 21.543 49.4732 21.543C49.7411 21.543 49.9661 21.3931 50.1479 21.0932V18.4374ZM50.1479 21.6913C49.9788 21.9657 49.7539 22.1029 49.4732 22.1029C49.017 22.1029 48.6756 21.9019 48.4491 21.4999C48.2226 21.098 48.1094 20.5205 48.1094 19.7677C48.1094 19.018 48.2226 18.4406 48.4491 18.0354C48.6756 17.6302 49.017 17.4277 49.4732 17.4277C49.7539 17.4277 49.9788 17.5649 50.1479 17.8392V15.748H50.8083V17.8392C50.9773 17.5649 51.2022 17.4277 51.483 17.4277C51.9392 17.4277 52.2805 17.6302 52.507 18.0354C52.7335 18.4406 52.8468 19.018 52.8468 19.7677C52.8468 20.5205 52.7335 21.098 52.507 21.4999C52.2805 21.9019 51.9392 22.1029 51.483 22.1029C51.2022 22.1029 50.9773 21.9657 50.8083 21.6913V23.7777H50.1479V21.6913ZM50.8083 21.0932C50.9901 21.3931 51.215 21.543 51.483 21.543C51.7191 21.543 51.8945 21.4074 52.0094 21.1363C52.1274 20.8651 52.1864 20.4089 52.1864 19.7677C52.1864 19.1264 52.1274 18.6687 52.0094 18.3943C51.8945 18.1199 51.7191 17.9828 51.483 17.9828C51.215 17.9828 50.9901 18.1343 50.8083 18.4374V21.0932Z"
              fill="url(#paint10_linear_4342_7202)"/>
        <path d="M47.772 19.7753C47.772 20.1231 47.7161 20.4389 47.6045 20.7228C47.496 21.0068 47.3381 21.2508 47.1308 21.455C46.9266 21.656 46.6809 21.8139 46.3938 21.9287C46.1067 22.0436 45.7861 22.101 45.432 22.101C45.0843 22.101 44.7668 22.0436 44.4797 21.9287C44.1926 21.8139 43.9454 21.656 43.738 21.455C43.5338 21.2508 43.3759 21.0068 43.2643 20.7228C43.1558 20.4389 43.1016 20.1231 43.1016 19.7753C43.1016 19.4372 43.1558 19.123 43.2643 18.8326C43.3759 18.5392 43.5338 18.2903 43.738 18.0861C43.9454 17.8788 44.1926 17.7177 44.4797 17.6028C44.7668 17.4848 45.0843 17.4258 45.432 17.4258C45.7861 17.4258 46.1067 17.4848 46.3938 17.6028C46.6809 17.7177 46.9266 17.8788 47.1308 18.0861C47.3381 18.2903 47.496 18.5392 47.6045 18.8326C47.7161 19.123 47.772 19.4372 47.772 19.7753ZM47.1164 19.7753C47.1164 19.5201 47.0781 19.2857 47.0015 19.0719C46.9282 18.855 46.8181 18.6652 46.6714 18.5025C46.5246 18.3398 46.346 18.2122 46.1354 18.1196C45.9281 18.0271 45.6936 17.9809 45.432 17.9809C45.1704 17.9809 44.9343 18.0271 44.7238 18.1196C44.5164 18.2122 44.3409 18.3398 44.1974 18.5025C44.0538 18.6652 43.9438 18.855 43.8672 19.0719C43.7938 19.2857 43.7571 19.5201 43.7571 19.7753C43.7571 20.0306 43.7938 20.2666 43.8672 20.4836C43.9438 20.6973 44.0538 20.8823 44.1974 21.0387C44.3409 21.195 44.5164 21.3178 44.7238 21.4071C44.9343 21.4964 45.1704 21.5411 45.432 21.5411C45.6936 21.5411 45.9281 21.4964 46.1354 21.4071C46.346 21.3178 46.5246 21.195 46.6714 21.0387C46.8181 20.8823 46.9282 20.6973 47.0015 20.4836C47.0781 20.2666 47.1164 20.0306 47.1164 19.7753Z"
              fill="url(#paint11_linear_4342_7202)"/>
        <path d="M42.5965 19.7658C42.5965 20.1135 42.5422 20.4293 42.4338 20.7133C42.3253 20.9972 42.1722 21.2428 41.9744 21.4502C41.7798 21.6544 41.5437 21.8139 41.2662 21.9287C40.9886 22.0436 40.6776 22.101 40.3331 22.101C40.097 22.101 39.8673 22.0579 39.644 21.9718C39.4239 21.8856 39.2181 21.758 39.0267 21.589V23.7758H38.3711V17.5311H39.0267V17.9426C39.4318 17.5981 39.8673 17.4258 40.3331 17.4258C40.6776 17.4258 40.9886 17.4832 41.2662 17.5981C41.5437 17.7097 41.7798 17.8708 41.9744 18.0814C42.1722 18.2887 42.3253 18.5376 42.4338 18.8279C42.5422 19.115 42.5965 19.4276 42.5965 19.7658ZM41.9409 19.7658C41.9409 19.5169 41.9058 19.2841 41.8356 19.0671C41.7686 18.847 41.6665 18.6572 41.5294 18.4977C41.3922 18.3382 41.2231 18.2122 41.0221 18.1196C40.8243 18.0271 40.5946 17.9809 40.3331 17.9809C40.0842 17.9809 39.8513 18.0271 39.6344 18.1196C39.4207 18.2122 39.2181 18.3621 39.0267 18.5695V20.9621C39.2181 21.1695 39.4207 21.3178 39.6344 21.4071C39.8513 21.4964 40.0842 21.5411 40.3331 21.5411C40.5946 21.5411 40.8243 21.4948 41.0221 21.4023C41.2231 21.3098 41.3922 21.1838 41.5294 21.0243C41.6665 20.8648 41.7686 20.6782 41.8356 20.4644C41.9058 20.2475 41.9409 20.0146 41.9409 19.7658Z"
              fill="url(#paint12_linear_4342_7202)"/>
        <path d="M26.534 23.7771H24.7539V14.8574H26.534V15.3886H25.2803V23.2364H26.534V23.7771Z" fill="url(#paint13_linear_4342_7202)"/>
        <path d="M42.8531 113.631C44.7768 113.631 45.9922 115.009 45.9922 117.196C45.9922 119.383 44.7816 120.756 42.8531 120.756C40.9294 120.756 39.7188 119.383 39.7188 117.196C39.7188 115.009 40.9294 113.631 42.8531 113.631ZM42.8531 114.239C41.341 114.239 40.3887 115.382 40.3887 117.196C40.3887 119.005 41.341 120.148 42.8531 120.148C44.3652 120.148 45.3223 119.005 45.3223 117.196C45.3223 115.382 44.3652 114.239 42.8531 114.239Z"
              fill="url(#paint14_linear_4342_7202)"/>
        <path d="M88.2033 120.704C86.7868 120.704 85.8633 119.675 85.8633 118.067C85.8633 116.46 86.7868 115.436 88.2033 115.436C89.6197 115.436 90.548 116.46 90.548 118.067C90.548 119.675 89.6197 120.704 88.2033 120.704ZM88.2033 120.135C89.2512 120.135 89.902 119.355 89.902 118.067C89.902 116.78 89.2512 116 88.2033 116C87.1601 116 86.5093 116.785 86.5093 118.067C86.5093 119.355 87.1601 120.135 88.2033 120.135Z"
              fill="url(#paint15_linear_4342_7202)"/>
        <path d="M84.5501 120.646V118.234H81.6933V120.646H81.0664V115.492H81.6933V117.703H84.5501V115.492H85.1769V120.646H84.5501Z"
              fill="url(#paint16_linear_4342_7202)"/>
        <path d="M77.8949 120.149C78.8184 120.149 79.5219 119.522 79.5219 118.709V118.139L78.0145 118.244C77.1484 118.302 76.689 118.637 76.689 119.216C76.689 119.771 77.1771 120.149 77.8949 120.149ZM77.7704 120.704C76.7416 120.704 76.043 120.101 76.043 119.211C76.043 118.331 76.7033 117.819 77.9379 117.732L79.5219 117.627V117.187C79.5219 116.436 79.0481 116 78.2155 116C77.4977 116 76.9952 116.369 76.8804 116.981H76.2727C76.3253 116.077 77.1388 115.436 78.2203 115.436C79.4022 115.436 80.1535 116.096 80.1535 117.134V120.647H79.5506V119.661H79.5362C79.2587 120.288 78.56 120.704 77.7704 120.704Z"
              fill="url(#paint17_linear_4342_7202)"/>
        <path d="M76.0082 115.492V116.023H74.2472V120.646H73.6203V116.023H71.8594V115.492H76.0082Z" fill="url(#paint18_linear_4342_7202)"/>
        <path d="M69.4064 120.704C67.99 120.704 67.0664 119.675 67.0664 118.067C67.0664 116.46 67.99 115.436 69.4064 115.436C70.8228 115.436 71.7512 116.46 71.7512 118.067C71.7512 119.675 70.8228 120.704 69.4064 120.704ZM69.4064 120.135C70.4544 120.135 71.1052 119.355 71.1052 118.067C71.1052 116.78 70.4544 116 69.4064 116C68.3632 116 67.7124 116.785 67.7124 118.067C67.7124 119.355 68.3632 120.135 69.4064 120.135Z"
              fill="url(#paint19_linear_4342_7202)"/>
        <path d="M64.2801 120.738C62.7488 120.738 61.9258 119.675 61.9258 117.694C61.9258 114.708 62.634 113.545 64.6295 113.493C64.7395 113.493 65.0888 113.478 65.1702 113.469C65.5961 113.44 66.0459 113.364 66.2995 113.234V113.789C66.1416 113.914 65.6918 114.019 65.2037 114.048C65.1176 114.057 64.7587 114.072 64.6534 114.072C63.1508 114.11 62.6771 114.814 62.4713 116.651H62.5C62.8302 115.948 63.5097 115.56 64.3663 115.56C65.754 115.56 66.6393 116.555 66.6393 118.106C66.6393 119.723 65.7301 120.738 64.2801 120.738ZM64.2801 120.173C65.3472 120.173 65.9933 119.393 65.9933 118.106C65.9933 116.866 65.3472 116.125 64.2801 116.125C63.213 116.125 62.5718 116.866 62.5718 118.106C62.5718 119.398 63.213 120.173 64.2801 120.173Z"
              fill="url(#paint20_linear_4342_7202)"/>
        <path d="M58.9535 120.149C59.877 120.149 60.5804 119.522 60.5804 118.709V118.139L59.0731 118.244C58.207 118.302 57.7476 118.637 57.7476 119.216C57.7476 119.771 58.2357 120.149 58.9535 120.149ZM58.829 120.704C57.8002 120.704 57.1016 120.101 57.1016 119.211C57.1016 118.331 57.7619 117.819 58.9965 117.732L60.5804 117.627V117.187C60.5804 116.436 60.1067 116 59.2741 116C58.5563 116 58.0538 116.369 57.939 116.981H57.3313C57.3839 116.077 58.1974 115.436 59.2789 115.436C60.4608 115.436 61.2121 116.096 61.2121 117.134V120.647H60.6092V119.661H60.5948C60.3173 120.288 59.6186 120.704 58.829 120.704Z"
              fill="url(#paint21_linear_4342_7202)"/>
        <path d="M54.4287 115.436C55.7303 115.436 56.6251 116.498 56.6251 118.067C56.6251 119.642 55.735 120.704 54.4382 120.704C53.6104 120.704 52.9644 120.254 52.6773 119.584H52.6629V122.355H52.0312V115.493H52.6294V116.56H52.6438C52.9165 115.905 53.6104 115.436 54.4287 115.436ZM54.3186 120.135C55.3139 120.135 55.9791 119.312 55.9791 118.072C55.9791 116.833 55.3139 116 54.3186 116C53.3376 116 52.6581 116.847 52.6581 118.067C52.6581 119.297 53.3376 120.135 54.3186 120.135Z"
              fill="url(#paint22_linear_4342_7202)"/>
        <path d="M48.9872 120.738C47.4559 120.738 46.6328 119.675 46.6328 117.694C46.6328 114.708 47.341 113.545 49.3365 113.493C49.4465 113.493 49.7959 113.478 49.8772 113.469C50.3031 113.44 50.7529 113.364 51.0065 113.234V113.789C50.8486 113.914 50.3988 114.019 49.9107 114.048C49.8246 114.057 49.4657 114.072 49.3604 114.072C47.8578 114.11 47.3841 114.814 47.1783 116.651H47.207C47.5372 115.948 48.2167 115.56 49.0733 115.56C50.461 115.56 51.3463 116.555 51.3463 118.106C51.3463 119.723 50.4371 120.738 48.9872 120.738ZM48.9872 120.173C50.0543 120.173 50.7003 119.393 50.7003 118.106C50.7003 116.866 50.0543 116.125 48.9872 116.125C47.92 116.125 47.2788 116.866 47.2788 118.106C47.2788 119.398 47.92 120.173 48.9872 120.173Z"
              fill="url(#paint23_linear_4342_7202)"/>
        <path opacity="0.5"
              d="M34 117.5C34 119.985 31.9853 122 29.5 122C27.0147 122 25 119.985 25 117.5C25 115.015 27.0147 113 29.5 113C31.9853 113 34 115.015 34 117.5Z"
              fill="#7211F8" fill-opacity="0.1"/>
        <path opacity="0.5"
              d="M32 117.5C32 118.881 30.8807 120 29.5 120C28.1193 120 27 118.881 27 117.5C27 116.119 28.1193 115 29.5 115C30.8807 115 32 116.119 32 117.5Z"
              fill="#7211F8"/>
        <path opacity="0.5"
              d="M37 87.5C37 91.6421 33.6421 95 29.5 95C25.3579 95 22 91.6421 22 87.5C22 83.3579 25.3579 80 29.5 80C33.6421 80 37 83.3579 37 87.5Z"
              fill="url(#paint24_linear_4342_7202)" fill-opacity="0.08"/>
        <path d="M45.2551 91.2469H44.6091V84.94H40.6517V91.2469H39.9961V84.3418H45.2551V91.2469Z" fill="url(#paint25_linear_4342_7202)"/>
        <path d="M107.07 88.5438L109.793 91.2475H108.956L106.429 88.7256H106.4V91.2475H105.773V86.0938H106.4V88.4146H106.429L108.893 86.0938H109.697L107.07 88.5438Z"
              fill="url(#paint26_linear_4342_7202)"/>
        <path d="M102.742 91.3037C101.326 91.3037 100.402 90.2749 100.402 88.667C100.402 87.0592 101.326 86.0352 102.742 86.0352C104.159 86.0352 105.087 87.0592 105.087 88.667C105.087 90.2749 104.159 91.3037 102.742 91.3037ZM102.742 90.7343C103.79 90.7343 104.441 89.9543 104.441 88.667C104.441 87.3798 103.79 86.5998 102.742 86.5998C101.699 86.5998 101.048 87.3846 101.048 88.667C101.048 89.9543 101.699 90.7343 102.742 90.7343Z"
              fill="url(#paint27_linear_4342_7202)"/>
        <path d="M98.097 86.6249H96.7284V88.3141H97.9965C98.7095 88.3141 99.0971 88.0031 99.0971 87.4432C99.0971 86.9216 98.7335 86.6249 98.097 86.6249ZM98.0492 88.8453H96.7284V90.7163H98.1736C98.9344 90.7163 99.3412 90.3909 99.3412 89.7736C99.3412 89.1515 98.8818 88.8453 98.0492 88.8453ZM96.1016 91.2475V86.0938H98.1688C99.1258 86.0938 99.7144 86.5866 99.7144 87.3858C99.7144 87.9504 99.3364 88.429 98.8148 88.5342V88.5629C99.4752 88.6395 99.9633 89.0989 99.9633 89.7832C99.9633 90.7067 99.2981 91.2475 98.1879 91.2475H96.1016Z"
              fill="url(#paint28_linear_4342_7202)"/>
        <path d="M93.3676 88.7687H94.5304V86.6249H93.3676C92.6115 86.6249 92.1282 87.0412 92.1282 87.7207C92.1282 88.3428 92.6163 88.7687 93.3676 88.7687ZM94.5304 91.2475V89.2999H93.4346L92.0182 91.2475H91.2812L92.7886 89.1946C91.9895 89.0319 91.5014 88.4912 91.5014 87.7351C91.5014 86.7158 92.2287 86.0938 93.3676 86.0938H95.1573V91.2475H94.5304Z"
              fill="url(#paint29_linear_4342_7202)"/>
        <path d="M88.4808 90.7486C89.4044 90.7486 90.1078 90.1218 90.1078 89.3083V88.7388L88.6004 88.8441C87.7343 88.9015 87.2749 89.2365 87.2749 89.8155C87.2749 90.3706 87.763 90.7486 88.4808 90.7486ZM88.3564 91.3037C87.3276 91.3037 86.6289 90.7008 86.6289 89.8107C86.6289 88.9302 87.2893 88.4182 88.5239 88.3321L90.1078 88.2268V87.7866C90.1078 87.0353 89.634 86.5998 88.8014 86.5998C88.0836 86.5998 87.5812 86.9683 87.4663 87.5808H86.8586C86.9112 86.6764 87.7247 86.0352 88.8062 86.0352C89.9882 86.0352 90.7394 86.6955 90.7394 87.7339V91.2463H90.1365V90.2605H90.1221C89.8446 90.8874 89.146 91.3037 88.3564 91.3037Z"
              fill="url(#paint30_linear_4342_7202)"/>
        <path d="M84.2003 91.3386C83.0806 91.3386 82.3102 90.7739 82.1953 89.9317H82.8365C82.9514 90.4485 83.4347 90.8026 84.2003 90.8026C85.0186 90.8026 85.5067 90.4103 85.5067 89.8073C85.5067 89.1469 85.0282 88.8455 84.1764 88.8455H83.3773V88.3143H84.1764C84.9229 88.3143 85.3344 87.9937 85.3344 87.4195C85.3344 86.9074 84.9468 86.5485 84.2147 86.5485C83.4873 86.5485 83.0184 86.9074 82.9179 87.4195H82.3006C82.425 86.5868 83.1189 86.0078 84.2147 86.0078C85.3249 86.0078 85.9517 86.5629 85.9517 87.3812C85.9517 87.9458 85.5689 88.41 85.0138 88.5296V88.5584C85.6886 88.6828 86.1288 89.1087 86.1288 89.7738C86.1288 90.7309 85.3536 91.3386 84.2003 91.3386Z"
              fill="url(#paint31_linear_4342_7202)"/>
        <path d="M77.6056 91.3037C76.1892 91.3037 75.2656 90.2749 75.2656 88.667C75.2656 87.0592 76.1892 86.0352 77.6056 86.0352C79.0221 86.0352 79.9504 87.0592 79.9504 88.667C79.9504 90.2749 79.0221 91.3037 77.6056 91.3037ZM77.6056 90.7343C78.6536 90.7343 79.3044 89.9543 79.3044 88.667C79.3044 87.3798 78.6536 86.5998 77.6056 86.5998C76.5624 86.5998 75.9116 87.3846 75.9116 88.667C75.9116 89.9543 76.5624 90.7343 77.6056 90.7343Z"
              fill="url(#paint32_linear_4342_7202)"/>
        <path d="M73.9524 91.2475V88.8357H71.0956V91.2475H70.4688V86.0938H71.0956V88.3045H73.9524V86.0938H74.5793V91.2475H73.9524Z"
              fill="url(#paint33_linear_4342_7202)"/>
        <path d="M67.5452 86.595C66.6216 86.595 65.9708 87.2841 65.9134 88.3082H69.1195C69.1099 87.2841 68.4783 86.595 67.5452 86.595ZM69.086 89.7868H69.7129C69.5598 90.6673 68.7128 91.3037 67.593 91.3037C66.167 91.3037 65.2578 90.3036 65.2578 88.6814C65.2578 87.0831 66.167 86.0352 67.5547 86.0352C68.909 86.0352 69.7799 87.0161 69.7799 88.5474V88.825H65.9134V88.8585C65.9134 90.0261 66.5833 90.7439 67.6074 90.7439C68.3826 90.7439 68.9329 90.3515 69.086 89.7868Z"
              fill="url(#paint34_linear_4342_7202)"/>
        <path d="M64.5758 91.2475H63.9489V88.7926H63.9202C63.6139 89.1037 63.1354 89.3669 62.4655 89.3669C61.3266 89.3669 60.6758 88.6156 60.6758 87.5198V86.0938H61.3027V87.4958C61.3027 88.295 61.7381 88.8022 62.5085 88.8022C63.2933 88.8022 63.7671 88.3715 63.9489 88.0892V86.0938H64.5758V91.2475Z"
              fill="url(#paint35_linear_4342_7202)"/>
        <path d="M56.6817 93.0707C56.5812 93.0707 56.4424 93.0515 56.3658 93.0372V92.4916C56.4424 92.5108 56.5716 92.5251 56.6721 92.5251C57.1458 92.5251 57.3947 92.2907 57.6339 91.6303L57.7583 91.281L55.8203 86.0938H56.4998L58.079 90.6063H58.0933L59.6772 86.0938H60.3472L58.323 91.5298C57.8732 92.7357 57.5143 93.0707 56.6817 93.0707Z"
              fill="url(#paint36_linear_4342_7202)"/>
        <path d="M52.4691 89.0319C52.3638 90.3622 52.0815 91.2905 51.0957 91.2905C50.9474 91.2905 50.8469 91.257 50.8086 91.2427V90.6637C50.8373 90.6732 50.9378 90.702 51.067 90.702C51.6029 90.702 51.7944 90.0129 51.8709 89.008C51.8996 88.7113 52.0575 86.3761 52.0719 86.0938H55.3498V91.2475H54.7229V86.6249H52.6413C52.627 86.8929 52.4978 88.7448 52.4691 89.0319Z"
              fill="url(#paint37_linear_4342_7202)"/>
        <path d="M48.3595 91.3037C46.9431 91.3037 46.0195 90.2749 46.0195 88.667C46.0195 87.0592 46.9431 86.0352 48.3595 86.0352C49.776 86.0352 50.7043 87.0592 50.7043 88.667C50.7043 90.2749 49.776 91.3037 48.3595 91.3037ZM48.3595 90.7343C49.4075 90.7343 50.0583 89.9543 50.0583 88.667C50.0583 87.3798 49.4075 86.5998 48.3595 86.5998C47.3163 86.5998 46.6655 87.3846 46.6655 88.667C46.6655 89.9543 47.3163 90.7343 48.3595 90.7343Z"
              fill="url(#paint38_linear_4342_7202)"/>
        <path d="M186.51 121.779H184.434V120.884H185.62V113.749H184.434V112.859H186.51V121.779Z" fill="white" fill-opacity="0.5"/>
        <path d="M183.237 114.643C182.845 115.067 182.527 115.469 182.285 115.849C182.042 116.225 181.854 116.618 181.72 117.026C181.586 117.434 181.494 117.878 181.443 118.356C181.392 118.832 181.363 119.377 181.356 119.993H180.347C180.353 119.412 180.391 118.883 180.462 118.404C180.535 117.922 180.65 117.469 180.806 117.045C180.963 116.618 181.168 116.211 181.423 115.825C181.679 115.436 181.993 115.042 182.366 114.643H179.892V115.691H179.012V113.748H183.237V114.643Z"
              fill="white" fill-opacity="0.5"/>
        <path d="M178.053 115.458C178.053 115.752 177.974 116.052 177.818 116.358C177.662 116.664 177.446 116.954 177.172 117.229L175.22 119.105H177.053V118.248H177.947V119.995H173.928V119.061L176.445 116.654C176.662 116.431 176.818 116.222 176.914 116.028C177.013 115.83 177.062 115.64 177.062 115.458C177.062 115.295 177.03 115.155 176.966 115.037C176.906 114.919 176.826 114.823 176.727 114.75C176.631 114.673 176.521 114.619 176.397 114.587C176.273 114.552 176.148 114.535 176.024 114.535C175.631 114.535 175.322 114.649 175.095 114.879C174.872 115.109 174.76 115.449 174.76 115.898H173.832C173.832 115.193 174.019 114.641 174.392 114.243C174.768 113.844 175.312 113.645 176.024 113.645C176.292 113.645 176.548 113.684 176.794 113.764C177.04 113.841 177.255 113.954 177.44 114.104C177.628 114.254 177.777 114.444 177.885 114.673C177.997 114.903 178.053 115.165 178.053 115.458Z"
              fill="white" fill-opacity="0.5"/>
        <path d="M172.53 121.779H170.453V112.859H172.53V113.749H171.343V120.884H172.53V121.779Z" fill="white" fill-opacity="0.5"/>
        <path opacity="0.5"
              d="M34 87.5C34 89.9853 31.9853 92 29.5 92C27.0147 92 25 89.9853 25 87.5C25 85.0147 27.0147 83 29.5 83C31.9853 83 34 85.0147 34 87.5Z"
              fill="url(#paint39_linear_4342_7202)" fill-opacity="0.1"/>
        <path opacity="0.5"
              d="M32 87.5C32 88.8807 30.8807 90 29.5 90C28.1193 90 27 88.8807 27 87.5C27 86.1193 28.1193 85 29.5 85C30.8807 85 32 86.1193 32 87.5Z"
              fill="url(#paint40_linear_4342_7202)"/>
        <path d="M32.8238 50.1213C32.8238 50.9476 32.7308 51.6956 32.5447 52.3656C32.366 53.0355 32.0832 53.6087 31.6961 54.0851C31.3165 54.554 30.8326 54.9188 30.2446 55.1793C29.6565 55.4398 28.9605 55.5701 28.1566 55.5701C27.3452 55.5701 26.6455 55.4398 26.0575 55.1793C25.4769 54.9188 24.9967 54.554 24.6171 54.0851C24.2449 53.6087 23.9658 53.0318 23.7797 52.3544C23.601 51.677 23.5117 50.9252 23.5117 50.099V40.7422H25.0414V50.1213C25.0414 50.5605 25.0786 51.0257 25.1531 51.517C25.2349 52.0083 25.3875 52.4549 25.6109 52.8569C25.8416 53.2588 26.158 53.5938 26.5599 53.8618C26.9693 54.1298 27.5016 54.2637 28.1566 54.2637C28.8117 54.2637 29.3439 54.1298 29.7533 53.8618C30.1701 53.5938 30.4902 53.2588 30.7135 52.8569C30.9443 52.4549 31.0969 52.0083 31.1713 51.517C31.2458 51.0257 31.283 50.5605 31.283 50.1213V40.7422H32.8238V50.1213Z"
              fill="url(#paint41_linear_4342_7202)"/>
        <path d="M80.8111 55.3133H76.6799V54.0069H77.6624L75.3735 49.228L73.0622 54.0069H74.0448V55.3133H69.9023V54.0069H71.3204L74.4802 47.9775L71.3762 42.0486H70.1592V40.7422H74.3239V42.0486H73.1069L75.3735 46.7158L77.5731 42.0486H76.4007V40.7422H80.5655V42.0486H79.3038L76.2667 47.9775L79.3931 54.0069H80.8111V55.3133Z"
              fill="url(#paint42_linear_4342_7202)"/>
        <path d="M68.2223 50.1213C68.2223 50.9476 68.1292 51.6956 67.9431 52.3656C67.7645 53.0355 67.4816 53.6087 67.0945 54.0851C66.7149 54.554 66.2311 54.9188 65.643 55.1793C65.055 55.4398 64.359 55.5701 63.555 55.5701C62.7437 55.5701 62.044 55.4398 61.4559 55.1793C60.8753 54.9188 60.3952 54.554 60.0156 54.0851C59.6434 53.6087 59.3642 53.0318 59.1781 52.3544C58.9995 51.677 58.9102 50.9252 58.9102 50.099V40.7422H60.4398V50.1213C60.4398 50.5605 60.4771 51.0257 60.5515 51.517C60.6334 52.0083 60.786 52.4549 61.0093 52.8569C61.24 53.2588 61.5564 53.5938 61.9584 53.8618C62.3678 54.1298 62.9 54.2637 63.555 54.2637C64.2101 54.2637 64.7423 54.1298 65.1517 53.8618C65.5686 53.5938 65.8887 53.2588 66.112 52.8569C66.3427 52.4549 66.4953 52.0083 66.5698 51.517C66.6442 51.0257 66.6814 50.5605 66.6814 50.1213V40.7422H68.2223V50.1213Z"
              fill="url(#paint43_linear_4342_7202)"/>
        <path d="M56.6705 40.7628L48.1177 57.9913L47.0234 57.4107L55.5763 40.1934L56.6705 40.7628Z" fill="url(#paint44_linear_4342_7202)"/>
        <path d="M43.0853 55.3133H36.8438V54.0069H39.1997V42.0486H36.8438V40.7422H43.0853V42.0486H40.7405V54.0069H43.0853V55.3133Z"
              fill="url(#paint45_linear_4342_7202)"/>
        <path d="M162.593 55.3133H161.053V48.5693H154.811V55.3133H153.281V40.7422H154.811V47.2629H161.053V40.7422H162.593V55.3133Z"
              fill="url(#paint46_linear_4342_7202)"/>
        <path d="M141.488 40.7428H143.018V52.5002L148.645 40.7428H150.8V55.3139H149.26V42.9871L143.386 55.3139H141.488V40.7428ZM149.338 37.6611C148.467 38.5246 147.406 38.9563 146.156 38.9563C144.905 38.9563 143.844 38.5246 142.973 37.6611L143.844 36.8125C144.544 37.5122 145.314 37.8621 146.156 37.8621C146.997 37.8621 147.767 37.5122 148.467 36.8125L149.338 37.6611Z"
              fill="url(#paint47_linear_4342_7202)"/>
        <path d="M140.253 55.3133H138.612L137.238 51.1485H131.477L130.126 55.3133H128.484L133.33 40.7422H135.407L140.253 55.3133ZM136.803 49.7975L134.357 42.283L131.912 49.7975H136.803Z"
              fill="url(#paint48_linear_4342_7202)"/>
        <path d="M127.615 51.2932C127.615 51.9334 127.485 52.5177 127.225 53.0462C126.964 53.5673 126.614 54.0139 126.175 54.3861C125.743 54.7583 125.241 55.0486 124.668 55.257C124.102 55.4655 123.506 55.5697 122.881 55.5697C122.181 55.5697 121.526 55.4766 120.916 55.2905C120.306 55.097 119.766 54.8104 119.297 54.4308C118.836 54.0511 118.46 53.5822 118.169 53.0239C117.879 52.4656 117.704 51.818 117.645 51.0811L119.13 50.8801C119.219 51.9967 119.61 52.8415 120.302 53.4147C120.987 53.9804 121.847 54.2633 122.881 54.2633C123.32 54.2633 123.734 54.1889 124.121 54.04C124.508 53.8911 124.846 53.6864 125.137 53.4259C125.427 53.1653 125.654 52.8527 125.818 52.488C125.989 52.1232 126.075 51.725 126.075 51.2932C126.075 50.6977 125.982 50.2139 125.795 49.8417C125.609 49.4621 125.334 49.168 124.969 48.9596C124.612 48.7438 124.169 48.5986 123.64 48.5242C123.112 48.4497 122.505 48.4125 121.82 48.4125V47.1061C122.319 47.1061 122.807 47.0652 123.283 46.9833C123.76 46.9014 124.184 46.76 124.556 46.559C124.928 46.358 125.23 46.0938 125.46 45.7663C125.691 45.4313 125.807 45.0144 125.807 44.5157C125.807 43.6969 125.535 43.0419 124.992 42.5506C124.448 42.0518 123.745 41.8025 122.881 41.8025C122.397 41.8025 121.928 41.8955 121.474 42.0816C121.028 42.2677 120.648 42.5133 120.335 42.8185C120.038 43.1014 119.788 43.4513 119.587 43.8681C119.386 44.285 119.286 44.7762 119.286 45.342H117.89V40.7417H119.197V42.4389C119.375 42.0742 119.602 41.769 119.878 41.5233C120.153 41.2777 120.455 41.0804 120.782 40.9316C121.11 40.7752 121.452 40.6636 121.809 40.5966C122.167 40.5296 122.524 40.4961 122.881 40.4961C123.506 40.4961 124.091 40.5891 124.634 40.7752C125.178 40.9539 125.647 41.2144 126.041 41.5568C126.443 41.8992 126.759 42.3198 126.99 42.8185C127.221 43.3173 127.336 43.883 127.336 44.5157C127.336 45.3494 127.091 46.038 126.599 46.5814C126.108 47.1247 125.401 47.4672 124.478 47.6086C124.992 47.683 125.442 47.8319 125.829 48.0552C126.223 48.2785 126.551 48.5577 126.811 48.8926C127.079 49.2202 127.28 49.5923 127.414 50.0092C127.548 50.4186 127.615 50.8466 127.615 51.2932Z"
              fill="url(#paint49_linear_4342_7202)"/>
        <path d="M106.098 40.7422H107.627V52.4996L113.255 40.7422H115.41V55.3133H113.869V42.9865L107.996 55.3133H106.098V40.7422Z"
              fill="url(#paint50_linear_4342_7202)"/>
        <path d="M93.7539 54.0069C94.1782 53.6422 94.5541 53.2514 94.8816 52.8345C95.2092 52.4102 95.4846 51.8482 95.7079 51.1485C95.9312 50.4488 96.0987 49.5593 96.2103 48.48C96.3294 47.3932 96.389 46.0124 96.389 44.3375V40.7422H102.072V54.0069H104.16V58.8751H102.787V55.3133H95.1273V58.8751H93.7539V54.0069ZM97.9187 44.3375C97.9187 45.6476 97.874 46.8051 97.7847 47.81C97.7028 48.8149 97.5688 49.7082 97.3827 50.4898C97.2041 51.2639 96.9659 51.9376 96.6681 52.5107C96.3704 53.0839 96.0094 53.5826 95.5851 54.0069H100.543V42.0486H97.9187V44.3375Z"
              fill="url(#paint51_linear_4342_7202)"/>
        <path d="M399.599 135.685V136.337H229.401V135.685H399.599ZM413.345 122V14.3371C413.345 6.77885 407.191 0.651688 399.599 0.651685H229.401C221.809 0.651685 215.655 6.77885 215.655 14.3371V122C215.655 129.558 221.809 135.685 229.401 135.685V136.337C221.572 136.337 215.201 130.117 215.004 122.37L215 122V14.3371C215 6.54255 221.248 0.200575 229.03 0.00445488L229.401 0H399.599L399.97 0.00445488C407.752 0.200578 414 6.54255 414 14.3371V122C414 129.918 407.552 136.337 399.599 136.337V135.685C407.191 135.685 413.345 129.558 413.345 122Z"
              fill="url(#paint52_linear_4342_7202)" fill-opacity="0.16"/>
        <path d="M247 117C247 121.418 243.418 125 239 125C234.582 125 231 121.418 231 117C231 112.582 234.582 109 239 109C243.418 109 247 112.582 247 117Z"
              fill="#7211F8" fill-opacity="0.08"/>
        <path d="M314.304 23.7771H312.52V23.2364H313.778V15.3886H312.52V14.8574H314.304V23.7771Z" fill="url(#paint53_linear_4342_7202)"/>
        <path d="M302.409 19.3162H304.118C304.711 19.3162 305.167 19.423 305.486 19.6368C305.809 19.8473 305.97 20.1839 305.97 20.6465C305.97 21.1122 305.81 21.4536 305.491 21.6705C305.175 21.8842 304.721 21.9911 304.127 21.9911H301.754V17.5312H302.409V19.3162ZM305.314 20.6465C305.314 20.4008 305.207 20.211 304.994 20.077C304.78 19.943 304.488 19.876 304.118 19.876H302.409V21.4312H304.118C304.488 21.4312 304.78 21.3626 304.994 21.2255C305.207 21.0883 305.314 20.8953 305.314 20.6465Z"
              fill="url(#paint54_linear_4342_7202)"/>
        <path d="M300.921 19.6368H300.361V18.0911H299.021V21.4312H300.026V21.9911H297.351V21.4312H298.361V18.0911H297.021V19.6368H296.461V17.5312H300.921V19.6368Z"
              fill="url(#paint55_linear_4342_7202)"/>
        <path d="M295.695 21.1487C295.507 21.4422 295.248 21.6751 294.92 21.8474C294.594 22.0164 294.207 22.101 293.757 22.101C293.409 22.101 293.09 22.0436 292.8 21.9287C292.509 21.8139 292.261 21.6544 292.053 21.4502C291.849 21.2428 291.689 20.9972 291.575 20.7133C291.46 20.4293 291.402 20.1135 291.402 19.7658C291.402 19.4276 291.455 19.115 291.56 18.8279C291.666 18.5376 291.815 18.2903 292.01 18.0861C292.205 17.8788 292.442 17.7177 292.723 17.6028C293.007 17.4848 293.321 17.4258 293.666 17.4258C293.803 17.4258 293.943 17.4417 294.087 17.4736C294.23 17.5055 294.366 17.555 294.494 17.622C294.621 17.6858 294.736 17.7639 294.838 17.8565C294.94 17.9458 295.017 18.0527 295.068 18.1771V17.5311H295.656V19.316H295.068C295.068 19.1182 295.031 18.9379 294.958 18.7752C294.888 18.6125 294.79 18.4722 294.666 18.3541C294.541 18.2361 294.393 18.1452 294.221 18.0814C294.049 18.0144 293.864 17.9809 293.666 17.9809C293.398 17.9809 293.163 18.0271 292.962 18.1196C292.765 18.2122 292.599 18.3382 292.465 18.4977C292.331 18.6572 292.229 18.8454 292.158 19.0623C292.091 19.2761 292.058 19.5106 292.058 19.7658C292.058 20.021 292.096 20.2571 292.173 20.474C292.253 20.6877 292.366 20.8728 292.513 21.0291C292.662 21.1854 292.841 21.3098 293.048 21.4023C293.259 21.4948 293.495 21.5411 293.757 21.5411C294.088 21.5411 294.384 21.4773 294.642 21.3497C294.9 21.2221 295.098 21.0498 295.235 20.8329L295.695 21.1487Z"
              fill="url(#paint56_linear_4342_7202)"/>
        <path d="M290.924 19.7753C290.924 20.1231 290.868 20.4389 290.757 20.7228C290.648 21.0068 290.49 21.2508 290.283 21.455C290.079 21.656 289.833 21.8139 289.546 21.9287C289.259 22.0436 288.938 22.101 288.584 22.101C288.237 22.101 287.919 22.0436 287.632 21.9287C287.345 21.8139 287.098 21.656 286.89 21.455C286.686 21.2508 286.528 21.0068 286.417 20.7228C286.308 20.4389 286.254 20.1231 286.254 19.7753C286.254 19.4372 286.308 19.123 286.417 18.8326C286.528 18.5392 286.686 18.2903 286.89 18.0861C287.098 17.8788 287.345 17.7177 287.632 17.6028C287.919 17.4848 288.237 17.4258 288.584 17.4258C288.938 17.4258 289.259 17.4848 289.546 17.6028C289.833 17.7177 290.079 17.8788 290.283 18.0861C290.49 18.2903 290.648 18.5392 290.757 18.8326C290.868 19.123 290.924 19.4372 290.924 19.7753ZM290.269 19.7753C290.269 19.5201 290.23 19.2857 290.154 19.0719C290.081 18.855 289.97 18.6652 289.824 18.5025C289.677 18.3398 289.498 18.2122 289.288 18.1196C289.08 18.0271 288.846 17.9809 288.584 17.9809C288.323 17.9809 288.087 18.0271 287.876 18.1196C287.669 18.2122 287.493 18.3398 287.35 18.5025C287.206 18.6652 287.096 18.855 287.02 19.0719C286.946 19.2857 286.909 19.5201 286.909 19.7753C286.909 20.0306 286.946 20.2666 287.02 20.4836C287.096 20.6973 287.206 20.8823 287.35 21.0387C287.493 21.195 287.669 21.3178 287.876 21.4071C288.087 21.4964 288.323 21.5411 288.584 21.5411C288.846 21.5411 289.08 21.4964 289.288 21.4071C289.498 21.3178 289.677 21.195 289.824 21.0387C289.97 20.8823 290.081 20.6973 290.154 20.4836C290.23 20.2666 290.269 20.0306 290.269 19.7753Z"
              fill="url(#paint57_linear_4342_7202)"/>
        <path d="M285.518 21.9911H284.858V19.9909H282.183V21.9911H281.527V17.5312H282.183V19.431H284.858V17.5312H285.518V21.9911Z"
              fill="url(#paint58_linear_4342_7202)"/>
        <path d="M280.698 19.6368H280.138V18.0911H278.798V21.4312H279.803V21.9911H277.128V21.4312H278.138V18.0911H276.798V19.6368H276.238V17.5312H280.698V19.6368Z"
              fill="url(#paint59_linear_4342_7202)"/>
        <path d="M275.405 21.9911H274.745V19.9909H272.07V21.9911H271.414V17.5312H272.07V19.431H274.745V17.5312H275.405V21.9911Z"
              fill="url(#paint60_linear_4342_7202)"/>
        <path d="M266.117 20.785C266.117 20.5043 266.187 20.2698 266.328 20.0816C266.468 19.8902 266.652 19.7403 266.878 19.6318C267.108 19.5201 267.369 19.4404 267.663 19.3925C267.96 19.3415 268.261 19.316 268.567 19.316C268.685 19.316 268.791 19.3176 268.883 19.3207C268.979 19.3239 269.068 19.3287 269.151 19.3351C269.237 19.3415 269.323 19.3495 269.409 19.359C269.496 19.3686 269.59 19.3798 269.692 19.3925V19.0719C269.692 18.855 269.644 18.6763 269.548 18.536C269.456 18.3956 269.341 18.2855 269.204 18.2058C269.067 18.1228 268.923 18.0654 268.773 18.0335C268.623 17.9984 268.495 17.9809 268.39 17.9809C268.058 17.9809 267.752 18.0255 267.471 18.1149C267.191 18.2042 266.929 18.3238 266.687 18.4738L266.39 17.9809C266.658 17.8182 266.958 17.6858 267.29 17.5837C267.625 17.4784 267.991 17.4258 268.39 17.4258C268.633 17.4258 268.87 17.4577 269.103 17.5215C269.339 17.5821 269.55 17.6778 269.735 17.8086C269.923 17.9362 270.073 18.1053 270.185 18.3158C270.296 18.5264 270.352 18.7784 270.352 19.0719V21.9909H269.692V21.2444C269.577 21.388 269.446 21.514 269.299 21.6225C269.156 21.7309 269.004 21.8202 268.845 21.8904C268.685 21.9574 268.526 22.0085 268.366 22.0436C268.207 22.0818 268.055 22.101 267.912 22.101C267.321 22.101 266.875 21.9877 266.572 21.7612C266.269 21.5347 266.117 21.2093 266.117 20.785ZM267.912 21.5411C268.186 21.5411 268.432 21.5012 268.649 21.4215C268.869 21.3385 269.055 21.2364 269.208 21.1152C269.362 20.994 269.48 20.8648 269.563 20.7276C269.649 20.5904 269.692 20.466 269.692 20.3544V19.9333C269.478 19.9014 269.272 19.8838 269.074 19.8806C268.88 19.8774 268.711 19.8758 268.567 19.8758C268.331 19.8758 268.103 19.8918 267.883 19.9237C267.666 19.9556 267.476 20.0082 267.314 20.0816C267.151 20.1518 267.02 20.2443 266.921 20.3591C266.822 20.474 266.773 20.616 266.773 20.785C266.773 20.9733 266.864 21.1471 267.046 21.3066C267.231 21.4629 267.519 21.5411 267.912 21.5411Z"
              fill="url(#paint61_linear_4342_7202)"/>
        <path d="M265.517 20.7182C265.517 21.1489 265.357 21.4695 265.038 21.6801C264.722 21.8874 264.268 21.9911 263.674 21.9911H261.301V17.5312H263.526C263.743 17.5312 263.957 17.5488 264.167 17.5839C264.381 17.6158 264.571 17.6748 264.737 17.7609C264.902 17.8439 265.038 17.9603 265.143 18.1103C265.249 18.2602 265.301 18.4564 265.301 18.6989C265.301 18.9285 265.245 19.1216 265.134 19.2779C265.022 19.4342 264.804 19.5538 264.478 19.6368C264.877 19.7293 265.15 19.8665 265.296 20.0483C265.443 20.2269 265.517 20.4503 265.517 20.7182ZM264.646 18.7371C264.646 18.6 264.609 18.4899 264.536 18.407C264.462 18.3208 264.371 18.2554 264.263 18.2108C264.158 18.1629 264.04 18.131 263.909 18.1151C263.778 18.0991 263.65 18.0911 263.526 18.0911H261.956V19.3736H263.526C263.657 19.3736 263.789 19.3656 263.923 19.3496C264.057 19.3337 264.178 19.3018 264.287 19.2539C264.395 19.2029 264.481 19.1375 264.545 19.0577C264.612 18.9748 264.646 18.8679 264.646 18.7371ZM264.861 20.6895C264.861 20.4279 264.754 20.2365 264.54 20.1153C264.327 19.9941 264.035 19.9335 263.665 19.9335H261.956V21.4312H263.665C264.035 21.4312 264.327 21.369 264.54 21.2446C264.754 21.1202 264.861 20.9352 264.861 20.6895Z"
              fill="url(#paint62_linear_4342_7202)"/>
        <path d="M256.667 19.9907C256.715 20.4628 256.887 20.8393 257.184 21.12C257.48 21.4007 257.866 21.5411 258.342 21.5411C258.677 21.5411 258.975 21.4725 259.237 21.3353C259.498 21.1982 259.694 21.0275 259.825 20.8233L260.285 21.1391C260.061 21.4518 259.795 21.691 259.485 21.8569C259.176 22.0196 258.795 22.101 258.342 22.101C257.997 22.101 257.681 22.0436 257.394 21.9287C257.107 21.8139 256.858 21.6544 256.648 21.4502C256.44 21.2428 256.279 20.9972 256.164 20.7133C256.05 20.4293 255.992 20.1135 255.992 19.7658C255.992 19.4276 256.043 19.1166 256.145 18.8326C256.251 18.5455 256.401 18.2983 256.595 18.0909C256.793 17.8804 257.032 17.7177 257.313 17.6028C257.594 17.4848 257.908 17.4258 258.256 17.4258C258.635 17.4258 258.967 17.4896 259.251 17.6172C259.535 17.7448 259.771 17.9219 259.959 18.1484C260.151 18.3717 260.291 18.6396 260.38 18.9523C260.473 19.2649 260.519 19.6111 260.519 19.9907H256.667ZM259.825 19.4308C259.752 18.9427 259.575 18.579 259.294 18.3398C259.013 18.1005 258.667 17.9809 258.256 17.9809C258.045 17.9809 257.85 18.016 257.672 18.0861C257.493 18.1531 257.335 18.2504 257.198 18.378C257.061 18.5057 256.946 18.6604 256.854 18.8422C256.761 19.0209 256.702 19.2171 256.676 19.4308H259.825Z"
              fill="url(#paint63_linear_4342_7202)"/>
        <path d="M255.181 17.5312V21.9911H254.521V18.0911H252.506V21.0006C252.506 21.176 252.476 21.3323 252.415 21.4695C252.358 21.6067 252.279 21.7215 252.181 21.8141C252.082 21.9066 251.967 21.9768 251.836 22.0246C251.705 22.0757 251.568 22.1012 251.425 22.1012C251.157 22.1012 250.96 22.0613 250.836 21.9815L250.965 21.4599C251.01 21.4887 251.059 21.5094 251.113 21.5222C251.171 21.5349 251.246 21.5413 251.338 21.5413C251.677 21.5413 251.846 21.3611 251.846 21.0006V17.5312H255.181Z"
              fill="url(#paint64_linear_4342_7202)"/>
        <path d="M246.558 19.9907C246.605 20.4628 246.778 20.8393 247.074 21.12C247.371 21.4007 247.757 21.5411 248.232 21.5411C248.567 21.5411 248.866 21.4725 249.127 21.3353C249.389 21.1982 249.585 21.0275 249.716 20.8233L250.175 21.1391C249.952 21.4518 249.685 21.691 249.376 21.8569C249.067 22.0196 248.685 22.101 248.232 22.101C247.888 22.101 247.572 22.0436 247.285 21.9287C246.998 21.8139 246.749 21.6544 246.538 21.4502C246.331 21.2428 246.17 20.9972 246.055 20.7133C245.94 20.4293 245.883 20.1135 245.883 19.7658C245.883 19.4276 245.934 19.1166 246.036 18.8326C246.141 18.5455 246.291 18.2983 246.486 18.0909C246.684 17.8804 246.923 17.7177 247.204 17.6028C247.484 17.4848 247.799 17.4258 248.146 17.4258C248.526 17.4258 248.858 17.4896 249.142 17.6172C249.426 17.7448 249.662 17.9219 249.85 18.1484C250.041 18.3717 250.182 18.6396 250.271 18.9523C250.363 19.2649 250.41 19.6111 250.41 19.9907H246.558ZM249.716 19.4308C249.642 18.9427 249.465 18.579 249.185 18.3398C248.904 18.1005 248.558 17.9809 248.146 17.9809C247.936 17.9809 247.741 18.016 247.562 18.0861C247.384 18.1531 247.226 18.2504 247.089 18.378C246.952 18.5057 246.837 18.6604 246.744 18.8422C246.652 19.0209 246.593 19.2171 246.567 19.4308H249.716Z"
              fill="url(#paint65_linear_4342_7202)"/>
        <path d="M245.298 17.5329C245.298 18.1359 245.11 18.5841 244.733 18.8776C244.357 19.1711 243.829 19.3179 243.149 19.3179H241.738V21.9928H241.082V15.748H243.14C243.826 15.748 244.357 15.898 244.733 16.1979C245.11 16.4945 245.298 16.9396 245.298 17.5329ZM244.642 17.5329C244.642 17.1023 244.507 16.7912 244.236 16.5998C243.964 16.4052 243.602 16.3079 243.149 16.3079H241.738V18.758H243.149C243.602 18.758 243.964 18.6623 244.236 18.4709C244.507 18.2763 244.642 17.9636 244.642 17.5329Z"
              fill="url(#paint66_linear_4342_7202)"/>
        <path d="M234.296 23.7771H232.516V14.8574H234.296V15.3886H233.042V23.2364H234.296V23.7771Z" fill="url(#paint67_linear_4342_7202)"/>
        <path d="M292.422 120.704C291.006 120.704 290.082 119.675 290.082 118.067C290.082 116.46 291.006 115.436 292.422 115.436C293.838 115.436 294.767 116.46 294.767 118.067C294.767 119.675 293.838 120.704 292.422 120.704ZM292.422 120.135C293.47 120.135 294.121 119.355 294.121 118.067C294.121 116.78 293.47 116 292.422 116C291.379 116 290.728 116.785 290.728 118.067C290.728 119.355 291.379 120.135 292.422 120.135Z"
              fill="white"/>
        <path d="M288.769 120.646V118.234H285.912V120.646H285.285V115.492H285.912V117.703H288.769V115.492H289.396V120.646H288.769Z" fill="white"/>
        <path d="M282.365 115.995C281.442 115.995 280.791 116.684 280.734 117.709H283.94C283.93 116.684 283.299 115.995 282.365 115.995ZM283.906 119.187H284.533C284.38 120.068 283.533 120.704 282.413 120.704C280.987 120.704 280.078 119.704 280.078 118.082C280.078 116.484 280.987 115.436 282.375 115.436C283.729 115.436 284.6 116.417 284.6 117.948V118.225H280.734V118.259C280.734 119.426 281.404 120.144 282.428 120.144C283.203 120.144 283.753 119.752 283.906 119.187Z"
              fill="white"/>
        <path d="M278.765 120.646V118.234H275.908V120.646H275.281V115.492H275.908V117.703H278.765V115.492H279.392V120.646H278.765Z" fill="white"/>
        <path d="M272.246 120.704C270.83 120.704 269.906 119.675 269.906 118.067C269.906 116.46 270.83 115.436 272.246 115.436C273.663 115.436 274.591 116.46 274.591 118.067C274.591 119.675 273.663 120.704 272.246 120.704ZM272.246 120.135C273.294 120.135 273.945 119.355 273.945 118.067C273.945 116.78 273.294 116 272.246 116C271.203 116 270.552 116.785 270.552 118.067C270.552 119.355 271.203 120.135 272.246 120.135Z"
              fill="white"/>
        <path d="M266.34 118.43C266.235 119.761 265.953 120.689 264.967 120.689C264.818 120.689 264.718 120.655 264.68 120.641V120.062C264.708 120.072 264.809 120.1 264.938 120.1C265.474 120.1 265.665 119.411 265.742 118.406C265.771 118.11 265.929 115.775 265.943 115.492H269.221V120.646H268.594V116.023H266.512C266.498 116.291 266.369 118.143 266.34 118.43Z"
              fill="white"/>
        <path d="M262 117.942L264.723 120.646H263.885L261.359 118.124H261.33V120.646H260.703V115.492H261.33V117.813H261.359L263.823 115.492H264.627L262 117.942Z"
              fill="white"/>
        <path d="M260.184 115.492V116.023H258.423V120.646H257.796V116.023H256.035V115.492H260.184Z" fill="white"/>
        <path d="M252.576 113.631C254.499 113.631 255.715 115.009 255.715 117.196C255.715 119.383 254.504 120.756 252.576 120.756C250.652 120.756 249.441 119.383 249.441 117.196C249.441 115.009 250.652 113.631 252.576 113.631ZM252.576 114.239C251.064 114.239 250.111 115.382 250.111 117.196C250.111 119.005 251.064 120.148 252.576 120.148C254.088 120.148 255.045 119.005 255.045 117.196C255.045 115.382 254.088 114.239 252.576 114.239Z"
              fill="white"/>
        <path d="M244 117C244 119.761 241.761 122 239 122C236.239 122 234 119.761 234 117C234 114.239 236.239 112 239 112C241.761 112 244 114.239 244 117Z"
              fill="#7211F8" fill-opacity="0.1"/>
        <path d="M241 117C241 118.105 240.105 119 239 119C237.895 119 237 118.105 237 117C237 115.895 237.895 115 239 115C240.105 115 241 115.895 241 117Z"
              fill="#7211F8"/>
        <path d="M247 87C247 91.4183 243.418 95 239 95C234.582 95 231 91.4183 231 87C231 82.5817 234.582 79 239 79C243.418 79 247 82.5817 247 87Z"
              fill="#7211F8" fill-opacity="0.08"/>
        <path d="M315.507 88.3811H314.392V90.7163H315.507C316.264 90.7163 316.747 90.2521 316.747 89.5487C316.747 88.8357 316.259 88.3811 315.507 88.3811ZM313.766 91.2475V86.0938H314.392V87.8452H315.507C316.642 87.8452 317.378 88.5055 317.378 89.5487C317.378 90.5871 316.642 91.2475 315.507 91.2475H313.766Z"
              fill="white"/>
        <path d="M313.243 86.0938V86.6249H311.482V91.2475H310.855V86.6249H309.094V86.0938H313.243Z" fill="white"/>
        <path d="M309.011 87.6143H308.379C308.221 87.0305 307.695 86.5998 306.915 86.5998C305.905 86.5998 305.235 87.4133 305.235 88.667C305.235 89.9447 305.91 90.7343 306.919 90.7343C307.666 90.7343 308.197 90.3706 308.379 89.7629H309.011C308.824 90.6769 308.015 91.3037 306.919 91.3037C305.517 91.3037 304.594 90.294 304.594 88.667C304.594 87.0736 305.513 86.0352 306.91 86.0352C308.068 86.0352 308.843 86.7482 309.011 87.6143Z"
              fill="white"/>
        <path d="M301.84 91.3037C300.424 91.3037 299.5 90.2749 299.5 88.667C299.5 87.0592 300.424 86.0352 301.84 86.0352C303.256 86.0352 304.185 87.0592 304.185 88.667C304.185 90.2749 303.256 91.3037 301.84 91.3037ZM301.84 90.7343C302.888 90.7343 303.539 89.9543 303.539 88.667C303.539 87.3798 302.888 86.5998 301.84 86.5998C300.797 86.5998 300.146 87.3846 300.146 88.667C300.146 89.9543 300.797 90.7343 301.84 90.7343Z"
              fill="white"/>
        <path d="M298.179 91.2475V88.8357H295.322V91.2475H294.695V86.0938H295.322V88.3045H298.179V86.0938H298.806V91.2475H298.179Z" fill="white"/>
        <path d="M292.132 86.6249H290.764V88.3141H292.032C292.745 88.3141 293.132 88.0031 293.132 87.4432C293.132 86.9216 292.769 86.6249 292.132 86.6249ZM292.084 88.8453H290.764V90.7163H292.209C292.97 90.7163 293.376 90.3909 293.376 89.7736C293.376 89.1515 292.917 88.8453 292.084 88.8453ZM290.137 91.2475V86.0938H292.204C293.161 86.0938 293.75 86.5866 293.75 87.3858C293.75 87.9504 293.372 88.429 292.85 88.5342V88.5629C293.51 88.6395 293.998 89.0989 293.998 89.7832C293.998 90.7067 293.333 91.2475 292.223 91.2475H290.137Z"
              fill="white"/>
        <path d="M285.654 91.2475H285.027V86.0938H285.654V90.2617H285.683L288.578 86.0938H289.205V91.2475H288.578V87.0795H288.549L285.654 91.2475Z"
              fill="white"/>
        <path d="M284.508 86.0938V86.6249H282.747V91.2475H282.12V86.6249H280.359V86.0938H284.508Z" fill="white"/>
        <path d="M277.676 88.5438L280.399 91.2475H279.561L277.034 88.7256H277.006V91.2475H276.379V86.0938H277.006V88.4146H277.034L279.499 86.0938H280.303L277.676 88.5438Z"
              fill="white"/>
        <path d="M272.248 93.0707C272.148 93.0707 272.009 93.0515 271.932 93.0372V92.4916C272.009 92.5108 272.138 92.5251 272.238 92.5251C272.712 92.5251 272.961 92.2907 273.2 91.6303L273.325 91.281L271.387 86.0938H272.066L273.645 90.6063H273.66L275.244 86.0938H275.914L273.889 91.5298C273.44 92.7357 273.081 93.0707 272.248 93.0707Z"
              fill="white"/>
        <path d="M269.908 90.7163V86.6249H267.668C267.654 86.8929 267.52 88.7448 267.491 89.0319C267.434 89.7258 267.309 90.3431 267.027 90.6876V90.7163H269.908ZM266.453 92.6113H265.859V90.7163H266.276C266.663 90.4627 266.84 89.7736 266.903 89.008C266.926 88.7113 267.089 86.3761 267.104 86.0938H270.539V90.7163H271.372V92.6113H270.779V91.2475H266.453V92.6113Z"
              fill="white"/>
        <path d="M263.36 91.3037C261.943 91.3037 261.02 90.2749 261.02 88.667C261.02 87.0592 261.943 86.0352 263.36 86.0352C264.776 86.0352 265.704 87.0592 265.704 88.667C265.704 90.2749 264.776 91.3037 263.36 91.3037ZM263.36 90.7343C264.407 90.7343 265.058 89.9543 265.058 88.667C265.058 87.3798 264.407 86.5998 263.36 86.5998C262.316 86.5998 261.666 87.3846 261.666 88.667C261.666 89.9543 262.316 90.7343 263.36 90.7343Z"
              fill="white"/>
        <path d="M258.401 86.0352C259.703 86.0352 260.598 87.0975 260.598 88.667C260.598 90.2414 259.708 91.3037 258.411 91.3037C257.583 91.3037 256.937 90.8539 256.65 90.184H256.636V92.9546H256.004V86.0926H256.602V87.1597H256.616C256.889 86.5041 257.583 86.0352 258.401 86.0352ZM258.291 90.7343C259.287 90.7343 259.952 89.9112 259.952 88.6718C259.952 87.4325 259.287 86.5998 258.291 86.5998C257.31 86.5998 256.631 87.4468 256.631 88.667C256.631 89.8969 257.31 90.7343 258.291 90.7343Z"
              fill="white"/>
        <path d="M254.982 91.2469H254.336V84.94H250.378V91.2469H249.723V84.3418H254.982V91.2469Z" fill="white"/>
        <path d="M244 87C244 89.7614 241.761 92 239 92C236.239 92 234 89.7614 234 87C234 84.2386 236.239 82 239 82C241.761 82 244 84.2386 244 87Z"
              fill="#7211F8" fill-opacity="0.1"/>
        <path d="M241 87C241 88.1046 240.105 89 239 89C237.895 89 237 88.1046 237 87C237 85.8954 237.895 85 239 85C240.105 85 241 85.8954 241 87Z"
              fill="#7211F8"/>
        <path d="M261.656 43.3336C261.656 43.7132 261.582 44.0742 261.433 44.4167C261.292 44.7591 261.091 45.0568 260.83 45.3099C260.577 45.563 260.279 45.7677 259.937 45.924C259.595 46.0729 259.23 46.1473 258.843 46.1473C258.463 46.1473 258.102 46.0729 257.76 45.924C257.417 45.7677 257.12 45.563 256.866 45.3099C256.613 45.0568 256.416 44.7591 256.275 44.4167C256.133 44.0742 256.062 43.7132 256.062 43.3336C256.062 42.954 256.133 42.5892 256.275 42.2394C256.416 41.8821 256.613 41.5806 256.866 41.3349C257.12 41.0819 257.417 40.8809 257.76 40.732C258.102 40.5757 258.463 40.4975 258.843 40.4975C259.23 40.4975 259.595 40.5757 259.937 40.732C260.279 40.8809 260.577 41.0819 260.83 41.3349C261.091 41.5806 261.292 41.8821 261.433 42.2394C261.582 42.5892 261.656 42.954 261.656 43.3336ZM266.692 41.1116L257.358 55.6158L256.308 54.9458L265.665 40.4082L266.692 41.1116ZM267.016 52.7574C267.016 53.1519 266.938 53.5166 266.781 53.8516C266.633 54.1866 266.432 54.4843 266.179 54.7448C265.925 55.0054 265.624 55.2064 265.274 55.3478C264.924 55.4967 264.56 55.5711 264.18 55.5711C263.793 55.5711 263.428 55.4967 263.086 55.3478C262.743 55.2064 262.446 55.0091 262.192 54.756C261.947 54.5029 261.746 54.2052 261.589 53.8628C261.441 53.5203 261.366 53.1519 261.366 52.7574C261.366 52.3703 261.441 52.0055 261.589 51.6631C261.746 51.3207 261.947 51.0267 262.192 50.7811C262.446 50.528 262.743 50.3307 263.086 50.1893C263.428 50.0404 263.793 49.966 264.18 49.966C264.56 49.966 264.921 50.0404 265.263 50.1893C265.605 50.3307 265.907 50.528 266.167 50.7811C266.428 51.0267 266.633 51.3207 266.781 51.6631C266.938 52.0055 267.016 52.3703 267.016 52.7574ZM260.518 43.3336C260.518 42.8572 260.358 42.4552 260.037 42.1277C259.717 41.8002 259.319 41.6364 258.843 41.6364C258.374 41.6364 257.979 41.8002 257.659 42.1277C257.339 42.4552 257.179 42.8572 257.179 43.3336C257.179 43.8025 257.339 44.2008 257.659 44.5283C257.979 44.8558 258.374 45.0196 258.843 45.0196C259.319 45.0196 259.717 44.8558 260.037 44.5283C260.358 44.2008 260.518 43.8025 260.518 43.3336ZM265.866 52.7574C265.866 52.281 265.702 51.8827 265.375 51.5626C265.047 51.2426 264.649 51.0825 264.18 51.0825C263.703 51.0825 263.305 51.2426 262.985 51.5626C262.665 51.8827 262.505 52.281 262.505 52.7574C262.505 53.2263 262.665 53.6246 262.985 53.9521C263.305 54.2796 263.703 54.4434 264.18 54.4434C264.649 54.4434 265.047 54.2796 265.375 53.9521C265.702 53.6246 265.866 53.2263 265.866 52.7574Z"
              fill="url(#paint68_linear_4342_7202)"/>
        <path d="M255.184 50.3553C255.184 51.1593 255.05 51.8813 254.782 52.5215C254.522 53.1616 254.153 53.7087 253.677 54.1628C253.208 54.6094 252.65 54.9556 252.002 55.2012C251.355 55.4468 250.655 55.5697 249.903 55.5697C248.868 55.5697 248.001 55.3612 247.301 54.9444C246.602 54.5201 246.036 53.9618 245.604 53.2696C245.18 52.5773 244.871 51.7771 244.678 50.8689C244.491 49.9608 244.398 49.0192 244.398 48.044C244.398 47.054 244.525 46.105 244.778 45.1968C245.039 44.2887 245.426 43.4848 245.939 42.785C246.453 42.0779 247.093 41.5196 247.86 41.1102C248.634 40.7008 249.538 40.4961 250.573 40.4961C252.017 40.4961 253.219 40.9985 254.18 42.0035L253.175 42.8967C252.505 42.1672 251.637 41.8025 250.573 41.8025C249.791 41.8025 249.099 41.9513 248.496 42.2491C247.901 42.5468 247.402 42.9637 247 43.4996C246.606 44.0281 246.308 44.6683 246.107 45.4201C245.913 46.1645 245.816 46.9833 245.816 47.8766C245.921 47.4969 246.118 47.1396 246.408 46.8047C246.699 46.4697 247.034 46.1831 247.413 45.9449C247.793 45.6993 248.202 45.5057 248.641 45.3643C249.088 45.2154 249.535 45.141 249.981 45.141C250.741 45.141 251.44 45.2713 252.08 45.5318C252.721 45.7849 253.268 46.1422 253.722 46.6037C254.183 47.0577 254.541 47.6049 254.794 48.245C255.054 48.8852 255.184 49.5886 255.184 50.3553ZM253.655 50.3553C253.655 49.8045 253.569 49.2909 253.398 48.8145C253.234 48.3306 252.996 47.9138 252.683 47.5639C252.371 47.2141 251.984 46.9387 251.522 46.7377C251.068 46.5367 250.554 46.4362 249.981 46.4362C249.416 46.4362 248.894 46.5292 248.418 46.7153C247.949 46.9014 247.547 47.162 247.212 47.4969C246.877 47.8319 246.617 48.2301 246.431 48.6917C246.252 49.1457 246.163 49.6519 246.163 50.2102C246.163 50.761 246.237 51.2821 246.386 51.7734C246.535 52.2572 246.766 52.6852 247.078 53.0574C247.391 53.4296 247.778 53.7236 248.239 53.9395C248.708 54.1554 249.263 54.2633 249.903 54.2633C250.454 54.2633 250.956 54.174 251.41 53.9953C251.872 53.8092 252.27 53.5487 252.605 53.2137C252.94 52.8788 253.197 52.4656 253.376 51.9743C253.562 51.4831 253.655 50.9434 253.655 50.3553Z"
              fill="url(#paint69_linear_4342_7202)"/>
        <path d="M232.438 45.7104C232.438 44.8991 232.571 44.1733 232.839 43.5331C233.107 42.893 233.476 42.3496 233.945 41.903C234.421 41.4489 234.983 41.1028 235.631 40.8646C236.278 40.6189 236.978 40.4961 237.73 40.4961C238.75 40.4961 239.613 40.7082 240.32 41.1325C241.028 41.5494 241.593 42.1077 242.018 42.8074C242.449 43.5071 242.758 44.3073 242.944 45.208C243.138 46.1087 243.235 47.0466 243.235 48.0217C243.235 49.0117 243.104 49.9608 242.844 50.8689C242.583 51.7771 242.196 52.581 241.683 53.2807C241.176 53.9804 240.533 54.5387 239.751 54.9556C238.977 55.365 238.08 55.5697 237.06 55.5697C235.616 55.5697 234.414 55.0635 233.454 54.0511L234.458 53.1579C234.793 53.5301 235.181 53.8092 235.62 53.9953C236.066 54.174 236.546 54.2633 237.06 54.2633C237.842 54.2633 238.526 54.1144 239.115 53.8167C239.71 53.5189 240.209 53.1058 240.611 52.5773C241.02 52.0413 241.322 51.4012 241.515 50.6568C241.716 49.905 241.817 49.0787 241.817 48.178C241.698 48.5577 241.497 48.915 241.214 49.2499C240.931 49.5849 240.6 49.8752 240.22 50.1208C239.84 50.3665 239.423 50.5638 238.969 50.7126C238.523 50.8541 238.084 50.9248 237.652 50.9248C236.893 50.9248 236.193 50.7945 235.553 50.534C234.913 50.2734 234.362 49.9161 233.9 49.4621C233.446 49.0006 233.089 48.4497 232.828 47.8096C232.568 47.1694 232.438 46.4697 232.438 45.7104ZM233.978 45.7104C233.978 46.2613 234.06 46.7786 234.224 47.2625C234.395 47.7389 234.637 48.152 234.95 48.5018C235.262 48.8517 235.646 49.1271 236.1 49.3281C236.561 49.5216 237.079 49.6184 237.652 49.6184C238.218 49.6184 238.735 49.5291 239.204 49.3504C239.68 49.1643 240.086 48.9075 240.421 48.58C240.756 48.2525 241.013 47.858 241.191 47.3964C241.377 46.9275 241.47 46.4101 241.47 45.8444C241.47 45.2936 241.392 44.7762 241.236 44.2924C241.087 43.8011 240.856 43.3694 240.544 42.9972C240.239 42.625 239.851 42.3347 239.383 42.1263C238.921 41.9104 238.37 41.8025 237.73 41.8025C237.179 41.8025 236.673 41.8955 236.211 42.0816C235.757 42.2603 235.363 42.5171 235.028 42.852C234.693 43.187 234.432 43.6001 234.246 44.0914C234.068 44.5753 233.978 45.1149 233.978 45.7104Z"
              fill="url(#paint70_linear_4342_7202)"/>
        <path d="M186.51 92.3787H184.434V91.4839H185.62V84.349H184.434V83.459H186.51V92.3787Z" fill="white" fill-opacity="0.5"/>
        <path d="M183.289 88.4965C183.289 88.8027 183.227 89.0898 183.103 89.3578C182.978 89.6258 182.809 89.8603 182.595 90.0613C182.385 90.259 182.141 90.4154 181.863 90.5302C181.586 90.6451 181.294 90.7025 180.988 90.7025C180.688 90.7025 180.41 90.6578 180.155 90.5685C179.9 90.4792 179.675 90.3516 179.48 90.1857C179.289 90.0198 179.134 89.8156 179.016 89.5732C178.898 89.3307 178.826 89.0532 178.801 88.7405L179.743 88.6018C179.775 88.9622 179.892 89.2541 180.093 89.4775C180.297 89.6976 180.595 89.8076 180.988 89.8076C181.189 89.8076 181.367 89.7741 181.524 89.7071C181.683 89.637 181.817 89.5429 181.926 89.4248C182.037 89.3068 182.122 89.168 182.179 89.0085C182.24 88.849 182.27 88.6783 182.27 88.4965C182.27 88.0786 182.162 87.7532 181.945 87.5203C181.731 87.2874 181.447 87.171 181.093 87.171C180.866 87.171 180.656 87.2188 180.461 87.3145C180.27 87.4102 180.118 87.5649 180.007 87.7787H179.016V84.3477H182.926V85.2425H180.007V86.8599C180.3 86.4739 180.728 86.2809 181.289 86.2809C181.557 86.2809 181.812 86.3335 182.055 86.4388C182.297 86.5409 182.509 86.6876 182.691 86.8791C182.873 87.0673 183.018 87.2986 183.127 87.5729C183.235 87.8473 183.289 88.1551 183.289 88.4965Z"
              fill="white" fill-opacity="0.5"/>
        <path d="M178.125 88.9002C178.125 89.1746 178.069 89.4234 177.957 89.6467C177.846 89.8668 177.696 90.055 177.508 90.2114C177.322 90.3677 177.107 90.4889 176.861 90.575C176.619 90.6612 176.364 90.7042 176.096 90.7042C175.793 90.7042 175.51 90.6628 175.249 90.5798C174.99 90.4969 174.761 90.3725 174.56 90.2066C174.362 90.0407 174.201 89.8269 174.076 89.5654C173.952 89.3038 173.877 88.9927 173.852 88.6322L174.78 88.4791C174.812 88.8906 174.946 89.216 175.182 89.4553C175.418 89.6914 175.723 89.8094 176.096 89.8094C176.408 89.8094 176.659 89.7265 176.847 89.5606C177.039 89.3947 177.134 89.1746 177.134 88.9002C177.134 88.5269 177.013 88.2606 176.771 88.1011C176.528 87.9416 176.104 87.8618 175.498 87.8618V86.967C175.711 86.967 175.909 86.9462 176.091 86.9047C176.276 86.8633 176.437 86.8011 176.574 86.7181C176.712 86.6352 176.818 86.5363 176.895 86.4214C176.975 86.3034 177.015 86.1662 177.015 86.0099C177.015 85.7483 176.936 85.5378 176.78 85.3782C176.624 85.2155 176.396 85.1342 176.096 85.1342C175.703 85.1342 175.402 85.2411 175.191 85.4548C174.984 85.6654 174.88 86.0035 174.88 86.4693H173.938C173.938 86.1024 173.99 85.7802 174.096 85.5027C174.201 85.2251 174.348 84.9938 174.536 84.8088C174.724 84.6206 174.951 84.4802 175.215 84.3877C175.48 84.292 175.774 84.2441 176.096 84.2441C176.364 84.2441 176.613 84.2856 176.842 84.3686C177.075 84.4483 177.278 84.5648 177.45 84.7179C177.626 84.871 177.761 85.056 177.857 85.273C177.956 85.4899 178.005 85.7355 178.005 86.0099C178.005 86.1854 177.976 86.3513 177.919 86.5076C177.865 86.6639 177.785 86.8027 177.68 86.9239C177.578 87.0451 177.448 87.144 177.292 87.2206C177.139 87.2939 176.968 87.337 176.78 87.3498C176.997 87.3689 177.188 87.4247 177.354 87.5173C177.52 87.6098 177.661 87.7262 177.775 87.8666C177.89 88.007 177.976 88.1665 178.034 88.3451C178.094 88.5238 178.125 88.7088 178.125 88.9002Z"
              fill="white" fill-opacity="0.5"/>
        <path d="M172.53 92.3787H170.453V83.459H172.53V84.349H171.343V91.4839H172.53V92.3787Z" fill="white" fill-opacity="0.5"/>
    </g>
    <defs>
        <linearGradient id="paint0_linear_4342_7202" x1="173" y1="10" x2="348" y2="32.5" gradientUnits="userSpaceOnUse">
            <stop/>
            <stop offset="1" stop-color="#7211F8" stop-opacity="0"/>
        </linearGradient>
        <linearGradient id="paint1_linear_4342_7202" x1="7" y1="48.5" x2="406.772" y2="110.26" gradientUnits="userSpaceOnUse">
            <stop stop-opacity="0"/>
            <stop offset="1" stop-color="#7211F8"/>
        </linearGradient>
        <linearGradient id="paint2_linear_4342_7202" x1="104.5" y1="3.73254e-06" x2="90.0048" y2="17.504" gradientUnits="userSpaceOnUse">
            <stop stop-color="white"/>
            <stop offset="1" stop-color="white" stop-opacity="0"/>
        </linearGradient>
        <linearGradient id="paint3_linear_4342_7202" x1="28.5" y1="19.0531" x2="89.6115" y2="19.0531" gradientUnits="userSpaceOnUse">
            <stop stop-color="white" stop-opacity="0"/>
            <stop offset="1" stop-color="#999999"/>
        </linearGradient>
        <linearGradient id="paint4_linear_4342_7202" x1="28.5" y1="19.0531" x2="89.6115" y2="19.0531" gradientUnits="userSpaceOnUse">
            <stop stop-color="white" stop-opacity="0"/>
            <stop offset="1" stop-color="#999999"/>
        </linearGradient>
        <linearGradient id="paint5_linear_4342_7202" x1="28.5" y1="19.0531" x2="89.6115" y2="19.0531" gradientUnits="userSpaceOnUse">
            <stop stop-color="white" stop-opacity="0"/>
            <stop offset="1" stop-color="#999999"/>
        </linearGradient>
        <linearGradient id="paint6_linear_4342_7202" x1="28.5" y1="19.0531" x2="89.6115" y2="19.0531" gradientUnits="userSpaceOnUse">
            <stop stop-color="white" stop-opacity="0"/>
            <stop offset="1" stop-color="#999999"/>
        </linearGradient>
        <linearGradient id="paint7_linear_4342_7202" x1="28.5" y1="19.0531" x2="89.6115" y2="19.0531" gradientUnits="userSpaceOnUse">
            <stop stop-color="white" stop-opacity="0"/>
            <stop offset="1" stop-color="#999999"/>
        </linearGradient>
        <linearGradient id="paint8_linear_4342_7202" x1="28.5" y1="19.0531" x2="89.6115" y2="19.0531" gradientUnits="userSpaceOnUse">
            <stop stop-color="white" stop-opacity="0"/>
            <stop offset="1" stop-color="#999999"/>
        </linearGradient>
        <linearGradient id="paint9_linear_4342_7202" x1="28.5" y1="19.0531" x2="89.6115" y2="19.0531" gradientUnits="userSpaceOnUse">
            <stop stop-color="white" stop-opacity="0"/>
            <stop offset="1" stop-color="#999999"/>
        </linearGradient>
        <linearGradient id="paint10_linear_4342_7202" x1="28.5" y1="19.0531" x2="89.6115" y2="19.0531" gradientUnits="userSpaceOnUse">
            <stop stop-color="white" stop-opacity="0"/>
            <stop offset="1" stop-color="#999999"/>
        </linearGradient>
        <linearGradient id="paint11_linear_4342_7202" x1="28.5" y1="19.0531" x2="89.6115" y2="19.0531" gradientUnits="userSpaceOnUse">
            <stop stop-color="white" stop-opacity="0"/>
            <stop offset="1" stop-color="#999999"/>
        </linearGradient>
        <linearGradient id="paint12_linear_4342_7202" x1="28.5" y1="19.0531" x2="89.6115" y2="19.0531" gradientUnits="userSpaceOnUse">
            <stop stop-color="white" stop-opacity="0"/>
            <stop offset="1" stop-color="#999999"/>
        </linearGradient>
        <linearGradient id="paint13_linear_4342_7202" x1="28.5" y1="19.0531" x2="89.6115" y2="19.0531" gradientUnits="userSpaceOnUse">
            <stop stop-color="white" stop-opacity="0"/>
            <stop offset="1" stop-color="#999999"/>
        </linearGradient>
        <linearGradient id="paint14_linear_4342_7202" x1="29.5" y1="117.795" x2="111.5" y2="117.795" gradientUnits="userSpaceOnUse">
            <stop stop-color="white" stop-opacity="0"/>
            <stop offset="1" stop-color="white"/>
        </linearGradient>
        <linearGradient id="paint15_linear_4342_7202" x1="29.5" y1="117.795" x2="111.5" y2="117.795" gradientUnits="userSpaceOnUse">
            <stop stop-color="white" stop-opacity="0"/>
            <stop offset="1" stop-color="white"/>
        </linearGradient>
        <linearGradient id="paint16_linear_4342_7202" x1="29.5" y1="117.795" x2="111.5" y2="117.795" gradientUnits="userSpaceOnUse">
            <stop stop-color="white" stop-opacity="0"/>
            <stop offset="1" stop-color="white"/>
        </linearGradient>
        <linearGradient id="paint17_linear_4342_7202" x1="29.5" y1="117.795" x2="111.5" y2="117.795" gradientUnits="userSpaceOnUse">
            <stop stop-color="white" stop-opacity="0"/>
            <stop offset="1" stop-color="white"/>
        </linearGradient>
        <linearGradient id="paint18_linear_4342_7202" x1="29.5" y1="117.795" x2="111.5" y2="117.795" gradientUnits="userSpaceOnUse">
            <stop stop-color="white" stop-opacity="0"/>
            <stop offset="1" stop-color="white"/>
        </linearGradient>
        <linearGradient id="paint19_linear_4342_7202" x1="29.5" y1="117.795" x2="111.5" y2="117.795" gradientUnits="userSpaceOnUse">
            <stop stop-color="white" stop-opacity="0"/>
            <stop offset="1" stop-color="white"/>
        </linearGradient>
        <linearGradient id="paint20_linear_4342_7202" x1="29.5" y1="117.795" x2="111.5" y2="117.795" gradientUnits="userSpaceOnUse">
            <stop stop-color="white" stop-opacity="0"/>
            <stop offset="1" stop-color="white"/>
        </linearGradient>
        <linearGradient id="paint21_linear_4342_7202" x1="29.5" y1="117.795" x2="111.5" y2="117.795" gradientUnits="userSpaceOnUse">
            <stop stop-color="white" stop-opacity="0"/>
            <stop offset="1" stop-color="white"/>
        </linearGradient>
        <linearGradient id="paint22_linear_4342_7202" x1="29.5" y1="117.795" x2="111.5" y2="117.795" gradientUnits="userSpaceOnUse">
            <stop stop-color="white" stop-opacity="0"/>
            <stop offset="1" stop-color="white"/>
        </linearGradient>
        <linearGradient id="paint23_linear_4342_7202" x1="29.5" y1="117.795" x2="111.5" y2="117.795" gradientUnits="userSpaceOnUse">
            <stop stop-color="white" stop-opacity="0"/>
            <stop offset="1" stop-color="white"/>
        </linearGradient>
        <linearGradient id="paint24_linear_4342_7202" x1="37" y1="87.5" x2="21" y2="87.5" gradientUnits="userSpaceOnUse">
            <stop stop-color="#BEF811"/>
            <stop offset="1" stop-color="#BEF811" stop-opacity="0"/>
        </linearGradient>
        <linearGradient id="paint25_linear_4342_7202" x1="26.5" y1="88.7062" x2="109.793" y2="88.7062" gradientUnits="userSpaceOnUse">
            <stop stop-color="white" stop-opacity="0"/>
            <stop offset="1" stop-color="white"/>
        </linearGradient>
        <linearGradient id="paint26_linear_4342_7202" x1="26.5" y1="88.7062" x2="109.793" y2="88.7062" gradientUnits="userSpaceOnUse">
            <stop stop-color="white" stop-opacity="0"/>
            <stop offset="1" stop-color="white"/>
        </linearGradient>
        <linearGradient id="paint27_linear_4342_7202" x1="26.5" y1="88.7062" x2="109.793" y2="88.7062" gradientUnits="userSpaceOnUse">
            <stop stop-color="white" stop-opacity="0"/>
            <stop offset="1" stop-color="white"/>
        </linearGradient>
        <linearGradient id="paint28_linear_4342_7202" x1="26.5" y1="88.7062" x2="109.793" y2="88.7062" gradientUnits="userSpaceOnUse">
            <stop stop-color="white" stop-opacity="0"/>
            <stop offset="1" stop-color="white"/>
        </linearGradient>
        <linearGradient id="paint29_linear_4342_7202" x1="26.5" y1="88.7062" x2="109.793" y2="88.7062" gradientUnits="userSpaceOnUse">
            <stop stop-color="white" stop-opacity="0"/>
            <stop offset="1" stop-color="white"/>
        </linearGradient>
        <linearGradient id="paint30_linear_4342_7202" x1="26.5" y1="88.7062" x2="109.793" y2="88.7062" gradientUnits="userSpaceOnUse">
            <stop stop-color="white" stop-opacity="0"/>
            <stop offset="1" stop-color="white"/>
        </linearGradient>
        <linearGradient id="paint31_linear_4342_7202" x1="26.5" y1="88.7062" x2="109.793" y2="88.7062" gradientUnits="userSpaceOnUse">
            <stop stop-color="white" stop-opacity="0"/>
            <stop offset="1" stop-color="white"/>
        </linearGradient>
        <linearGradient id="paint32_linear_4342_7202" x1="26.5" y1="88.7062" x2="109.793" y2="88.7062" gradientUnits="userSpaceOnUse">
            <stop stop-color="white" stop-opacity="0"/>
            <stop offset="1" stop-color="white"/>
        </linearGradient>
        <linearGradient id="paint33_linear_4342_7202" x1="26.5" y1="88.7062" x2="109.793" y2="88.7062" gradientUnits="userSpaceOnUse">
            <stop stop-color="white" stop-opacity="0"/>
            <stop offset="1" stop-color="white"/>
        </linearGradient>
        <linearGradient id="paint34_linear_4342_7202" x1="26.5" y1="88.7062" x2="109.793" y2="88.7062" gradientUnits="userSpaceOnUse">
            <stop stop-color="white" stop-opacity="0"/>
            <stop offset="1" stop-color="white"/>
        </linearGradient>
        <linearGradient id="paint35_linear_4342_7202" x1="26.5" y1="88.7062" x2="109.793" y2="88.7062" gradientUnits="userSpaceOnUse">
            <stop stop-color="white" stop-opacity="0"/>
            <stop offset="1" stop-color="white"/>
        </linearGradient>
        <linearGradient id="paint36_linear_4342_7202" x1="26.5" y1="88.7062" x2="109.793" y2="88.7062" gradientUnits="userSpaceOnUse">
            <stop stop-color="white" stop-opacity="0"/>
            <stop offset="1" stop-color="white"/>
        </linearGradient>
        <linearGradient id="paint37_linear_4342_7202" x1="26.5" y1="88.7062" x2="109.793" y2="88.7062" gradientUnits="userSpaceOnUse">
            <stop stop-color="white" stop-opacity="0"/>
            <stop offset="1" stop-color="white"/>
        </linearGradient>
        <linearGradient id="paint38_linear_4342_7202" x1="26.5" y1="88.7062" x2="109.793" y2="88.7062" gradientUnits="userSpaceOnUse">
            <stop stop-color="white" stop-opacity="0"/>
            <stop offset="1" stop-color="white"/>
        </linearGradient>
        <linearGradient id="paint39_linear_4342_7202" x1="34" y1="87.5" x2="25.7472" y2="89.5" gradientUnits="userSpaceOnUse">
            <stop stop-color="#BEF811"/>
            <stop offset="1" stop-color="#BEF811" stop-opacity="0"/>
        </linearGradient>
        <linearGradient id="paint40_linear_4342_7202" x1="33.5" y1="88" x2="26.5" y2="88" gradientUnits="userSpaceOnUse">
            <stop stop-color="#BEF811"/>
            <stop offset="1" stop-color="#BEF811" stop-opacity="0"/>
        </linearGradient>
        <linearGradient id="paint41_linear_4342_7202" x1="22.9656" y1="48.1268" x2="165.395" y2="48.1268" gradientUnits="userSpaceOnUse">
            <stop stop-color="white" stop-opacity="0"/>
            <stop offset="1" stop-color="#999999"/>
        </linearGradient>
        <linearGradient id="paint42_linear_4342_7202" x1="22.9656" y1="48.1268" x2="165.395" y2="48.1268" gradientUnits="userSpaceOnUse">
            <stop stop-color="white" stop-opacity="0"/>
            <stop offset="1" stop-color="#999999"/>
        </linearGradient>
        <linearGradient id="paint43_linear_4342_7202" x1="22.9656" y1="48.1268" x2="165.395" y2="48.1268" gradientUnits="userSpaceOnUse">
            <stop stop-color="white" stop-opacity="0"/>
            <stop offset="1" stop-color="#999999"/>
        </linearGradient>
        <linearGradient id="paint44_linear_4342_7202" x1="22.9656" y1="48.1268" x2="165.395" y2="48.1268" gradientUnits="userSpaceOnUse">
            <stop stop-color="white" stop-opacity="0"/>
            <stop offset="1" stop-color="#999999"/>
        </linearGradient>
        <linearGradient id="paint45_linear_4342_7202" x1="22.9656" y1="48.1268" x2="165.395" y2="48.1268" gradientUnits="userSpaceOnUse">
            <stop stop-color="white" stop-opacity="0"/>
            <stop offset="1" stop-color="#999999"/>
        </linearGradient>
        <linearGradient id="paint46_linear_4342_7202" x1="22.9656" y1="48.1268" x2="165.395" y2="48.1268" gradientUnits="userSpaceOnUse">
            <stop stop-color="white" stop-opacity="0"/>
            <stop offset="1" stop-color="#999999"/>
        </linearGradient>
        <linearGradient id="paint47_linear_4342_7202" x1="22.9656" y1="48.1268" x2="165.395" y2="48.1268" gradientUnits="userSpaceOnUse">
            <stop stop-color="white" stop-opacity="0"/>
            <stop offset="1" stop-color="#999999"/>
        </linearGradient>
        <linearGradient id="paint48_linear_4342_7202" x1="22.9656" y1="48.1268" x2="165.395" y2="48.1268" gradientUnits="userSpaceOnUse">
            <stop stop-color="white" stop-opacity="0"/>
            <stop offset="1" stop-color="#999999"/>
        </linearGradient>
        <linearGradient id="paint49_linear_4342_7202" x1="22.9656" y1="48.1268" x2="165.395" y2="48.1268" gradientUnits="userSpaceOnUse">
            <stop stop-color="white" stop-opacity="0"/>
            <stop offset="1" stop-color="#999999"/>
        </linearGradient>
        <linearGradient id="paint50_linear_4342_7202" x1="22.9656" y1="48.1268" x2="165.395" y2="48.1268" gradientUnits="userSpaceOnUse">
            <stop stop-color="white" stop-opacity="0"/>
            <stop offset="1" stop-color="#999999"/>
        </linearGradient>
        <linearGradient id="paint51_linear_4342_7202" x1="22.9656" y1="48.1268" x2="165.395" y2="48.1268" gradientUnits="userSpaceOnUse">
            <stop stop-color="white" stop-opacity="0"/>
            <stop offset="1" stop-color="#999999"/>
        </linearGradient>
        <linearGradient id="paint52_linear_4342_7202" x1="255" y1="1.58272e-06" x2="293.51" y2="36.4894" gradientUnits="userSpaceOnUse">
            <stop stop-color="white"/>
            <stop offset="1" stop-color="white" stop-opacity="0"/>
        </linearGradient>
        <linearGradient id="paint53_linear_4342_7202" x1="230.734" y1="19.0519" x2="317.629" y2="19.0519" gradientUnits="userSpaceOnUse">
            <stop stop-color="white"/>
            <stop offset="1" stop-color="#999999"/>
        </linearGradient>
        <linearGradient id="paint54_linear_4342_7202" x1="230.736" y1="19.051" x2="317.631" y2="19.051" gradientUnits="userSpaceOnUse">
            <stop stop-color="white"/>
            <stop offset="1" stop-color="#999999"/>
        </linearGradient>
        <linearGradient id="paint55_linear_4342_7202" x1="230.733" y1="19.051" x2="317.628" y2="19.051" gradientUnits="userSpaceOnUse">
            <stop stop-color="white"/>
            <stop offset="1" stop-color="#999999"/>
        </linearGradient>
        <linearGradient id="paint56_linear_4342_7202" x1="230.73" y1="19.0515" x2="317.626" y2="19.0515" gradientUnits="userSpaceOnUse">
            <stop stop-color="white"/>
            <stop offset="1" stop-color="#999999"/>
        </linearGradient>
        <linearGradient id="paint57_linear_4342_7202" x1="230.735" y1="19.0515" x2="317.63" y2="19.0515" gradientUnits="userSpaceOnUse">
            <stop stop-color="white"/>
            <stop offset="1" stop-color="#999999"/>
        </linearGradient>
        <linearGradient id="paint58_linear_4342_7202" x1="230.735" y1="19.051" x2="317.63" y2="19.051" gradientUnits="userSpaceOnUse">
            <stop stop-color="white"/>
            <stop offset="1" stop-color="#999999"/>
        </linearGradient>
        <linearGradient id="paint59_linear_4342_7202" x1="230.736" y1="19.051" x2="317.631" y2="19.051" gradientUnits="userSpaceOnUse">
            <stop stop-color="white"/>
            <stop offset="1" stop-color="#999999"/>
        </linearGradient>
        <linearGradient id="paint60_linear_4342_7202" x1="230.733" y1="19.051" x2="317.628" y2="19.051" gradientUnits="userSpaceOnUse">
            <stop stop-color="white"/>
            <stop offset="1" stop-color="#999999"/>
        </linearGradient>
        <linearGradient id="paint61_linear_4342_7202" x1="230.734" y1="19.0515" x2="317.63" y2="19.0515" gradientUnits="userSpaceOnUse">
            <stop stop-color="white"/>
            <stop offset="1" stop-color="#999999"/>
        </linearGradient>
        <linearGradient id="paint62_linear_4342_7202" x1="230.731" y1="19.051" x2="317.626" y2="19.051" gradientUnits="userSpaceOnUse">
            <stop stop-color="white"/>
            <stop offset="1" stop-color="#999999"/>
        </linearGradient>
        <linearGradient id="paint63_linear_4342_7202" x1="230.731" y1="19.0515" x2="317.626" y2="19.0515" gradientUnits="userSpaceOnUse">
            <stop stop-color="white"/>
            <stop offset="1" stop-color="#999999"/>
        </linearGradient>
        <linearGradient id="paint64_linear_4342_7202" x1="230.733" y1="19.051" x2="317.628" y2="19.051" gradientUnits="userSpaceOnUse">
            <stop stop-color="white"/>
            <stop offset="1" stop-color="#999999"/>
        </linearGradient>
        <linearGradient id="paint65_linear_4342_7202" x1="230.733" y1="19.0515" x2="317.629" y2="19.0515" gradientUnits="userSpaceOnUse">
            <stop stop-color="white"/>
            <stop offset="1" stop-color="#999999"/>
        </linearGradient>
        <linearGradient id="paint66_linear_4342_7202" x1="230.736" y1="19.0531" x2="317.631" y2="19.0531" gradientUnits="userSpaceOnUse">
            <stop stop-color="white"/>
            <stop offset="1" stop-color="#999999"/>
        </linearGradient>
        <linearGradient id="paint67_linear_4342_7202" x1="230.732" y1="19.0519" x2="317.627" y2="19.0519" gradientUnits="userSpaceOnUse">
            <stop stop-color="white"/>
            <stop offset="1" stop-color="#999999"/>
        </linearGradient>
        <linearGradient id="paint68_linear_4342_7202" x1="232.693" y1="48.1271" x2="269.28" y2="48.1271" gradientUnits="userSpaceOnUse">
            <stop stop-color="white"/>
            <stop offset="1" stop-color="#999999"/>
        </linearGradient>
        <linearGradient id="paint69_linear_4342_7202" x1="232.692" y1="48.1257" x2="269.279" y2="48.1257" gradientUnits="userSpaceOnUse">
            <stop stop-color="white"/>
            <stop offset="1" stop-color="#999999"/>
        </linearGradient>
        <linearGradient id="paint70_linear_4342_7202" x1="232.695" y1="48.1257" x2="269.283" y2="48.1257" gradientUnits="userSpaceOnUse">
            <stop stop-color="white"/>
            <stop offset="1" stop-color="#999999"/>
        </linearGradient>
    </defs>
</svg>
