<svg width="33" height="17" viewBox="0 0 33 17" fill="none" xmlns="http://www.w3.org/2000/svg">
    <path d="M32.5385 7.65793C33.1538 8.03218 33.1538 8.96782 32.5385 9.34207L28.3846 11.8683C27.7692 12.2425 27 11.7747 27 11.0262L27 5.97379C27 5.22528 27.7692 4.75747 28.3846 5.13172L32.5385 7.65793Z" fill="#7211F8"/>
    <path fill-rule="evenodd" clip-rule="evenodd" d="M1.45714 12.7917L2.86571 2.9481L0 0H10.6582C12.5016 0 14.2538 0.825162 15.4585 2.2606L16.1746 3.11391C16.707 3.74836 17 4.55862 17 5.39682C17 6.49749 16.4958 7.53379 15.6393 8.1934L13.5613 9.79367L14.3286 7.39522H10.7078H8.25714L10.9632 7.83693L12.4343 12.7917C9.40133 12.7917 6.93513 14.6721 6.93513 17C6.93513 14.6721 4.4901 12.7917 1.45714 12.7917ZM7.96571 2.29852L8.34824 3.66596H10.2359C10.8443 3.66596 11.4374 3.86186 11.9322 4.22619L13.1143 5.09671L12.4138 3.48245C12.1013 2.76229 11.4063 2.29852 10.6397 2.29852H7.96571Z" fill="#7211F8"/>
</svg>
