<svg width="345" height="159" viewBox="0 0 345 159" fill="none" xmlns="http://www.w3.org/2000/svg">
    <mask id="mask0_3177_4794" style="mask-type:alpha" maskUnits="userSpaceOnUse" x="0" y="0" width="345" height="159">
        <rect width="345" height="159" fill="#D9D9D9"/>
    </mask>
    <g mask="url(#mask0_3177_4794)">
        <path d="M6 16.618C6 10.2015 12.4477 5 20.4013 5H190.599C198.552 5 205 10.2015 205 16.618V134.382C205 140.798 198.552 146 190.599 146H20.4013C12.4477 146 6 140.798 6 134.382V16.618Z" fill="url(#paint0_linear_3177_4794)"/>
        <path d="M190.599 178.348V179H20.4013V178.348H190.599ZM204.345 164.663V19.3371C204.345 11.7788 198.191 5.65169 190.599 5.65169H20.4013C12.8092 5.65169 6.65461 11.7788 6.65461 19.3371V164.663C6.65461 172.221 12.8092 178.348 20.4013 178.348V179C12.5719 179 6.20147 172.78 6.00447 165.033L6 164.663V19.3371C6 11.5426 12.2479 5.20058 20.0299 5.00445L20.4013 5H190.599L190.97 5.00445C198.752 5.20058 205 11.5426 205 19.3371V164.663C205 172.581 198.552 179 190.599 179V178.348C198.191 178.348 204.345 172.221 204.345 164.663Z" fill="url(#paint1_linear_3177_4794)" fill-opacity="0.16"/>
        <path d="M38 122.5C38 126.642 34.6421 130 30.5 130C26.3579 130 23 126.642 23 122.5C23 118.358 26.3579 115 30.5 115C34.6421 115 38 118.358 38 122.5Z" fill="#7211F8" fill-opacity="0.08"/>
        <path d="M87.3122 28.7771H85.5273V28.2364H86.7859V20.3886H85.5273V19.8574H87.3122V28.7771Z" fill="url(#paint2_linear_3177_4794)"/>
        <path d="M76.1819 25.2062C75.6523 25.1807 75.2456 25.0627 74.9616 24.8521C74.6777 24.6384 74.5357 24.313 74.5357 23.8759C74.5357 23.4101 74.6937 23.0704 75.0095 22.8566C75.3285 22.6397 75.7847 22.5312 76.3781 22.5312H78.7516V26.9911H78.0912V25.2062H77.0241L75.3971 26.9911H74.4688L76.1819 25.2062ZM75.1913 23.8759C75.1913 24.1247 75.2966 24.3162 75.5072 24.4501C75.7209 24.5841 76.0144 24.6511 76.3876 24.6511H78.0912V23.0911H76.3876C76.0144 23.0911 75.7209 23.1597 75.5072 23.2969C75.2966 23.4341 75.1913 23.6271 75.1913 23.8759Z" fill="url(#paint3_linear_3177_4794)"/>
        <path d="M69.707 22.5312H70.3626V26.1298L72.7744 22.5312H73.6979V26.9911H73.0376V23.2299L70.5205 26.9911H69.707V22.5312Z" fill="url(#paint4_linear_3177_4794)"/>
        <path d="M68.7064 26.1487C68.5182 26.4422 68.2598 26.6751 67.9312 26.8474C67.6058 27.0164 67.2182 27.101 66.7684 27.101C66.4207 27.101 66.1017 27.0436 65.8114 26.9287C65.5211 26.8139 65.2722 26.6544 65.0649 26.4502C64.8607 26.2428 64.7012 25.9972 64.5863 25.7133C64.4715 25.4293 64.4141 25.1135 64.4141 24.7658C64.4141 24.4276 64.4667 24.115 64.572 23.8279C64.6773 23.5376 64.8272 23.2903 65.0218 23.0861C65.2164 22.8788 65.4541 22.7177 65.7348 22.6028C66.0187 22.4848 66.333 22.4258 66.6775 22.4258C66.8147 22.4258 66.955 22.4417 67.0986 22.4736C67.2422 22.5055 67.3777 22.555 67.5053 22.622C67.6329 22.6858 67.7478 22.7639 67.8499 22.8565C67.952 22.9458 68.0285 23.0527 68.0796 23.1771V22.5311H68.6682V24.316H68.0796C68.0796 24.1182 68.0429 23.9379 67.9695 23.7752C67.8993 23.6125 67.802 23.4722 67.6776 23.3541C67.5532 23.2361 67.4049 23.1452 67.2326 23.0814C67.0603 23.0144 66.8753 22.9809 66.6775 22.9809C66.4095 22.9809 66.175 23.0271 65.9741 23.1196C65.7763 23.2122 65.6104 23.3382 65.4764 23.4977C65.3424 23.6572 65.2403 23.8454 65.1701 24.0623C65.1031 24.2761 65.0696 24.5106 65.0696 24.7658C65.0696 25.021 65.1079 25.2571 65.1845 25.474C65.2642 25.6877 65.3775 25.8728 65.5242 26.0291C65.6742 26.1854 65.8528 26.3098 66.0602 26.4023C66.2707 26.4948 66.5068 26.5411 66.7684 26.5411C67.1002 26.5411 67.3953 26.4773 67.6537 26.3497C67.9121 26.2221 68.1099 26.0498 68.2471 25.8329L68.7064 26.1487Z" fill="url(#paint5_linear_3177_4794)"/>
        <path d="M60.0143 24.9909C60.0622 25.4631 60.2344 25.8395 60.5311 26.1202C60.8278 26.401 61.2138 26.5413 61.6892 26.5413C62.0241 26.5413 62.3224 26.4728 62.584 26.3356C62.8456 26.1984 63.0418 26.0277 63.1726 25.8236L63.632 26.1394C63.4087 26.452 63.1423 26.6913 62.8328 26.8572C62.5234 27.0199 62.1422 27.1012 61.6892 27.1012C61.3446 27.1012 61.0288 27.0438 60.7417 26.929C60.4546 26.8141 60.2057 26.6546 59.9952 26.4504C59.7878 26.2431 59.6267 25.9974 59.5119 25.7135C59.397 25.4296 59.3396 25.1137 59.3396 24.766C59.3396 24.4279 59.3906 24.1168 59.4927 23.8329C59.598 23.5458 59.7479 23.2985 59.9425 23.0912C60.1403 22.8806 60.3796 22.7179 60.6603 22.6031C60.9411 22.485 61.2553 22.426 61.603 22.426C61.9827 22.426 62.3144 22.4898 62.5984 22.6174C62.8823 22.745 63.1184 22.9221 63.3066 23.1486C63.498 23.3719 63.6384 23.6399 63.7277 23.9525C63.8202 24.2652 63.8665 24.6113 63.8665 24.9909H60.0143ZM63.1726 24.431C63.0992 23.943 62.9222 23.5793 62.6414 23.34C62.3607 23.1007 62.0146 22.9811 61.603 22.9811C61.3925 22.9811 61.1979 23.0162 61.0192 23.0864C60.8406 23.1534 60.6827 23.2507 60.5455 23.3783C60.4083 23.5059 60.2935 23.6606 60.2009 23.8425C60.1084 24.0211 60.0494 24.2173 60.0239 24.431H63.1726Z" fill="url(#paint6_linear_3177_4794)"/>
        <path d="M56.2026 23.4374C56.0207 23.1343 55.7958 22.9828 55.5279 22.9828C55.2918 22.9828 55.1147 23.1199 54.9967 23.3943C54.8819 23.6687 54.8244 24.1264 54.8244 24.7677C54.8244 25.4089 54.8819 25.8651 54.9967 26.1363C55.1147 26.4074 55.2918 26.543 55.5279 26.543C55.7958 26.543 56.0207 26.3931 56.2026 26.0932V23.4374ZM56.2026 26.6913C56.0335 26.9657 55.8086 27.1029 55.5279 27.1029C55.0717 27.1029 54.7303 26.9019 54.5038 26.4999C54.2773 26.098 54.1641 25.5205 54.1641 24.7677C54.1641 24.018 54.2773 23.4406 54.5038 23.0354C54.7303 22.6302 55.0717 22.4277 55.5279 22.4277C55.8086 22.4277 56.0335 22.5649 56.2026 22.8392V20.748H56.8629V22.8392C57.032 22.5649 57.2569 22.4277 57.5377 22.4277C57.9939 22.4277 58.3352 22.6302 58.5617 23.0354C58.7882 23.4406 58.9015 24.018 58.9015 24.7677C58.9015 25.5205 58.7882 26.098 58.5617 26.4999C58.3352 26.9019 57.9939 27.1029 57.5377 27.1029C57.2569 27.1029 57.032 26.9657 56.8629 26.6913V28.7777H56.2026V26.6913ZM56.8629 26.0932C57.0448 26.3931 57.2697 26.543 57.5377 26.543C57.7737 26.543 57.9492 26.4074 58.064 26.1363C58.1821 25.8651 58.2411 25.4089 58.2411 24.7677C58.2411 24.1264 58.1821 23.6687 58.064 23.3943C57.9492 23.1199 57.7737 22.9828 57.5377 22.9828C57.2697 22.9828 57.0448 23.1343 56.8629 23.4374V26.0932Z" fill="url(#paint7_linear_3177_4794)"/>
        <path d="M51.1479 23.4374C50.9661 23.1343 50.7411 22.9828 50.4732 22.9828C50.2371 22.9828 50.06 23.1199 49.942 23.3943C49.8272 23.6687 49.7697 24.1264 49.7697 24.7677C49.7697 25.4089 49.8272 25.8651 49.942 26.1363C50.06 26.4074 50.2371 26.543 50.4732 26.543C50.7411 26.543 50.9661 26.3931 51.1479 26.0932V23.4374ZM51.1479 26.6913C50.9788 26.9657 50.7539 27.1029 50.4732 27.1029C50.017 27.1029 49.6756 26.9019 49.4491 26.4999C49.2226 26.098 49.1094 25.5205 49.1094 24.7677C49.1094 24.018 49.2226 23.4406 49.4491 23.0354C49.6756 22.6302 50.017 22.4277 50.4732 22.4277C50.7539 22.4277 50.9788 22.5649 51.1479 22.8392V20.748H51.8083V22.8392C51.9773 22.5649 52.2022 22.4277 52.483 22.4277C52.9392 22.4277 53.2805 22.6302 53.507 23.0354C53.7335 23.4406 53.8468 24.018 53.8468 24.7677C53.8468 25.5205 53.7335 26.098 53.507 26.4999C53.2805 26.9019 52.9392 27.1029 52.483 27.1029C52.2022 27.1029 51.9773 26.9657 51.8083 26.6913V28.7777H51.1479V26.6913ZM51.8083 26.0932C51.9901 26.3931 52.215 26.543 52.483 26.543C52.7191 26.543 52.8945 26.4074 53.0094 26.1363C53.1274 25.8651 53.1864 25.4089 53.1864 24.7677C53.1864 24.1264 53.1274 23.6687 53.0094 23.3943C52.8945 23.1199 52.7191 22.9828 52.483 22.9828C52.215 22.9828 51.9901 23.1343 51.8083 23.4374V26.0932Z" fill="url(#paint8_linear_3177_4794)"/>
        <path d="M48.772 24.7753C48.772 25.1231 48.7161 25.4389 48.6045 25.7228C48.496 26.0068 48.3381 26.2508 48.1308 26.455C47.9266 26.656 47.6809 26.8139 47.3938 26.9287C47.1067 27.0436 46.7861 27.101 46.432 27.101C46.0843 27.101 45.7668 27.0436 45.4797 26.9287C45.1926 26.8139 44.9454 26.656 44.738 26.455C44.5338 26.2508 44.3759 26.0068 44.2643 25.7228C44.1558 25.4389 44.1016 25.1231 44.1016 24.7753C44.1016 24.4372 44.1558 24.123 44.2643 23.8326C44.3759 23.5392 44.5338 23.2903 44.738 23.0861C44.9454 22.8788 45.1926 22.7177 45.4797 22.6028C45.7668 22.4848 46.0843 22.4258 46.432 22.4258C46.7861 22.4258 47.1067 22.4848 47.3938 22.6028C47.6809 22.7177 47.9266 22.8788 48.1308 23.0861C48.3381 23.2903 48.496 23.5392 48.6045 23.8326C48.7161 24.123 48.772 24.4372 48.772 24.7753ZM48.1164 24.7753C48.1164 24.5201 48.0781 24.2857 48.0015 24.0719C47.9282 23.855 47.8181 23.6652 47.6714 23.5025C47.5246 23.3398 47.346 23.2122 47.1354 23.1196C46.9281 23.0271 46.6936 22.9809 46.432 22.9809C46.1704 22.9809 45.9343 23.0271 45.7238 23.1196C45.5164 23.2122 45.3409 23.3398 45.1974 23.5025C45.0538 23.6652 44.9438 23.855 44.8672 24.0719C44.7938 24.2857 44.7571 24.5201 44.7571 24.7753C44.7571 25.0306 44.7938 25.2666 44.8672 25.4836C44.9438 25.6973 45.0538 25.8823 45.1974 26.0387C45.3409 26.195 45.5164 26.3178 45.7238 26.4071C45.9343 26.4964 46.1704 26.5411 46.432 26.5411C46.6936 26.5411 46.9281 26.4964 47.1354 26.4071C47.346 26.3178 47.5246 26.195 47.6714 26.0387C47.8181 25.8823 47.9282 25.6973 48.0015 25.4836C48.0781 25.2666 48.1164 25.0306 48.1164 24.7753Z" fill="url(#paint9_linear_3177_4794)"/>
        <path d="M43.5967 24.766C43.5967 25.1137 43.5425 25.4296 43.434 25.7135C43.3256 25.9974 43.1724 26.2431 42.9746 26.4504C42.78 26.6546 42.544 26.8141 42.2664 26.929C41.9889 27.0438 41.6778 27.1012 41.3333 27.1012C41.0972 27.1012 40.8675 27.0582 40.6442 26.972C40.4241 26.8859 40.2183 26.7583 40.0269 26.5892V28.7761H39.3713V22.5313H40.0269V22.9428C40.4321 22.5983 40.8675 22.426 41.3333 22.426C41.6778 22.426 41.9889 22.4834 42.2664 22.5983C42.544 22.71 42.78 22.8711 42.9746 23.0816C43.1724 23.289 43.3256 23.5378 43.434 23.8281C43.5425 24.1152 43.5967 24.4279 43.5967 24.766ZM42.9411 24.766C42.9411 24.5172 42.9061 24.2843 42.8359 24.0674C42.7689 23.8472 42.6668 23.6574 42.5296 23.4979C42.3924 23.3384 42.2234 23.2124 42.0224 23.1199C41.8246 23.0274 41.5949 22.9811 41.3333 22.9811C41.0845 22.9811 40.8516 23.0274 40.6346 23.1199C40.4209 23.2124 40.2183 23.3623 40.0269 23.5697V25.9623C40.2183 26.1697 40.4209 26.318 40.6346 26.4074C40.8516 26.4967 41.0845 26.5413 41.3333 26.5413C41.5949 26.5413 41.8246 26.4951 42.0224 26.4026C42.2234 26.3101 42.3924 26.1841 42.5296 26.0245C42.6668 25.865 42.7689 25.6784 42.8359 25.4647C42.9061 25.2477 42.9411 25.0149 42.9411 24.766Z" fill="url(#paint10_linear_3177_4794)"/>
        <path d="M38.3073 26.9928H37.6469V21.3079H34.972V26.9928H34.3164V20.748H38.3073V26.9928Z" fill="url(#paint11_linear_3177_4794)"/>
        <path d="M27.534 28.7771H25.7539V19.8574H27.534V20.3886H26.2803V28.2364H27.534V28.7771Z" fill="url(#paint12_linear_3177_4794)"/>
        <path d="M89.2035 125.704C87.7871 125.704 86.8635 124.675 86.8635 123.067C86.8635 121.46 87.7871 120.436 89.2035 120.436C90.62 120.436 91.5483 121.46 91.5483 123.067C91.5483 124.675 90.62 125.704 89.2035 125.704ZM89.2035 125.135C90.2515 125.135 90.9023 124.355 90.9023 123.067C90.9023 121.78 90.2515 121 89.2035 121C88.1603 121 87.5095 121.785 87.5095 123.067C87.5095 124.355 88.1603 125.135 89.2035 125.135Z" fill="white"/>
        <path d="M85.5501 125.646V123.234H82.6933V125.646H82.0664V120.492H82.6933V122.703H85.5501V120.492H86.1769V125.646H85.5501Z" fill="white"/>
        <path d="M78.8946 125.149C79.8182 125.149 80.5216 124.522 80.5216 123.709V123.139L79.0143 123.244C78.1481 123.302 77.6887 123.637 77.6887 124.216C77.6887 124.771 78.1768 125.149 78.8946 125.149ZM78.7702 125.704C77.7414 125.704 77.0427 125.101 77.0427 124.211C77.0427 123.331 77.7031 122.819 78.9377 122.732L80.5216 122.627V122.187C80.5216 121.436 80.0479 121 79.2152 121C78.4974 121 77.995 121.369 77.8801 121.981H77.2724C77.3251 121.077 78.1385 120.436 79.22 120.436C80.402 120.436 81.1533 121.096 81.1533 122.134V125.647H80.5503V124.661H80.536C80.2584 125.288 79.5598 125.704 78.7702 125.704Z" fill="white"/>
        <path d="M77.0082 120.492V121.023H75.2472V125.646H74.6204V121.023H72.8594V120.492H77.0082Z" fill="white"/>
        <path d="M70.4064 125.704C68.99 125.704 68.0664 124.675 68.0664 123.067C68.0664 121.46 68.99 120.436 70.4064 120.436C71.8228 120.436 72.7512 121.46 72.7512 123.067C72.7512 124.675 71.8228 125.704 70.4064 125.704ZM70.4064 125.135C71.4544 125.135 72.1052 124.355 72.1052 123.067C72.1052 121.78 71.4544 121 70.4064 121C69.3632 121 68.7124 121.785 68.7124 123.067C68.7124 124.355 69.3632 125.135 70.4064 125.135Z" fill="white"/>
        <path d="M65.2801 125.738C63.7488 125.738 62.9258 124.675 62.9258 122.694C62.9258 119.708 63.634 118.545 65.6295 118.493C65.7395 118.493 66.0888 118.478 66.1702 118.469C66.5961 118.44 67.0459 118.364 67.2995 118.234V118.789C67.1416 118.914 66.6918 119.019 66.2037 119.048C66.1176 119.057 65.7587 119.072 65.6534 119.072C64.1508 119.11 63.6771 119.814 63.4713 121.651H63.5C63.8302 120.948 64.5097 120.56 65.3663 120.56C66.754 120.56 67.6393 121.555 67.6393 123.106C67.6393 124.723 66.7301 125.738 65.2801 125.738ZM65.2801 125.173C66.3472 125.173 66.9933 124.393 66.9933 123.106C66.9933 121.866 66.3472 121.125 65.2801 121.125C64.213 121.125 63.5718 121.866 63.5718 123.106C63.5718 124.398 64.213 125.173 65.2801 125.173Z" fill="white"/>
        <path d="M59.9535 125.149C60.877 125.149 61.5804 124.522 61.5804 123.709V123.139L60.0731 123.244C59.207 123.302 58.7476 123.637 58.7476 124.216C58.7476 124.771 59.2357 125.149 59.9535 125.149ZM59.829 125.704C58.8002 125.704 58.1016 125.101 58.1016 124.211C58.1016 123.331 58.7619 122.819 59.9965 122.732L61.5804 122.627V122.187C61.5804 121.436 61.1067 121 60.2741 121C59.5563 121 59.0538 121.369 58.939 121.981H58.3313C58.3839 121.077 59.1974 120.436 60.2789 120.436C61.4608 120.436 62.2121 121.096 62.2121 122.134V125.647H61.6092V124.661H61.5948C61.3173 125.288 60.6186 125.704 59.829 125.704Z" fill="white"/>
        <path d="M55.4287 120.436C56.7303 120.436 57.6251 121.498 57.6251 123.067C57.6251 124.642 56.735 125.704 55.4382 125.704C54.6104 125.704 53.9644 125.254 53.6773 124.584H53.6629V127.355H53.0312V120.493H53.6294V121.56H53.6438C53.9165 120.905 54.6104 120.436 55.4287 120.436ZM55.3186 125.135C56.3139 125.135 56.9791 124.312 56.9791 123.072C56.9791 121.833 56.3139 121 55.3186 121C54.3376 121 53.6581 121.847 53.6581 123.067C53.6581 124.297 54.3376 125.135 55.3186 125.135Z" fill="white"/>
        <path d="M49.9872 125.738C48.4559 125.738 47.6328 124.675 47.6328 122.694C47.6328 119.708 48.341 118.545 50.3365 118.493C50.4465 118.493 50.7959 118.478 50.8772 118.469C51.3031 118.44 51.7529 118.364 52.0065 118.234V118.789C51.8486 118.914 51.3988 119.019 50.9107 119.048C50.8246 119.057 50.4657 119.072 50.3604 119.072C48.8578 119.11 48.3841 119.814 48.1783 121.651H48.207C48.5372 120.948 49.2167 120.56 50.0733 120.56C51.461 120.56 52.3463 121.555 52.3463 123.106C52.3463 124.723 51.4371 125.738 49.9872 125.738ZM49.9872 125.173C51.0543 125.173 51.7003 124.393 51.7003 123.106C51.7003 121.866 51.0543 121.125 49.9872 121.125C48.92 121.125 48.2788 121.866 48.2788 123.106C48.2788 124.398 48.92 125.173 49.9872 125.173Z" fill="white"/>
        <path d="M43.8531 118.631C45.7768 118.631 46.9922 120.009 46.9922 122.196C46.9922 124.383 45.7816 125.756 43.8531 125.756C41.9294 125.756 40.7188 124.383 40.7188 122.196C40.7188 120.009 41.9294 118.631 43.8531 118.631ZM43.8531 119.239C42.341 119.239 41.3887 120.382 41.3887 122.196C41.3887 124.005 42.341 125.148 43.8531 125.148C45.3652 125.148 46.3223 124.005 46.3223 122.196C46.3223 120.382 45.3652 119.239 43.8531 119.239Z" fill="white"/>
        <path d="M35 122.5C35 124.985 32.9853 127 30.5 127C28.0147 127 26 124.985 26 122.5C26 120.015 28.0147 118 30.5 118C32.9853 118 35 120.015 35 122.5Z" fill="#7211F8" fill-opacity="0.1"/>
        <path d="M33 122C33 123.105 32.1046 124 31 124C29.8954 124 29 123.105 29 122C29 120.895 29.8954 120 31 120C32.1046 120 33 120.895 33 122Z" fill="#7211F8"/>
        <path d="M38 92.5C38 96.6421 34.6421 100 30.5 100C26.3579 100 23 96.6421 23 92.5C23 88.3579 26.3579 85 30.5 85C34.6421 85 38 88.3579 38 92.5Z" fill="#BEF811" fill-opacity="0.08"/>
        <path d="M108.07 93.5438L110.793 96.2475H109.956L107.429 93.7256H107.4V96.2475H106.773V91.0938H107.4V93.4146H107.429L109.893 91.0938H110.697L108.07 93.5438Z" fill="white"/>
        <path d="M103.742 96.3037C102.326 96.3037 101.402 95.2749 101.402 93.667C101.402 92.0592 102.326 91.0352 103.742 91.0352C105.159 91.0352 106.087 92.0592 106.087 93.667C106.087 95.2749 105.159 96.3037 103.742 96.3037ZM103.742 95.7343C104.79 95.7343 105.441 94.9543 105.441 93.667C105.441 92.3798 104.79 91.5998 103.742 91.5998C102.699 91.5998 102.048 92.3846 102.048 93.667C102.048 94.9543 102.699 95.7343 103.742 95.7343Z" fill="white"/>
        <path d="M99.097 91.6249H97.7284V93.3141H98.9965C99.7095 93.3141 100.097 93.0031 100.097 92.4432C100.097 91.9216 99.7335 91.6249 99.097 91.6249ZM99.0492 93.8453H97.7284V95.7163H99.1736C99.9344 95.7163 100.341 95.3909 100.341 94.7736C100.341 94.1515 99.8818 93.8453 99.0492 93.8453ZM97.1016 96.2475V91.0938H99.1688C100.126 91.0938 100.714 91.5866 100.714 92.3858C100.714 92.9504 100.336 93.429 99.8148 93.5342V93.5629C100.475 93.6395 100.963 94.0989 100.963 94.7832C100.963 95.7067 100.298 96.2475 99.1879 96.2475H97.1016Z" fill="white"/>
        <path d="M94.3676 93.7687H95.5304V91.6249H94.3676C93.6116 91.6249 93.1282 92.0412 93.1282 92.7207C93.1282 93.3428 93.6163 93.7687 94.3676 93.7687ZM95.5304 96.2475V94.2999H94.4346L93.0182 96.2475H92.2812L93.7886 94.1946C92.9895 94.0319 92.5014 93.4912 92.5014 92.7351C92.5014 91.7158 93.2287 91.0938 94.3676 91.0938H96.1573V96.2475H95.5304Z" fill="white"/>
        <path d="M89.4808 95.7486C90.4044 95.7486 91.1078 95.1218 91.1078 94.3083V93.7388L89.6004 93.8441C88.7343 93.9015 88.2749 94.2365 88.2749 94.8155C88.2749 95.3706 88.763 95.7486 89.4808 95.7486ZM89.3564 96.3037C88.3276 96.3037 87.6289 95.7008 87.6289 94.8107C87.6289 93.9302 88.2893 93.4182 89.5239 93.3321L91.1078 93.2268V92.7866C91.1078 92.0353 90.6341 91.5998 89.8014 91.5998C89.0836 91.5998 88.5812 91.9683 88.4663 92.5808H87.8586C87.9112 91.6764 88.7247 91.0352 89.8062 91.0352C90.9882 91.0352 91.7394 91.6955 91.7394 92.7339V96.2463H91.1365V95.2605H91.1221C90.8446 95.8874 90.146 96.3037 89.3564 96.3037Z" fill="white"/>
        <path d="M85.2003 96.3386C84.0806 96.3386 83.3102 95.7739 83.1953 94.9317H83.8365C83.9514 95.4485 84.4347 95.8026 85.2003 95.8026C86.0186 95.8026 86.5067 95.4103 86.5067 94.8073C86.5067 94.1469 86.0282 93.8455 85.1764 93.8455H84.3773V93.3143H85.1764C85.9229 93.3143 86.3344 92.9937 86.3344 92.4195C86.3344 91.9074 85.9468 91.5485 85.2147 91.5485C84.4873 91.5485 84.0184 91.9074 83.9179 92.4195H83.3006C83.425 91.5868 84.1189 91.0078 85.2147 91.0078C86.3249 91.0078 86.9517 91.5629 86.9517 92.3812C86.9517 92.9458 86.5689 93.41 86.0138 93.5296V93.5584C86.6886 93.6828 87.1288 94.1087 87.1288 94.7738C87.1288 95.7309 86.3536 96.3386 85.2003 96.3386Z" fill="white"/>
        <path d="M78.6056 96.3037C77.1892 96.3037 76.2656 95.2749 76.2656 93.667C76.2656 92.0592 77.1892 91.0352 78.6056 91.0352C80.0221 91.0352 80.9504 92.0592 80.9504 93.667C80.9504 95.2749 80.0221 96.3037 78.6056 96.3037ZM78.6056 95.7343C79.6536 95.7343 80.3044 94.9543 80.3044 93.667C80.3044 92.3798 79.6536 91.5998 78.6056 91.5998C77.5624 91.5998 76.9116 92.3846 76.9116 93.667C76.9116 94.9543 77.5624 95.7343 78.6056 95.7343Z" fill="white"/>
        <path d="M74.9524 96.2475V93.8357H72.0956V96.2475H71.4688V91.0938H72.0956V93.3045H74.9524V91.0938H75.5793V96.2475H74.9524Z" fill="white"/>
        <path d="M68.5452 91.595C67.6216 91.595 66.9708 92.2841 66.9134 93.3082H70.1195C70.1099 92.2841 69.4783 91.595 68.5452 91.595ZM70.086 94.7868H70.7129C70.5598 95.6673 69.7128 96.3037 68.593 96.3037C67.167 96.3037 66.2578 95.3036 66.2578 93.6814C66.2578 92.0831 67.167 91.0352 68.5547 91.0352C69.909 91.0352 70.7799 92.0161 70.7799 93.5474V93.825H66.9134V93.8585C66.9134 95.0261 67.5833 95.7439 68.6074 95.7439C69.3826 95.7439 69.9329 95.3515 70.086 94.7868Z" fill="white"/>
        <path d="M65.5758 96.2475H64.9489V93.7926H64.9202C64.6139 94.1037 64.1354 94.3669 63.4655 94.3669C62.3266 94.3669 61.6758 93.6156 61.6758 92.5198V91.0938H62.3027V92.4958C62.3027 93.295 62.7381 93.8022 63.5085 93.8022C64.2933 93.8022 64.7671 93.3715 64.9489 93.0892V91.0938H65.5758V96.2475Z" fill="white"/>
        <path d="M57.6817 98.0707C57.5812 98.0707 57.4424 98.0515 57.3658 98.0372V97.4916C57.4424 97.5108 57.5716 97.5251 57.6721 97.5251C58.1458 97.5251 58.3947 97.2907 58.6339 96.6303L58.7583 96.281L56.8203 91.0938H57.4998L59.079 95.6063H59.0933L60.6772 91.0938H61.3472L59.323 96.5298C58.8732 97.7357 58.5143 98.0707 57.6817 98.0707Z" fill="white"/>
        <path d="M53.4691 94.0319C53.3638 95.3622 53.0815 96.2905 52.0957 96.2905C51.9474 96.2905 51.8469 96.257 51.8086 96.2427V95.6637C51.8373 95.6732 51.9378 95.702 52.067 95.702C52.6029 95.702 52.7944 95.0129 52.8709 94.008C52.8996 93.7113 53.0575 91.3761 53.0719 91.0938H56.3498V96.2475H55.7229V91.6249H53.6413C53.627 91.8929 53.4978 93.7448 53.4691 94.0319Z" fill="white"/>
        <path d="M49.3595 96.3037C47.9431 96.3037 47.0195 95.2749 47.0195 93.667C47.0195 92.0592 47.9431 91.0352 49.3595 91.0352C50.776 91.0352 51.7043 92.0592 51.7043 93.667C51.7043 95.2749 50.776 96.3037 49.3595 96.3037ZM49.3595 95.7343C50.4075 95.7343 51.0583 94.9543 51.0583 93.667C51.0583 92.3798 50.4075 91.5998 49.3595 91.5998C48.3163 91.5998 47.6655 92.3846 47.6655 93.667C47.6655 94.9543 48.3163 95.7343 49.3595 95.7343Z" fill="white"/>
        <path d="M46.2551 96.2469H45.6091V89.94H41.6517V96.2469H40.9961V89.3418H46.2551V96.2469Z" fill="white"/>
        <path d="M187.51 97.3787H185.434V96.4839H186.62V89.349H185.434V88.459H187.51V97.3787Z" fill="white" fill-opacity="0.5"/>
        <path d="M184.289 93.4965C184.289 93.8027 184.227 94.0898 184.103 94.3578C183.978 94.6258 183.809 94.8603 183.595 95.0613C183.385 95.259 183.141 95.4154 182.863 95.5302C182.586 95.6451 182.294 95.7025 181.988 95.7025C181.688 95.7025 181.41 95.6578 181.155 95.5685C180.9 95.4792 180.675 95.3516 180.48 95.1857C180.289 95.0198 180.134 94.8156 180.016 94.5732C179.898 94.3307 179.826 94.0532 179.801 93.7405L180.743 93.6018C180.775 93.9622 180.892 94.2541 181.093 94.4775C181.297 94.6976 181.595 94.8076 181.988 94.8076C182.189 94.8076 182.367 94.7741 182.524 94.7071C182.683 94.637 182.817 94.5429 182.926 94.4248C183.037 94.3068 183.122 94.168 183.179 94.0085C183.24 93.849 183.27 93.6783 183.27 93.4965C183.27 93.0786 183.162 92.7532 182.945 92.5203C182.731 92.2874 182.447 92.171 182.093 92.171C181.866 92.171 181.656 92.2188 181.461 92.3145C181.27 92.4102 181.118 92.5649 181.007 92.7787H180.016V89.3477H183.926V90.2425H181.007V91.8599C181.3 91.4739 181.728 91.2809 182.289 91.2809C182.557 91.2809 182.812 91.3335 183.055 91.4388C183.297 91.5409 183.509 91.6876 183.691 91.8791C183.873 92.0673 184.018 92.2986 184.127 92.5729C184.235 92.8473 184.289 93.1551 184.289 93.4965Z" fill="white" fill-opacity="0.5"/>
        <path d="M179.125 93.9002C179.125 94.1746 179.069 94.4234 178.957 94.6467C178.846 94.8668 178.696 95.055 178.508 95.2114C178.322 95.3677 178.107 95.4889 177.861 95.575C177.619 95.6612 177.364 95.7042 177.096 95.7042C176.793 95.7042 176.51 95.6628 176.249 95.5798C175.99 95.4969 175.761 95.3725 175.56 95.2066C175.362 95.0407 175.201 94.8269 175.076 94.5654C174.952 94.3038 174.877 93.9927 174.852 93.6322L175.78 93.4791C175.812 93.8906 175.946 94.216 176.182 94.4553C176.418 94.6914 176.723 94.8094 177.096 94.8094C177.408 94.8094 177.659 94.7265 177.847 94.5606C178.039 94.3947 178.134 94.1746 178.134 93.9002C178.134 93.5269 178.013 93.2606 177.771 93.1011C177.528 92.9416 177.104 92.8618 176.498 92.8618V91.967C176.711 91.967 176.909 91.9462 177.091 91.9047C177.276 91.8633 177.437 91.8011 177.574 91.7181C177.712 91.6352 177.818 91.5363 177.895 91.4214C177.975 91.3034 178.015 91.1662 178.015 91.0099C178.015 90.7483 177.936 90.5378 177.78 90.3782C177.624 90.2155 177.396 90.1342 177.096 90.1342C176.703 90.1342 176.402 90.2411 176.191 90.4548C175.984 90.6654 175.88 91.0035 175.88 91.4693H174.938C174.938 91.1024 174.99 90.7802 175.096 90.5027C175.201 90.2251 175.348 89.9938 175.536 89.8088C175.724 89.6206 175.951 89.4802 176.215 89.3877C176.48 89.292 176.774 89.2441 177.096 89.2441C177.364 89.2441 177.613 89.2856 177.842 89.3686C178.075 89.4483 178.278 89.5648 178.45 89.7179C178.626 89.871 178.761 90.056 178.857 90.273C178.956 90.4899 179.005 90.7355 179.005 91.0099C179.005 91.1854 178.976 91.3513 178.919 91.5076C178.865 91.6639 178.785 91.8027 178.68 91.9239C178.578 92.0451 178.448 92.144 178.292 92.2206C178.139 92.2939 177.968 92.337 177.78 92.3498C177.997 92.3689 178.188 92.4247 178.354 92.5173C178.52 92.6098 178.661 92.7262 178.775 92.8666C178.89 93.007 178.976 93.1665 179.034 93.3451C179.094 93.5238 179.125 93.7088 179.125 93.9002Z" fill="white" fill-opacity="0.5"/>
        <path d="M173.53 97.3787H171.453V88.459H173.53V89.349H172.343V96.4839H173.53V97.3787Z" fill="white" fill-opacity="0.5"/>
        <path d="M187.51 126.779H185.434V125.884H186.62V118.749H185.434V117.859H187.51V126.779Z" fill="white" fill-opacity="0.5"/>
        <path d="M184.237 119.643C183.845 120.067 183.527 120.469 183.285 120.849C183.042 121.225 182.854 121.618 182.72 122.026C182.586 122.434 182.494 122.878 182.443 123.356C182.392 123.832 182.363 124.377 182.356 124.993H181.347C181.353 124.412 181.391 123.883 181.462 123.404C181.535 122.922 181.65 122.469 181.806 122.045C181.963 121.618 182.168 121.211 182.423 120.825C182.679 120.436 182.993 120.042 183.366 119.643H180.892V120.691H180.012V118.748H184.237V119.643Z" fill="white" fill-opacity="0.5"/>
        <path d="M179.053 120.458C179.053 120.752 178.974 121.052 178.818 121.358C178.662 121.664 178.446 121.954 178.172 122.229L176.22 124.105H178.053V123.248H178.947V124.995H174.928V124.061L177.445 121.654C177.662 121.431 177.818 121.222 177.914 121.028C178.013 120.83 178.062 120.64 178.062 120.458C178.062 120.295 178.03 120.155 177.966 120.037C177.906 119.919 177.826 119.823 177.727 119.75C177.631 119.673 177.521 119.619 177.397 119.587C177.273 119.552 177.148 119.535 177.024 119.535C176.631 119.535 176.322 119.649 176.095 119.879C175.872 120.109 175.76 120.449 175.76 120.898H174.832C174.832 120.193 175.019 119.641 175.392 119.243C175.768 118.844 176.312 118.645 177.024 118.645C177.292 118.645 177.548 118.684 177.794 118.764C178.04 118.841 178.255 118.954 178.44 119.104C178.628 119.254 178.777 119.444 178.885 119.673C178.997 119.903 179.053 120.165 179.053 120.458Z" fill="white" fill-opacity="0.5"/>
        <path d="M173.53 126.779H171.453V117.859H173.53V118.749H172.343V125.884H173.53V126.779Z" fill="white" fill-opacity="0.5"/>
        <path d="M35 92.5C35 94.9853 32.9853 97 30.5 97C28.0147 97 26 94.9853 26 92.5C26 90.0147 28.0147 88 30.5 88C32.9853 88 35 90.0147 35 92.5Z" fill="#BEF811" fill-opacity="0.1"/>
        <path d="M33 92.5C33 93.8807 31.8807 95 30.5 95C29.1193 95 28 93.8807 28 92.5C28 91.1193 29.1193 90 30.5 90C31.8807 90 33 91.1193 33 92.5Z" fill="#BEF811"/>
        <path d="M163.593 60.3133H162.053V53.5693H155.811V60.3133H154.281V45.7422H155.811V52.2629H162.053V45.7422H163.593V60.3133Z" fill="url(#paint13_linear_3177_4794)"/>
        <path d="M142.488 45.7428H144.018V57.5002L149.645 45.7428H151.8V60.3139H150.26V47.9871L144.386 60.3139H142.488V45.7428ZM150.338 42.6611C149.467 43.5246 148.406 43.9563 147.156 43.9563C145.905 43.9563 144.844 43.5246 143.973 42.6611L144.844 41.8125C145.544 42.5122 146.314 42.8621 147.156 42.8621C147.997 42.8621 148.767 42.5122 149.467 41.8125L150.338 42.6611Z" fill="url(#paint14_linear_3177_4794)"/>
        <path d="M141.253 60.3133H139.612L138.238 56.1485H132.477L131.126 60.3133H129.484L134.33 45.7422H136.407L141.253 60.3133ZM137.803 54.7975L135.357 47.283L132.912 54.7975H137.803Z" fill="url(#paint15_linear_3177_4794)"/>
        <path d="M128.615 56.2932C128.615 56.9334 128.485 57.5177 128.225 58.0462C127.964 58.5673 127.614 59.0139 127.175 59.3861C126.743 59.7583 126.241 60.0486 125.668 60.257C125.102 60.4655 124.506 60.5697 123.881 60.5697C123.181 60.5697 122.526 60.4766 121.916 60.2905C121.306 60.097 120.766 59.8104 120.297 59.4308C119.836 59.0511 119.46 58.5822 119.169 58.0239C118.879 57.4656 118.704 56.818 118.645 56.0811L120.13 55.8801C120.219 56.9967 120.61 57.8415 121.302 58.4147C121.987 58.9804 122.847 59.2633 123.881 59.2633C124.32 59.2633 124.734 59.1889 125.121 59.04C125.508 58.8911 125.846 58.6864 126.137 58.4259C126.427 58.1653 126.654 57.8527 126.818 57.488C126.989 57.1232 127.075 56.725 127.075 56.2932C127.075 55.6977 126.982 55.2139 126.795 54.8417C126.609 54.4621 126.334 54.168 125.969 53.9596C125.612 53.7438 125.169 53.5986 124.64 53.5242C124.112 53.4497 123.505 53.4125 122.82 53.4125V52.1061C123.319 52.1061 123.807 52.0652 124.283 51.9833C124.76 51.9014 125.184 51.76 125.556 51.559C125.928 51.358 126.23 51.0938 126.46 50.7663C126.691 50.4313 126.807 50.0144 126.807 49.5157C126.807 48.6969 126.535 48.0419 125.992 47.5506C125.448 47.0518 124.745 46.8025 123.881 46.8025C123.397 46.8025 122.928 46.8955 122.474 47.0816C122.028 47.2677 121.648 47.5133 121.335 47.8185C121.038 48.1014 120.788 48.4513 120.587 48.8681C120.386 49.285 120.286 49.7762 120.286 50.342H118.89V45.7417H120.197V47.4389C120.375 47.0742 120.602 46.769 120.878 46.5233C121.153 46.2777 121.455 46.0804 121.782 45.9316C122.11 45.7752 122.452 45.6636 122.809 45.5966C123.167 45.5296 123.524 45.4961 123.881 45.4961C124.506 45.4961 125.091 45.5891 125.634 45.7752C126.178 45.9539 126.647 46.2144 127.041 46.5568C127.443 46.8992 127.759 47.3198 127.99 47.8185C128.221 48.3173 128.336 48.883 128.336 49.5157C128.336 50.3494 128.091 51.038 127.599 51.5814C127.108 52.1247 126.401 52.4672 125.478 52.6086C125.992 52.683 126.442 52.8319 126.829 53.0552C127.223 53.2785 127.551 53.5577 127.811 53.8926C128.079 54.2202 128.28 54.5923 128.414 55.0092C128.548 55.4186 128.615 55.8466 128.615 56.2932Z" fill="url(#paint16_linear_3177_4794)"/>
        <path d="M107.098 45.7422H108.627V57.4996L114.255 45.7422H116.41V60.3133H114.869V47.9865L108.996 60.3133H107.098V45.7422Z" fill="url(#paint17_linear_3177_4794)"/>
        <path d="M94.7539 59.0069C95.1782 58.6422 95.5541 58.2514 95.8816 57.8345C96.2092 57.4102 96.4846 56.8482 96.7079 56.1485C96.9312 55.4488 97.0987 54.5593 97.2103 53.48C97.3294 52.3932 97.389 51.0124 97.389 49.3375V45.7422H103.072V59.0069H105.16V63.8751H103.787V60.3133H96.1273V63.8751H94.7539V59.0069ZM98.9187 49.3375C98.9187 50.6476 98.874 51.8051 98.7847 52.81C98.7028 53.8149 98.5688 54.7082 98.3827 55.4898C98.2041 56.2639 97.9659 56.9376 97.6681 57.5107C97.3704 58.0839 97.0094 58.5826 96.5851 59.0069H101.543V47.0486H98.9187V49.3375Z" fill="url(#paint18_linear_3177_4794)"/>
        <path d="M81.8111 60.3133H77.6799V59.0069H78.6624L76.3735 54.228L74.0622 59.0069H75.0448V60.3133H70.9023V59.0069H72.3204L75.4802 52.9775L72.3762 47.0486H71.1592V45.7422H75.3239V47.0486H74.1069L76.3735 51.7158L78.5731 47.0486H77.4007V45.7422H81.5655V47.0486H80.3038L77.2667 52.9775L80.3931 59.0069H81.8111V60.3133Z" fill="url(#paint19_linear_3177_4794)"/>
        <path d="M69.2223 55.1213C69.2223 55.9476 69.1292 56.6956 68.9431 57.3656C68.7645 58.0355 68.4816 58.6087 68.0945 59.0851C67.7149 59.554 67.2311 59.9188 66.643 60.1793C66.055 60.4398 65.359 60.5701 64.555 60.5701C63.7437 60.5701 63.044 60.4398 62.4559 60.1793C61.8753 59.9188 61.3952 59.554 61.0156 59.0851C60.6434 58.6087 60.3642 58.0318 60.1781 57.3544C59.9995 56.677 59.9102 55.9252 59.9102 55.099V45.7422H61.4398V55.1213C61.4398 55.5605 61.4771 56.0257 61.5515 56.517C61.6334 57.0083 61.786 57.4549 62.0093 57.8569C62.24 58.2588 62.5564 58.5938 62.9584 58.8618C63.3678 59.1298 63.9 59.2637 64.555 59.2637C65.2101 59.2637 65.7423 59.1298 66.1517 58.8618C66.5686 58.5938 66.8887 58.2588 67.112 57.8569C67.3427 57.4549 67.4953 57.0083 67.5698 56.517C67.6442 56.0257 67.6814 55.5605 67.6814 55.1213V45.7422H69.2223V55.1213Z" fill="url(#paint20_linear_3177_4794)"/>
        <path d="M57.6705 45.7628L49.1177 62.9913L48.0234 62.4107L56.5763 45.1934L57.6705 45.7628Z" fill="url(#paint21_linear_3177_4794)"/>
        <path d="M44.0853 60.3133H37.8438V59.0069H40.1997V47.0486H37.8438V45.7422H44.0853V47.0486H41.7405V59.0069H44.0853V60.3133Z" fill="url(#paint22_linear_3177_4794)"/>
        <path d="M33.8238 55.1213C33.8238 55.9476 33.7308 56.6956 33.5447 57.3656C33.366 58.0355 33.0832 58.6087 32.6961 59.0851C32.3165 59.554 31.8326 59.9188 31.2446 60.1793C30.6565 60.4398 29.9605 60.5701 29.1566 60.5701C28.3452 60.5701 27.6455 60.4398 27.0575 60.1793C26.4769 59.9188 25.9967 59.554 25.6171 59.0851C25.2449 58.6087 24.9658 58.0318 24.7797 57.3544C24.601 56.677 24.5117 55.9252 24.5117 55.099V45.7422H26.0414V55.1213C26.0414 55.5605 26.0786 56.0257 26.1531 56.517C26.2349 57.0083 26.3875 57.4549 26.6109 57.8569C26.8416 58.2588 27.158 58.5938 27.5599 58.8618C27.9693 59.1298 28.5016 59.2637 29.1566 59.2637C29.8117 59.2637 30.3439 59.1298 30.7533 58.8618C31.1701 58.5938 31.4902 58.2588 31.7135 57.8569C31.9443 57.4549 32.0969 57.0083 32.1713 56.517C32.2458 56.0257 32.283 55.5605 32.283 55.1213V45.7422H33.8238V55.1213Z" fill="url(#paint23_linear_3177_4794)"/>
        <path d="M216 16.618C216 10.2015 220.633 5 226.349 5H348.651C354.367 5 359 10.2015 359 16.618V134.382C359 140.798 354.367 146 348.651 146H226.349C220.633 146 216 140.798 216 134.382V16.618Z" fill="url(#paint24_linear_3177_4794)"/>
        <path d="M400.599 178.348V179H230.401V178.348H400.599ZM414.345 164.663V19.3371C414.345 11.7788 408.191 5.65169 400.599 5.65169H230.401C222.809 5.65169 216.655 11.7788 216.655 19.3371V164.663C216.655 172.221 222.809 178.348 230.401 178.348V179C222.572 179 216.201 172.78 216.004 165.033L216 164.663V19.3371C216 11.5426 222.248 5.20058 230.03 5.00445L230.401 5H400.599L400.97 5.00445C408.752 5.20058 415 11.5426 415 19.3371V164.663C415 172.581 408.552 179 400.599 179V178.348C408.191 178.348 414.345 172.221 414.345 164.663Z" fill="url(#paint25_linear_3177_4794)" fill-opacity="0.16"/>
        <path d="M248 122C248 126.418 244.418 130 240 130C235.582 130 232 126.418 232 122C232 117.582 235.582 114 240 114C244.418 114 248 117.582 248 122Z" fill="#7211F8" fill-opacity="0.08"/>
        <path d="M315.304 28.7771H313.52V28.2364H314.778V20.3886H313.52V19.8574H315.304V28.7771Z" fill="url(#paint26_linear_3177_4794)"/>
        <path d="M303.409 24.3162H305.118C305.711 24.3162 306.167 24.423 306.486 24.6368C306.809 24.8473 306.97 25.1839 306.97 25.6465C306.97 26.1122 306.81 26.4536 306.491 26.6705C306.175 26.8842 305.721 26.9911 305.127 26.9911H302.754V22.5312H303.409V24.3162ZM306.314 25.6465C306.314 25.4008 306.207 25.211 305.994 25.077C305.78 24.943 305.488 24.876 305.118 24.876H303.409V26.4312H305.118C305.488 26.4312 305.78 26.3626 305.994 26.2255C306.207 26.0883 306.314 25.8953 306.314 25.6465Z" fill="url(#paint27_linear_3177_4794)"/>
        <path d="M301.921 24.6368H301.361V23.0911H300.021V26.4312H301.026V26.9911H298.351V26.4312H299.361V23.0911H298.021V24.6368H297.461V22.5312H301.921V24.6368Z" fill="url(#paint28_linear_3177_4794)"/>
        <path d="M296.695 26.1487C296.507 26.4422 296.248 26.6751 295.92 26.8474C295.594 27.0164 295.207 27.101 294.757 27.101C294.409 27.101 294.09 27.0436 293.8 26.9287C293.509 26.8139 293.261 26.6544 293.053 26.4502C292.849 26.2428 292.689 25.9972 292.575 25.7133C292.46 25.4293 292.402 25.1135 292.402 24.7658C292.402 24.4276 292.455 24.115 292.56 23.8279C292.666 23.5376 292.815 23.2903 293.01 23.0861C293.205 22.8788 293.442 22.7177 293.723 22.6028C294.007 22.4848 294.321 22.4258 294.666 22.4258C294.803 22.4258 294.943 22.4417 295.087 22.4736C295.23 22.5055 295.366 22.555 295.494 22.622C295.621 22.6858 295.736 22.7639 295.838 22.8565C295.94 22.9458 296.017 23.0527 296.068 23.1771V22.5311H296.656V24.316H296.068C296.068 24.1182 296.031 23.9379 295.958 23.7752C295.888 23.6125 295.79 23.4722 295.666 23.3541C295.541 23.2361 295.393 23.1452 295.221 23.0814C295.049 23.0144 294.864 22.9809 294.666 22.9809C294.398 22.9809 294.163 23.0271 293.962 23.1196C293.765 23.2122 293.599 23.3382 293.465 23.4977C293.331 23.6572 293.229 23.8454 293.158 24.0623C293.091 24.2761 293.058 24.5106 293.058 24.7658C293.058 25.021 293.096 25.2571 293.173 25.474C293.253 25.6877 293.366 25.8728 293.513 26.0291C293.662 26.1854 293.841 26.3098 294.048 26.4023C294.259 26.4948 294.495 26.5411 294.757 26.5411C295.088 26.5411 295.384 26.4773 295.642 26.3497C295.9 26.2221 296.098 26.0498 296.235 25.8329L296.695 26.1487Z" fill="url(#paint29_linear_3177_4794)"/>
        <path d="M291.924 24.7753C291.924 25.1231 291.868 25.4389 291.757 25.7228C291.648 26.0068 291.49 26.2508 291.283 26.455C291.079 26.656 290.833 26.8139 290.546 26.9287C290.259 27.0436 289.938 27.101 289.584 27.101C289.237 27.101 288.919 27.0436 288.632 26.9287C288.345 26.8139 288.098 26.656 287.89 26.455C287.686 26.2508 287.528 26.0068 287.417 25.7228C287.308 25.4389 287.254 25.1231 287.254 24.7753C287.254 24.4372 287.308 24.123 287.417 23.8326C287.528 23.5392 287.686 23.2903 287.89 23.0861C288.098 22.8788 288.345 22.7177 288.632 22.6028C288.919 22.4848 289.237 22.4258 289.584 22.4258C289.938 22.4258 290.259 22.4848 290.546 22.6028C290.833 22.7177 291.079 22.8788 291.283 23.0861C291.49 23.2903 291.648 23.5392 291.757 23.8326C291.868 24.123 291.924 24.4372 291.924 24.7753ZM291.269 24.7753C291.269 24.5201 291.23 24.2857 291.154 24.0719C291.081 23.855 290.97 23.6652 290.824 23.5025C290.677 23.3398 290.498 23.2122 290.288 23.1196C290.08 23.0271 289.846 22.9809 289.584 22.9809C289.323 22.9809 289.087 23.0271 288.876 23.1196C288.669 23.2122 288.493 23.3398 288.35 23.5025C288.206 23.6652 288.096 23.855 288.02 24.0719C287.946 24.2857 287.909 24.5201 287.909 24.7753C287.909 25.0306 287.946 25.2666 288.02 25.4836C288.096 25.6973 288.206 25.8823 288.35 26.0387C288.493 26.195 288.669 26.3178 288.876 26.4071C289.087 26.4964 289.323 26.5411 289.584 26.5411C289.846 26.5411 290.08 26.4964 290.288 26.4071C290.498 26.3178 290.677 26.195 290.824 26.0387C290.97 25.8823 291.081 25.6973 291.154 25.4836C291.23 25.2666 291.269 25.0306 291.269 24.7753Z" fill="url(#paint30_linear_3177_4794)"/>
        <path d="M286.518 26.9911H285.858V24.9909H283.183V26.9911H282.527V22.5312H283.183V24.431H285.858V22.5312H286.518V26.9911Z" fill="url(#paint31_linear_3177_4794)"/>
        <path d="M281.698 24.6368H281.138V23.0911H279.798V26.4312H280.803V26.9911H278.128V26.4312H279.138V23.0911H277.798V24.6368H277.238V22.5312H281.698V24.6368Z" fill="url(#paint32_linear_3177_4794)"/>
        <path d="M276.405 26.9911H275.745V24.9909H273.07V26.9911H272.414V22.5312H273.07V24.431H275.745V22.5312H276.405V26.9911Z" fill="url(#paint33_linear_3177_4794)"/>
        <path d="M267.117 25.785C267.117 25.5043 267.187 25.2698 267.328 25.0816C267.468 24.8902 267.652 24.7403 267.878 24.6318C268.108 24.5201 268.369 24.4404 268.663 24.3925C268.96 24.3415 269.261 24.316 269.567 24.316C269.685 24.316 269.791 24.3176 269.883 24.3207C269.979 24.3239 270.068 24.3287 270.151 24.3351C270.237 24.3415 270.323 24.3495 270.409 24.359C270.496 24.3686 270.59 24.3798 270.692 24.3925V24.0719C270.692 23.855 270.644 23.6763 270.548 23.536C270.456 23.3956 270.341 23.2855 270.204 23.2058C270.067 23.1228 269.923 23.0654 269.773 23.0335C269.623 22.9984 269.495 22.9809 269.39 22.9809C269.058 22.9809 268.752 23.0255 268.471 23.1149C268.191 23.2042 267.929 23.3238 267.687 23.4738L267.39 22.9809C267.658 22.8182 267.958 22.6858 268.29 22.5837C268.625 22.4784 268.991 22.4258 269.39 22.4258C269.633 22.4258 269.87 22.4577 270.103 22.5215C270.339 22.5821 270.55 22.6778 270.735 22.8086C270.923 22.9362 271.073 23.1053 271.185 23.3158C271.296 23.5264 271.352 23.7784 271.352 24.0719V26.9909H270.692V26.2444C270.577 26.388 270.446 26.514 270.299 26.6225C270.156 26.7309 270.004 26.8202 269.845 26.8904C269.685 26.9574 269.526 27.0085 269.366 27.0436C269.207 27.0818 269.055 27.101 268.912 27.101C268.321 27.101 267.875 26.9877 267.572 26.7612C267.269 26.5347 267.117 26.2093 267.117 25.785ZM268.912 26.5411C269.186 26.5411 269.432 26.5012 269.649 26.4215C269.869 26.3385 270.055 26.2364 270.208 26.1152C270.362 25.994 270.48 25.8648 270.563 25.7276C270.649 25.5904 270.692 25.466 270.692 25.3544V24.9333C270.478 24.9014 270.272 24.8838 270.074 24.8806C269.88 24.8774 269.711 24.8758 269.567 24.8758C269.331 24.8758 269.103 24.8918 268.883 24.9237C268.666 24.9556 268.476 25.0082 268.314 25.0816C268.151 25.1518 268.02 25.2443 267.921 25.3591C267.822 25.474 267.773 25.616 267.773 25.785C267.773 25.9733 267.864 26.1471 268.046 26.3066C268.231 26.4629 268.519 26.5411 268.912 26.5411Z" fill="url(#paint34_linear_3177_4794)"/>
        <path d="M266.517 25.7182C266.517 26.1489 266.357 26.4695 266.038 26.6801C265.722 26.8874 265.268 26.9911 264.674 26.9911H262.301V22.5312H264.526C264.743 22.5312 264.957 22.5488 265.167 22.5839C265.381 22.6158 265.571 22.6748 265.737 22.7609C265.902 22.8439 266.038 22.9603 266.143 23.1103C266.249 23.2602 266.301 23.4564 266.301 23.6989C266.301 23.9285 266.245 24.1216 266.134 24.2779C266.022 24.4342 265.804 24.5538 265.478 24.6368C265.877 24.7293 266.15 24.8665 266.296 25.0483C266.443 25.2269 266.517 25.4503 266.517 25.7182ZM265.646 23.7371C265.646 23.6 265.609 23.4899 265.536 23.407C265.462 23.3208 265.371 23.2554 265.263 23.2108C265.158 23.1629 265.04 23.131 264.909 23.1151C264.778 23.0991 264.65 23.0911 264.526 23.0911H262.956V24.3736H264.526C264.657 24.3736 264.789 24.3656 264.923 24.3496C265.057 24.3337 265.178 24.3018 265.287 24.2539C265.395 24.2029 265.481 24.1375 265.545 24.0577C265.612 23.9748 265.646 23.8679 265.646 23.7371ZM265.861 25.6895C265.861 25.4279 265.754 25.2365 265.54 25.1153C265.327 24.9941 265.035 24.9335 264.665 24.9335H262.956V26.4312H264.665C265.035 26.4312 265.327 26.369 265.54 26.2446C265.754 26.1202 265.861 25.9352 265.861 25.6895Z" fill="url(#paint35_linear_3177_4794)"/>
        <path d="M257.667 24.9907C257.715 25.4628 257.887 25.8393 258.184 26.12C258.48 26.4007 258.866 26.5411 259.342 26.5411C259.677 26.5411 259.975 26.4725 260.237 26.3353C260.498 26.1982 260.694 26.0275 260.825 25.8233L261.285 26.1391C261.061 26.4518 260.795 26.691 260.485 26.8569C260.176 27.0196 259.795 27.101 259.342 27.101C258.997 27.101 258.681 27.0436 258.394 26.9287C258.107 26.8139 257.858 26.6544 257.648 26.4502C257.44 26.2428 257.279 25.9972 257.164 25.7133C257.05 25.4293 256.992 25.1135 256.992 24.7658C256.992 24.4276 257.043 24.1166 257.145 23.8326C257.251 23.5455 257.401 23.2983 257.595 23.0909C257.793 22.8804 258.032 22.7177 258.313 22.6028C258.594 22.4848 258.908 22.4258 259.256 22.4258C259.635 22.4258 259.967 22.4896 260.251 22.6172C260.535 22.7448 260.771 22.9219 260.959 23.1484C261.151 23.3717 261.291 23.6396 261.38 23.9523C261.473 24.2649 261.519 24.6111 261.519 24.9907H257.667ZM260.825 24.4308C260.752 23.9427 260.575 23.579 260.294 23.3398C260.013 23.1005 259.667 22.9809 259.256 22.9809C259.045 22.9809 258.85 23.016 258.672 23.0861C258.493 23.1531 258.335 23.2504 258.198 23.378C258.061 23.5057 257.946 23.6604 257.854 23.8422C257.761 24.0209 257.702 24.2171 257.676 24.4308H260.825Z" fill="url(#paint36_linear_3177_4794)"/>
        <path d="M256.181 22.5312V26.9911H255.521V23.0911H253.506V26.0006C253.506 26.176 253.476 26.3323 253.415 26.4695C253.358 26.6067 253.279 26.7215 253.181 26.8141C253.082 26.9066 252.967 26.9768 252.836 27.0246C252.705 27.0757 252.568 27.1012 252.425 27.1012C252.157 27.1012 251.96 27.0613 251.836 26.9815L251.965 26.4599C252.01 26.4887 252.059 26.5094 252.113 26.5222C252.171 26.5349 252.246 26.5413 252.338 26.5413C252.677 26.5413 252.846 26.3611 252.846 26.0006V22.5312H256.181Z" fill="url(#paint37_linear_3177_4794)"/>
        <path d="M247.558 24.9907C247.605 25.4628 247.778 25.8393 248.074 26.12C248.371 26.4007 248.757 26.5411 249.232 26.5411C249.567 26.5411 249.866 26.4725 250.127 26.3353C250.389 26.1982 250.585 26.0275 250.716 25.8233L251.175 26.1391C250.952 26.4518 250.685 26.691 250.376 26.8569C250.067 27.0196 249.685 27.101 249.232 27.101C248.888 27.101 248.572 27.0436 248.285 26.9287C247.998 26.8139 247.749 26.6544 247.538 26.4502C247.331 26.2428 247.17 25.9972 247.055 25.7133C246.94 25.4293 246.883 25.1135 246.883 24.7658C246.883 24.4276 246.934 24.1166 247.036 23.8326C247.141 23.5455 247.291 23.2983 247.486 23.0909C247.684 22.8804 247.923 22.7177 248.204 22.6028C248.484 22.4848 248.799 22.4258 249.146 22.4258C249.526 22.4258 249.858 22.4896 250.142 22.6172C250.426 22.7448 250.662 22.9219 250.85 23.1484C251.041 23.3717 251.182 23.6396 251.271 23.9523C251.363 24.2649 251.41 24.6111 251.41 24.9907H247.558ZM250.716 24.4308C250.642 23.9427 250.465 23.579 250.185 23.3398C249.904 23.1005 249.558 22.9809 249.146 22.9809C248.936 22.9809 248.741 23.016 248.562 23.0861C248.384 23.1531 248.226 23.2504 248.089 23.378C247.952 23.5057 247.837 23.6604 247.744 23.8422C247.652 24.0209 247.593 24.2171 247.567 24.4308H250.716Z" fill="url(#paint38_linear_3177_4794)"/>
        <path d="M246.298 22.5329C246.298 23.1359 246.11 23.5841 245.733 23.8776C245.357 24.1711 244.829 24.3179 244.149 24.3179H242.738V26.9928H242.082V20.748H244.14C244.826 20.748 245.357 20.898 245.733 21.1979C246.11 21.4945 246.298 21.9396 246.298 22.5329ZM245.642 22.5329C245.642 22.1023 245.507 21.7912 245.236 21.5998C244.964 21.4052 244.602 21.3079 244.149 21.3079H242.738V23.758H244.149C244.602 23.758 244.964 23.6623 245.236 23.4709C245.507 23.2763 245.642 22.9636 245.642 22.5329Z" fill="url(#paint39_linear_3177_4794)"/>
        <path d="M235.296 28.7771H233.516V19.8574H235.296V20.3886H234.042V28.2364H235.296V28.7771Z" fill="url(#paint40_linear_3177_4794)"/>
        <path d="M293.422 125.704C292.006 125.704 291.082 124.675 291.082 123.067C291.082 121.46 292.006 120.436 293.422 120.436C294.838 120.436 295.767 121.46 295.767 123.067C295.767 124.675 294.838 125.704 293.422 125.704ZM293.422 125.135C294.47 125.135 295.121 124.355 295.121 123.067C295.121 121.78 294.47 121 293.422 121C292.379 121 291.728 121.785 291.728 123.067C291.728 124.355 292.379 125.135 293.422 125.135Z" fill="white"/>
        <path d="M289.769 125.646V123.234H286.912V125.646H286.285V120.492H286.912V122.703H289.769V120.492H290.396V125.646H289.769Z" fill="white"/>
        <path d="M283.365 120.995C282.442 120.995 281.791 121.684 281.734 122.709H284.94C284.93 121.684 284.299 120.995 283.365 120.995ZM284.906 124.187H285.533C285.38 125.068 284.533 125.704 283.413 125.704C281.987 125.704 281.078 124.704 281.078 123.082C281.078 121.484 281.987 120.436 283.375 120.436C284.729 120.436 285.6 121.417 285.6 122.948V123.225H281.734V123.259C281.734 124.426 282.404 125.144 283.428 125.144C284.203 125.144 284.753 124.752 284.906 124.187Z" fill="white"/>
        <path d="M279.765 125.646V123.234H276.908V125.646H276.281V120.492H276.908V122.703H279.765V120.492H280.392V125.646H279.765Z" fill="white"/>
        <path d="M273.246 125.704C271.83 125.704 270.906 124.675 270.906 123.067C270.906 121.46 271.83 120.436 273.246 120.436C274.663 120.436 275.591 121.46 275.591 123.067C275.591 124.675 274.663 125.704 273.246 125.704ZM273.246 125.135C274.294 125.135 274.945 124.355 274.945 123.067C274.945 121.78 274.294 121 273.246 121C272.203 121 271.552 121.785 271.552 123.067C271.552 124.355 272.203 125.135 273.246 125.135Z" fill="white"/>
        <path d="M267.34 123.43C267.235 124.761 266.953 125.689 265.967 125.689C265.818 125.689 265.718 125.655 265.68 125.641V125.062C265.708 125.072 265.809 125.1 265.938 125.1C266.474 125.1 266.665 124.411 266.742 123.406C266.771 123.11 266.929 120.775 266.943 120.492H270.221V125.646H269.594V121.023H267.512C267.498 121.291 267.369 123.143 267.34 123.43Z" fill="white"/>
        <path d="M263 122.942L265.723 125.646H264.885L262.359 123.124H262.33V125.646H261.703V120.492H262.33V122.813H262.359L264.823 120.492H265.627L263 122.942Z" fill="white"/>
        <path d="M261.184 120.492V121.023H259.423V125.646H258.796V121.023H257.035V120.492H261.184Z" fill="white"/>
        <path d="M253.576 118.631C255.499 118.631 256.715 120.009 256.715 122.196C256.715 124.382 255.504 125.756 253.576 125.756C251.652 125.756 250.441 124.382 250.441 122.196C250.441 120.009 251.652 118.631 253.576 118.631ZM253.576 119.238C252.064 119.238 251.111 120.382 251.111 122.196C251.111 124.004 252.064 125.148 253.576 125.148C255.088 125.148 256.045 124.004 256.045 122.196C256.045 120.382 255.088 119.238 253.576 119.238Z" fill="white"/>
        <path d="M245 121.5C245 123.985 242.985 126 240.5 126C238.015 126 236 123.985 236 121.5C236 119.015 238.015 117 240.5 117C242.985 117 245 119.015 245 121.5Z" fill="#7211F8" fill-opacity="0.1"/>
        <path d="M242 122C242 123.105 241.105 124 240 124C238.895 124 238 123.105 238 122C238 120.895 238.895 120 240 120C241.105 120 242 120.895 242 122Z" fill="#7211F8"/>
        <path d="M248 92C248 96.4183 244.418 100 240 100C235.582 100 232 96.4183 232 92C232 87.5817 235.582 84 240 84C244.418 84 248 87.5817 248 92Z" fill="#7211F8" fill-opacity="0.08"/>
        <path d="M316.507 93.3811H315.392V95.7163H316.507C317.264 95.7163 317.747 95.2521 317.747 94.5487C317.747 93.8357 317.259 93.3811 316.507 93.3811ZM314.766 96.2475V91.0938H315.392V92.8452H316.507C317.642 92.8452 318.378 93.5055 318.378 94.5487C318.378 95.5871 317.642 96.2475 316.507 96.2475H314.766Z" fill="white"/>
        <path d="M314.243 91.0938V91.6249H312.482V96.2475H311.855V91.6249H310.094V91.0938H314.243Z" fill="white"/>
        <path d="M310.011 92.6143H309.379C309.221 92.0305 308.695 91.5998 307.915 91.5998C306.905 91.5998 306.235 92.4133 306.235 93.667C306.235 94.9447 306.91 95.7343 307.919 95.7343C308.666 95.7343 309.197 95.3706 309.379 94.7629H310.011C309.824 95.6769 309.015 96.3037 307.919 96.3037C306.517 96.3037 305.594 95.294 305.594 93.667C305.594 92.0736 306.513 91.0352 307.91 91.0352C309.068 91.0352 309.843 91.7482 310.011 92.6143Z" fill="white"/>
        <path d="M302.84 96.3037C301.424 96.3037 300.5 95.2749 300.5 93.667C300.5 92.0592 301.424 91.0352 302.84 91.0352C304.256 91.0352 305.185 92.0592 305.185 93.667C305.185 95.2749 304.256 96.3037 302.84 96.3037ZM302.84 95.7343C303.888 95.7343 304.539 94.9543 304.539 93.667C304.539 92.3798 303.888 91.5998 302.84 91.5998C301.797 91.5998 301.146 92.3846 301.146 93.667C301.146 94.9543 301.797 95.7343 302.84 95.7343Z" fill="white"/>
        <path d="M299.179 96.2475V93.8357H296.322V96.2475H295.695V91.0938H296.322V93.3045H299.179V91.0938H299.806V96.2475H299.179Z" fill="white"/>
        <path d="M293.132 91.6249H291.764V93.3141H293.032C293.745 93.3141 294.132 93.0031 294.132 92.4432C294.132 91.9216 293.769 91.6249 293.132 91.6249ZM293.084 93.8453H291.764V95.7163H293.209C293.97 95.7163 294.376 95.3909 294.376 94.7736C294.376 94.1515 293.917 93.8453 293.084 93.8453ZM291.137 96.2475V91.0938H293.204C294.161 91.0938 294.75 91.5866 294.75 92.3858C294.75 92.9504 294.372 93.429 293.85 93.5342V93.5629C294.51 93.6395 294.998 94.0989 294.998 94.7832C294.998 95.7067 294.333 96.2475 293.223 96.2475H291.137Z" fill="white"/>
        <path d="M286.654 96.2475H286.027V91.0938H286.654V95.2617H286.683L289.578 91.0938H290.205V96.2475H289.578V92.0795H289.549L286.654 96.2475Z" fill="white"/>
        <path d="M285.508 91.0938V91.6249H283.747V96.2475H283.12V91.6249H281.359V91.0938H285.508Z" fill="white"/>
        <path d="M278.676 93.5438L281.399 96.2475H280.561L278.034 93.7256H278.006V96.2475H277.379V91.0938H278.006V93.4146H278.034L280.499 91.0938H281.303L278.676 93.5438Z" fill="white"/>
        <path d="M273.248 98.0707C273.148 98.0707 273.009 98.0515 272.932 98.0372V97.4916C273.009 97.5108 273.138 97.5251 273.238 97.5251C273.712 97.5251 273.961 97.2907 274.2 96.6303L274.325 96.281L272.387 91.0938H273.066L274.645 95.6063H274.66L276.244 91.0938H276.914L274.889 96.5298C274.44 97.7357 274.081 98.0707 273.248 98.0707Z" fill="white"/>
        <path d="M270.908 95.7163V91.6249H268.668C268.654 91.8929 268.52 93.7448 268.491 94.0319C268.434 94.7258 268.309 95.3431 268.027 95.6876V95.7163H270.908ZM267.453 97.6113H266.859V95.7163H267.276C267.663 95.4627 267.84 94.7736 267.903 94.008C267.926 93.7113 268.089 91.3761 268.104 91.0938H271.539V95.7163H272.372V97.6113H271.779V96.2475H267.453V97.6113Z" fill="white"/>
        <path d="M264.36 96.3037C262.943 96.3037 262.02 95.2749 262.02 93.667C262.02 92.0592 262.943 91.0352 264.36 91.0352C265.776 91.0352 266.704 92.0592 266.704 93.667C266.704 95.2749 265.776 96.3037 264.36 96.3037ZM264.36 95.7343C265.407 95.7343 266.058 94.9543 266.058 93.667C266.058 92.3798 265.407 91.5998 264.36 91.5998C263.316 91.5998 262.666 92.3846 262.666 93.667C262.666 94.9543 263.316 95.7343 264.36 95.7343Z" fill="white"/>
        <path d="M259.401 91.0352C260.703 91.0352 261.598 92.0975 261.598 93.667C261.598 95.2414 260.708 96.3037 259.411 96.3037C258.583 96.3037 257.937 95.8539 257.65 95.184H257.636V97.9546H257.004V91.0926H257.602V92.1597H257.616C257.889 91.5041 258.583 91.0352 259.401 91.0352ZM259.291 95.7343C260.287 95.7343 260.952 94.9112 260.952 93.6718C260.952 92.4325 260.287 91.5998 259.291 91.5998C258.31 91.5998 257.631 92.4468 257.631 93.667C257.631 94.8969 258.31 95.7343 259.291 95.7343Z" fill="white"/>
        <path d="M255.982 96.2469H255.336V89.94H251.378V96.2469H250.723V89.3418H255.982V96.2469Z" fill="white"/>
        <path d="M245 92.5C245 94.9853 242.985 97 240.5 97C238.015 97 236 94.9853 236 92.5C236 90.0147 238.015 88 240.5 88C242.985 88 245 90.0147 245 92.5Z" fill="#7211F8" fill-opacity="0.1"/>
        <path d="M241 92.5C241 93.3284 240.328 94 239.5 94C238.672 94 238 93.3284 238 92.5C238 91.6716 238.672 91 239.5 91C240.328 91 241 91.6716 241 92.5Z" fill="#7211F8"/>
        <path d="M262.656 48.3336C262.656 48.7132 262.582 49.0742 262.433 49.4167C262.292 49.7591 262.091 50.0568 261.83 50.3099C261.577 50.563 261.279 50.7677 260.937 50.924C260.595 51.0729 260.23 51.1473 259.843 51.1473C259.463 51.1473 259.102 51.0729 258.76 50.924C258.417 50.7677 258.12 50.563 257.866 50.3099C257.613 50.0568 257.416 49.7591 257.275 49.4167C257.133 49.0742 257.062 48.7132 257.062 48.3336C257.062 47.954 257.133 47.5892 257.275 47.2394C257.416 46.8821 257.613 46.5806 257.866 46.3349C258.12 46.0819 258.417 45.8809 258.76 45.732C259.102 45.5757 259.463 45.4975 259.843 45.4975C260.23 45.4975 260.595 45.5757 260.937 45.732C261.279 45.8809 261.577 46.0819 261.83 46.3349C262.091 46.5806 262.292 46.8821 262.433 47.2394C262.582 47.5892 262.656 47.954 262.656 48.3336ZM267.692 46.1116L258.358 60.6158L257.308 59.9458L266.665 45.4082L267.692 46.1116ZM268.016 57.7574C268.016 58.1519 267.938 58.5166 267.781 58.8516C267.633 59.1866 267.432 59.4843 267.179 59.7448C266.925 60.0054 266.624 60.2064 266.274 60.3478C265.924 60.4967 265.56 60.5711 265.18 60.5711C264.793 60.5711 264.428 60.4967 264.086 60.3478C263.743 60.2064 263.446 60.0091 263.192 59.756C262.947 59.5029 262.746 59.2052 262.589 58.8628C262.441 58.5203 262.366 58.1519 262.366 57.7574C262.366 57.3703 262.441 57.0055 262.589 56.6631C262.746 56.3207 262.947 56.0267 263.192 55.7811C263.446 55.528 263.743 55.3307 264.086 55.1893C264.428 55.0404 264.793 54.966 265.18 54.966C265.56 54.966 265.921 55.0404 266.263 55.1893C266.605 55.3307 266.907 55.528 267.167 55.7811C267.428 56.0267 267.633 56.3207 267.781 56.6631C267.938 57.0055 268.016 57.3703 268.016 57.7574ZM261.518 48.3336C261.518 47.8572 261.358 47.4552 261.037 47.1277C260.717 46.8002 260.319 46.6364 259.843 46.6364C259.374 46.6364 258.979 46.8002 258.659 47.1277C258.339 47.4552 258.179 47.8572 258.179 48.3336C258.179 48.8025 258.339 49.2008 258.659 49.5283C258.979 49.8558 259.374 50.0196 259.843 50.0196C260.319 50.0196 260.717 49.8558 261.037 49.5283C261.358 49.2008 261.518 48.8025 261.518 48.3336ZM266.866 57.7574C266.866 57.281 266.702 56.8827 266.375 56.5626C266.047 56.2426 265.649 56.0825 265.18 56.0825C264.703 56.0825 264.305 56.2426 263.985 56.5626C263.665 56.8827 263.505 57.281 263.505 57.7574C263.505 58.2263 263.665 58.6246 263.985 58.9521C264.305 59.2796 264.703 59.4434 265.18 59.4434C265.649 59.4434 266.047 59.2796 266.375 58.9521C266.702 58.6246 266.866 58.2263 266.866 57.7574Z" fill="url(#paint41_linear_3177_4794)"/>
        <path d="M256.184 55.3553C256.184 56.1593 256.05 56.8813 255.782 57.5215C255.522 58.1616 255.153 58.7087 254.677 59.1628C254.208 59.6094 253.65 59.9556 253.002 60.2012C252.355 60.4468 251.655 60.5697 250.903 60.5697C249.868 60.5697 249.001 60.3612 248.301 59.9444C247.602 59.5201 247.036 58.9618 246.604 58.2696C246.18 57.5773 245.871 56.7771 245.678 55.8689C245.491 54.9608 245.398 54.0192 245.398 53.044C245.398 52.054 245.525 51.105 245.778 50.1968C246.039 49.2887 246.426 48.4848 246.939 47.785C247.453 47.0779 248.093 46.5196 248.86 46.1102C249.634 45.7008 250.538 45.4961 251.573 45.4961C253.017 45.4961 254.219 45.9985 255.18 47.0035L254.175 47.8967C253.505 47.1672 252.637 46.8025 251.573 46.8025C250.791 46.8025 250.099 46.9513 249.496 47.2491C248.901 47.5468 248.402 47.9637 248 48.4996C247.606 49.0281 247.308 49.6683 247.107 50.4201C246.913 51.1645 246.816 51.9833 246.816 52.8766C246.921 52.4969 247.118 52.1396 247.408 51.8047C247.699 51.4697 248.034 51.1831 248.413 50.9449C248.793 50.6993 249.202 50.5057 249.641 50.3643C250.088 50.2154 250.535 50.141 250.981 50.141C251.741 50.141 252.44 50.2713 253.08 50.5318C253.721 50.7849 254.268 51.1422 254.722 51.6037C255.183 52.0577 255.541 52.6049 255.794 53.245C256.054 53.8852 256.184 54.5886 256.184 55.3553ZM254.655 55.3553C254.655 54.8045 254.569 54.2909 254.398 53.8145C254.234 53.3306 253.996 52.9138 253.683 52.5639C253.371 52.2141 252.984 51.9387 252.522 51.7377C252.068 51.5367 251.554 51.4362 250.981 51.4362C250.416 51.4362 249.894 51.5292 249.418 51.7153C248.949 51.9014 248.547 52.162 248.212 52.4969C247.877 52.8319 247.617 53.2301 247.431 53.6917C247.252 54.1457 247.163 54.6519 247.163 55.2102C247.163 55.761 247.237 56.2821 247.386 56.7734C247.535 57.2572 247.766 57.6852 248.078 58.0574C248.391 58.4296 248.778 58.7236 249.239 58.9395C249.708 59.1554 250.263 59.2633 250.903 59.2633C251.454 59.2633 251.956 59.174 252.41 58.9953C252.872 58.8092 253.27 58.5487 253.605 58.2137C253.94 57.8788 254.197 57.4656 254.376 56.9743C254.562 56.4831 254.655 55.9434 254.655 55.3553Z" fill="url(#paint42_linear_3177_4794)"/>
        <path d="M233.438 50.7104C233.438 49.8991 233.571 49.1733 233.839 48.5331C234.107 47.893 234.476 47.3496 234.945 46.903C235.421 46.4489 235.983 46.1028 236.631 45.8646C237.278 45.6189 237.978 45.4961 238.73 45.4961C239.75 45.4961 240.613 45.7082 241.32 46.1325C242.028 46.5494 242.593 47.1077 243.018 47.8074C243.449 48.5071 243.758 49.3073 243.944 50.208C244.138 51.1087 244.235 52.0466 244.235 53.0217C244.235 54.0117 244.104 54.9608 243.844 55.8689C243.583 56.7771 243.196 57.581 242.683 58.2807C242.176 58.9804 241.533 59.5387 240.751 59.9556C239.977 60.365 239.08 60.5697 238.06 60.5697C236.616 60.5697 235.414 60.0635 234.454 59.0511L235.458 58.1579C235.793 58.5301 236.181 58.8092 236.62 58.9953C237.066 59.174 237.546 59.2633 238.06 59.2633C238.842 59.2633 239.526 59.1144 240.115 58.8167C240.71 58.5189 241.209 58.1058 241.611 57.5773C242.02 57.0413 242.322 56.4012 242.515 55.6568C242.716 54.905 242.817 54.0787 242.817 53.178C242.698 53.5577 242.497 53.915 242.214 54.2499C241.931 54.5849 241.6 54.8752 241.22 55.1208C240.84 55.3665 240.423 55.5638 239.969 55.7126C239.523 55.8541 239.084 55.9248 238.652 55.9248C237.893 55.9248 237.193 55.7945 236.553 55.534C235.913 55.2734 235.362 54.9161 234.9 54.4621C234.446 54.0006 234.089 53.4497 233.828 52.8096C233.568 52.1694 233.438 51.4697 233.438 50.7104ZM234.978 50.7104C234.978 51.2613 235.06 51.7786 235.224 52.2625C235.395 52.7389 235.637 53.152 235.95 53.5018C236.262 53.8517 236.646 54.1271 237.1 54.3281C237.561 54.5216 238.079 54.6184 238.652 54.6184C239.218 54.6184 239.735 54.5291 240.204 54.3504C240.68 54.1643 241.086 53.9075 241.421 53.58C241.756 53.2525 242.013 52.858 242.191 52.3964C242.377 51.9275 242.47 51.4101 242.47 50.8444C242.47 50.2936 242.392 49.7762 242.236 49.2924C242.087 48.8011 241.856 48.3694 241.544 47.9972C241.239 47.625 240.851 47.3347 240.383 47.1263C239.921 46.9104 239.37 46.8025 238.73 46.8025C238.179 46.8025 237.673 46.8955 237.211 47.0816C236.757 47.2603 236.363 47.5171 236.028 47.852C235.693 48.187 235.432 48.6001 235.246 49.0914C235.068 49.5753 234.978 50.1149 234.978 50.7104Z" fill="url(#paint43_linear_3177_4794)"/>
        <g filter="url(#filter0_f_3177_4794)">
            <rect x="282" y="-42" width="163" height="244" fill="#1B1B1B"/>
        </g>
        <g filter="url(#filter1_f_3177_4794)">
            <rect x="-102" y="-42" width="163" height="244" fill="#1B1B1B"/>
        </g>
    </g>
    <defs>
        <filter id="filter0_f_3177_4794" x="227.7" y="-96.3" width="271.6" height="352.6" filterUnits="userSpaceOnUse" color-interpolation-filters="sRGB">
            <feFlood flood-opacity="0" result="BackgroundImageFix"/>
            <feBlend mode="normal" in="SourceGraphic" in2="BackgroundImageFix" result="shape"/>
            <feGaussianBlur stdDeviation="27.15" result="effect1_foregroundBlur_3177_4794"/>
        </filter>
        <filter id="filter1_f_3177_4794" x="-156.3" y="-96.3" width="271.6" height="352.6" filterUnits="userSpaceOnUse" color-interpolation-filters="sRGB">
            <feFlood flood-opacity="0" result="BackgroundImageFix"/>
            <feBlend mode="normal" in="SourceGraphic" in2="BackgroundImageFix" result="shape"/>
            <feGaussianBlur stdDeviation="27.15" result="effect1_foregroundBlur_3177_4794"/>
        </filter>
        <linearGradient id="paint0_linear_3177_4794" x1="101.835" y1="4.20786" x2="404.575" y2="104.76" gradientUnits="userSpaceOnUse">
            <stop/>
            <stop offset="1" stop-color="#7211F8"/>
        </linearGradient>
        <linearGradient id="paint1_linear_3177_4794" x1="105.5" y1="5" x2="101.283" y2="142.833" gradientUnits="userSpaceOnUse">
            <stop stop-color="white"/>
            <stop offset="1" stop-color="white" stop-opacity="0"/>
        </linearGradient>
        <linearGradient id="paint2_linear_3177_4794" x1="23.9672" y1="24.0519" x2="90.6087" y2="24.0519" gradientUnits="userSpaceOnUse">
            <stop stop-color="white"/>
            <stop offset="1" stop-color="#999999"/>
        </linearGradient>
        <linearGradient id="paint3_linear_3177_4794" x1="23.967" y1="24.051" x2="90.6085" y2="24.051" gradientUnits="userSpaceOnUse">
            <stop stop-color="white"/>
            <stop offset="1" stop-color="#999999"/>
        </linearGradient>
        <linearGradient id="paint4_linear_3177_4794" x1="23.9702" y1="24.051" x2="90.6116" y2="24.051" gradientUnits="userSpaceOnUse">
            <stop stop-color="white"/>
            <stop offset="1" stop-color="#999999"/>
        </linearGradient>
        <linearGradient id="paint5_linear_3177_4794" x1="23.9678" y1="24.0515" x2="90.6092" y2="24.0515" gradientUnits="userSpaceOnUse">
            <stop stop-color="white"/>
            <stop offset="1" stop-color="#999999"/>
        </linearGradient>
        <linearGradient id="paint6_linear_3177_4794" x1="23.967" y1="24.0517" x2="90.6084" y2="24.0517" gradientUnits="userSpaceOnUse">
            <stop stop-color="white"/>
            <stop offset="1" stop-color="#999999"/>
        </linearGradient>
        <linearGradient id="paint7_linear_3177_4794" x1="23.9672" y1="24.0531" x2="90.6086" y2="24.0531" gradientUnits="userSpaceOnUse">
            <stop stop-color="white"/>
            <stop offset="1" stop-color="#999999"/>
        </linearGradient>
        <linearGradient id="paint8_linear_3177_4794" x1="23.9683" y1="24.0531" x2="90.6097" y2="24.0531" gradientUnits="userSpaceOnUse">
            <stop stop-color="white"/>
            <stop offset="1" stop-color="#999999"/>
        </linearGradient>
        <linearGradient id="paint9_linear_3177_4794" x1="23.9728" y1="24.0515" x2="90.6143" y2="24.0515" gradientUnits="userSpaceOnUse">
            <stop stop-color="white"/>
            <stop offset="1" stop-color="#999999"/>
        </linearGradient>
        <linearGradient id="paint10_linear_3177_4794" x1="23.9692" y1="24.0517" x2="90.6106" y2="24.0517" gradientUnits="userSpaceOnUse">
            <stop stop-color="white"/>
            <stop offset="1" stop-color="#999999"/>
        </linearGradient>
        <linearGradient id="paint11_linear_3177_4794" x1="23.97" y1="24.0531" x2="90.6115" y2="24.0531" gradientUnits="userSpaceOnUse">
            <stop stop-color="white"/>
            <stop offset="1" stop-color="#999999"/>
        </linearGradient>
        <linearGradient id="paint12_linear_3177_4794" x1="23.97" y1="24.0519" x2="90.6114" y2="24.0519" gradientUnits="userSpaceOnUse">
            <stop stop-color="white"/>
            <stop offset="1" stop-color="#999999"/>
        </linearGradient>
        <linearGradient id="paint13_linear_3177_4794" x1="23.9665" y1="53.1268" x2="166.396" y2="53.1268" gradientUnits="userSpaceOnUse">
            <stop stop-color="white"/>
            <stop offset="1" stop-color="#999999"/>
        </linearGradient>
        <linearGradient id="paint14_linear_3177_4794" x1="23.9695" y1="53.1274" x2="166.399" y2="53.1274" gradientUnits="userSpaceOnUse">
            <stop stop-color="white"/>
            <stop offset="1" stop-color="#999999"/>
        </linearGradient>
        <linearGradient id="paint15_linear_3177_4794" x1="23.9687" y1="53.1268" x2="166.399" y2="53.1268" gradientUnits="userSpaceOnUse">
            <stop stop-color="white"/>
            <stop offset="1" stop-color="#999999"/>
        </linearGradient>
        <linearGradient id="paint16_linear_3177_4794" x1="23.9653" y1="53.1257" x2="166.395" y2="53.1257" gradientUnits="userSpaceOnUse">
            <stop stop-color="white"/>
            <stop offset="1" stop-color="#999999"/>
        </linearGradient>
        <linearGradient id="paint17_linear_3177_4794" x1="23.9694" y1="53.1268" x2="166.399" y2="53.1268" gradientUnits="userSpaceOnUse">
            <stop stop-color="white"/>
            <stop offset="1" stop-color="#999999"/>
        </linearGradient>
        <linearGradient id="paint18_linear_3177_4794" x1="23.9703" y1="53.1268" x2="166.4" y2="53.1268" gradientUnits="userSpaceOnUse">
            <stop stop-color="white"/>
            <stop offset="1" stop-color="#999999"/>
        </linearGradient>
        <linearGradient id="paint19_linear_3177_4794" x1="23.9711" y1="53.1268" x2="166.401" y2="53.1268" gradientUnits="userSpaceOnUse">
            <stop stop-color="white"/>
            <stop offset="1" stop-color="#999999"/>
        </linearGradient>
        <linearGradient id="paint20_linear_3177_4794" x1="23.9709" y1="53.1268" x2="166.401" y2="53.1268" gradientUnits="userSpaceOnUse">
            <stop stop-color="white"/>
            <stop offset="1" stop-color="#999999"/>
        </linearGradient>
        <linearGradient id="paint21_linear_3177_4794" x1="23.9721" y1="53.1254" x2="166.402" y2="53.1254" gradientUnits="userSpaceOnUse">
            <stop stop-color="white"/>
            <stop offset="1" stop-color="#999999"/>
        </linearGradient>
        <linearGradient id="paint22_linear_3177_4794" x1="23.9703" y1="53.1268" x2="166.4" y2="53.1268" gradientUnits="userSpaceOnUse">
            <stop stop-color="white"/>
            <stop offset="1" stop-color="#999999"/>
        </linearGradient>
        <linearGradient id="paint23_linear_3177_4794" x1="23.9656" y1="53.1268" x2="166.395" y2="53.1268" gradientUnits="userSpaceOnUse">
            <stop stop-color="white"/>
            <stop offset="1" stop-color="#999999"/>
        </linearGradient>
        <linearGradient id="paint24_linear_3177_4794" x1="126.625" y1="5" x2="362.384" y2="103.581" gradientUnits="userSpaceOnUse">
            <stop/>
            <stop offset="1" stop-color="#7211F8"/>
        </linearGradient>
        <linearGradient id="paint25_linear_3177_4794" x1="315.5" y1="5" x2="311.283" y2="142.833" gradientUnits="userSpaceOnUse">
            <stop stop-color="white"/>
            <stop offset="1" stop-color="white" stop-opacity="0"/>
        </linearGradient>
        <linearGradient id="paint26_linear_3177_4794" x1="231.734" y1="24.0519" x2="318.629" y2="24.0519" gradientUnits="userSpaceOnUse">
            <stop stop-color="white"/>
            <stop offset="1" stop-color="#999999"/>
        </linearGradient>
        <linearGradient id="paint27_linear_3177_4794" x1="231.736" y1="24.051" x2="318.631" y2="24.051" gradientUnits="userSpaceOnUse">
            <stop stop-color="white"/>
            <stop offset="1" stop-color="#999999"/>
        </linearGradient>
        <linearGradient id="paint28_linear_3177_4794" x1="231.733" y1="24.051" x2="318.628" y2="24.051" gradientUnits="userSpaceOnUse">
            <stop stop-color="white"/>
            <stop offset="1" stop-color="#999999"/>
        </linearGradient>
        <linearGradient id="paint29_linear_3177_4794" x1="231.73" y1="24.0515" x2="318.626" y2="24.0515" gradientUnits="userSpaceOnUse">
            <stop stop-color="white"/>
            <stop offset="1" stop-color="#999999"/>
        </linearGradient>
        <linearGradient id="paint30_linear_3177_4794" x1="231.735" y1="24.0515" x2="318.63" y2="24.0515" gradientUnits="userSpaceOnUse">
            <stop stop-color="white"/>
            <stop offset="1" stop-color="#999999"/>
        </linearGradient>
        <linearGradient id="paint31_linear_3177_4794" x1="231.735" y1="24.051" x2="318.63" y2="24.051" gradientUnits="userSpaceOnUse">
            <stop stop-color="white"/>
            <stop offset="1" stop-color="#999999"/>
        </linearGradient>
        <linearGradient id="paint32_linear_3177_4794" x1="231.736" y1="24.051" x2="318.631" y2="24.051" gradientUnits="userSpaceOnUse">
            <stop stop-color="white"/>
            <stop offset="1" stop-color="#999999"/>
        </linearGradient>
        <linearGradient id="paint33_linear_3177_4794" x1="231.733" y1="24.051" x2="318.628" y2="24.051" gradientUnits="userSpaceOnUse">
            <stop stop-color="white"/>
            <stop offset="1" stop-color="#999999"/>
        </linearGradient>
        <linearGradient id="paint34_linear_3177_4794" x1="231.734" y1="24.0515" x2="318.63" y2="24.0515" gradientUnits="userSpaceOnUse">
            <stop stop-color="white"/>
            <stop offset="1" stop-color="#999999"/>
        </linearGradient>
        <linearGradient id="paint35_linear_3177_4794" x1="231.731" y1="24.051" x2="318.626" y2="24.051" gradientUnits="userSpaceOnUse">
            <stop stop-color="white"/>
            <stop offset="1" stop-color="#999999"/>
        </linearGradient>
        <linearGradient id="paint36_linear_3177_4794" x1="231.731" y1="24.0515" x2="318.626" y2="24.0515" gradientUnits="userSpaceOnUse">
            <stop stop-color="white"/>
            <stop offset="1" stop-color="#999999"/>
        </linearGradient>
        <linearGradient id="paint37_linear_3177_4794" x1="231.733" y1="24.051" x2="318.628" y2="24.051" gradientUnits="userSpaceOnUse">
            <stop stop-color="white"/>
            <stop offset="1" stop-color="#999999"/>
        </linearGradient>
        <linearGradient id="paint38_linear_3177_4794" x1="231.733" y1="24.0515" x2="318.629" y2="24.0515" gradientUnits="userSpaceOnUse">
            <stop stop-color="white"/>
            <stop offset="1" stop-color="#999999"/>
        </linearGradient>
        <linearGradient id="paint39_linear_3177_4794" x1="231.736" y1="24.0531" x2="318.631" y2="24.0531" gradientUnits="userSpaceOnUse">
            <stop stop-color="white"/>
            <stop offset="1" stop-color="#999999"/>
        </linearGradient>
        <linearGradient id="paint40_linear_3177_4794" x1="231.732" y1="24.0519" x2="318.627" y2="24.0519" gradientUnits="userSpaceOnUse">
            <stop stop-color="white"/>
            <stop offset="1" stop-color="#999999"/>
        </linearGradient>
        <linearGradient id="paint41_linear_3177_4794" x1="233.693" y1="53.1271" x2="270.28" y2="53.1271" gradientUnits="userSpaceOnUse">
            <stop stop-color="white"/>
            <stop offset="1" stop-color="#999999"/>
        </linearGradient>
        <linearGradient id="paint42_linear_3177_4794" x1="233.692" y1="53.1257" x2="270.279" y2="53.1257" gradientUnits="userSpaceOnUse">
            <stop stop-color="white"/>
            <stop offset="1" stop-color="#999999"/>
        </linearGradient>
        <linearGradient id="paint43_linear_3177_4794" x1="233.695" y1="53.1257" x2="270.283" y2="53.1257" gradientUnits="userSpaceOnUse">
            <stop stop-color="white"/>
            <stop offset="1" stop-color="#999999"/>
        </linearGradient>
    </defs>
</svg>
