<svg width="20" height="20" viewBox="0 0 20 20" fill="none" xmlns="http://www.w3.org/2000/svg">
    <path fill-rule="evenodd" clip-rule="evenodd"
          d="M10 20C5.28595 20 2.92893 20 1.46447 18.5355C0 17.0711 0 14.714 0 10C0 5.28595 0 2.92893 1.46447 1.46447C2.92893 0 5.28595 0 10 0C14.714 0 17.0711 0 18.5355 1.46447C20 2.92893 20 5.28595 20 10C20 14.714 20 17.0711 18.5355 18.5355C17.0711 20 14.714 20 10 20ZM12.4743 6.419C12.7952 6.68094 12.8429 7.15341 12.581 7.47428L6.86671 14.4743C6.72427 14.6488 6.51096 14.75 6.28571 14.75C6.06047 14.75 5.84716 14.6488 5.70472 14.4743L3.419 11.6743C3.15707 11.3534 3.20484 10.8809 3.52572 10.619C3.84659 10.3571 4.31906 10.4048 4.581 10.7257L6.28571 12.814L11.419 6.52572C11.6809 6.20484 12.1534 6.15707 12.4743 6.419ZM16.4743 6.41901C16.7952 6.68095 16.8429 7.15342 16.581 7.47429L10.8665 14.4743C10.7152 14.6596 10.4846 14.7617 10.2457 14.7489C10.0068 14.7362 9.78825 14.6103 9.65749 14.4099L9.37194 13.9724C9.14554 13.6256 9.24321 13.1608 9.59008 12.9344C9.79391 12.8014 10.0384 12.7803 10.2514 12.8558L15.419 6.52571C15.681 6.20484 16.1534 6.15707 16.4743 6.41901Z"
          fill="#202020"/>

    <path d="M9.58102 1.47431C9.84296 1.15343 9.79518 0.680966 9.47431 0.419027C9.15343 0.157088 8.68097 0.204865 8.41903 0.525741L3.28574 6.81402L1.58102 4.72574C1.31908 4.40487 0.846616 4.35709 0.525741 4.61903C0.204866 4.88097 0.157088 5.35343 0.419027 5.6743L2.70474 8.47431C2.84718 8.64879 3.0605 8.75002 3.28574 8.75002C3.51098 8.75002 3.7243 8.64879 3.86673 8.47431L9.58102 1.47431Z"
          fill="#7211F8" transform="translate(3,6)"/>
    <path d="M13.581 1.47431C13.843 1.15344 13.7952 0.680977 13.4743 0.419034C13.1534 0.15709 12.681 0.204861 12.419 0.525732L7.25142 6.85587C7.03847 6.78029 6.79394 6.80142 6.5901 6.93446C6.24323 7.16086 6.14557 7.62558 6.37196 7.97245L6.65751 8.40995C6.78827 8.6103 7.00678 8.73624 7.2457 8.74896C7.48461 8.76168 7.71526 8.65965 7.86656 8.47431L13.581 1.47431Z"
          fill="#7211F8" transform="translate(3,6)"/>
</svg>