<svg width="24" height="22" viewBox="0 0 24 22" fill="none" xmlns="http://www.w3.org/2000/svg">
    <path d="M12.6973 0.5C18.4394 0.500032 23.208 5.25916 23.208 11C23.208 16.731 18.4492 21.5 12.708 21.5C6.97729 21.5 2.20801 16.7307 2.20801 11C2.20801 5.25818 6.96687 0.5 12.6973 0.5Z"
          fill="#7211F8" fill-opacity="0.2" stroke="#7211F8"/>
    <path d="M8.91711 15.7142C8.40016 15.7142 7.99561 15.2979 7.99561 14.7804C7.99561 14.5328 8.0855 14.2965 8.26531 14.1277L11.3782 10.9999L8.26531 7.88332C8.0855 7.70331 7.99561 7.47827 7.99561 7.23075C7.99561 6.70193 8.40016 6.30815 8.91711 6.30815C9.17558 6.30815 9.37786 6.39815 9.55766 6.56693L12.693 9.69478L15.8509 6.55567C16.0419 6.3644 16.2442 6.28564 16.4914 6.28564C17.0083 6.28564 17.4242 6.69069 17.4242 7.20825C17.4242 7.46703 17.3455 7.66955 17.1432 7.87207L14.0191 10.9999L17.132 14.1166C17.323 14.2853 17.4129 14.5215 17.4129 14.7804C17.4129 15.2979 16.9971 15.7142 16.4689 15.7142C16.2105 15.7142 15.9745 15.6242 15.8059 15.4442L12.693 12.3163L9.59137 15.4442C9.41157 15.6242 9.17558 15.7142 8.91711 15.7142Z"
          fill="#7211F8"/>
</svg>
