<svg width="40" height="29" viewBox="0 0 40 29" fill="none" xmlns="http://www.w3.org/2000/svg">
    <path d="M37.5222 28.1519C36.6125 28.1519 35.875 27.4144 35.875 26.5046L35.875 1.64743C35.875 0.737698 36.6125 0.000215519 37.5222 0.000215505C38.4319 0.000215491 39.1694 0.737698 39.1694 1.64743L39.1694 26.5046C39.1694 27.4144 38.4319 28.1519 37.5222 28.1519Z"
          fill="#2E2E2E"/>
    <path d="M37.5222 28.1519C36.6125 28.1519 35.875 27.4144 35.875 26.5046L35.875 23.086C35.875 22.1763 36.6125 21.4388 37.5222 21.4388C38.4319 21.4388 39.1694 22.1763 39.1694 23.086L39.1694 26.5046C39.1694 27.4144 38.4319 28.1519 37.5222 28.1519Z"
          fill="#7211F8"/>
    <path d="M28.5535 28.1519C27.6437 28.1519 26.9062 27.4144 26.9062 26.5047L26.9062 1.64741C26.9062 0.737688 27.6437 0.000209797 28.5534 0.000209783C29.4632 0.000209769 30.2006 0.737686 30.2006 1.64741L30.2007 26.5047C30.2007 27.4144 29.4632 28.1519 28.5535 28.1519Z"
          fill="#2E2E2E"/>
    <path d="M28.5535 28.1519C27.6437 28.1519 26.9062 27.4144 26.9062 26.5046L26.9062 4.24604C26.9062 3.33631 27.6437 2.59883 28.5535 2.59883C29.4632 2.59883 30.2007 3.33631 30.2007 4.24605L30.2007 26.5046C30.2007 27.4144 29.4632 28.1519 28.5535 28.1519Z"
          fill="#7211F8"/>
    <path d="M19.5847 28.1519C18.675 28.1519 17.9375 27.4144 17.9375 26.5046L17.9375 1.64743C17.9375 0.737701 18.675 0.000215519 19.5847 0.000215505C20.4944 0.000215491 21.2319 0.737698 21.2319 1.64743L21.2319 26.5046C21.2319 27.4144 20.4944 28.1519 19.5847 28.1519Z"
          fill="#2E2E2E"/>
    <path d="M19.5847 28.1519C18.675 28.1519 17.9375 27.4144 17.9375 26.5046L17.9375 10.3095C17.9375 9.39974 18.675 8.66226 19.5847 8.66226C20.4944 8.66226 21.2319 9.39974 21.2319 10.3095L21.2319 26.5046C21.2319 27.4144 20.4945 28.1519 19.5847 28.1519Z"
          fill="#7211F8"/>
    <path d="M10.6179 28.1519C9.70819 28.1519 8.9707 27.4144 8.9707 26.5046L8.9707 1.64743C8.9707 0.7377 9.70819 0.000215519 10.6179 0.000215505C11.5277 0.000215491 12.2651 0.737699 12.2651 1.64743L12.2651 26.5046C12.2651 27.4144 11.5277 28.1519 10.6179 28.1519Z"
          fill="#2E2E2E"/>
    <path d="M10.6179 28.1519C9.70819 28.1519 8.9707 27.4144 8.9707 26.5046L8.9707 15.2902C8.9707 14.3804 9.70819 13.6429 10.6179 13.6429C11.5277 13.6429 12.2651 14.3804 12.2651 15.2902L12.2651 26.5046C12.2651 27.4144 11.5277 28.1519 10.6179 28.1519Z"
          fill="#7211F8"/>
    <path d="M1.64722 28.1519C0.737486 28.1519 -9.22707e-08 27.4144 -2.06092e-07 26.5046L-3.31611e-06 1.64743C-3.42993e-06 0.7377 0.737482 0.000215519 1.64722 0.000215505C2.55695 0.000215491 3.29444 0.737699 3.29444 1.64743L3.29444 26.5046C3.29444 27.4144 2.55695 28.1519 1.64722 28.1519Z"
          fill="#2E2E2E"/>
    <path d="M1.64722 28.1519C0.737486 28.1519 -9.22709e-08 27.4144 -2.06093e-07 26.5046L-2.69295e-06 6.62811C-2.80677e-06 5.71837 0.737483 4.98089 1.64722 4.98089C2.55695 4.98089 3.29444 5.71838 3.29444 6.62811L3.29444 26.5046C3.29444 27.4144 2.55696 28.1519 1.64722 28.1519Z"
          fill="#7211F8"/>
</svg>
