<svg width="50" height="29" viewBox="0 0 50 29" fill="none" xmlns="http://www.w3.org/2000/svg">
    <path fill-rule="evenodd" clip-rule="evenodd"
          d="M29.0286 18.5295L30.0229 11.581L28 9.5H35.5234C36.8246 9.5 38.0615 10.0825 38.9118 11.0957L39.4173 11.6981C39.7932 12.1459 40 12.7179 40 13.3095C40 14.0865 39.6441 14.818 39.0395 15.2836L37.5727 16.4132L38.1143 14.7202H35.5585H33.8286L35.7387 15.0319L36.7771 18.5295C34.6362 18.5295 32.8954 19.8567 32.8954 21.5C32.8954 19.8567 31.1695 18.5295 29.0286 18.5295ZM33.6229 11.1225L33.8929 12.0877H35.2253C35.6548 12.0877 36.0735 12.226 36.4227 12.4832L37.2571 13.0977L36.7627 11.9582C36.5421 11.4498 36.0515 11.1225 35.5104 11.1225H33.6229Z"
          fill="#202020"/>
    <path fill-rule="evenodd" clip-rule="evenodd"
          d="M6.97725 11.0831L6.65199 11.6327C6.36209 12.1224 5.63788 12.1224 5.34798 11.6327L5.02272 11.0831C4.77044 10.6569 4.64429 10.4438 4.44168 10.3259C4.23906 10.2081 3.98395 10.2037 3.47375 10.1949C2.72053 10.1819 2.24813 10.1358 1.85195 9.97168C1.11687 9.6672 0.532843 9.08317 0.228361 8.34809C0 7.79677 0 7.09785 0 5.70002V5.10002C0 3.13595 0 2.15392 0.44208 1.43251C0.689447 1.02884 1.02884 0.68945 1.4325 0.442081C2.15391 0 3.13594 0 5.1 0H6.9C8.86406 0 9.84609 0 10.5675 0.442081C10.9712 0.68945 11.3106 1.02884 11.5579 1.43251C12 2.15392 12 3.13595 12 5.10002V5.70002C12 7.09785 12 7.79677 11.7716 8.34809C11.4672 9.08317 10.8831 9.6672 10.1481 9.97168C9.75187 10.1358 9.27945 10.1819 8.52623 10.1949C8.01602 10.2037 7.76092 10.2081 7.5583 10.3259C7.35568 10.4438 7.22954 10.6569 6.97725 11.0831ZM3.6 5.85002C3.35147 5.85002 3.15 6.0515 3.15 6.30003C3.15 6.54856 3.35147 6.75003 3.6 6.75003H6.9C7.14853 6.75003 7.35 6.54856 7.35 6.30003C7.35 6.0515 7.14853 5.85002 6.9 5.85002H3.6ZM3.15 4.20002C3.15 3.95149 3.35147 3.75002 3.6 3.75002H8.4C8.64853 3.75002 8.85 3.95149 8.85 4.20002C8.85 4.44855 8.64853 4.65002 8.4 4.65002H3.6C3.35147 4.65002 3.15 4.44855 3.15 4.20002Z"
          fill="#202020" transform="translate(9.5, 9.5)"/>
    <path d="M9.31797 1V1C4.72408 1 1 4.72408 1 9.31797V19.682C1 24.2759 4.72408 28 9.31797 28V28M40.682 1V1C45.2759 1 49 4.72408 49 9.31797V19.682C49 24.2759 45.2759 28 40.682 28V28"
          stroke="#202020" stroke-width="1.5"/>
</svg>
