<svg width="447" height="264" viewBox="0 0 447 264" fill="none" xmlns="http://www.w3.org/2000/svg">
    <path fill-rule="evenodd" clip-rule="evenodd" d="M172.575 214.461L220.348 283.999L268.425 214.461L252.35 86.9735L284.014 190.987L316.401 144.032L306.497 109.325L409.796 86.9735L476.982 113.637L409.796 28.2667L535.405 145.933L509.602 95.0779L606 183.831L448.281 -81.5496C444.307 -88.2353 438.912 -93.6336 432.678 -97.579L412.23 -65.1378L422.941 -102.326C411.252 -106.51 397.988 -106.313 385.963 -100.937C384.456 -100.263 383.058 -99.3804 381.73 -98.4089L325.876 -57.5337L269.469 -52.2245L256.341 -93.5834L232.193 -97.2704H254.062H286.372L279.525 -77.25L298.069 -90.6078C305.712 -96.1137 310.211 -104.764 310.211 -113.951C310.211 -120.948 307.597 -127.712 302.846 -133.007L296.455 -140.13C285.705 -152.112 270.069 -159 253.619 -159H158.509L184.082 -134.392L171.512 -52.2245L115.124 -57.5337L59.27 -98.4089C57.9424 -99.3804 56.5444 -100.263 55.0366 -100.937C43.0115 -106.313 29.7477 -106.51 18.0591 -102.326L28.77 -65.1378L8.3219 -97.579C2.0881 -93.6336 -3.30713 -88.2353 -7.28055 -81.5496L-165 183.831L-68.6019 95.0779L-94.4054 145.933L31.2043 28.2667L-35.9823 113.637L31.2043 86.9735L134.503 109.325L124.599 144.032L156.986 190.987L188.65 86.9735L172.575 214.461ZM229.593 -139.814L233.006 -128.399H249.85C255.28 -128.399 260.573 -126.764 264.988 -123.723L275.537 -116.457L269.285 -129.931C266.497 -135.943 260.295 -139.814 253.454 -139.814H229.593Z" fill="url(#paint0_linear_4435_9779)" fill-opacity="0.2"/>
    <defs>
        <linearGradient id="paint0_linear_4435_9779" x1="220.5" y1="-159" x2="220.5" y2="284" gradientUnits="userSpaceOnUse">
            <stop stop-color="#F81B11"/>
            <stop offset="1" stop-color="#92100A"/>
        </linearGradient>
    </defs>
</svg>
