<svg width="40" height="40" viewBox="0 0 40 40" fill="none" xmlns="http://www.w3.org/2000/svg">
    <circle cx="20" cy="20" r="20" transform="rotate(-90 20 20)" fill="black"/>
    <circle cx="20" cy="20" r="19.75" transform="rotate(-90 20 20)" stroke="url(#paint0_linear_0_1)" stroke-opacity="0.61" stroke-width="0.5"/>
    <path fill-rule="evenodd" clip-rule="evenodd" d="M18.0109 26.3315L19.9937 29L21.9891 26.3315L21.3219 21.4392L22.6361 25.4307L23.9803 23.6288L23.5693 22.2969L27.8566 21.4392L30.6452 22.4624L27.8566 19.1863L33.07 23.7017L31.999 21.7502L36 25.156L29.4539 14.9721C29.289 14.7156 29.0651 14.5084 28.8064 14.357L27.9577 15.6019L28.4022 14.1748C27.9171 14.0143 27.3666 14.0218 26.8675 14.2281C26.8049 14.254 26.7469 14.2879 26.6918 14.3252L24.3736 15.8937L22.0324 16.0975L21.4876 14.5103L20.4853 14.3689H21.393H22.734L22.4498 15.1371L23.2194 14.6245C23.5367 14.4132 23.7234 14.0813 23.7234 13.7287C23.7234 13.4602 23.6149 13.2007 23.4177 12.9975L23.1525 12.7241C22.7063 12.2643 22.0573 12 21.3746 12H17.4271L18.4885 12.9443L17.9668 16.0975L15.6264 15.8937L13.3082 14.3252C13.2531 14.2879 13.1951 14.254 13.1325 14.2281C12.6334 14.0218 12.0829 14.0143 11.5978 14.1748L12.0423 15.6019L11.1936 14.357C10.9349 14.5084 10.711 14.7156 10.5461 14.9721L4 25.156L8.00096 21.7502L6.93 23.7017L12.1434 19.1863L9.35482 22.4624L12.1434 21.4392L16.4307 22.2969L16.0197 23.6288L17.3639 25.4307L18.6781 21.4392L18.0109 26.3315ZM20.3774 12.7363L20.5191 13.1743H21.2182C21.4435 13.1743 21.6632 13.237 21.8465 13.3537L22.2843 13.6326L22.0248 13.1155C21.9091 12.8848 21.6517 12.7363 21.3677 12.7363H20.3774Z" fill="#BEF811"/>
    <defs>
        <linearGradient id="paint0_linear_0_1" x1="5.5" y1="-2" x2="45" y2="27.5" gradientUnits="userSpaceOnUse">
            <stop stop-color="#BEF811"/>
            <stop offset="1" stop-color="#BEF811" stop-opacity="0"/>
        </linearGradient>
    </defs>
</svg>
