<svg width="116" height="103" viewBox="0 0 116 103" fill="none" xmlns="http://www.w3.org/2000/svg">
    <rect opacity="0.4" x="0.5" y="0.5" width="115" height="31" rx="10.5" fill="#364213" stroke="url(#paint0_linear_0_1)"/>
    <g opacity="0.4">
        <rect x="74" y="6" width="36" height="19" rx="6" fill="#007AFF"/>
        <path d="M82.8994 19.5H79.7144V11.7495H82.8887C84.2583 11.7495 85.1606 12.5122 85.1606 13.6831C85.1606 14.5049 84.5591 15.2407 83.7856 15.3696V15.4126C84.833 15.5308 85.5474 16.2773 85.5474 17.3086C85.5474 18.6729 84.5537 19.5 82.8994 19.5ZM80.9175 12.7324V15.0474H82.3408C83.3882 15.0474 83.9629 14.6177 83.9629 13.8496C83.9629 13.1299 83.4688 12.7324 82.5933 12.7324H80.9175ZM80.9175 18.5171H82.6577C83.7427 18.5171 84.3174 18.0713 84.3174 17.2334C84.3174 16.3955 83.7212 15.9658 82.5879 15.9658H80.9175V18.5171ZM91.5693 18.458V19.5H86.6494V11.7495H91.5693V12.7861H87.8525V15.0527H91.3705V16.0518H87.8525V18.458H91.5693ZM96.0336 19.5H94.8304V12.7861H92.4135V11.7495H98.4452V12.7861H96.0336V19.5ZM103.473 19.5L102.764 17.4053H99.8104L99.1014 19.5H97.8499L100.648 11.7495H101.948L104.746 19.5H103.473ZM101.271 13.0386L100.117 16.4385H102.458L101.304 13.0386H101.271Z"
              fill="white"/>
    </g>
    <path opacity="0.4"
          d="M12.7988 7.33008L13.5508 7.70117L9.81055 15.2305L9.05859 14.8594L12.7988 7.33008ZM17.9578 7.33008L18.7098 7.70117L14.9695 15.2305L14.2176 14.8594L17.9578 7.33008ZM24.1764 14H23.4586L22.858 12.1787H20.3385L19.7477 14H19.0299L21.149 7.62793H22.0572L24.1764 14ZM22.6676 11.5879L21.5982 8.30176L20.5289 11.5879H22.6676ZM27.2064 8.54102H26.2982V7.62793H27.2064V8.54102ZM28.1146 14H25.3852V13.4287H26.4154V10.0205H25.3852V9.44922H27.0893V13.4287H28.1146V14ZM39.6533 14H38.9355L38.335 12.1787H35.8154L35.2246 14H34.5068L36.626 7.62793H37.5342L39.6533 14ZM38.1445 11.5879L37.0752 8.30176L36.0059 11.5879H38.1445ZM44.2654 13.9512C44.2654 14.2637 44.2117 14.542 44.1043 14.7861C43.9969 15.0303 43.8455 15.237 43.6502 15.4062C43.4581 15.5755 43.2303 15.7041 42.9666 15.792C42.7062 15.8831 42.4148 15.9287 42.0926 15.9287C41.6401 15.9287 41.2544 15.8441 40.9354 15.6748C40.6196 15.5055 40.3462 15.2614 40.115 14.9424L40.5838 14.5811C40.7238 14.7926 40.9256 14.9701 41.1893 15.1133C41.4529 15.2565 41.754 15.3281 42.0926 15.3281C42.5548 15.3281 42.9194 15.2109 43.1863 14.9766C43.4565 14.7454 43.5916 14.4102 43.5916 13.9707V13.4824C43.1945 13.834 42.742 14.0098 42.2342 14.0098C41.5213 14.0098 40.9614 13.8063 40.5545 13.3994C40.1476 12.9925 39.9441 12.4359 39.9441 11.7295C39.9441 11.3844 39.9962 11.0671 40.1004 10.7773C40.2078 10.4844 40.3592 10.2321 40.5545 10.0205C40.7531 9.80566 40.9939 9.63965 41.2771 9.52246C41.5604 9.40202 41.8794 9.3418 42.2342 9.3418C42.4816 9.3418 42.7208 9.38574 42.952 9.47363C43.1863 9.55827 43.3995 9.68685 43.5916 9.85938V9.44922H44.2654V13.9512ZM43.5916 10.5088C43.3995 10.2972 43.188 10.1442 42.9568 10.0498C42.729 9.9554 42.4881 9.9082 42.2342 9.9082C41.9673 9.9082 41.7313 9.9554 41.5262 10.0498C41.3243 10.1442 41.1567 10.2728 41.0232 10.4355C40.8898 10.5983 40.7872 10.792 40.7156 11.0166C40.6473 11.238 40.6131 11.4756 40.6131 11.7295C40.6131 12.2503 40.7482 12.6654 41.0184 12.9746C41.2885 13.2839 41.6938 13.4385 42.2342 13.4385C42.4881 13.4385 42.729 13.3913 42.9568 13.2969C43.188 13.1992 43.3995 13.043 43.5916 12.8281V10.5088ZM45.7818 11.959C45.8307 12.4408 46.0064 12.8249 46.3092 13.1113C46.6119 13.3978 47.0058 13.541 47.4908 13.541C47.8326 13.541 48.137 13.471 48.4039 13.3311C48.6708 13.1911 48.871 13.0169 49.0045 12.8086L49.4732 13.1309C49.2454 13.4499 48.9736 13.694 48.6578 13.8633C48.3421 14.0293 47.9531 14.1123 47.4908 14.1123C47.1393 14.1123 46.817 14.0537 46.524 13.9365C46.2311 13.8193 45.9771 13.6566 45.7623 13.4482C45.5507 13.2367 45.3863 12.986 45.2691 12.6963C45.152 12.4066 45.0934 12.0843 45.0934 11.7295C45.0934 11.3844 45.1454 11.0671 45.2496 10.7773C45.357 10.4844 45.51 10.2321 45.7086 10.0205C45.9104 9.80566 46.1546 9.63965 46.441 9.52246C46.7275 9.40202 47.0481 9.3418 47.4029 9.3418C47.7903 9.3418 48.1288 9.4069 48.4186 9.53711C48.7083 9.66732 48.9492 9.84798 49.1412 10.0791C49.3365 10.307 49.4798 10.5804 49.5709 10.8994C49.6653 11.2184 49.7125 11.5716 49.7125 11.959H45.7818ZM49.0045 11.3877C48.9296 10.8896 48.749 10.5186 48.4625 10.2744C48.176 10.0303 47.8229 9.9082 47.4029 9.9082C47.1881 9.9082 46.9895 9.94401 46.8072 10.0156C46.6249 10.084 46.4638 10.1833 46.3238 10.3135C46.1839 10.4437 46.0667 10.6016 45.9723 10.7871C45.8779 10.9694 45.8176 11.1696 45.7916 11.3877H49.0045ZM54.5834 14H53.9096V11.1924C53.9096 10.7855 53.8217 10.4697 53.6459 10.2451C53.4701 10.0205 53.1853 9.9082 52.7914 9.9082C52.544 9.9082 52.3194 9.96517 52.1176 10.0791C51.919 10.193 51.7497 10.346 51.6098 10.5381C51.4698 10.7269 51.3624 10.945 51.2875 11.1924C51.2159 11.4365 51.1801 11.6921 51.1801 11.959V14H50.5111V9.44922H51.1801V10.5918C51.5023 9.75846 52.0769 9.3418 52.9037 9.3418C54.0235 9.3418 54.5834 9.95866 54.5834 11.1924V14ZM60.0305 12.5498C59.9784 13.0283 59.7896 13.4092 59.4641 13.6924C59.1418 13.9723 58.7382 14.1123 58.2531 14.1123C57.9862 14.1123 57.7421 14.0684 57.5207 13.9805C57.2993 13.8926 57.1105 13.7705 56.9543 13.6143C56.798 13.458 56.676 13.2708 56.5881 13.0527C56.5034 12.8314 56.4611 12.5905 56.4611 12.3301V10.0205H55.4309V9.44922H56.4611V7.62793H57.1301V9.44922H59.0686V10.0205H57.1301V12.3301C57.1301 12.4961 57.1561 12.6523 57.2082 12.7988C57.2635 12.9453 57.3384 13.0739 57.4328 13.1846C57.5305 13.2952 57.6477 13.3831 57.7844 13.4482C57.9211 13.5101 58.0773 13.541 58.2531 13.541C58.5852 13.541 58.8618 13.4385 59.0832 13.2334C59.3078 13.0251 59.4364 12.7565 59.4689 12.4277L60.0305 12.5498Z"
          fill="#BEF811"/>
    <rect opacity="0.6" x="0.5" y="12.5" width="115" height="31" rx="10.5" fill="#364213" stroke="url(#paint1_linear_0_1)"/>
    <g opacity="0.6">
        <rect x="74" y="18" width="36" height="19" rx="6" fill="#007AFF"/>
        <path d="M82.8994 31.5H79.7144V23.7495H82.8887C84.2583 23.7495 85.1606 24.5122 85.1606 25.6831C85.1606 26.5049 84.5591 27.2407 83.7856 27.3696V27.4126C84.833 27.5308 85.5474 28.2773 85.5474 29.3086C85.5474 30.6729 84.5537 31.5 82.8994 31.5ZM80.9175 24.7324V27.0474H82.3408C83.3882 27.0474 83.9629 26.6177 83.9629 25.8496C83.9629 25.1299 83.4688 24.7324 82.5933 24.7324H80.9175ZM80.9175 30.5171H82.6577C83.7427 30.5171 84.3174 30.0713 84.3174 29.2334C84.3174 28.3955 83.7212 27.9658 82.5879 27.9658H80.9175V30.5171ZM91.5693 30.458V31.5H86.6494V23.7495H91.5693V24.7861H87.8525V27.0527H91.3705V28.0518H87.8525V30.458H91.5693ZM96.0336 31.5H94.8304V24.7861H92.4135V23.7495H98.4452V24.7861H96.0336V31.5ZM103.473 31.5L102.764 29.4053H99.8104L99.1014 31.5H97.8499L100.648 23.7495H101.948L104.746 31.5H103.473ZM101.271 25.0386L100.117 28.4385H102.458L101.304 25.0386H101.271Z"
              fill="white"/>
    </g>
    <path opacity="0.6"
          d="M12.7988 19.3301L13.5508 19.7012L9.81055 27.2305L9.05859 26.8594L12.7988 19.3301ZM17.9578 19.3301L18.7098 19.7012L14.9695 27.2305L14.2176 26.8594L17.9578 19.3301ZM23.8687 21.7812H23.2975V20.1992H21.9303V25.4287H22.9557V26H20.2262V25.4287H21.2564V20.1992H19.8893V21.7812H19.318V19.6279H23.8687V21.7812ZM24.4672 24.7695C24.4672 24.4831 24.5388 24.2438 24.682 24.0518C24.8253 23.8564 25.0124 23.7035 25.2436 23.5928C25.4779 23.4788 25.7449 23.3975 26.0443 23.3486C26.3471 23.2965 26.6547 23.2705 26.9672 23.2705C27.0876 23.2705 27.1951 23.2721 27.2895 23.2754C27.3871 23.2786 27.4783 23.2835 27.5629 23.29C27.6508 23.2965 27.7387 23.3047 27.8266 23.3145C27.9145 23.3242 28.0105 23.3356 28.1146 23.3486V23.0215C28.1146 22.8001 28.0658 22.6178 27.9682 22.4746C27.8738 22.3314 27.7566 22.2191 27.6166 22.1377C27.4766 22.0531 27.3301 21.9945 27.1771 21.9619C27.0242 21.9261 26.8939 21.9082 26.7865 21.9082C26.448 21.9082 26.1355 21.9538 25.849 22.0449C25.5626 22.1361 25.2956 22.2581 25.0482 22.4111L24.7455 21.9082C25.0189 21.7422 25.3249 21.6071 25.6635 21.5029C26.0053 21.3955 26.3796 21.3418 26.7865 21.3418C27.0339 21.3418 27.2764 21.3743 27.5141 21.4395C27.7549 21.5013 27.9698 21.599 28.1586 21.7324C28.3507 21.8626 28.5036 22.0352 28.6176 22.25C28.7315 22.4648 28.7885 22.722 28.7885 23.0215V26H28.1146V25.2383C27.9975 25.3848 27.864 25.5133 27.7143 25.624C27.5678 25.7347 27.4132 25.8258 27.2504 25.8975C27.0876 25.9658 26.9249 26.0179 26.7621 26.0537C26.5993 26.0928 26.4447 26.1123 26.2982 26.1123C25.696 26.1123 25.2403 25.9967 24.9311 25.7656C24.6218 25.5345 24.4672 25.2025 24.4672 24.7695ZM26.2982 25.541C26.5782 25.541 26.8288 25.5003 27.0502 25.4189C27.2748 25.3343 27.4652 25.2301 27.6215 25.1064C27.7777 24.9827 27.8982 24.8509 27.9828 24.7109C28.0707 24.571 28.1146 24.444 28.1146 24.3301V23.9004C27.8965 23.8678 27.6866 23.8499 27.4848 23.8467C27.2862 23.8434 27.1137 23.8418 26.9672 23.8418C26.7263 23.8418 26.4936 23.8581 26.2689 23.8906C26.0476 23.9232 25.8539 23.9769 25.6879 24.0518C25.5219 24.1234 25.3884 24.2178 25.2875 24.335C25.1866 24.4521 25.1361 24.597 25.1361 24.7695C25.1361 24.9616 25.2289 25.139 25.4145 25.3018C25.6033 25.4613 25.8979 25.541 26.2982 25.541ZM33.9377 22.0889C33.6968 21.9684 33.4104 21.9082 33.0783 21.9082C32.8049 21.9082 32.5607 21.9668 32.3459 22.084C32.1311 22.2012 31.9488 22.3558 31.799 22.5479C31.6493 22.7367 31.5337 22.9548 31.4523 23.2021C31.3742 23.4463 31.3352 23.6986 31.3352 23.959V25.4287H32.3654V26H29.6359V25.4287H30.6662V22.0205H29.6359V21.4492H31.3352V22.5918C31.6411 21.7585 32.2222 21.3418 33.0783 21.3418C33.3094 21.3418 33.5096 21.3564 33.6789 21.3857C33.8514 21.415 34.0109 21.4671 34.1574 21.542L33.9377 22.0889ZM39.1064 25.9512C39.1064 26.2637 39.0527 26.542 38.9453 26.7861C38.8379 27.0303 38.6865 27.237 38.4912 27.4062C38.2992 27.5755 38.0713 27.7041 37.8076 27.792C37.5472 27.8831 37.2559 27.9287 36.9336 27.9287C36.4811 27.9287 36.0954 27.8441 35.7764 27.6748C35.4606 27.5055 35.1872 27.2614 34.9561 26.9424L35.4248 26.5811C35.5648 26.7926 35.7666 26.9701 36.0303 27.1133C36.2939 27.2565 36.5951 27.3281 36.9336 27.3281C37.3958 27.3281 37.7604 27.2109 38.0273 26.9766C38.2975 26.7454 38.4326 26.4102 38.4326 25.9707V25.4824C38.0355 25.834 37.583 26.0098 37.0752 26.0098C36.3623 26.0098 35.8024 25.8063 35.3955 25.3994C34.9886 24.9925 34.7852 24.4359 34.7852 23.7295C34.7852 23.3844 34.8372 23.0671 34.9414 22.7773C35.0488 22.4844 35.2002 22.2321 35.3955 22.0205C35.5941 21.8057 35.835 21.6396 36.1182 21.5225C36.4014 21.402 36.7204 21.3418 37.0752 21.3418C37.3226 21.3418 37.5618 21.3857 37.793 21.4736C38.0273 21.5583 38.2406 21.6868 38.4326 21.8594V21.4492H39.1064V25.9512ZM38.4326 22.5088C38.2406 22.2972 38.029 22.1442 37.7979 22.0498C37.57 21.9554 37.3291 21.9082 37.0752 21.9082C36.8083 21.9082 36.5723 21.9554 36.3672 22.0498C36.1654 22.1442 35.9977 22.2728 35.8643 22.4355C35.7308 22.5983 35.6283 22.792 35.5566 23.0166C35.4883 23.238 35.4541 23.4756 35.4541 23.7295C35.4541 24.2503 35.5892 24.6654 35.8594 24.9746C36.1296 25.2839 36.5348 25.4385 37.0752 25.4385C37.3291 25.4385 37.57 25.3913 37.7979 25.2969C38.029 25.1992 38.2406 25.043 38.4326 24.8281V22.5088ZM40.6229 23.959C40.6717 24.4408 40.8475 24.8249 41.1502 25.1113C41.4529 25.3978 41.8468 25.541 42.3318 25.541C42.6736 25.541 42.978 25.471 43.2449 25.3311C43.5118 25.1911 43.712 25.0169 43.8455 24.8086L44.3143 25.1309C44.0864 25.4499 43.8146 25.694 43.4988 25.8633C43.1831 26.0293 42.7941 26.1123 42.3318 26.1123C41.9803 26.1123 41.658 26.0537 41.365 25.9365C41.0721 25.8193 40.8182 25.6566 40.6033 25.4482C40.3917 25.2367 40.2273 24.986 40.1102 24.6963C39.993 24.4066 39.9344 24.0843 39.9344 23.7295C39.9344 23.3844 39.9865 23.0671 40.0906 22.7773C40.198 22.4844 40.351 22.2321 40.5496 22.0205C40.7514 21.8057 40.9956 21.6396 41.282 21.5225C41.5685 21.402 41.8891 21.3418 42.2439 21.3418C42.6313 21.3418 42.9699 21.4069 43.2596 21.5371C43.5493 21.6673 43.7902 21.848 43.9822 22.0791C44.1775 22.307 44.3208 22.5804 44.4119 22.8994C44.5063 23.2184 44.5535 23.5716 44.5535 23.959H40.6229ZM43.8455 23.3877C43.7706 22.8896 43.59 22.5186 43.3035 22.2744C43.0171 22.0303 42.6639 21.9082 42.2439 21.9082C42.0291 21.9082 41.8305 21.944 41.6482 22.0156C41.466 22.084 41.3048 22.1833 41.1648 22.3135C41.0249 22.4437 40.9077 22.6016 40.8133 22.7871C40.7189 22.9694 40.6587 23.1696 40.6326 23.3877H43.8455ZM49.7125 24.5498C49.6604 25.0283 49.4716 25.4092 49.1461 25.6924C48.8238 25.9723 48.4202 26.1123 47.9352 26.1123C47.6682 26.1123 47.4241 26.0684 47.2027 25.9805C46.9814 25.8926 46.7926 25.7705 46.6363 25.6143C46.4801 25.458 46.358 25.2708 46.2701 25.0527C46.1855 24.8314 46.1432 24.5905 46.1432 24.3301V22.0205H45.1129V21.4492H46.1432V19.6279H46.8121V21.4492H48.7506V22.0205H46.8121V24.3301C46.8121 24.4961 46.8382 24.6523 46.8902 24.7988C46.9456 24.9453 47.0204 25.0739 47.1148 25.1846C47.2125 25.2952 47.3297 25.3831 47.4664 25.4482C47.6031 25.5101 47.7594 25.541 47.9352 25.541C48.2672 25.541 48.5439 25.4385 48.7652 25.2334C48.9898 25.0251 49.1184 24.7565 49.151 24.4277L49.7125 24.5498ZM13.3115 35H12.6377V32.1924C12.6377 31.7855 12.5498 31.4697 12.374 31.2451C12.1982 31.0205 11.9134 30.9082 11.5195 30.9082C11.2721 30.9082 11.0475 30.9652 10.8457 31.0791C10.6471 31.193 10.4779 31.346 10.3379 31.5381C10.1979 31.7269 10.0905 31.945 10.0156 32.1924C9.94401 32.4365 9.9082 32.6921 9.9082 32.959V35H9.23926V28.6279H9.9082V31.5918C10.2305 30.7585 10.805 30.3418 11.6318 30.3418C12.7516 30.3418 13.3115 30.9587 13.3115 32.1924V35ZM14.3982 30.4492H15.0672V33.2617C15.0672 33.6686 15.1551 33.9844 15.3309 34.209C15.5099 34.4303 15.7964 34.541 16.1902 34.541C16.4376 34.541 16.6606 34.484 16.8592 34.3701C17.0577 34.2562 17.227 34.1048 17.367 33.916C17.507 33.724 17.6128 33.5059 17.6844 33.2617C17.7592 33.0143 17.7967 32.7572 17.7967 32.4902V30.4492H18.4705V35H17.7967V33.8623C17.4777 34.6956 16.9048 35.1123 16.0779 35.1123C14.9581 35.1123 14.3982 34.4954 14.3982 33.2617V30.4492ZM23.6295 35H22.9557V32.1924C22.9557 31.7855 22.8678 31.4697 22.692 31.2451C22.5162 31.0205 22.2314 30.9082 21.8375 30.9082C21.5901 30.9082 21.3655 30.9652 21.1637 31.0791C20.9651 31.193 20.7958 31.346 20.6559 31.5381C20.5159 31.7269 20.4085 31.945 20.3336 32.1924C20.262 32.4365 20.2262 32.6921 20.2262 32.959V35H19.5572V30.4492H20.2262V31.5918C20.5484 30.7585 21.123 30.3418 21.9498 30.3418C23.0696 30.3418 23.6295 30.9587 23.6295 32.1924V35ZM29.0766 33.5498C29.0245 34.0283 28.8357 34.4092 28.5102 34.6924C28.1879 34.9723 27.7842 35.1123 27.2992 35.1123C27.0323 35.1123 26.7882 35.0684 26.5668 34.9805C26.3454 34.8926 26.1566 34.7705 26.0004 34.6143C25.8441 34.458 25.7221 34.2708 25.6342 34.0527C25.5495 33.8314 25.5072 33.5905 25.5072 33.3301V31.0205H24.477V30.4492H25.5072V28.6279H26.1762V30.4492H28.1146V31.0205H26.1762V33.3301C26.1762 33.4961 26.2022 33.6523 26.2543 33.7988C26.3096 33.9453 26.3845 34.0739 26.4789 34.1846C26.5766 34.2952 26.6938 34.3831 26.8305 34.4482C26.9672 34.5101 27.1234 34.541 27.2992 34.541C27.6313 34.541 27.9079 34.4385 28.1293 34.2334C28.3539 34.0251 28.4825 33.7565 28.515 33.4277L29.0766 33.5498ZM30.3049 32.959C30.3537 33.4408 30.5295 33.8249 30.8322 34.1113C31.135 34.3978 31.5288 34.541 32.0139 34.541C32.3557 34.541 32.66 34.471 32.927 34.3311C33.1939 34.1911 33.3941 34.0169 33.5275 33.8086L33.9963 34.1309C33.7684 34.4499 33.4966 34.694 33.1809 34.8633C32.8651 35.0293 32.4761 35.1123 32.0139 35.1123C31.6623 35.1123 31.34 35.0537 31.0471 34.9365C30.7541 34.8193 30.5002 34.6566 30.2854 34.4482C30.0738 34.2367 29.9094 33.986 29.7922 33.6963C29.675 33.4066 29.6164 33.0843 29.6164 32.7295C29.6164 32.3844 29.6685 32.0671 29.7727 31.7773C29.8801 31.4844 30.0331 31.2321 30.2316 31.0205C30.4335 30.8057 30.6776 30.6396 30.9641 30.5225C31.2505 30.402 31.5712 30.3418 31.926 30.3418C32.3133 30.3418 32.6519 30.4069 32.9416 30.5371C33.2313 30.6673 33.4722 30.848 33.6643 31.0791C33.8596 31.307 34.0028 31.5804 34.0939 31.8994C34.1883 32.2184 34.2355 32.5716 34.2355 32.959H30.3049ZM33.5275 32.3877C33.4527 31.8896 33.272 31.5186 32.9855 31.2744C32.6991 31.0303 32.3459 30.9082 31.926 30.9082C31.7111 30.9082 31.5126 30.944 31.3303 31.0156C31.148 31.084 30.9868 31.1833 30.8469 31.3135C30.7069 31.4437 30.5897 31.6016 30.4953 31.7871C30.4009 31.9694 30.3407 32.1696 30.3146 32.3877H33.5275Z"
          fill="#BEF811"/>
    <rect opacity="0.8" x="0.5" y="24.5" width="115" height="31" rx="10.5" fill="#364213" stroke="url(#paint2_linear_0_1)"/>
    <g opacity="0.8">
        <rect x="74" y="30" width="36" height="19" rx="6" fill="#007AFF"/>
        <path d="M82.8994 43.5H79.7144V35.7495H82.8887C84.2583 35.7495 85.1606 36.5122 85.1606 37.6831C85.1606 38.5049 84.5591 39.2407 83.7856 39.3696V39.4126C84.833 39.5308 85.5474 40.2773 85.5474 41.3086C85.5474 42.6729 84.5537 43.5 82.8994 43.5ZM80.9175 36.7324V39.0474H82.3408C83.3882 39.0474 83.9629 38.6177 83.9629 37.8496C83.9629 37.1299 83.4688 36.7324 82.5933 36.7324H80.9175ZM80.9175 42.5171H82.6577C83.7427 42.5171 84.3174 42.0713 84.3174 41.2334C84.3174 40.3955 83.7212 39.9658 82.5879 39.9658H80.9175V42.5171ZM91.5693 42.458V43.5H86.6494V35.7495H91.5693V36.7861H87.8525V39.0527H91.3705V40.0518H87.8525V42.458H91.5693ZM96.0336 43.5H94.8304V36.7861H92.4135V35.7495H98.4452V36.7861H96.0336V43.5ZM103.473 43.5L102.764 41.4053H99.8104L99.1014 43.5H97.8499L100.648 35.7495H101.948L104.746 43.5H103.473ZM101.271 37.0386L100.117 40.4385H102.458L101.304 37.0386H101.271Z"
              fill="white"/>
    </g>
    <path opacity="0.8"
          d="M12.7988 31.3301L13.5508 31.7012L9.81055 39.2305L9.05859 38.8594L12.7988 31.3301ZM17.9578 31.3301L18.7098 31.7012L14.9695 39.2305L14.2176 38.8594L17.9578 31.3301ZM24.1764 38H23.4586L22.858 36.1787H20.3385L19.7477 38H19.0299L21.149 31.6279H22.0572L24.1764 38ZM22.6676 35.5879L21.5982 32.3018L20.5289 35.5879H22.6676ZM28.7885 38H28.1146V37.5801C27.9226 37.7526 27.711 37.8844 27.4799 37.9756C27.252 38.0667 27.0176 38.1123 26.7768 38.1123C26.4154 38.1123 26.0915 38.0537 25.8051 37.9365C25.5186 37.8193 25.2761 37.6566 25.0775 37.4482C24.8822 37.2367 24.7309 36.9844 24.6234 36.6914C24.5193 36.3984 24.4672 36.0778 24.4672 35.7295C24.4672 35.3844 24.5193 35.0654 24.6234 34.7725C24.7309 34.4762 24.8822 34.224 25.0775 34.0156C25.2761 33.804 25.5186 33.6396 25.8051 33.5225C26.0915 33.402 26.4154 33.3418 26.7768 33.3418C27.0176 33.3418 27.252 33.3857 27.4799 33.4736C27.711 33.5583 27.9226 33.6868 28.1146 33.8594V32.1992H27.2064V31.6279H28.7885V38ZM28.1146 34.5088C27.9226 34.2972 27.7126 34.1442 27.4848 34.0498C27.2602 33.9554 27.0209 33.9082 26.767 33.9082C26.5001 33.9082 26.2641 33.9554 26.059 34.0498C25.8572 34.1442 25.6879 34.2728 25.5512 34.4355C25.4145 34.5983 25.3103 34.7904 25.2387 35.0117C25.1703 35.2298 25.1361 35.4691 25.1361 35.7295C25.1361 35.9899 25.1703 36.2308 25.2387 36.4521C25.3103 36.6702 25.4145 36.8607 25.5512 37.0234C25.6879 37.1862 25.8572 37.3148 26.059 37.4092C26.2641 37.5036 26.5001 37.5508 26.767 37.5508C27.2813 37.5508 27.7305 37.3473 28.1146 36.9404V34.5088ZM34.0646 36.7402C34.0646 37.0072 33.9979 37.2285 33.8645 37.4043C33.731 37.5801 33.5585 37.7201 33.3469 37.8242C33.1385 37.9284 32.9042 38.0016 32.6437 38.0439C32.3866 38.0895 32.1343 38.1123 31.8869 38.1123C31.4735 38.1123 31.0617 38.0521 30.6516 37.9316C30.2414 37.8112 29.8866 37.6533 29.5871 37.458L29.885 36.8818C30.2202 37.0934 30.5507 37.2562 30.8762 37.3701C31.2017 37.484 31.5386 37.541 31.8869 37.541C32.8928 37.541 33.3957 37.2806 33.3957 36.7598C33.3957 36.6328 33.3534 36.5303 33.2687 36.4521C33.1874 36.3708 33.0767 36.3057 32.9367 36.2568C32.7967 36.2048 32.6356 36.1641 32.4533 36.1348C32.2743 36.1055 32.0855 36.0778 31.8869 36.0518C31.633 36.016 31.3807 35.9736 31.1301 35.9248C30.8794 35.876 30.6499 35.8027 30.4416 35.7051C30.2365 35.6074 30.0705 35.4772 29.9436 35.3145C29.8199 35.1517 29.758 34.9368 29.758 34.6699C29.758 34.4421 29.815 34.2451 29.9289 34.0791C30.0461 33.9131 30.2007 33.7747 30.3928 33.6641C30.5881 33.5534 30.8159 33.472 31.0764 33.4199C31.3368 33.3678 31.607 33.3418 31.8869 33.3418C32.2873 33.3418 32.6454 33.389 32.9611 33.4834C33.2769 33.5745 33.5617 33.7064 33.8156 33.8789L33.5471 34.4014C33.2867 34.2191 33.023 34.0921 32.7561 34.0205C32.4891 33.9456 32.1994 33.9082 31.8869 33.9082C31.7469 33.9082 31.5907 33.9212 31.4182 33.9473C31.2489 33.9701 31.091 34.0124 30.9445 34.0742C30.798 34.1328 30.6743 34.2109 30.5734 34.3086C30.4758 34.403 30.427 34.5234 30.427 34.6699C30.427 34.7969 30.4676 34.8994 30.549 34.9775C30.6337 35.0524 30.746 35.1159 30.8859 35.168C31.0259 35.2168 31.1854 35.2559 31.3645 35.2852C31.5467 35.3145 31.7372 35.3421 31.9357 35.3682C32.1831 35.404 32.4322 35.4463 32.6828 35.4951C32.9367 35.5439 33.1662 35.6156 33.3713 35.71C33.5796 35.8044 33.7473 35.9329 33.8742 36.0957C34.0012 36.2585 34.0646 36.4733 34.0646 36.7402ZM13.5508 47H12.8818V43.7285C12.8818 43.4681 12.8363 43.2663 12.7451 43.123C12.654 42.9798 12.5221 42.9082 12.3496 42.9082C12.0957 42.9082 11.9085 43.0417 11.7881 43.3086C11.6709 43.5755 11.6123 43.9499 11.6123 44.4316V47H10.9385V43.7285C10.9385 43.4681 10.8913 43.2663 10.7969 43.123C10.7057 42.9798 10.5739 42.9082 10.4014 42.9082C10.2419 42.9082 10.1149 42.9554 10.0205 43.0498C9.92611 43.1442 9.85124 43.2646 9.7959 43.4111C9.74382 43.5576 9.70964 43.7204 9.69336 43.8994C9.67708 44.0785 9.66895 44.2559 9.66895 44.4316V47H9V42.4492H9.66895V43.1084C9.80892 42.5973 10.1133 42.3418 10.582 42.3418C11.028 42.3418 11.3307 42.5648 11.4902 43.0107C11.7116 42.5648 12.0241 42.3418 12.4277 42.3418C12.8151 42.3418 13.0983 42.4574 13.2773 42.6885C13.4596 42.9163 13.5508 43.263 13.5508 43.7285V47ZM14.1492 45.7695C14.1492 45.4831 14.2208 45.2438 14.3641 45.0518C14.5073 44.8564 14.6945 44.7035 14.9256 44.5928C15.16 44.4788 15.4269 44.3975 15.7264 44.3486C16.0291 44.2965 16.3367 44.2705 16.6492 44.2705C16.7697 44.2705 16.8771 44.2721 16.9715 44.2754C17.0691 44.2786 17.1603 44.2835 17.2449 44.29C17.3328 44.2965 17.4207 44.3047 17.5086 44.3145C17.5965 44.3242 17.6925 44.3356 17.7967 44.3486V44.0215C17.7967 43.8001 17.7479 43.6178 17.6502 43.4746C17.5558 43.3314 17.4386 43.2191 17.2986 43.1377C17.1587 43.0531 17.0122 42.9945 16.8592 42.9619C16.7062 42.9261 16.576 42.9082 16.4686 42.9082C16.13 42.9082 15.8175 42.9538 15.5311 43.0449C15.2446 43.1361 14.9777 43.2581 14.7303 43.4111L14.4275 42.9082C14.701 42.7422 15.007 42.6071 15.3455 42.5029C15.6873 42.3955 16.0617 42.3418 16.4686 42.3418C16.716 42.3418 16.9585 42.3743 17.1961 42.4395C17.437 42.5013 17.6518 42.599 17.8406 42.7324C18.0327 42.8626 18.1857 43.0352 18.2996 43.25C18.4135 43.4648 18.4705 43.722 18.4705 44.0215V47H17.7967V46.2383C17.6795 46.3848 17.546 46.5133 17.3963 46.624C17.2498 46.7347 17.0952 46.8258 16.9324 46.8975C16.7697 46.9658 16.6069 47.0179 16.4441 47.0537C16.2814 47.0928 16.1268 47.1123 15.9803 47.1123C15.3781 47.1123 14.9223 46.9967 14.6131 46.7656C14.3038 46.5345 14.1492 46.2025 14.1492 45.7695ZM15.9803 46.541C16.2602 46.541 16.5109 46.5003 16.7322 46.4189C16.9568 46.3343 17.1473 46.2301 17.3035 46.1064C17.4598 45.9827 17.5802 45.8509 17.6648 45.7109C17.7527 45.571 17.7967 45.444 17.7967 45.3301V44.9004C17.5786 44.8678 17.3686 44.8499 17.1668 44.8467C16.9682 44.8434 16.7957 44.8418 16.6492 44.8418C16.4083 44.8418 16.1756 44.8581 15.951 44.8906C15.7296 44.9232 15.5359 44.9769 15.3699 45.0518C15.2039 45.1234 15.0704 45.2178 14.9695 45.335C14.8686 45.4521 14.8182 45.597 14.8182 45.7695C14.8182 45.9616 14.9109 46.139 15.0965 46.3018C15.2853 46.4613 15.5799 46.541 15.9803 46.541ZM23.6295 47H22.9557V44.1924C22.9557 43.7855 22.8678 43.4697 22.692 43.2451C22.5162 43.0205 22.2314 42.9082 21.8375 42.9082C21.5901 42.9082 21.3655 42.9652 21.1637 43.0791C20.9651 43.193 20.7958 43.346 20.6559 43.5381C20.5159 43.7269 20.4085 43.945 20.3336 44.1924C20.262 44.4365 20.2262 44.6921 20.2262 44.959V47H19.5572V42.4492H20.2262V43.5918C20.5484 42.7585 21.123 42.3418 21.9498 42.3418C23.0696 42.3418 23.6295 42.9587 23.6295 44.1924V47ZM24.4672 45.7695C24.4672 45.4831 24.5388 45.2438 24.682 45.0518C24.8253 44.8564 25.0124 44.7035 25.2436 44.5928C25.4779 44.4788 25.7449 44.3975 26.0443 44.3486C26.3471 44.2965 26.6547 44.2705 26.9672 44.2705C27.0876 44.2705 27.1951 44.2721 27.2895 44.2754C27.3871 44.2786 27.4783 44.2835 27.5629 44.29C27.6508 44.2965 27.7387 44.3047 27.8266 44.3145C27.9145 44.3242 28.0105 44.3356 28.1146 44.3486V44.0215C28.1146 43.8001 28.0658 43.6178 27.9682 43.4746C27.8738 43.3314 27.7566 43.2191 27.6166 43.1377C27.4766 43.0531 27.3301 42.9945 27.1771 42.9619C27.0242 42.9261 26.8939 42.9082 26.7865 42.9082C26.448 42.9082 26.1355 42.9538 25.849 43.0449C25.5626 43.1361 25.2956 43.2581 25.0482 43.4111L24.7455 42.9082C25.0189 42.7422 25.3249 42.6071 25.6635 42.5029C26.0053 42.3955 26.3796 42.3418 26.7865 42.3418C27.0339 42.3418 27.2764 42.3743 27.5141 42.4395C27.7549 42.5013 27.9698 42.599 28.1586 42.7324C28.3507 42.8626 28.5036 43.0352 28.6176 43.25C28.7315 43.4648 28.7885 43.722 28.7885 44.0215V47H28.1146V46.2383C27.9975 46.3848 27.864 46.5133 27.7143 46.624C27.5678 46.7347 27.4132 46.8258 27.2504 46.8975C27.0876 46.9658 26.9249 47.0179 26.7621 47.0537C26.5993 47.0928 26.4447 47.1123 26.2982 47.1123C25.696 47.1123 25.2403 46.9967 24.9311 46.7656C24.6218 46.5345 24.4672 46.2025 24.4672 45.7695ZM26.2982 46.541C26.5782 46.541 26.8288 46.5003 27.0502 46.4189C27.2748 46.3343 27.4652 46.2301 27.6215 46.1064C27.7777 45.9827 27.8982 45.8509 27.9828 45.7109C28.0707 45.571 28.1146 45.444 28.1146 45.3301V44.9004C27.8965 44.8678 27.6866 44.8499 27.4848 44.8467C27.2862 44.8434 27.1137 44.8418 26.9672 44.8418C26.7263 44.8418 26.4936 44.8581 26.2689 44.8906C26.0476 44.9232 25.8539 44.9769 25.6879 45.0518C25.5219 45.1234 25.3884 45.2178 25.2875 45.335C25.1866 45.4521 25.1361 45.597 25.1361 45.7695C25.1361 45.9616 25.2289 46.139 25.4145 46.3018C25.6033 46.4613 25.8979 46.541 26.2982 46.541ZM33.9475 46.9512C33.9475 47.2637 33.8937 47.542 33.7863 47.7861C33.6789 48.0303 33.5275 48.237 33.3322 48.4062C33.1402 48.5755 32.9123 48.7041 32.6486 48.792C32.3882 48.8831 32.0969 48.9287 31.7746 48.9287C31.3221 48.9287 30.9364 48.8441 30.6174 48.6748C30.3016 48.5055 30.0282 48.2614 29.7971 47.9424L30.2658 47.5811C30.4058 47.7926 30.6076 47.9701 30.8713 48.1133C31.135 48.2565 31.4361 48.3281 31.7746 48.3281C32.2368 48.3281 32.6014 48.2109 32.8684 47.9766C33.1385 47.7454 33.2736 47.4102 33.2736 46.9707V46.4824C32.8765 46.834 32.424 47.0098 31.9162 47.0098C31.2033 47.0098 30.6434 46.8063 30.2365 46.3994C29.8296 45.9925 29.6262 45.4359 29.6262 44.7295C29.6262 44.3844 29.6783 44.0671 29.7824 43.7773C29.8898 43.4844 30.0412 43.2321 30.2365 43.0205C30.4351 42.8057 30.676 42.6396 30.9592 42.5225C31.2424 42.402 31.5614 42.3418 31.9162 42.3418C32.1636 42.3418 32.4029 42.3857 32.634 42.4736C32.8684 42.5583 33.0816 42.6868 33.2736 42.8594V42.4492H33.9475V46.9512ZM33.2736 43.5088C33.0816 43.2972 32.87 43.1442 32.6389 43.0498C32.411 42.9554 32.1701 42.9082 31.9162 42.9082C31.6493 42.9082 31.4133 42.9554 31.2082 43.0498C31.0064 43.1442 30.8387 43.2728 30.7053 43.4355C30.5718 43.5983 30.4693 43.792 30.3977 44.0166C30.3293 44.238 30.2951 44.4756 30.2951 44.7295C30.2951 45.2503 30.4302 45.6654 30.7004 45.9746C30.9706 46.2839 31.3758 46.4385 31.9162 46.4385C32.1701 46.4385 32.411 46.3913 32.6389 46.2969C32.87 46.1992 33.0816 46.043 33.2736 45.8281V43.5088ZM35.4639 44.959C35.5127 45.4408 35.6885 45.8249 35.9912 46.1113C36.2939 46.3978 36.6878 46.541 37.1729 46.541C37.5146 46.541 37.819 46.471 38.0859 46.3311C38.3529 46.1911 38.5531 46.0169 38.6865 45.8086L39.1553 46.1309C38.9274 46.4499 38.6556 46.694 38.3398 46.8633C38.0241 47.0293 37.6351 47.1123 37.1729 47.1123C36.8213 47.1123 36.499 47.0537 36.2061 46.9365C35.9131 46.8193 35.6592 46.6566 35.4443 46.4482C35.2327 46.2367 35.0684 45.986 34.9512 45.6963C34.834 45.4066 34.7754 45.0843 34.7754 44.7295C34.7754 44.3844 34.8275 44.0671 34.9316 43.7773C35.0391 43.4844 35.1921 43.2321 35.3906 43.0205C35.5924 42.8057 35.8366 42.6396 36.123 42.5225C36.4095 42.402 36.7301 42.3418 37.085 42.3418C37.4723 42.3418 37.8109 42.4069 38.1006 42.5371C38.3903 42.6673 38.6312 42.848 38.8232 43.0791C39.0186 43.307 39.1618 43.5804 39.2529 43.8994C39.3473 44.2184 39.3945 44.5716 39.3945 44.959H35.4639ZM38.6865 44.3877C38.6117 43.8896 38.431 43.5186 38.1445 43.2744C37.8581 43.0303 37.5049 42.9082 37.085 42.9082C36.8701 42.9082 36.6715 42.944 36.4893 43.0156C36.307 43.084 36.1458 43.1833 36.0059 43.3135C35.8659 43.4437 35.7487 43.6016 35.6543 43.7871C35.5599 43.9694 35.4997 44.1696 35.4736 44.3877H38.6865ZM44.2557 43.0889C44.0148 42.9684 43.7283 42.9082 43.3963 42.9082C43.1229 42.9082 42.8787 42.9668 42.6639 43.084C42.449 43.2012 42.2667 43.3558 42.117 43.5479C41.9673 43.7367 41.8517 43.9548 41.7703 44.2021C41.6922 44.4463 41.6531 44.6986 41.6531 44.959V46.4287H42.6834V47H39.9539V46.4287H40.9842V43.0205H39.9539V42.4492H41.6531V43.5918C41.9591 42.7585 42.5402 42.3418 43.3963 42.3418C43.6274 42.3418 43.8276 42.3564 43.9969 42.3857C44.1694 42.415 44.3289 42.4671 44.4754 42.542L44.2557 43.0889Z"
          fill="#BEF811"/>
    <rect opacity="0.9" x="0.5" y="36.5" width="115" height="31" rx="10.5" fill="#364213" stroke="url(#paint3_linear_0_1)"/>
    <rect opacity="0.9" y="79" width="116" height="24" rx="11" fill="#202020"/>
    <g opacity="0.9">
        <rect x="74" y="42" width="36" height="19" rx="6" fill="#007AFF"/>
        <path d="M82.8994 55.5H79.7144V47.7495H82.8887C84.2583 47.7495 85.1606 48.5122 85.1606 49.6831C85.1606 50.5049 84.5591 51.2407 83.7856 51.3696V51.4126C84.833 51.5308 85.5474 52.2773 85.5474 53.3086C85.5474 54.6729 84.5537 55.5 82.8994 55.5ZM80.9175 48.7324V51.0474H82.3408C83.3882 51.0474 83.9629 50.6177 83.9629 49.8496C83.9629 49.1299 83.4688 48.7324 82.5933 48.7324H80.9175ZM80.9175 54.5171H82.6577C83.7427 54.5171 84.3174 54.0713 84.3174 53.2334C84.3174 52.3955 83.7212 51.9658 82.5879 51.9658H80.9175V54.5171ZM91.5693 54.458V55.5H86.6494V47.7495H91.5693V48.7861H87.8525V51.0527H91.3705V52.0518H87.8525V54.458H91.5693ZM96.0336 55.5H94.8304V48.7861H92.4135V47.7495H98.4452V48.7861H96.0336V55.5ZM103.473 55.5L102.764 53.4053H99.8104L99.1014 55.5H97.8499L100.648 47.7495H101.948L104.746 55.5H103.473ZM101.271 49.0386L100.117 52.4385H102.458L101.304 49.0386H101.271Z"
              fill="white"/>
    </g>
    <g opacity="0.9">
        <rect x="47" y="83" width="65" height="16" rx="6" fill="#383838"/>
        <path d="M54.8359 94H52.5195V88.3633H54.8281C55.8242 88.3633 56.4805 88.918 56.4805 89.7695C56.4805 90.3672 56.043 90.9023 55.4805 90.9961V91.0273C56.2422 91.1133 56.7617 91.6562 56.7617 92.4062C56.7617 93.3984 56.0391 94 54.8359 94ZM53.3945 89.0781V90.7617H54.4297C55.1914 90.7617 55.6094 90.4492 55.6094 89.8906C55.6094 89.3672 55.25 89.0781 54.6133 89.0781H53.3945ZM53.3945 93.2852H54.6602C55.4492 93.2852 55.8672 92.9609 55.8672 92.3516C55.8672 91.7422 55.4336 91.4297 54.6094 91.4297H53.3945V93.2852ZM61.1577 93.2422V94H57.5795V88.3633H61.1577V89.1172H58.4545V90.7656H61.0131V91.4922H58.4545V93.2422H61.1577ZM64.4208 94H63.5458V89.1172H61.788V88.3633H66.1747V89.1172H64.4208V94ZM69.848 94L69.3323 92.4766H67.1839L66.6683 94H65.7581L67.7933 88.3633H68.7386L70.7738 94H69.848ZM68.2464 89.3008L67.4066 91.7734H69.1097L68.2698 89.3008H68.2464ZM75.9094 94H74.9523L72.9406 88.3633H73.8898L75.425 93.0156H75.4484L76.9875 88.3633H77.9211L75.9094 94ZM82.1842 93.2422V94H78.6061V88.3633H82.1842V89.1172H79.4811V90.7656H82.0397V91.4922H79.4811V93.2422H82.1842ZM84.0177 89.0977V91.125H85.2755C85.9513 91.125 86.3419 90.7539 86.3419 90.1094C86.3419 89.4805 85.9278 89.0977 85.252 89.0977H84.0177ZM84.0177 91.832V94H83.1427V88.3633H85.3575C86.5177 88.3633 87.2403 89.0352 87.2403 90.0859C87.2403 90.8477 86.8341 91.4648 86.1466 91.6953L87.4122 94H86.4005L85.252 91.832H84.0177ZM87.898 92.4297H88.7612C88.8237 92.9883 89.3667 93.3555 90.1089 93.3555C90.8198 93.3555 91.3316 92.9883 91.3316 92.4844C91.3316 92.0469 91.023 91.7852 90.2925 91.6055L89.562 91.4297C88.5269 91.1797 88.0464 90.6953 88.0464 89.9102C88.0464 88.9375 88.8941 88.2695 90.0972 88.2695C91.2886 88.2695 92.105 88.9375 92.1323 89.9102H91.2808C91.23 89.3477 90.7652 89.0078 90.0855 89.0078C89.4058 89.0078 88.9409 89.3516 88.9409 89.8516C88.9409 90.25 89.2378 90.4844 89.9644 90.6641L90.5855 90.8164C91.7417 91.0898 92.2222 91.5547 92.2222 92.3789C92.2222 93.4336 91.3823 94.0938 90.0464 94.0938C88.7964 94.0938 87.9527 93.4492 87.898 92.4297ZM93.9423 94H93.0673V88.3633H93.9423V94ZM97.4789 88.2695C99.1 88.2695 100.12 89.3906 100.12 91.1836C100.12 92.9766 99.1 94.0938 97.4789 94.0938C95.8539 94.0938 94.8383 92.9766 94.8383 91.1836C94.8383 89.3906 95.8539 88.2695 97.4789 88.2695ZM97.4789 89.0391C96.4086 89.0391 95.7328 89.8672 95.7328 91.1836C95.7328 92.4961 96.4086 93.3242 97.4789 93.3242C98.5492 93.3242 99.2211 92.4961 99.2211 91.1836C99.2211 89.8672 98.5492 89.0391 97.4789 89.0391ZM101.867 94H101.015V88.3633H101.808L104.73 92.5195H104.762V88.3633H105.613V94H104.824L101.902 89.8477H101.867V94Z"
              fill="white"/>
    </g>
    <path opacity="0.9"
          d="M12.7988 43.3301L13.5508 43.7012L9.81055 51.2305L9.05859 50.8594L12.7988 43.3301ZM17.9578 43.3301L18.7098 43.7012L14.9695 51.2305L14.2176 50.8594L17.9578 43.3301ZM24.1764 50H23.4586L22.858 48.1787H20.3385L19.7477 50H19.0299L21.149 43.6279H22.0572L24.1764 50ZM22.6676 47.5879L21.5982 44.3018L20.5289 47.5879H22.6676ZM27.2064 44.541H26.2982V43.6279H27.2064V44.541ZM28.1146 50H25.3852V49.4287H26.4154V46.0205H25.3852V45.4492H27.0893V49.4287H28.1146V50ZM37.5244 44.541H36.6162V43.6279H37.5244V44.541ZM38.4326 50H35.7031V49.4287H36.7334V46.0205H35.7031V45.4492H37.4072V49.4287H38.4326V50ZM44.2654 50H43.5916V47.1924C43.5916 46.7855 43.5037 46.4697 43.3279 46.2451C43.1521 46.0205 42.8673 45.9082 42.4734 45.9082C42.226 45.9082 42.0014 45.9652 41.7996 46.0791C41.601 46.193 41.4318 46.346 41.2918 46.5381C41.1518 46.7269 41.0444 46.945 40.9695 47.1924C40.8979 47.4365 40.8621 47.6921 40.8621 47.959V50H40.1932V45.4492H40.8621V46.5918C41.1844 45.7585 41.7589 45.3418 42.5857 45.3418C43.7055 45.3418 44.2654 45.9587 44.2654 47.1924V50ZM49.5416 48.7402C49.5416 49.0072 49.4749 49.2285 49.3414 49.4043C49.2079 49.5801 49.0354 49.7201 48.8238 49.8242C48.6155 49.9284 48.3811 50.0016 48.1207 50.0439C47.8635 50.0895 47.6113 50.1123 47.3639 50.1123C46.9505 50.1123 46.5387 50.0521 46.1285 49.9316C45.7184 49.8112 45.3635 49.6533 45.0641 49.458L45.3619 48.8818C45.6972 49.0934 46.0276 49.2562 46.3531 49.3701C46.6786 49.484 47.0156 49.541 47.3639 49.541C48.3697 49.541 48.8727 49.2806 48.8727 48.7598C48.8727 48.6328 48.8303 48.5303 48.7457 48.4521C48.6643 48.3708 48.5536 48.3057 48.4137 48.2568C48.2737 48.2048 48.1126 48.1641 47.9303 48.1348C47.7512 48.1055 47.5624 48.0778 47.3639 48.0518C47.11 48.016 46.8577 47.9736 46.607 47.9248C46.3564 47.876 46.1269 47.8027 45.9186 47.7051C45.7135 47.6074 45.5475 47.4772 45.4205 47.3145C45.2968 47.1517 45.235 46.9368 45.235 46.6699C45.235 46.4421 45.2919 46.2451 45.4059 46.0791C45.523 45.9131 45.6777 45.7747 45.8697 45.6641C46.065 45.5534 46.2929 45.472 46.5533 45.4199C46.8137 45.3678 47.0839 45.3418 47.3639 45.3418C47.7643 45.3418 48.1223 45.389 48.4381 45.4834C48.7538 45.5745 49.0387 45.7064 49.2926 45.8789L49.024 46.4014C48.7636 46.2191 48.4999 46.0921 48.233 46.0205C47.9661 45.9456 47.6764 45.9082 47.3639 45.9082C47.2239 45.9082 47.0676 45.9212 46.8951 45.9473C46.7258 45.9701 46.568 46.0124 46.4215 46.0742C46.275 46.1328 46.1513 46.2109 46.0504 46.3086C45.9527 46.403 45.9039 46.5234 45.9039 46.6699C45.9039 46.7969 45.9446 46.8994 46.026 46.9775C46.1106 47.0524 46.2229 47.1159 46.3629 47.168C46.5029 47.2168 46.6624 47.2559 46.8414 47.2852C47.0237 47.3145 47.2141 47.3421 47.4127 47.3682C47.6601 47.404 47.9091 47.4463 48.1598 47.4951C48.4137 47.5439 48.6432 47.6156 48.8482 47.71C49.0566 47.8044 49.2242 47.9329 49.3512 48.0957C49.4781 48.2585 49.5416 48.4733 49.5416 48.7402ZM54.8715 48.5498C54.8194 49.0283 54.6306 49.4092 54.3051 49.6924C53.9828 49.9723 53.5792 50.1123 53.0941 50.1123C52.8272 50.1123 52.5831 50.0684 52.3617 49.9805C52.1404 49.8926 51.9516 49.7705 51.7953 49.6143C51.6391 49.458 51.517 49.2708 51.4291 49.0527C51.3445 48.8314 51.3021 48.5905 51.3021 48.3301V46.0205H50.2719V45.4492H51.3021V43.6279H51.9711V45.4492H53.9096V46.0205H51.9711V48.3301C51.9711 48.4961 51.9971 48.6523 52.0492 48.7988C52.1046 48.9453 52.1794 49.0739 52.2738 49.1846C52.3715 49.2952 52.4887 49.3831 52.6254 49.4482C52.7621 49.5101 52.9184 49.541 53.0941 49.541C53.4262 49.541 53.7029 49.4385 53.9242 49.2334C54.1488 49.0251 54.2774 48.7565 54.31 48.4277L54.8715 48.5498ZM55.4211 48.7695C55.4211 48.4831 55.4927 48.2438 55.6359 48.0518C55.7792 47.8564 55.9663 47.7035 56.1975 47.5928C56.4318 47.4788 56.6988 47.3975 56.9982 47.3486C57.301 47.2965 57.6086 47.2705 57.9211 47.2705C58.0415 47.2705 58.149 47.2721 58.2434 47.2754C58.341 47.2786 58.4322 47.2835 58.5168 47.29C58.6047 47.2965 58.6926 47.3047 58.7805 47.3145C58.8684 47.3242 58.9644 47.3356 59.0686 47.3486V47.0215C59.0686 46.8001 59.0197 46.6178 58.9221 46.4746C58.8277 46.3314 58.7105 46.2191 58.5705 46.1377C58.4305 46.0531 58.284 45.9945 58.1311 45.9619C57.9781 45.9261 57.8479 45.9082 57.7404 45.9082C57.4019 45.9082 57.0894 45.9538 56.8029 46.0449C56.5165 46.1361 56.2495 46.2581 56.0021 46.4111L55.6994 45.9082C55.9729 45.7422 56.2788 45.6071 56.6174 45.5029C56.9592 45.3955 57.3335 45.3418 57.7404 45.3418C57.9878 45.3418 58.2303 45.3743 58.468 45.4395C58.7089 45.5013 58.9237 45.599 59.1125 45.7324C59.3046 45.8626 59.4576 46.0352 59.5715 46.25C59.6854 46.4648 59.7424 46.722 59.7424 47.0215V50H59.0686V49.2383C58.9514 49.3848 58.8179 49.5133 58.6682 49.624C58.5217 49.7347 58.3671 49.8258 58.2043 49.8975C58.0415 49.9658 57.8788 50.0179 57.716 50.0537C57.5533 50.0928 57.3986 50.1123 57.2521 50.1123C56.6499 50.1123 56.1942 49.9967 55.885 49.7656C55.5757 49.5345 55.4211 49.2025 55.4211 48.7695ZM57.2521 49.541C57.5321 49.541 57.7827 49.5003 58.0041 49.4189C58.2287 49.3343 58.4191 49.2301 58.5754 49.1064C58.7316 48.9827 58.8521 48.8509 58.9367 48.7109C59.0246 48.571 59.0686 48.444 59.0686 48.3301V47.9004C58.8505 47.8678 58.6405 47.8499 58.4387 47.8467C58.2401 47.8434 58.0676 47.8418 57.9211 47.8418C57.6802 47.8418 57.4475 47.8581 57.2229 47.8906C57.0015 47.9232 56.8078 47.9769 56.6418 48.0518C56.4758 48.1234 56.3423 48.2178 56.2414 48.335C56.1405 48.4521 56.09 48.597 56.09 48.7695C56.09 48.9616 56.1828 49.139 56.3684 49.3018C56.5572 49.4613 56.8518 49.541 57.2521 49.541ZM13.5508 56.7295C13.5508 57.0843 13.4954 57.4066 13.3848 57.6963C13.2741 57.986 13.1178 58.2367 12.916 58.4482C12.7174 58.6566 12.4766 58.8193 12.1934 58.9365C11.9102 59.0537 11.5928 59.1123 11.2412 59.1123C11.0003 59.1123 10.766 59.0684 10.5381 58.9805C10.3135 58.8926 10.1035 58.7624 9.9082 58.5898V60.8213H9.23926V54.4492H9.9082V54.8691C10.3216 54.5176 10.766 54.3418 11.2412 54.3418C11.5928 54.3418 11.9102 54.4004 12.1934 54.5176C12.4766 54.6315 12.7174 54.7959 12.916 55.0107C13.1178 55.2223 13.2741 55.4762 13.3848 55.7725C13.4954 56.0654 13.5508 56.3844 13.5508 56.7295ZM12.8818 56.7295C12.8818 56.4756 12.846 56.238 12.7744 56.0166C12.7061 55.792 12.6019 55.5983 12.4619 55.4355C12.3219 55.2728 12.1494 55.1442 11.9443 55.0498C11.7425 54.9554 11.5081 54.9082 11.2412 54.9082C10.9873 54.9082 10.7497 54.9554 10.5283 55.0498C10.3102 55.1442 10.1035 55.2972 9.9082 55.5088V57.9502C10.1035 58.1618 10.3102 58.3132 10.5283 58.4043C10.7497 58.4954 10.9873 58.541 11.2412 58.541C11.5081 58.541 11.7425 58.4938 11.9443 58.3994C12.1494 58.305 12.3219 58.1764 12.4619 58.0137C12.6019 57.8509 12.7061 57.6605 12.7744 57.4424C12.846 57.221 12.8818 56.9834 12.8818 56.7295ZM14.1492 57.7695C14.1492 57.4831 14.2208 57.2438 14.3641 57.0518C14.5073 56.8564 14.6945 56.7035 14.9256 56.5928C15.16 56.4788 15.4269 56.3975 15.7264 56.3486C16.0291 56.2965 16.3367 56.2705 16.6492 56.2705C16.7697 56.2705 16.8771 56.2721 16.9715 56.2754C17.0691 56.2786 17.1603 56.2835 17.2449 56.29C17.3328 56.2965 17.4207 56.3047 17.5086 56.3145C17.5965 56.3242 17.6925 56.3356 17.7967 56.3486V56.0215C17.7967 55.8001 17.7479 55.6178 17.6502 55.4746C17.5558 55.3314 17.4386 55.2191 17.2986 55.1377C17.1587 55.0531 17.0122 54.9945 16.8592 54.9619C16.7062 54.9261 16.576 54.9082 16.4686 54.9082C16.13 54.9082 15.8175 54.9538 15.5311 55.0449C15.2446 55.1361 14.9777 55.2581 14.7303 55.4111L14.4275 54.9082C14.701 54.7422 15.007 54.6071 15.3455 54.5029C15.6873 54.3955 16.0617 54.3418 16.4686 54.3418C16.716 54.3418 16.9585 54.3743 17.1961 54.4395C17.437 54.5013 17.6518 54.599 17.8406 54.7324C18.0327 54.8626 18.1857 55.0352 18.2996 55.25C18.4135 55.4648 18.4705 55.722 18.4705 56.0215V59H17.7967V58.2383C17.6795 58.3848 17.546 58.5133 17.3963 58.624C17.2498 58.7347 17.0952 58.8258 16.9324 58.8975C16.7697 58.9658 16.6069 59.0179 16.4441 59.0537C16.2814 59.0928 16.1268 59.1123 15.9803 59.1123C15.3781 59.1123 14.9223 58.9967 14.6131 58.7656C14.3038 58.5345 14.1492 58.2025 14.1492 57.7695ZM15.9803 58.541C16.2602 58.541 16.5109 58.5003 16.7322 58.4189C16.9568 58.3343 17.1473 58.2301 17.3035 58.1064C17.4598 57.9827 17.5802 57.8509 17.6648 57.7109C17.7527 57.571 17.7967 57.444 17.7967 57.3301V56.9004C17.5786 56.8678 17.3686 56.8499 17.1668 56.8467C16.9682 56.8434 16.7957 56.8418 16.6492 56.8418C16.4083 56.8418 16.1756 56.8581 15.951 56.8906C15.7296 56.9232 15.5359 56.9769 15.3699 57.0518C15.2039 57.1234 15.0704 57.2178 14.9695 57.335C14.8686 57.4521 14.8182 57.597 14.8182 57.7695C14.8182 57.9616 14.9109 58.139 15.0965 58.3018C15.2853 58.4613 15.5799 58.541 15.9803 58.541ZM23.6197 55.0889C23.3788 54.9684 23.0924 54.9082 22.7604 54.9082C22.4869 54.9082 22.2428 54.9668 22.0279 55.084C21.8131 55.2012 21.6308 55.3558 21.4811 55.5479C21.3313 55.7367 21.2158 55.9548 21.1344 56.2021C21.0562 56.4463 21.0172 56.6986 21.0172 56.959V58.4287H22.0475V59H19.318V58.4287H20.3482V55.0205H19.318V54.4492H21.0172V55.5918C21.3232 54.7585 21.9042 54.3418 22.7604 54.3418C22.9915 54.3418 23.1917 54.3564 23.3609 54.3857C23.5335 54.415 23.693 54.4671 23.8395 54.542L23.6197 55.0889ZM28.9057 57.7402C28.9057 58.0072 28.8389 58.2285 28.7055 58.4043C28.572 58.5801 28.3995 58.7201 28.1879 58.8242C27.9796 58.9284 27.7452 59.0016 27.4848 59.0439C27.2276 59.0895 26.9753 59.1123 26.7279 59.1123C26.3145 59.1123 25.9027 59.0521 25.4926 58.9316C25.0824 58.8112 24.7276 58.6533 24.4281 58.458L24.726 57.8818C25.0613 58.0934 25.3917 58.2562 25.7172 58.3701C26.0427 58.484 26.3796 58.541 26.7279 58.541C27.7338 58.541 28.2367 58.2806 28.2367 57.7598C28.2367 57.6328 28.1944 57.5303 28.1098 57.4521C28.0284 57.3708 27.9177 57.3057 27.7777 57.2568C27.6378 57.2048 27.4766 57.1641 27.2943 57.1348C27.1153 57.1055 26.9265 57.0778 26.7279 57.0518C26.474 57.016 26.2217 56.9736 25.9711 56.9248C25.7204 56.876 25.491 56.8027 25.2826 56.7051C25.0775 56.6074 24.9115 56.4772 24.7846 56.3145C24.6609 56.1517 24.599 55.9368 24.599 55.6699C24.599 55.4421 24.656 55.2451 24.7699 55.0791C24.8871 54.9131 25.0417 54.7747 25.2338 54.6641C25.4291 54.5534 25.657 54.472 25.9174 54.4199C26.1778 54.3678 26.448 54.3418 26.7279 54.3418C27.1283 54.3418 27.4864 54.389 27.8021 54.4834C28.1179 54.5745 28.4027 54.7064 28.6566 54.8789L28.3881 55.4014C28.1277 55.2191 27.864 55.0921 27.5971 55.0205C27.3301 54.9456 27.0404 54.9082 26.7279 54.9082C26.588 54.9082 26.4317 54.9212 26.2592 54.9473C26.0899 54.9701 25.932 55.0124 25.7855 55.0742C25.6391 55.1328 25.5154 55.2109 25.4145 55.3086C25.3168 55.403 25.268 55.5234 25.268 55.6699C25.268 55.7969 25.3087 55.8994 25.39 55.9775C25.4747 56.0524 25.587 56.1159 25.727 56.168C25.8669 56.2168 26.0264 56.2559 26.2055 56.2852C26.3878 56.3145 26.5782 56.3421 26.7768 56.3682C27.0242 56.404 27.2732 56.4463 27.5238 56.4951C27.7777 56.5439 28.0072 56.6156 28.2123 56.71C28.4206 56.8044 28.5883 56.9329 28.7152 57.0957C28.8422 57.2585 28.9057 57.4733 28.9057 57.7402ZM30.3049 56.959C30.3537 57.4408 30.5295 57.8249 30.8322 58.1113C31.135 58.3978 31.5288 58.541 32.0139 58.541C32.3557 58.541 32.66 58.471 32.927 58.3311C33.1939 58.1911 33.3941 58.0169 33.5275 57.8086L33.9963 58.1309C33.7684 58.4499 33.4966 58.694 33.1809 58.8633C32.8651 59.0293 32.4761 59.1123 32.0139 59.1123C31.6623 59.1123 31.34 59.0537 31.0471 58.9365C30.7541 58.8193 30.5002 58.6566 30.2854 58.4482C30.0738 58.2367 29.9094 57.986 29.7922 57.6963C29.675 57.4066 29.6164 57.0843 29.6164 56.7295C29.6164 56.3844 29.6685 56.0671 29.7727 55.7773C29.8801 55.4844 30.0331 55.2321 30.2316 55.0205C30.4335 54.8057 30.6776 54.6396 30.9641 54.5225C31.2505 54.402 31.5712 54.3418 31.926 54.3418C32.3133 54.3418 32.6519 54.4069 32.9416 54.5371C33.2313 54.6673 33.4722 54.848 33.6643 55.0791C33.8596 55.307 34.0028 55.5804 34.0939 55.8994C34.1883 56.2184 34.2355 56.5716 34.2355 56.959H30.3049ZM33.5275 56.3877C33.4527 55.8896 33.272 55.5186 32.9855 55.2744C32.6991 55.0303 32.3459 54.9082 31.926 54.9082C31.7111 54.9082 31.5126 54.944 31.3303 55.0156C31.148 55.084 30.9868 55.1833 30.8469 55.3135C30.7069 55.4437 30.5897 55.6016 30.4953 55.7871C30.4009 55.9694 30.3407 56.1696 30.3146 56.3877H33.5275ZM39.0967 55.0889C38.8558 54.9684 38.5693 54.9082 38.2373 54.9082C37.9639 54.9082 37.7197 54.9668 37.5049 55.084C37.29 55.2012 37.1077 55.3558 36.958 55.5479C36.8083 55.7367 36.6927 55.9548 36.6113 56.2021C36.5332 56.4463 36.4941 56.6986 36.4941 56.959V58.4287H37.5244V59H34.7949V58.4287H35.8252V55.0205H34.7949V54.4492H36.4941V55.5918C36.8001 54.7585 37.3812 54.3418 38.2373 54.3418C38.4684 54.3418 38.6686 54.3564 38.8379 54.3857C39.0104 54.415 39.1699 54.4671 39.3164 54.542L39.0967 55.0889Z"
          fill="#BEF811"/>
    <rect x="5" y="83" width="26" height="16" rx="8" fill="#0371E9"/>
    <circle cx="23" cy="91" r="7" fill="white"/>
    <defs>
        <linearGradient id="paint0_linear_0_1" x1="168" y1="-32" x2="56.0068" y2="81.0025" gradientUnits="userSpaceOnUse">
            <stop stop-color="#BEF811"/>
            <stop offset="1" stop-color="#BEF811"/>
        </linearGradient>
        <linearGradient id="paint1_linear_0_1" x1="168" y1="-20" x2="56.0068" y2="93.0025" gradientUnits="userSpaceOnUse">
            <stop stop-color="#BEF811"/>
            <stop offset="1" stop-color="#BEF811"/>
        </linearGradient>
        <linearGradient id="paint2_linear_0_1" x1="168" y1="-8" x2="56.0068" y2="105.003" gradientUnits="userSpaceOnUse">
            <stop stop-color="#BEF811"/>
            <stop offset="1" stop-color="#BEF811"/>
        </linearGradient>
        <linearGradient id="paint3_linear_0_1" x1="168" y1="4" x2="56.0068" y2="117.003" gradientUnits="userSpaceOnUse">
            <stop stop-color="#BEF811"/>
            <stop offset="1" stop-color="#BEF811"/>
        </linearGradient>
    </defs>
</svg>
