<svg width="44" height="43" viewBox="0 0 44 43" fill="none" xmlns="http://www.w3.org/2000/svg">
    <path d="M26.0018 39.7146L24.8363 41.6837C23.7975 43.4388 20.2024 43.4388 19.1636 41.6837L17.9981 39.7146C17.0941 38.1873 16.6421 37.4236 15.916 37.0013C15.19 36.579 14.2758 36.5633 12.4476 36.5318C9.74857 36.4853 8.05581 36.3199 6.63615 35.7319C4.0021 34.6408 1.90936 32.548 0.818295 29.914C0 27.9384 0 25.434 0 20.4251V18.2751C0 11.2372 0 7.71822 1.58412 5.13316C2.47052 3.68668 3.68667 2.47053 5.13314 1.58413C7.71819 0 11.2371 0 18.275 0H25.725C32.7629 0 36.2818 0 38.8669 1.58413C40.3133 2.47053 41.5295 3.68668 42.4159 5.13316C44 7.71822 44 11.2372 44 18.2751V20.4251C44 25.434 44 27.9384 43.1817 29.914C42.0906 32.548 39.9979 34.6408 37.3638 35.7319C35.9442 36.3199 34.2514 36.4853 31.5523 36.5318C29.7241 36.5633 28.81 36.579 28.0839 37.0013C27.3579 37.4236 26.9058 38.1873 26.0018 39.7146Z"
          fill="#BEF811"/>
</svg>