<svg width="28" height="28" viewBox="0 0 28 28" fill="none" xmlns="http://www.w3.org/2000/svg">
    <path d="M14 0.5C21.4558 0.5 27.5 6.54416 27.5 14C27.5 21.4558 21.4558 27.5 14 27.5C6.54416 27.5 0.5 21.4558 0.5 14C0.5 6.54416 6.54416 0.5 14 0.5ZM14 18.4004C13.5582 18.4004 13.2002 18.7584 13.2002 19.2002C13.2003 19.6419 13.5582 20 14 20C14.4418 20 14.7997 19.6419 14.7998 19.2002C14.7998 18.7584 14.4418 18.4004 14 18.4004ZM14 7.02539C12.3915 7.02539 11.0879 8.32897 11.0879 9.9375C11.0879 10.1998 11.3002 10.4121 11.5625 10.4121C11.8248 10.4121 12.0371 10.1998 12.0371 9.9375C12.0371 8.85364 12.9161 7.97461 14 7.97461C15.0839 7.97461 15.9629 8.85364 15.9629 9.9375C15.9629 10.469 15.752 10.9507 15.4082 11.3047C15.3303 11.3848 15.2421 11.4729 15.1514 11.5635C14.8439 11.8703 14.4926 12.2211 14.2178 12.5742C13.8458 13.0522 13.5254 13.6342 13.5254 14.3252V15.2998C13.5254 15.5621 13.7377 15.7754 14 15.7754C14.2623 15.7754 14.4746 15.5621 14.4746 15.2998V14.3252C14.4746 13.9397 14.6527 13.5631 14.9678 13.1582C15.2059 12.8522 15.4747 12.5846 15.751 12.3086C15.8604 12.1993 15.972 12.0871 16.0889 11.9668C16.598 11.4427 16.9121 10.7262 16.9121 9.9375C16.9121 8.32897 15.6085 7.02539 14 7.02539Z" fill="#BEF811" fill-opacity="0.2" stroke="#BEF811"/>
</svg>