<svg width="64" height="64" viewBox="0 0 64 64" fill="none" xmlns="http://www.w3.org/2000/svg">
    <circle cx="32" cy="32" r="32" fill="#1C0937"/>
    <path d="M50.3115 23.9064C51.4996 24.9826 52.0106 26.3376 52.2495 27.947C52.4796 29.4971 52.4796 31.468 52.4795 33.9131V34.1094C52.4796 36.5545 52.4796 38.5254 52.2495 40.0755C52.0106 41.6849 51.4996 43.0399 50.3115 44.1161C49.1233 45.1923 47.6273 45.6552 45.8505 45.8716C44.1392 46.08 41.9633 46.08 39.2637 46.0799H29.1774C26.4779 46.08 24.3019 46.08 22.5906 45.8716C20.8138 45.6552 19.3178 45.1923 18.1297 44.1161C17.4089 43.4632 16.9372 42.7077 16.6244 41.855C18.4091 42.0575 20.6171 42.0574 23.1683 42.0573H33.4278C36.0526 42.0574 38.3142 42.0575 40.1253 41.837C42.0662 41.6006 43.9267 41.0676 45.4358 39.7007C46.9448 38.3338 47.5333 36.6486 47.7942 34.8906C48.0377 33.2502 48.0376 31.2017 48.0375 28.8242V28.4711C48.0376 26.1598 48.0377 24.1594 47.814 22.5426C48.7558 22.8259 49.5903 23.2532 50.3115 23.9064Z"
          fill="#7211F8"/>
    <path d="M28.298 25.5187C26.3902 25.5187 24.8436 26.9196 24.8436 28.6476C24.8436 30.3757 26.3902 31.7765 28.298 31.7765C30.2058 31.7765 31.7524 30.3757 31.7524 28.6476C31.7524 26.9196 30.2058 25.5187 28.298 25.5187Z"
          fill="#7211F8"/>
    <path fill-rule="evenodd" clip-rule="evenodd"
          d="M13.254 19.491C11.5195 21.062 11.5195 23.5905 11.5195 28.6476C11.5195 33.7047 11.5195 36.2333 13.254 37.8043C14.9885 39.3753 17.78 39.3753 23.3632 39.3753H33.2329C38.816 39.3753 41.6076 39.3753 43.3421 37.8043C45.0765 36.2333 45.0765 33.7047 45.0765 28.6476C45.0765 23.5905 45.0765 21.062 43.3421 19.491C41.6076 17.9199 38.816 17.9199 33.2329 17.9199H23.3632C17.78 17.9199 14.9885 17.9199 13.254 19.491ZM21.8827 28.6476C21.8827 25.4384 24.755 22.8368 28.298 22.8368C31.8411 22.8368 34.7133 25.4384 34.7133 28.6476C34.7133 31.8569 31.8411 34.4585 28.298 34.4585C24.755 34.4585 21.8827 31.8569 21.8827 28.6476ZM39.1547 33.5645C38.3371 33.5645 37.6743 32.9641 37.6743 32.2235V25.0717C37.6743 24.3311 38.3371 23.7308 39.1547 23.7308C39.9723 23.7308 40.6352 24.3311 40.6352 25.0717V32.2235C40.6352 32.9641 39.9723 33.5645 39.1547 33.5645ZM15.9609 32.2235C15.9609 32.9641 16.6237 33.5645 17.4414 33.5645C18.259 33.5645 18.9218 32.9641 18.9218 32.2235L18.9218 25.0717C18.9218 24.3311 18.259 23.7308 17.4414 23.7308C16.6237 23.7308 15.9609 24.3311 15.9609 25.0717L15.9609 32.2235Z"
          fill="#7211F8"/>
</svg>
