<svg width="219" height="87" viewBox="0 0 219 87" fill="none" xmlns="http://www.w3.org/2000/svg">
    <path d="M38.4374 76.3665C26.253 75.465 13.9736 83.3434 9.3569 87.3953L14.7016 111.313L235.987 61.8642L223.339 5.26566C212.736 9.70837 203.239 11.2929 203.768 22.0014C204.2 30.7353 205.475 36.7467 198.176 40.2207C190.837 43.7133 184.035 34.3966 174.578 28.5243C167.012 23.8264 158.329 34.0799 155.039 37.4771C149.187 43.4173 131.493 37.2635 123.066 31.201C111.033 22.5446 98.1633 24.3827 91.246 38.3115C84.3287 52.2403 72.6924 44.6882 62.1983 53.6368C51.7042 62.5853 53.6679 77.4935 38.4374 76.3665Z"
          fill="url(#paint0_linear_0_823)"/>
    <path d="M9.36772 87.4437C13.9836 83.3881 26.2616 75.5035 38.447 76.4094C53.6787 77.5419 51.7109 62.615 62.2032 53.6584C72.6955 44.7018 84.3345 52.2663 91.2484 38.3224C98.1623 24.3785 111.032 22.5416 123.068 31.2119C131.497 37.284 149.195 43.4502 155.045 37.5043C158.334 34.1039 167.015 23.8403 174.583 28.5459C184.042 34.428 190.847 43.7579 198.185 40.263C205.484 36.7867 204.207 30.7677 203.773 22.0231C203.241 11.3014 212.738 9.71745 223.341 5.27221"
          stroke="#BEF811" stroke-width="3"/>
    <defs>
        <linearGradient id="paint0_linear_0_823" x1="111.553" y1="24.8713" x2="125.344" y2="86.5886" gradientUnits="userSpaceOnUse">
            <stop stop-color="#BEF811" stop-opacity="0.54"/>
            <stop offset="1" stop-color="#BEF811" stop-opacity="0"/>
        </linearGradient>
    </defs>
</svg>
