<svg width="19" height="19" viewBox="0 0 19 19" fill="none" xmlns="http://www.w3.org/2000/svg">
    <path fill-rule="evenodd" clip-rule="evenodd"
          d="M9.5494 9.60778e-07H9.4506C8.59706 -2.47823e-05 7.88528 -4.62458e-05 7.32025 0.0731749C6.72384 0.150461 6.18538 0.320473 5.75269 0.737529C5.31999 1.15459 5.1436 1.67358 5.06342 2.24843C5.00896 2.63884 4.99355 3.57243 4.9892 4.37289C3.06806 4.43337 1.91459 4.64954 1.11299 5.42216C0 6.49493 0 8.22152 0 11.6747C0 15.1279 0 16.8545 1.11299 17.9272C2.22599 19 4.01732 19 7.59998 19H11.4C14.9827 19 16.774 19 17.887 17.9272C19 16.8545 19 15.1279 19 11.6747C19 8.22152 19 6.49493 17.887 5.42216C17.0854 4.64954 15.9319 4.43337 14.0108 4.37289C14.0065 3.57243 13.991 2.63884 13.9366 2.24843C13.8564 1.67358 13.68 1.15459 13.2473 0.73753C12.8146 0.320473 12.2762 0.150461 11.6798 0.0731749C11.1147 -4.62458e-05 10.4029 -2.47823e-05 9.5494 9.60778e-07ZM12.5855 4.35112C12.5812 3.57588 12.5676 2.74156 12.5243 2.43145C12.4654 2.0089 12.3635 1.82806 12.2397 1.70874C12.1159 1.58941 11.9283 1.49123 11.4899 1.43442C11.031 1.37496 10.4158 1.3735 9.5 1.3735C8.58419 1.3735 7.96901 1.37496 7.51012 1.43442C7.07174 1.49123 6.88411 1.58941 6.76031 1.70874C6.63651 1.82806 6.53465 2.0089 6.47571 2.43145C6.43245 2.74156 6.41878 3.57588 6.41447 4.35112C6.78632 4.3494 7.18091 4.3494 7.6 4.3494H11.4C11.8191 4.3494 12.2137 4.3494 12.5855 4.35112ZM9.5 7.3253C9.8935 7.3253 10.2125 7.63277 10.2125 8.01205V8.02142C11.2468 8.27259 12.1125 9.05865 12.1125 10.1486C12.1125 10.5279 11.7935 10.8353 11.4 10.8353C11.0065 10.8353 10.6875 10.5279 10.6875 10.1486C10.6875 9.79695 10.283 9.30924 9.5 9.30924C8.71701 9.30924 8.3125 9.79695 8.3125 10.1486C8.3125 10.5002 8.71701 10.988 9.5 10.988C10.8157 10.988 12.1125 11.8668 12.1125 13.2008C12.1125 14.2907 11.2468 15.0768 10.2125 15.328V15.3374C10.2125 15.7166 9.8935 16.0241 9.5 16.0241C9.1065 16.0241 8.7875 15.7166 8.7875 15.3374V15.328C7.75315 15.0768 6.8875 14.2907 6.8875 13.2008C6.8875 12.8215 7.2065 12.5141 7.6 12.5141C7.9935 12.5141 8.3125 12.8215 8.3125 13.2008C8.3125 13.5524 8.71701 14.0402 9.5 14.0402C10.283 14.0402 10.6875 13.5524 10.6875 13.2008C10.6875 12.8492 10.283 12.3614 9.5 12.3614C8.18431 12.3614 6.8875 11.4826 6.8875 10.1486C6.8875 9.05865 7.75315 8.27259 8.7875 8.02142V8.01205C8.7875 7.63277 9.1065 7.3253 9.5 7.3253Z"
          fill="#7211F8"/>
</svg>