<svg width="15" height="15" viewBox="0 0 15 15" fill="none" xmlns="http://www.w3.org/2000/svg">
    <path d="M5.55556 0C4.91122 0 4.38889 0.503723 4.38889 1.1251V1.87516C4.38889 2.49654 4.91122 3.00026 5.55556 3.00026H9.44444C10.0888 3.00026 10.6111 2.49654 10.6111 1.87516V1.1251C10.6111 0.503723 10.0888 0 9.44444 0H5.55556Z"
          fill="white" fill-opacity="0.4"/>
    <path fill-rule="evenodd" clip-rule="evenodd"
          d="M3.22222 1.52759C2.24385 1.58053 1.62621 1.73088 1.18342 2.15789C0.5 2.81696 0.5 3.87771 0.5 5.99922V10.4996C0.5 12.6211 0.5 13.6819 1.18342 14.3409C1.86683 15 2.96678 15 5.16667 15H9.83333C12.0332 15 13.1332 15 13.8166 14.3409C14.5 13.6819 14.5 12.6211 14.5 10.4996V5.99922C14.5 3.87771 14.5 2.81696 13.8166 2.15789C13.3738 1.73088 12.7561 1.58053 11.7778 1.52759V1.87516C11.7778 3.11791 10.7331 4.12536 9.44444 4.12536H5.55556C4.26689 4.12536 3.22222 3.11791 3.22222 1.87516V1.52759ZM10.2314 7.91191C10.4669 7.69992 10.4796 7.34395 10.2598 7.11682C10.04 6.88969 9.67084 6.87741 9.43532 7.0894L6.5 9.73141L5.56469 8.88956C5.32917 8.67757 4.96004 8.68984 4.74022 8.91697C4.5204 9.1441 4.53313 9.50008 4.76865 9.71206L6.10198 10.9122C6.3261 11.1139 6.6739 11.1139 6.89802 10.9122L10.2314 7.91191Z"
          fill="white" fill-opacity="0.4"/>
</svg>
