<svg width="175" height="119" viewBox="0 0 175 119" fill="none" xmlns="http://www.w3.org/2000/svg">
    <mask id="path-1-inside-1_0_1" fill="white">
        <path d="M101.677 45.8429C102.388 52.9874 97.1728 59.3554 90.0284 60.0663L16.3921 67.3939C9.24765 68.1048 2.87962 62.8895 2.16868 55.7451L0.287276 36.8385C-0.423667 29.694 4.79169 23.326 11.9361 22.6151L85.5724 15.2875C92.7168 14.5765 99.0849 19.7919 99.7958 26.9363L101.677 45.8429Z"/>
    </mask>
    <path d="M101.677 45.8429C102.388 52.9874 97.1728 59.3554 90.0284 60.0663L16.3921 67.3939C9.24765 68.1048 2.87962 62.8895 2.16868 55.7451L0.287276 36.8385C-0.423667 29.694 4.79169 23.326 11.9361 22.6151L85.5724 15.2875C92.7168 14.5765 99.0849 19.7919 99.7958 26.9363L101.677 45.8429Z"
          fill="#364213"/>
    <path d="M90.0284 60.0663L89.9294 59.0712L16.293 66.3988L16.3921 67.3939L16.4911 68.389L90.1274 61.0614L90.0284 60.0663ZM2.16868 55.7451L3.16377 55.6461L1.28236 36.7394L0.287276 36.8385L-0.707809 36.9375L1.1736 55.8441L2.16868 55.7451ZM11.9361 22.6151L12.0351 23.6102L85.6714 16.2826L85.5724 15.2875L85.4734 14.2924L11.8371 21.62L11.9361 22.6151ZM99.7958 26.9363L98.8007 27.0353L100.682 45.942L101.677 45.8429L102.672 45.7439L100.791 26.8373L99.7958 26.9363ZM85.5724 15.2875L85.6714 16.2826C92.2663 15.6263 98.1445 20.4405 98.8007 27.0353L99.7958 26.9363L100.791 26.8373C100.025 19.1433 93.1674 13.5268 85.4734 14.2924L85.5724 15.2875ZM0.287276 36.8385L1.28236 36.7394C0.626107 30.1446 5.44028 24.2664 12.0351 23.6102L11.9361 22.6151L11.8371 21.62C4.1431 22.3856 -1.47344 29.2435 -0.707809 36.9375L0.287276 36.8385ZM16.3921 67.3939L16.293 66.3988C9.6982 67.0551 3.82002 62.2409 3.16377 55.6461L2.16868 55.7451L1.1736 55.8441C1.93923 63.5381 8.7971 69.1546 16.4911 68.389L16.3921 67.3939ZM90.0284 60.0663L90.1274 61.0614C97.8214 60.2958 103.438 53.4379 102.672 45.7439L101.677 45.8429L100.682 45.942C101.338 52.5368 96.5242 58.415 89.9294 59.0712L90.0284 60.0663Z"
          fill="#BEF811" mask="url(#path-1-inside-1_0_1)"/>
    <path d="M22.353 34.4377L23.2014 34.3532C23.2767 34.6961 23.6608 34.8875 24.1273 34.8411C24.5967 34.7944 24.895 34.538 24.8643 34.229C24.837 33.9549 24.6207 33.8234 24.1022 33.7601L23.5422 33.6952C22.7502 33.6062 22.3291 33.2506 22.2679 32.6355C22.1908 31.86 22.8102 31.2802 23.7489 31.1868C24.7285 31.0893 25.3938 31.5324 25.4841 32.2919L24.659 32.374C24.5945 32.0212 24.2611 31.8365 23.8209 31.8803C23.3865 31.9235 23.1156 32.1595 23.1466 32.4715C23.1724 32.7309 23.391 32.8564 23.886 32.919L24.4069 32.9761C25.2674 33.073 25.6707 33.398 25.7345 34.0393C25.8157 34.8556 25.2053 35.4375 24.1616 35.5413C23.15 35.642 22.4579 35.2251 22.353 34.4377ZM28.6645 31.7781L28.9839 34.9879L28.1617 35.0697L28.104 34.4895L28.0865 34.4913C27.9633 34.9098 27.6708 35.1656 27.1839 35.2141C26.4901 35.2831 25.9874 34.8768 25.9132 34.1305L25.7084 32.0723L26.5596 31.9876L26.7467 33.868C26.79 34.3023 27.0289 34.5141 27.4225 34.4749C27.8189 34.4355 28.0383 34.1251 27.9951 33.6907L27.8132 31.8628L28.6645 31.7781ZM30.7964 31.5277C31.6098 31.4468 32.1759 32.0175 32.2775 33.0379C32.379 34.0582 31.9397 34.732 31.135 34.8121C30.6715 34.8582 30.2917 34.6811 30.0806 34.3341L30.0631 34.3358L30.2212 35.9246L29.3699 36.0093L28.9461 31.7501L29.7857 31.6666L29.8402 32.2146L29.8577 32.2129C29.9908 31.8346 30.3446 31.5727 30.7964 31.5277ZM30.7721 34.1534C31.2123 34.1096 31.4638 33.7077 31.4058 33.1246C31.3484 32.5474 31.0223 32.2001 30.5821 32.2439C30.1477 32.2871 29.8971 32.6977 29.9543 33.272C30.0117 33.8492 30.3377 34.1966 30.7721 34.1534ZM34.1245 31.1965C34.9379 31.1156 35.504 31.6864 35.6056 32.7067C35.7071 33.7271 35.2677 34.4008 34.4631 34.4809C33.9996 34.527 33.6198 34.3499 33.4087 34.0029L33.3912 34.0046L33.5493 35.5935L32.698 35.6782L32.2742 31.4189L33.1138 31.3354L33.1683 31.8835L33.1858 31.8817C33.3189 31.5034 33.6727 31.2415 34.1245 31.1965ZM34.1002 33.8222C34.5404 33.7784 34.7919 33.3765 34.7339 32.7935C34.6764 32.2162 34.3504 31.8689 33.9102 31.9127C33.4758 31.9559 33.2252 32.3665 33.2824 32.9408C33.3398 33.5181 33.6658 33.8654 34.1002 33.8222ZM37.3907 34.2072C36.4169 34.3041 35.7456 33.7409 35.6423 32.7031C35.5402 31.6769 36.0953 30.9828 37.0602 30.8867C38.0281 30.7904 38.7059 31.3589 38.8083 32.388C38.9119 33.4288 38.3644 34.1104 37.3907 34.2072ZM37.3254 33.5513C37.7743 33.5066 38.006 33.1126 37.9425 32.4742C37.8795 31.8415 37.5712 31.4954 37.1252 31.5398C36.6763 31.5844 36.4426 31.9875 36.5052 32.6172C36.5688 33.2556 36.8764 33.596 37.3254 33.5513ZM39.1273 33.9785L38.8079 30.7688L39.63 30.6869L39.6872 31.2613L39.7047 31.2595C39.7731 30.8523 40.0286 30.609 40.4076 30.5713C40.5067 30.5614 40.5953 30.5644 40.6585 30.5787L40.7334 31.3309C40.6576 31.309 40.539 31.3002 40.4136 31.3126C39.9821 31.3556 39.7552 31.649 39.7999 32.098L39.9786 33.8938L39.1273 33.9785ZM40.8813 29.8411L41.7326 29.7564L41.8037 30.4706L42.3984 30.4115L42.4625 31.0557L41.8678 31.1149L42.023 32.6746C42.0476 32.9224 42.182 33.0297 42.4414 33.0039C42.5172 32.9964 42.6012 32.9821 42.6528 32.9682L42.7155 33.5979C42.6297 33.6241 42.4799 33.6567 42.3079 33.6738C41.5645 33.7477 41.248 33.526 41.1856 32.8993L41.0165 31.1996L40.5821 31.2429L40.518 30.5986L40.9524 30.5554L40.8813 29.8411Z"
          fill="#BEF811"/>
    <rect x="4.4707" y="28.3828" width="44" height="14" rx="7" transform="rotate(-5.68281 4.4707 28.3828)" fill="#BEF811" fill-opacity="0.45"/>
    <path opacity="0.9"
          d="M16.4794 47.1904C16.5342 47.7414 16.403 48.1681 16.0857 48.4706C15.7684 48.773 15.2992 48.9551 14.6783 49.0169L13.3883 49.1453L13.6315 51.5897L13.0324 51.6494L12.4645 45.9427L14.3449 45.7556C14.9717 45.6932 15.4707 45.7819 15.842 46.0217C16.213 46.2586 16.4255 46.6482 16.4794 47.1904ZM15.8803 47.25C15.8412 46.8565 15.689 46.5846 15.4238 46.4343C15.1583 46.2811 14.8185 46.2251 14.4046 46.2663L13.1146 46.3947L13.3374 48.6336L14.6274 48.5053C15.0413 48.4641 15.3635 48.3437 15.5939 48.1441C15.824 47.9416 15.9195 47.6436 15.8803 47.25ZM17.8556 49.3234C17.9423 49.7505 18.1339 50.0789 18.4306 50.3084C18.7272 50.538 19.0928 50.6312 19.5271 50.5879C19.8332 50.5575 20.0996 50.4677 20.3262 50.3185C20.5527 50.1694 20.7165 49.9956 20.8175 49.7971L21.266 50.0439C21.0903 50.3499 20.8687 50.5928 20.601 50.7725C20.333 50.9494 19.992 51.0584 19.578 51.0996C19.2632 51.1309 18.9694 51.1071 18.6965 51.0283C18.4237 50.9495 18.1818 50.8263 17.9708 50.6589C17.7625 50.4883 17.5929 50.2784 17.4622 50.0294C17.3314 49.7804 17.2502 49.497 17.2186 49.1792C17.1878 48.8702 17.2062 48.5813 17.2737 48.3126C17.3438 48.0406 17.4583 47.8011 17.6173 47.5939C17.7789 47.3835 17.9827 47.213 18.2288 47.0826C18.4746 46.9492 18.7564 46.8667 19.0742 46.835C19.4211 46.8005 19.7301 46.8287 20.0012 46.9195C20.2722 47.0102 20.5041 47.1506 20.6967 47.3404C20.8919 47.5271 21.0445 47.7592 21.1546 48.0368C21.2676 48.3141 21.3413 48.6262 21.3758 48.9731L17.8556 49.3234ZM20.6908 48.5246C20.5794 48.0852 20.3845 47.769 20.1062 47.5758C19.8279 47.3827 19.5007 47.3049 19.1247 47.3423C18.9323 47.3615 18.7576 47.4112 18.6007 47.4916C18.4436 47.5691 18.3081 47.6723 18.1944 47.8014C18.0806 47.9305 17.9897 48.0823 17.9217 48.2569C17.8534 48.4286 17.8173 48.6133 17.8134 48.8109L20.6908 48.5246ZM23.3892 46.5028L23.9926 46.4428L24.3473 50.0067L25.4843 49.8936L25.1296 46.3296L25.7287 46.27L26.1343 50.3456L22.0587 50.7511L21.6531 46.6756L22.2522 46.616L22.6069 50.1799L23.7438 50.0668L23.3892 46.5028ZM30.4758 45.7976L28.7801 51.1245C28.6948 51.4215 28.553 51.6241 28.3548 51.7321C28.1568 51.8431 27.9324 51.9111 27.6817 51.936C27.4018 51.9639 27.1169 51.9407 26.8269 51.8665L26.8936 51.3388C27.0364 51.3834 27.1746 51.4109 27.3081 51.4212C27.4419 51.4343 27.5496 51.4369 27.6312 51.4288C27.8295 51.409 27.9602 51.3474 28.0235 51.244C28.0898 51.1402 28.144 51.02 28.1864 50.8833L28.3743 50.2419L26.1378 46.2293L26.8462 46.1588L28.6702 49.5765L29.7586 45.869L30.4758 45.7976ZM39.3752 44.912L39.7808 48.9876L39.1773 49.0477L38.8227 45.4837L36.9817 45.6669L37.2462 48.3257C37.2622 48.486 37.2487 48.6316 37.2058 48.7625C37.1658 48.8931 37.1048 49.0051 37.0229 49.0987C36.9409 49.1922 36.8423 49.2668 36.7271 49.3224C36.6123 49.3809 36.4892 49.4167 36.358 49.4298C36.1132 49.4542 35.9302 49.4356 35.8093 49.374L35.8799 48.8856C35.9234 48.9078 35.9704 48.9222 36.0211 48.9289C36.0748 48.9354 36.1439 48.9344 36.2284 48.926C36.5374 48.8952 36.6756 48.7151 36.6428 48.3857L36.3273 45.2153L39.3752 44.912ZM40.3485 44.8152L40.9476 44.7556L41.1251 46.5397L41.9516 46.4575C41.8793 45.1987 42.2222 44.5316 42.9801 44.4562C43.7935 44.3752 44.2711 45.0475 44.413 46.4731C44.5545 47.8958 44.2186 48.6476 43.4053 48.7285C42.6356 48.8051 42.1679 48.2172 42.0021 46.9648L41.1756 47.047L41.3531 48.8312L40.754 48.8908L40.3485 44.8152ZM43.357 48.2431C43.771 48.2019 43.9233 47.6318 43.8139 46.5327C43.7051 45.4395 43.4437 44.9135 43.0297 44.9547C42.6187 44.9956 42.4676 45.5626 42.5763 46.6559C42.6857 47.7549 42.9459 48.284 43.357 48.2431ZM45.6227 46.4455C45.6689 46.909 45.8312 47.2682 46.1098 47.5231C46.3881 47.7751 46.7473 47.8792 47.1875 47.8354C47.3916 47.8151 47.5761 47.7614 47.7412 47.6744C47.9088 47.5841 48.0487 47.4656 48.1607 47.3191C48.2724 47.1696 48.3525 46.9982 48.401 46.8049C48.4521 46.6085 48.4662 46.3951 48.4433 46.1648C48.3969 45.6984 48.2374 45.3388 47.965 45.0863C47.6923 44.8308 47.3314 44.7253 46.8825 44.77C46.3985 44.8182 46.0553 44.9936 45.8529 45.2964C45.653 45.596 45.5763 45.979 45.6227 46.4455ZM44.8767 45.6055C44.8332 45.1683 44.8387 44.7644 44.8931 44.3939C44.9504 44.0231 45.0492 43.6997 45.1896 43.4237C45.3328 43.1474 45.5124 42.9249 45.7282 42.7563C45.944 42.5876 46.1918 42.4893 46.4717 42.4615C46.6029 42.4484 46.715 42.4505 46.8079 42.4677C46.9009 42.485 46.9843 42.5091 47.058 42.54C47.1344 42.5677 47.2059 42.5915 47.2727 42.6114C47.3423 42.631 47.4224 42.6362 47.5127 42.6273C47.6323 42.6154 47.7308 42.5849 47.8084 42.536C47.8889 42.4868 47.9841 42.4081 48.094 42.3L48.4402 42.6277C48.3267 42.7597 48.1895 42.8749 48.0286 42.9734C47.8673 43.0689 47.7123 43.1241 47.5637 43.1389C47.45 43.1502 47.3495 43.1469 47.2624 43.1291C47.1752 43.1113 47.0935 43.0885 47.0171 43.0608C46.9434 43.0298 46.8673 43.005 46.7889 42.9863C46.7134 42.9674 46.6246 42.9629 46.5226 42.9731C46.3448 42.9908 46.1821 43.057 46.0345 43.1718C45.8896 43.2834 45.7681 43.4383 45.67 43.6365C45.5717 43.8317 45.502 44.0639 45.4611 44.3329C45.4231 44.6017 45.4205 44.9008 45.4532 45.2302C45.5131 45.0918 45.5904 44.9663 45.6852 44.8538C45.78 44.7414 45.888 44.6437 46.0093 44.561C46.1304 44.4754 46.262 44.4078 46.4043 44.3583C46.5466 44.3088 46.6891 44.277 46.832 44.2628C47.1177 44.2343 47.3873 44.2517 47.6409 44.3147C47.8942 44.3749 48.1183 44.4822 48.3133 44.6365C48.5109 44.7876 48.6733 44.9849 48.8006 45.2283C48.9278 45.4718 49.0084 45.7641 49.0424 46.1052C49.0708 46.3909 49.0465 46.6642 48.9694 46.925C48.8923 47.1859 48.7725 47.4172 48.6101 47.6188C48.4502 47.8173 48.2531 47.9811 48.0186 48.1105C47.7842 48.2398 47.5241 48.3186 47.2384 48.3471C46.5533 48.4152 46.0135 48.2275 45.619 47.784C45.2245 47.3404 44.9771 46.6142 44.8767 45.6055ZM53.7593 45.5519C53.791 45.8697 53.7687 46.1633 53.6924 46.433C53.6191 46.7023 53.497 46.9397 53.3261 47.1451C53.1578 47.3473 52.9477 47.514 52.6957 47.645C52.4438 47.7761 52.156 47.8577 51.8324 47.8899C51.5147 47.9215 51.2194 47.8979 50.9466 47.8191C50.6738 47.7403 50.4335 47.6184 50.2257 47.4536C50.0205 47.2856 49.854 47.0769 49.7262 46.8276C49.6012 46.578 49.523 46.2944 49.4913 45.9766C49.4606 45.6676 49.4816 45.3755 49.5543 45.1003C49.6296 44.822 49.7513 44.5802 49.9193 44.3751C50.09 44.1667 50.3013 43.997 50.5532 43.866C50.8048 43.732 51.0895 43.6492 51.4073 43.6176C51.7309 43.5854 52.0293 43.6101 52.3024 43.6919C52.5752 43.7707 52.8143 43.8956 53.0197 44.0666C53.2278 44.2343 53.3947 44.4473 53.5206 44.7056C53.649 44.9608 53.7286 45.2429 53.7593 45.5519ZM53.1602 45.6115C53.137 45.3783 53.0807 45.1675 52.9913 44.9791C52.9045 44.7876 52.7867 44.6241 52.6378 44.4888C52.4889 44.3534 52.314 44.2531 52.1132 44.1877C51.9153 44.122 51.6968 44.101 51.4578 44.1248C51.2187 44.1486 51.0072 44.2124 50.8232 44.316C50.6421 44.4194 50.4934 44.552 50.377 44.7137C50.2606 44.8755 50.1773 45.0589 50.127 45.2642C50.0794 45.4661 50.0672 45.6838 50.0904 45.917C50.1136 46.1502 50.1686 46.3626 50.2554 46.5542C50.3448 46.7425 50.4622 46.9016 50.6076 47.0314C50.753 47.1612 50.9245 47.2575 51.1222 47.3202C51.3227 47.3827 51.5425 47.4021 51.7815 47.3783C52.0206 47.3545 52.2308 47.2924 52.4122 47.1919C52.5965 47.0911 52.7485 46.9626 52.8684 46.8064C52.9883 46.6502 53.0721 46.4711 53.1197 46.2691C53.1699 46.0639 53.1834 45.8447 53.1602 45.6115ZM54.2093 43.4359L54.8084 43.3763L55.1356 46.6647L57.0123 43.157L57.8563 43.073L58.2618 47.1486L57.6584 47.2086L57.3164 43.7715L55.3582 47.4375L54.6148 47.5115L54.2093 43.4359ZM57.1625 41.9143C56.855 42.2864 56.4564 42.4969 55.9667 42.5456C55.4769 42.5943 55.0446 42.4666 54.6699 42.1623L54.9779 41.7961C55.2792 42.0428 55.5946 42.1498 55.924 42.117C56.2534 42.0843 56.5415 41.9172 56.7883 41.6159L57.1625 41.9143ZM17.5614 58.0635C17.6006 58.457 17.484 58.7645 17.2116 58.9859C16.9418 59.2042 16.5358 59.3402 15.9936 59.3942L13.8246 59.61L13.419 55.5345L15.4524 55.3321C15.6507 55.3124 15.8476 55.309 16.0432 55.3219C16.2414 55.3316 16.4203 55.3683 16.5797 55.4319C16.7388 55.4926 16.8733 55.5867 16.9832 55.7142C17.093 55.8416 17.1589 56.0161 17.181 56.2377C17.2019 56.4476 17.1684 56.629 17.0806 56.782C16.9928 56.935 16.8039 57.0642 16.5141 57.1696C16.8869 57.2179 17.1487 57.3184 17.2993 57.4713C17.4497 57.6212 17.537 57.8186 17.5614 58.0635ZM16.5854 56.3323C16.5729 56.2069 16.5294 56.1097 16.4548 56.0405C16.3799 55.9685 16.2908 55.917 16.1877 55.8861C16.0871 55.8519 15.9763 55.8335 15.8554 55.8308C15.7344 55.8281 15.6171 55.8324 15.5034 55.8437L14.069 55.9865L14.1857 57.1584L15.62 57.0157C15.7395 57.0038 15.8598 56.9845 15.9808 56.9577C16.1017 56.931 16.2096 56.8908 16.3044 56.8372C16.3989 56.7807 16.4716 56.7131 16.5227 56.6344C16.5764 56.5525 16.5973 56.4518 16.5854 56.3323ZM16.9597 58.0968C16.9359 57.8578 16.8208 57.6926 16.6145 57.6012C16.4081 57.5099 16.1359 57.4811 15.7977 57.5147L14.2366 57.6701L14.3728 59.0388L15.9339 58.8834C16.2721 58.8498 16.5332 58.7664 16.7172 58.6333C16.9012 58.5001 16.982 58.3213 16.9597 58.0968ZM22.2096 56.7309C22.2413 57.0487 22.219 57.3424 22.1427 57.612C22.0694 57.8813 21.9473 58.1187 21.7764 58.3241C21.6081 58.5264 21.398 58.693 21.146 58.8241C20.8941 58.9551 20.6064 59.0368 20.2828 59.069C19.965 59.1006 19.6697 59.077 19.3969 58.9981C19.1241 58.9193 18.8838 58.7975 18.676 58.6327C18.4708 58.4646 18.3043 58.256 18.1765 58.0067C18.0516 57.7571 17.9733 57.4734 17.9417 57.1556C17.9109 56.8466 17.9319 56.5545 18.0046 56.2794C18.08 56.001 18.2016 55.7593 18.3696 55.5541C18.5403 55.3458 18.7516 55.1761 19.0035 55.045C19.2551 54.911 19.5398 54.8282 19.8576 54.7966C20.1812 54.7644 20.4796 54.7892 20.7527 54.8709C21.0255 54.9498 21.2646 55.0747 21.4701 55.2456C21.6781 55.4133 21.845 55.6263 21.9709 55.8847C22.0993 56.1398 22.1789 56.4219 22.2096 56.7309ZM21.6105 56.7905C21.5873 56.5573 21.531 56.3465 21.4416 56.1582C21.3548 55.9666 21.237 55.8031 21.0881 55.6678C20.9392 55.5325 20.7644 55.4321 20.5635 55.3667C20.3656 55.301 20.1471 55.2801 19.9081 55.3039C19.669 55.3276 19.4575 55.3914 19.2735 55.4951C19.0924 55.5985 18.9437 55.731 18.8273 55.8928C18.7109 56.0545 18.6276 56.238 18.5774 56.4432C18.5297 56.6452 18.5175 56.8628 18.5407 57.096C18.564 57.3292 18.6189 57.5416 18.7057 57.7332C18.7951 57.9216 18.9125 58.0806 19.0579 58.2104C19.2033 58.3402 19.3748 58.4365 19.5725 58.4993C19.773 58.5618 19.9928 58.5811 20.2318 58.5573C20.4709 58.5335 20.6811 58.4714 20.8625 58.3709C21.0468 58.2701 21.1989 58.1417 21.3187 57.9855C21.4386 57.8293 21.5224 57.6502 21.57 57.4482C21.6202 57.243 21.6338 57.0238 21.6105 56.7905ZM26.7122 58.3276L26.1087 58.3876L25.754 54.8237L23.3096 55.067L23.6642 58.6309L23.0651 58.6905L22.6596 54.6149L26.3066 54.252L26.7122 58.3276ZM31.3443 55.8131C31.376 56.1309 31.3551 56.4244 31.2818 56.6937C31.2085 56.963 31.0909 57.2015 30.929 57.4089C30.7698 57.6132 30.5685 57.7804 30.3254 57.9106C30.0822 58.0408 29.8032 58.1216 29.4883 58.1529C29.2726 58.1744 29.0588 58.1559 28.8469 58.0975C28.6379 58.0388 28.4382 57.9409 28.2479 57.8038L28.4468 59.8022L27.8477 59.8618L27.2798 54.1552L27.8789 54.0956L27.9163 54.4716C28.2553 54.1199 28.6375 53.9229 29.0632 53.8806C29.378 53.8492 29.6675 53.8734 29.9315 53.9531C30.1953 54.0299 30.4257 54.1557 30.6227 54.3304C30.8223 54.5019 30.9849 54.7154 31.1104 54.9708C31.2356 55.2233 31.3136 55.5041 31.3443 55.8131ZM30.7453 55.8727C30.7226 55.6453 30.6694 55.4357 30.5855 55.2438C30.5043 55.0488 30.3937 54.8846 30.2539 54.7513C30.114 54.618 29.948 54.5182 29.756 54.452C29.5668 54.3854 29.3527 54.364 29.1136 54.3878C28.8862 54.4104 28.6776 54.4739 28.4878 54.5782C28.3009 54.6821 28.1294 54.8376 27.9734 55.0445L28.1909 57.2309C28.3847 57.403 28.5833 57.5202 28.7868 57.5824C28.9931 57.6443 29.21 57.6639 29.4374 57.6413C29.6764 57.6175 29.8821 57.5543 30.0545 57.4518C30.2297 57.349 30.3728 57.2184 30.4836 57.0602C30.5945 56.902 30.6708 56.7221 30.7126 56.5207C30.757 56.3161 30.7679 56.1001 30.7453 55.8727ZM36.0704 55.3516C36.1021 55.6694 36.0798 55.9631 36.0035 56.2327C35.9302 56.502 35.8081 56.7394 35.6372 56.9448C35.4689 57.1471 35.2588 57.3137 35.0068 57.4448C34.7549 57.5758 34.4672 57.6575 34.1436 57.6897C33.8258 57.7213 33.5305 57.6977 33.2577 57.6188C32.9849 57.54 32.7446 57.4182 32.5368 57.2534C32.3316 57.0853 32.1651 56.8767 32.0373 56.6274C31.9124 56.3778 31.8341 56.0941 31.8025 55.7763C31.7717 55.4673 31.7927 55.1752 31.8654 54.9001C31.9408 54.6217 32.0624 54.38 32.2304 54.1748C32.4011 53.9665 32.6124 53.7968 32.8643 53.6657C33.1159 53.5317 33.4006 53.4489 33.7184 53.4173C34.042 53.3851 34.3404 53.4099 34.6135 53.4916C34.8863 53.5705 35.1254 53.6954 35.3309 53.8663C35.5389 54.034 35.7058 54.247 35.8317 54.5054C35.9601 54.7605 36.0397 55.0426 36.0704 55.3516ZM35.4713 55.4112C35.4481 55.178 35.3918 54.9672 35.3024 54.7789C35.2156 54.5873 35.0978 54.4238 34.9489 54.2885C34.8 54.1532 34.6252 54.0528 34.4243 53.9874C34.2264 53.9217 34.0079 53.9008 33.7689 53.9246C33.5298 53.9484 33.3183 54.0121 33.1343 54.1158C32.9532 54.2192 32.8045 54.3518 32.6881 54.5135C32.5717 54.6752 32.4884 54.8587 32.4382 55.0639C32.3905 55.2659 32.3783 55.4835 32.4015 55.7167C32.4248 55.9499 32.4797 56.1623 32.5665 56.3539C32.6559 56.5423 32.7733 56.7013 32.9187 56.8311C33.0641 56.9609 33.2356 57.0572 33.4333 57.12C33.6338 57.1825 33.8536 57.2018 34.0926 57.178C34.3317 57.1542 34.5419 57.0921 34.7233 56.9916C34.9076 56.8908 35.0597 56.7624 35.1795 56.6062C35.2994 56.45 35.3832 56.2709 35.4308 56.0689C35.481 55.8637 35.4946 55.6445 35.4713 55.4112ZM40.5576 56.1726C40.4123 56.4579 40.1973 56.6942 39.9127 56.8815C39.6307 57.0656 39.2842 57.1781 38.8731 57.219C38.5554 57.2506 38.2586 57.2272 37.9829 57.1486C37.7072 57.0701 37.4653 56.9469 37.2572 56.7792C37.0518 56.6083 36.8837 56.3983 36.7529 56.1493C36.6221 55.9003 36.5409 55.6169 36.5093 55.2991C36.4786 54.9901 36.4982 54.6996 36.5683 54.4277C36.6381 54.1528 36.7527 53.9132 36.9119 53.709C37.0709 53.5018 37.2734 53.3329 37.5195 53.2025C37.7683 53.0688 38.0501 52.9863 38.3649 52.9549C38.4903 52.9425 38.62 52.9443 38.7541 52.9604C38.8882 52.9765 39.0166 53.0093 39.1393 53.0589C39.2617 53.1056 39.3737 53.1666 39.4754 53.2419C39.5769 53.3142 39.6565 53.4049 39.7145 53.514L39.6558 52.9236L40.1936 52.8701L40.3559 54.5012L39.8181 54.5547C39.8001 54.374 39.7502 54.2126 39.6683 54.0706C39.5894 53.9283 39.4877 53.8089 39.3633 53.7123C39.2388 53.6158 39.095 53.5462 38.9318 53.5035C38.7683 53.458 38.5961 53.4442 38.4154 53.4622C38.1705 53.4866 37.9604 53.5502 37.7852 53.653C37.6129 53.7555 37.4727 53.8857 37.3648 54.0437C37.2568 54.2016 37.1807 54.3829 37.1363 54.5875C37.0945 54.789 37.0852 55.0063 37.1084 55.2395C37.1316 55.4727 37.1881 55.685 37.2778 55.8763C37.3701 56.0643 37.4904 56.2231 37.6387 56.3526C37.7899 56.4818 37.9645 56.5793 38.1624 56.645C38.3632 56.7104 38.5832 56.7312 38.8222 56.7074C39.1254 56.6772 39.3893 56.5921 39.6138 56.452C39.8384 56.3119 40.0034 56.1364 40.1091 55.9257L40.5576 56.1726ZM49.5193 53.0727C49.539 53.2709 49.4876 53.4644 49.3651 53.6533C49.2452 53.8389 49.0447 53.9693 48.7637 54.0444C49.0371 54.0701 49.2642 54.1624 49.4448 54.321C49.6281 54.4765 49.7302 54.6592 49.7511 54.8691C49.7705 55.0644 49.7356 55.246 49.6463 55.4139C49.5567 55.5788 49.4255 55.7244 49.2526 55.8505C49.0825 55.9764 48.8764 56.0793 48.6341 56.1594C48.3921 56.2423 48.1253 56.2983 47.8338 56.3273C47.3674 56.3738 46.9754 56.3406 46.658 56.2279C46.3433 56.1121 46.0795 55.9175 45.8669 55.6442L46.2579 55.3139C46.4158 55.5101 46.6198 55.6517 46.8699 55.7387C47.12 55.8257 47.4243 55.8514 47.7829 55.8157C48.2114 55.7731 48.5518 55.6729 48.8041 55.5154C49.0592 55.3575 49.1752 55.1619 49.152 54.9287C49.1442 54.85 49.1101 54.7739 49.0498 54.7004C48.9921 54.6237 48.9106 54.5597 48.8054 54.5083C48.6999 54.454 48.5724 54.4152 48.4229 54.3918C48.2731 54.3655 48.099 54.3622 47.9008 54.3819L47.2186 54.4498L47.1681 53.9426L47.8503 53.8747C48.2322 53.8367 48.5083 53.7415 48.6786 53.5891C48.8516 53.4335 48.9307 53.2814 48.9159 53.1327C48.8944 52.917 48.7577 52.7569 48.5059 52.6524C48.257 52.5476 47.9256 52.5158 47.5116 52.557C47.1676 52.5913 46.8895 52.6808 46.6772 52.8255C46.4649 52.9703 46.3091 53.1507 46.2099 53.3667L45.7334 53.1049C45.8822 52.7957 46.0951 52.5537 46.3722 52.3789C46.6521 52.2039 47.0151 52.0941 47.4611 52.0498C47.7439 52.0216 48.0048 52.0251 48.2439 52.0602C48.4855 52.0921 48.6976 52.152 48.88 52.2398C49.0651 52.3244 49.2134 52.4392 49.325 52.5841C49.4363 52.7262 49.501 52.889 49.5193 53.0727ZM50.454 54.8521C50.4285 54.5956 50.4713 54.3749 50.5825 54.1902C50.6934 54.0025 50.8474 53.8488 51.0445 53.7291C51.2442 53.6061 51.476 53.5095 51.7399 53.4391C52.0064 53.3654 52.2795 53.3147 52.5594 53.2868C52.6673 53.2761 52.7636 53.268 52.8484 53.2625C52.9362 53.2567 53.0183 53.253 53.0946 53.2512C53.1739 53.2492 53.2534 53.2487 53.333 53.2496C53.4125 53.2505 53.4995 53.2522 53.594 53.2546L53.5648 52.9616C53.5451 52.7633 53.4851 52.6044 53.3849 52.4849C53.2876 52.365 53.1727 52.2749 53.04 52.2145C52.9071 52.1511 52.7707 52.1117 52.6308 52.0962C52.4906 52.0778 52.3724 52.0733 52.2762 52.0829C51.973 52.1131 51.6972 52.1817 51.4488 52.2889C51.2004 52.396 50.9722 52.5292 50.7642 52.6882L50.4483 52.2648C50.6784 52.0917 50.9404 51.9435 51.2343 51.82C51.5308 51.6934 51.8613 51.6119 52.2257 51.5756C52.4473 51.5536 52.6674 51.5611 52.886 51.5983C53.1072 51.6322 53.3083 51.7005 53.4893 51.8032C53.6729 51.9027 53.8253 52.0436 53.9465 52.2258C54.0677 52.4081 54.1416 52.6333 54.1683 52.9015L54.4338 55.569L53.8303 55.6291L53.7624 54.9469C53.6705 55.0885 53.5624 55.2156 53.4382 55.328C53.3169 55.4402 53.1865 55.5356 53.0471 55.6142C52.9075 55.69 52.7663 55.7511 52.6238 55.7977C52.4815 55.8472 52.3448 55.8785 52.2136 55.8915C51.6742 55.9452 51.2558 55.8823 50.9582 55.7029C50.6607 55.5234 50.4926 55.2399 50.454 54.8521ZM52.1627 55.3799C52.4134 55.3549 52.6342 55.2961 52.8252 55.2035C53.0188 55.1077 53.1801 54.9975 53.309 54.8728C53.4379 54.7481 53.534 54.6192 53.5973 54.4863C53.6636 54.3532 53.6916 54.2355 53.6815 54.1335L53.6432 53.7487C53.4449 53.739 53.2553 53.7417 53.0743 53.7567C52.8962 53.7715 52.7415 53.7854 52.6103 53.7985C52.3946 53.8199 52.1876 53.8553 51.9893 53.9044C51.794 53.9533 51.6253 54.0187 51.4833 54.1005C51.341 54.1795 51.2299 54.2759 51.15 54.3898C51.07 54.5038 51.0378 54.638 51.0531 54.7925C51.0703 54.9645 51.1692 55.1151 51.3498 55.2444C51.5331 55.3704 51.8041 55.4156 52.1627 55.3799ZM63.6743 54.6495L63.0708 54.7095L62.7492 51.4779L61.958 53.6897L61.5295 53.7324L60.3048 51.7212L60.6263 54.9528L60.0273 55.0124L59.6217 50.9368L60.4001 50.8594L61.6611 52.8802L62.4903 50.6514L63.2687 50.5739L63.6743 54.6495ZM64.242 50.4771L64.8411 50.4174L65.1683 53.7059L67.045 50.1981L67.889 50.1141L68.2946 54.1897L67.6911 54.2498L67.3491 50.8126L65.3909 54.4787L64.6475 54.5526L64.242 50.4771ZM72.9148 53.7299L72.3114 53.79L72.1295 51.9621L69.685 52.2054L69.8669 54.0332L69.2678 54.0929L68.8622 50.0173L69.4613 49.9577L69.6341 51.6937L72.0785 51.4505L71.9058 49.7144L72.5093 49.6544L72.9148 53.7299ZM77.4706 49.1607L75.7749 54.4876C75.6896 54.7846 75.5479 54.9871 75.3496 55.0952C75.1516 55.2061 74.9272 55.2741 74.6765 55.2991C74.3967 55.3269 74.1117 55.3037 73.8217 55.2295L73.8884 54.7018C74.0312 54.7465 74.1694 54.7739 74.3029 54.7842C74.4367 54.7974 74.5444 54.7999 74.6261 54.7918C74.8243 54.7721 74.9551 54.7105 75.0184 54.607C75.0846 54.5033 75.1389 54.383 75.1812 54.2463L75.3691 53.605L73.1327 49.5923L73.8411 49.5218L75.665 52.9396L76.7535 49.232L77.4706 49.1607ZM82.1555 50.6376L81.6439 50.6885L81.5033 49.2761L80.2789 49.3979L80.5827 52.4502L81.501 52.3588L81.5519 52.8705L79.1074 53.1137L79.0565 52.6021L79.9792 52.5103L79.6755 49.458L78.451 49.5798L78.5916 50.9923L78.08 51.0432L77.8885 49.1191L81.9641 48.7135L82.1555 50.6376ZM86.7111 48.2411L85.0154 53.568C84.9302 53.8651 84.7884 54.0676 84.5901 54.1756C84.3921 54.2866 84.1678 54.3546 83.9171 54.3795C83.6372 54.4074 83.3522 54.3842 83.0622 54.31L83.1289 53.7823C83.2718 53.8269 83.4099 53.8544 83.5434 53.8647C83.6772 53.8779 83.785 53.8804 83.8666 53.8723C84.0648 53.8525 84.1956 53.7909 84.2589 53.6875C84.3251 53.5837 84.3794 53.4635 84.4217 53.3268L84.6096 52.6854L82.3732 48.6728L83.0816 48.6023L84.9056 52.02L85.994 48.3125L86.7111 48.2411Z"
          fill="#BEF811"/>
    <g filter="url(#filter0_dddd_0_1)">
        <path d="M111.607 44.3679C108.916 44.6352 106.294 45.2301 103.791 46.1245C97.2027 48.4784 91.4322 52.9042 87.355 58.8737L84.0589 63.6996C81.5411 67.3861 80.4028 71.8855 80.8488 76.3767C81.4344 82.2738 84.6881 87.5624 89.6359 90.6456L101.314 97.9227L102.673 98.77L102.037 97.2993L97.0601 85.8052L121.934 83.335L113.998 85.4529L113.695 85.534L113.635 85.8422L108.524 112.471L108.398 113.129L109.065 113.063C116.882 112.287 124.191 114.009 129.682 117.403C135.001 120.691 138.593 125.53 139.344 131.184L139.408 131.733L140.403 131.634C139.234 119.87 150.682 108.93 166.37 107.372L166.945 107.315L166.807 106.754L161.017 83.2083L160.798 82.3174L160.167 82.9846C159.472 83.721 158.729 84.3553 157.958 84.8968C152.996 87.5028 149.439 87.3577 148.383 87.0273L148.029 86.9163L147.821 87.2225C144.625 91.9132 139.974 95.6921 135.387 98.5222C130.802 101.351 126.312 103.213 123.47 104.085L123.163 104.18L123.121 104.499C122.832 106.702 121.667 107.861 120.321 108.501C118.942 109.158 117.359 109.273 116.279 109.305L115.881 109.315L115.831 109.316L115.828 109.316C114.624 109.342 113.715 108.515 113.346 107.997L113.295 107.921C112.286 105.889 112.399 104.455 112.868 103.485C113.349 102.489 114.251 101.882 114.981 101.616L115.126 101.567C119.868 100.04 121.935 101.381 122.325 101.948L122.539 102.259L122.896 102.139L123.454 101.95L123.457 101.948C133.499 98.4582 140.872 91.0192 144.455 86.2241L144.796 85.7673L144.298 85.4889C143.519 85.0522 142.768 84.5252 142.089 83.8928C139.612 81.4378 136.714 77.1103 135.714 70.9555C134.471 63.2945 137.926 58.035 142.043 54.9568L142.043 54.9559C142.619 54.5511 143.48 54.0729 144.558 53.6433C146.774 52.7599 149.865 52.1036 153.239 52.6879C154.205 52.8553 155.196 53.1246 156.197 53.5198L156.541 53.6554L156.772 53.3656L156.91 53.1918L167.687 39.6514L168.425 38.7253L111.607 44.3679ZM125.189 62.3461L115.711 63.2873C112.428 63.6135 109.333 64.9883 106.861 67.2173L102.519 71.1324L104.772 64.1087C105.971 60.3709 109.196 57.7302 112.993 57.353L126.297 56.0319L125.189 62.3461Z"
              fill="#364213" stroke="#BEF811"/>
        <path d="M105.897 45.7974C107.027 43.744 108.274 39.8869 114.306 36.4507C116.175 35.3692 121.213 33.4652 126.414 34.5016C131.616 35.538 134.805 37.8992 135.749 38.9503C136.684 39.9027 139.125 42.7961 141.415 46.7498C143.705 50.7036 144.248 54.3828 144.233 55.7281C141.494 57.4935 136.32 62.9052 137.541 70.4293C138.763 77.9535 143.07 82.3241 145.071 83.5688C142.439 87.9118 134.191 97.581 122.25 101.514C121.672 100.676 119.311 99.3872 114.485 100.942C112.856 101.452 110.153 103.582 112.372 108.02C112.725 108.583 113.814 109.699 115.352 109.666L115.402 109.665C117.363 109.623 122.461 109.513 123.13 104.414C129.363 102.5 143.305 95.9293 149.21 84.9497C152.64 85.1567 159.962 83.0756 161.817 73.0956C163.672 63.1156 157.129 56.7371 153.626 54.7953C152.467 49.5845 147.414 37.6126 136.482 31.4112C125.551 25.2097 114.707 30.5374 110.651 33.9765C108.635 35.5704 104.17 40.3543 102.433 46.7387L105.858 45.7726L105.897 45.7974Z"
              fill="#BEF811"/>
    </g>
    <defs>
        <filter id="filter0_dddd_0_1" x="38.2539" y="-13.4441" width="134.299" height="148.226" filterUnits="userSpaceOnUse" color-interpolation-filters="sRGB">
            <feFlood flood-opacity="0" result="BackgroundImageFix"/>
            <feColorMatrix in="SourceAlpha" type="matrix" values="0 0 0 0 0 0 0 0 0 0 0 0 0 0 0 0 0 0 127 0" result="hardAlpha"/>
            <feOffset dx="-2" dy="-2"/>
            <feGaussianBlur stdDeviation="2.5"/>
            <feColorMatrix type="matrix" values="0 0 0 0 0 0 0 0 0 0 0 0 0 0 0 0 0 0 0.15 0"/>
            <feBlend mode="normal" in2="BackgroundImageFix" result="effect1_dropShadow_0_1"/>
            <feColorMatrix in="SourceAlpha" type="matrix" values="0 0 0 0 0 0 0 0 0 0 0 0 0 0 0 0 0 0 127 0" result="hardAlpha"/>
            <feOffset dx="-7" dy="-7"/>
            <feGaussianBlur stdDeviation="5"/>
            <feColorMatrix type="matrix" values="0 0 0 0 0 0 0 0 0 0 0 0 0 0 0 0 0 0 0.13 0"/>
            <feBlend mode="normal" in2="effect1_dropShadow_0_1" result="effect2_dropShadow_0_1"/>
            <feColorMatrix in="SourceAlpha" type="matrix" values="0 0 0 0 0 0 0 0 0 0 0 0 0 0 0 0 0 0 127 0" result="hardAlpha"/>
            <feOffset dx="-15" dy="-15"/>
            <feGaussianBlur stdDeviation="6.5"/>
            <feColorMatrix type="matrix" values="0 0 0 0 0 0 0 0 0 0 0 0 0 0 0 0 0 0 0.08 0"/>
            <feBlend mode="normal" in2="effect2_dropShadow_0_1" result="effect3_dropShadow_0_1"/>
            <feColorMatrix in="SourceAlpha" type="matrix" values="0 0 0 0 0 0 0 0 0 0 0 0 0 0 0 0 0 0 127 0" result="hardAlpha"/>
            <feOffset dx="-27" dy="-27"/>
            <feGaussianBlur stdDeviation="7.5"/>
            <feColorMatrix type="matrix" values="0 0 0 0 0 0 0 0 0 0 0 0 0 0 0 0 0 0 0.02 0"/>
            <feBlend mode="normal" in2="effect3_dropShadow_0_1" result="effect4_dropShadow_0_1"/>
            <feBlend mode="normal" in="SourceGraphic" in2="effect4_dropShadow_0_1" result="shape"/>
        </filter>
    </defs>
</svg>
