<svg width="116" height="29" viewBox="0 0 116 29" fill="none" xmlns="http://www.w3.org/2000/svg">
    <path d="M70.8789 0C75.4992 0.000149079 79.614 2.1616 82.2691 5.52808C83.0121 6.4701 84.0991 7.12305 85.2988 7.12305C86.4986 7.12305 87.5856 6.47009 88.3286 5.52804C90.9836 2.1615 95.0984 4.95969e-08 99.7188 0H101.499C109.507 0 115.999 6.49187 115.999 14.5C115.999 22.5081 109.507 29 101.499 29H99.7188C94.94 29 90.7017 26.688 88.0602 23.1217C87.4026 22.2339 86.4037 21.623 85.2989 21.623C84.194 21.623 83.195 22.234 82.5374 23.1219C79.896 26.6884 75.6579 29.0008 70.8789 29.001H14.501C6.49273 29.001 0.000259257 22.5092 0 14.501C0 6.49257 6.49257 0 14.501 0H70.8789Z"
          fill="#202020"/>
    <path d="M34.0304 18.7338H42.4034V16.1872H34.0304C33.2418 16.1872 32.7345 16.0302 32.4297 15.7947C32.1616 15.5876 31.9808 15.2316 31.9808 14.6057V14.5952C31.9808 13.9693 32.1616 13.6133 32.4297 13.4062L32.4317 13.4047L32.4337 13.4031C32.7379 13.163 33.2436 13.0032 34.0304 13.0032H39.4491L42.4034 12.9716V10.4565H34.0304C32.5923 10.4565 31.4098 10.776 30.5546 11.4866C29.6779 12.2151 29.2734 13.282 29.2734 14.5952V14.6057C29.2734 15.9174 29.6733 16.9838 30.5423 17.7128L30.5443 17.7145L30.5462 17.7161C31.4017 18.4188 32.5871 18.7338 34.0304 18.7338Z"
          fill="#FFFFFF"/>
    <path fill-rule="evenodd" clip-rule="evenodd"
          d="M57.2823 18.7338H54.0986L52.6385 16.5848H45.6078V18.7338H42.9004V10.4565H52.7413C53.4281 10.4565 54.0281 10.5291 54.5266 10.6896C55.0158 10.8381 55.4365 11.0544 55.7634 11.3557C56.0797 11.6472 56.3098 11.994 56.4429 12.3933C56.5664 12.757 56.6264 13.1409 56.6264 13.5418V13.5523C56.6264 13.8284 56.5942 14.101 56.5298 14.3692C56.469 14.6451 56.3651 14.9048 56.2188 15.1464C56.0681 15.3954 55.8722 15.6158 55.6378 15.809L55.6337 15.8124L55.6295 15.8157C55.5384 15.8875 55.4407 15.9536 55.3371 16.0144L57.2823 18.7338ZM53.4161 14.0806C53.5905 14.0405 53.7003 13.9903 53.7657 13.9454C53.8302 13.9012 53.8585 13.8602 53.8736 13.8242C53.8993 13.7628 53.919 13.6757 53.919 13.5523V13.5418C53.919 13.4283 53.9003 13.3441 53.8736 13.2804C53.8585 13.2444 53.8302 13.2034 53.7657 13.1592C53.7048 13.1174 53.599 13.0701 53.425 13.0363L53.4158 13.0346L53.4067 13.0324C53.2452 12.9946 53.0263 12.9716 52.7413 12.9716H45.6078V14.133H52.7413C53.0264 14.133 53.2489 14.1135 53.4161 14.0806Z"
          fill="#FFFFFF"/>
    <path fill-rule="evenodd" clip-rule="evenodd"
          d="M70.5872 17.7143L70.5868 17.7146C69.7376 18.4189 68.5542 18.7338 67.1114 18.7338C63.3298 18.7338 61.2096 18.7338 57.428 18.7338V10.4565H67.1114C68.5495 10.4565 69.732 10.776 70.5872 11.4866C71.4639 12.2151 71.8683 13.282 71.8683 14.5952V14.6057C71.8683 15.9189 71.4639 16.9858 70.5872 17.7143ZM60.2195 16.1872H67.1114C67.9658 16.1872 68.4681 16.0192 68.7336 15.7903C68.992 15.5676 69.1609 15.2056 69.1609 14.6057V14.5952C69.1609 13.9864 68.9909 13.6218 68.7336 13.4C68.4681 13.1711 67.9658 13.0032 67.1114 13.0032H60.2195V16.1872Z"
          fill="#FFFFFF"/>
    <path fill-rule="evenodd" clip-rule="evenodd"
          d="M11.6124 17.7213L12.7293 10.3325L10.457 8.11963H18.9079C20.3696 8.11963 21.7589 8.73901 22.7141 9.81647L23.2819 10.457C23.7041 10.9332 23.9364 11.5414 23.9364 12.1706C23.9364 12.9967 23.5366 13.7746 22.8574 14.2697L21.2098 15.4709L21.8182 13.6706H18.9473H17.0041L19.1498 14.0021L20.3162 17.7213C17.9114 17.7213 15.9559 19.1327 15.9559 20.8801C15.9559 19.1327 14.0172 17.7213 11.6124 17.7213ZM16.7731 9.84493L17.0764 10.8713H18.5731C19.0555 10.8713 19.5258 11.0184 19.9181 11.2919L20.8554 11.9453L20.2999 10.7336C20.0521 10.193 19.5011 9.84493 18.8933 9.84493H16.7731Z"
          fill="#FFFFFF"/>"/>
    <rect width="16" height="17" rx="7" fill="#BEF811" transform="translate(93 6)"/>
    <path d="M7.97537 14.4145C7.66912 14.4145 7.46912 14.2086 7.46912 13.87V13.1196C6.18162 12.9602 5.22537 12.243 4.96287 11.2668C4.92537 11.154 4.90662 11.0411 4.90662 10.9348C4.90662 10.5629 5.15037 10.3106 5.52537 10.3106C5.85662 10.3106 6.03162 10.5231 6.14412 10.8086C6.40037 11.5524 7.03787 11.9442 8.03162 11.9442C9.08787 11.9442 9.76912 11.4926 9.76912 10.636C9.76912 9.91216 9.15037 9.54028 8.16287 9.28794L7.30662 9.07544C5.95037 8.74341 5.02537 7.88677 5.02537 6.66489C5.02537 5.19067 6.11912 4.31411 7.46912 4.14146V3.37778C7.46912 3.03247 7.66912 2.83325 7.97537 2.83325C8.28162 2.83325 8.48787 3.03247 8.48787 3.37778V4.13481C9.68162 4.28755 10.5816 4.98481 10.8504 6.00083C10.8816 6.11372 10.9004 6.23325 10.9004 6.3395C10.9004 6.69146 10.6566 6.9106 10.3066 6.9106C9.96912 6.9106 9.80037 6.72466 9.66912 6.43247C9.38787 5.68208 8.88162 5.3102 7.98787 5.3102C6.97537 5.3102 6.36287 5.79497 6.36287 6.55864C6.36287 7.21606 6.96912 7.6145 7.80662 7.82036L8.63162 8.02622C10.2066 8.41138 11.0941 9.22817 11.0941 10.5098C11.0941 12.1301 9.86912 12.9801 8.48787 13.1329V13.87C8.48787 14.2086 8.28162 14.4145 7.97537 14.4145Z"
          fill="#141414" transform="translate(93 6)"/>
</svg>
