<svg width="19" height="19" viewBox="0 0 19 19" fill="none" xmlns="http://www.w3.org/2000/svg">
    <path d="M9.5 0.5C14.4706 0.5 18.5 4.52944 18.5 9.5C18.5 14.4706 14.4706 18.5 9.5 18.5C4.52944 18.5 0.5 14.4706 0.5 9.5C0.5 4.52944 4.52944 0.5 9.5 0.5ZM9.5 12.5498C9.3067 12.5498 9.15039 12.7071 9.15039 12.9004C9.1506 13.0935 9.30683 13.25 9.5 13.25C9.69317 13.25 9.8494 13.0935 9.84961 12.9004C9.84961 12.7071 9.6933 12.5498 9.5 12.5498ZM9.5 5.1123C8.54386 5.1123 7.76855 5.88761 7.76855 6.84375C7.76855 6.91969 7.83031 6.98145 7.90625 6.98145C7.98219 6.98145 8.04395 6.91969 8.04395 6.84375C8.04395 6.03949 8.69574 5.3877 9.5 5.3877C10.3043 5.3877 10.9561 6.03949 10.9561 6.84375C10.9561 7.23804 10.7999 7.59587 10.5449 7.8584C10.4929 7.91195 10.4341 7.97035 10.375 8.0293C10.1727 8.23123 9.95116 8.45306 9.7793 8.67383C9.54641 8.97305 9.3623 9.31677 9.3623 9.71289V10.3496C9.3623 10.4255 9.42406 10.4873 9.5 10.4873C9.57594 10.4873 9.6377 10.4255 9.6377 10.3496V9.71289C9.6377 9.40533 9.77953 9.12103 9.99609 8.84277C10.1596 8.63279 10.3434 8.45042 10.5225 8.27148C10.5941 8.1999 10.6667 8.12747 10.7422 8.0498C11.0449 7.73812 11.2314 7.31249 11.2314 6.84375C11.2314 5.88761 10.4561 5.1123 9.5 5.1123Z"
          fill="currentColor" fill-opacity="0.2" stroke="currentColor"/>
</svg>
