<svg width="28" height="28" viewBox="0 0 24 24" fill="none" xmlns="http://www.w3.org/2000/svg">
    <path d="M11.9991 2.50024C17.2459 2.50024 21.4991 6.75354 21.4991 12.0002C21.4991 17.2469 17.2459 21.5002 11.9991 21.5002C6.75244 21.5002 2.49915 17.2469 2.49915 12.0002C2.49915 6.75354 6.75244 2.50024 11.9991 2.50024ZM12.5304 7.18384C12.2558 6.90956 11.821 6.89203 11.5265 7.13208L11.4698 7.18384L8.04114 10.6125C7.74841 10.9054 7.74855 11.3802 8.04114 11.6731C8.33401 11.9659 8.80881 11.9659 9.10168 11.6731L11.2501 9.52466V16.2854C11.2501 16.6996 11.586 17.0353 12.0001 17.0354C12.4143 17.0353 12.7501 16.6996 12.7501 16.2854V9.52466L14.8986 11.6731L14.9552 11.7249C15.2498 11.965 15.6846 11.9476 15.9591 11.6731C16.2336 11.3984 16.2504 10.9637 16.0099 10.6692L15.9591 10.6125L12.5304 7.18384Z"
          fill="currentColor"/>
</svg>
