<svg width="16" height="12" viewBox="0 0 16 12" fill="none" xmlns="http://www.w3.org/2000/svg">
    <path d="M9.6 0H6.4C3.38301 0 1.87452 0 0.937258 0.87868C0.262426 1.51134 0.0734774 2.42162 0.0205731 3.9375H15.9794C15.9265 2.42162 15.7376 1.51134 15.0627 0.87868C14.1255 0 12.617 0 9.6 0Z"
          fill="#373737"/>
    <path fill-rule="evenodd" clip-rule="evenodd"
          d="M6.4 12H9.6C12.617 12 14.1255 12 15.0627 11.1213C16 10.2426 16 8.82843 16 6C16 5.66855 16 5.35652 15.9985 5.0625H0.00150824C0 5.35652 0 5.66855 0 6C0 8.82843 0 10.2426 0.937258 11.1213C1.87452 12 3.38301 12 6.4 12ZM8.4 8.4375C8.06863 8.4375 7.8 8.68934 7.8 9C7.8 9.31066 8.06863 9.5625 8.4 9.5625H9.6C9.93137 9.5625 10.2 9.31066 10.2 9C10.2 8.68934 9.93137 8.4375 9.6 8.4375H8.4ZM2.6 9C2.6 8.68934 2.86863 8.4375 3.2 8.4375H6.4C6.73137 8.4375 7 8.68934 7 9C7 9.31066 6.73137 9.5625 6.4 9.5625H3.2C2.86863 9.5625 2.6 9.31066 2.6 9Z"
          fill="#373737"/>
</svg>