<svg width="16" height="13" viewBox="0 0 16 13" fill="none" xmlns="http://www.w3.org/2000/svg">
    <path fill-rule="evenodd" clip-rule="evenodd" d="M0.937258 0.951903C0 1.90381 0 3.43587 0 6.5C0 9.56413 0 11.0962 0.937258 12.0481C1.87452 13 3.38301 13 6.4 13H9.6C12.617 13 14.1255 13 15.0627 12.0481C16 11.0962 16 9.56413 16 6.5C16 3.43587 16 1.90381 15.0627 0.951903C14.1255 0 12.617 0 9.6 0H6.4C3.38301 0 1.87452 0 0.937258 0.951903ZM13.2609 2.85989C13.4731 3.11843 13.4387 3.50268 13.1841 3.71813L11.4269 5.20534C10.7178 5.8055 10.1431 6.29193 9.63586 6.62327C9.10746 6.96843 8.59286 7.18646 8 7.18646C7.40714 7.18646 6.89254 6.96843 6.36414 6.62327C5.85689 6.29194 5.28217 5.8055 4.57308 5.20534L2.81589 3.71813C2.56132 3.50268 2.52693 3.11843 2.73907 2.85989C2.95121 2.60134 3.32954 2.56641 3.58411 2.78187L5.31123 4.24362C6.05759 4.87531 6.57578 5.31246 7.01327 5.59823C7.43675 5.87485 7.72394 5.96771 8 5.96771C8.27606 5.96771 8.56325 5.87485 8.98673 5.59823C9.42422 5.31246 9.9424 4.87531 10.6888 4.24362L12.4159 2.78187C12.6705 2.56641 13.0488 2.60134 13.2609 2.85989Z" fill="#373737"/>
</svg>
