<svg width="17" height="15" viewBox="0 0 17 15" fill="none" xmlns="http://www.w3.org/2000/svg">
    <path d="M10.3081 0.683652L15.2859 5.10839C16.2165 5.93557 16.6818 6.34916 16.8533 6.83754C17.0039 7.26642 17.0039 7.73379 16.8533 8.16267C16.6818 8.65104 16.2165 9.06463 15.2859 9.89181L10.3081 14.3166C9.8858 14.6919 9.67465 14.8796 9.49531 14.8863C9.3395 14.8922 9.18989 14.825 9.09074 14.7047C8.97661 14.5662 8.97661 14.2836 8.97661 13.7186V10.9287C6.54852 10.9287 3.98395 11.7085 2.11134 13.0929C1.13645 13.8136 0.648978 14.174 0.463319 14.1597C0.282343 14.1459 0.167491 14.0752 0.0735906 13.9199C-0.0227405 13.7605 0.0623439 13.2626 0.232513 12.2668C1.33749 5.80066 5.78746 4.07153 8.97661 4.07153V1.28158C8.97661 0.716564 8.97661 0.434057 9.09074 0.295554C9.18989 0.175229 9.3395 0.108044 9.49531 0.113876C9.67465 0.120588 9.8858 0.308276 10.3081 0.683652Z"
          fill="#7211F8"/>
</svg>
