<svg width="72" height="18" viewBox="0 0 72 18" fill="none" xmlns="http://www.w3.org/2000/svg">
    <path d="M43.9941 0C46.8614 4.71487e-05 49.4146 1.34137 51.0625 3.43034C51.524 4.01537 52.1992 4.4209 52.9443 4.4209C53.6895 4.4209 54.3646 4.01536 54.8262 3.43032C56.474 1.34135 59.0273 0 61.8945 0H63C67.9702 0.000221583 71.999 4.02974 71.999 9C71.9989 13.9701 67.9701 17.9988 63 17.999H61.8945C58.9297 17.999 56.3013 16.5647 54.662 14.3526C54.253 13.8007 53.6319 13.4209 52.9449 13.4209C52.2578 13.4209 51.6367 13.8008 51.2276 14.3528C49.5883 16.5652 46.9593 18 43.9941 18H9.00195C4.03139 18 0.00195312 13.9706 0.00195312 9C0.00195622 4.02944 4.03139 2.25819e-06 9.00195 0H43.9941Z"
          fill="#323232"/>
    <path d="M21.1234 11.6277H26.3202V10.0471H21.1234C20.6339 10.0471 20.3191 9.94963 20.1299 9.80346C19.9635 9.6749 19.8513 9.45399 19.8513 9.0655V9.05896C19.8513 8.67047 19.9635 8.44956 20.1299 8.321L20.1311 8.32004L20.1324 8.31907C20.3212 8.17005 20.635 8.07086 21.1234 8.07086H24.4866L26.3202 8.05125V6.49023H21.1234C20.2308 6.49023 19.4968 6.68849 18.9661 7.12955C18.4219 7.58172 18.1709 8.24389 18.1709 9.05896V9.0655C18.1709 9.8796 18.4191 10.5415 18.9584 10.994L18.9597 10.995L18.9609 10.996C19.4918 11.4321 20.2276 11.6277 21.1234 11.6277Z"
          fill="white" fill-opacity="0.26"/>
    <path fill-rule="evenodd" clip-rule="evenodd"
          d="M35.5553 11.6277H33.5793L32.6731 10.2939H28.3093V11.6277H26.6289V6.49023H32.7368C33.1631 6.49023 33.5355 6.53525 33.8449 6.6349C34.1485 6.72707 34.4097 6.86134 34.6126 7.04834C34.8089 7.22922 34.9517 7.44447 35.0343 7.69229C35.111 7.91805 35.1482 8.15633 35.1482 8.40513V8.41167C35.1482 8.58306 35.1282 8.75224 35.0883 8.91872C35.0505 9.08994 34.986 9.25115 34.8952 9.40109C34.8017 9.55564 34.6801 9.69244 34.5346 9.81231L34.532 9.81442L34.5294 9.81648C34.4729 9.86103 34.4123 9.90208 34.348 9.93985L35.5553 11.6277ZM33.1557 8.73955C33.2639 8.71468 33.3321 8.68351 33.3727 8.65564C33.4127 8.6282 33.4302 8.6028 33.4396 8.58042C33.4556 8.54235 33.4678 8.48827 33.4678 8.41167V8.40513C33.4678 8.33474 33.4562 8.28243 33.4396 8.24292C33.4302 8.22054 33.4127 8.19514 33.3727 8.1677C33.3349 8.14176 33.2692 8.1124 33.1612 8.09143L33.1555 8.09032L33.1498 8.089C33.0496 8.06554 32.9138 8.05125 32.7368 8.05125H28.3093V8.77209H32.7368C32.9138 8.77209 33.0519 8.76 33.1557 8.73955Z"
          fill="white" fill-opacity="0.26"/>
    <path fill-rule="evenodd" clip-rule="evenodd"
          d="M43.8132 10.9949L43.813 10.9951C43.2859 11.4322 42.5514 11.6277 41.6559 11.6277C39.3088 11.6277 37.9929 11.6277 35.6458 11.6277V6.49023H41.6559C42.5485 6.49023 43.2825 6.68849 43.8132 7.12955C44.3574 7.58172 44.6084 8.24389 44.6084 9.05896V9.0655C44.6084 9.88057 44.3574 10.5427 43.8132 10.9949ZM37.3783 10.0471H41.6559C42.1862 10.0471 42.498 9.94282 42.6628 9.80075C42.8231 9.66252 42.928 9.43783 42.928 9.0655V9.05896C42.928 8.68112 42.8225 8.45484 42.6628 8.31717C42.498 8.1751 42.1862 8.07086 41.6559 8.07086H37.3783V10.0471Z"
          fill="white" fill-opacity="0.26"/>
    <path fill-rule="evenodd" clip-rule="evenodd"
          d="M7.20929 10.9988L7.90249 6.41277L6.49219 5.03931H11.7374C12.6446 5.03931 13.5069 5.42374 14.0997 6.09248L14.4522 6.49002C14.7142 6.7856 14.8584 7.16309 14.8584 7.55359C14.8584 8.06638 14.6102 8.54917 14.1887 8.85647L13.1661 9.60201L13.5437 8.48461H11.7618H10.5558L11.8875 8.69039L12.6115 10.9988C11.1189 10.9988 9.90517 11.8748 9.90517 12.9593C9.90517 11.8748 8.7019 10.9988 7.20929 10.9988ZM10.4124 6.11014L10.6006 6.74721H11.5296C11.829 6.74721 12.1209 6.83848 12.3644 7.00821L12.9461 7.41377L12.6014 6.66172C12.4476 6.32621 12.1056 6.11014 11.7283 6.11014H10.4124Z"
          fill="white" fill-opacity="0.26"/>
    <path d="M63.683 5.58594H61.6969C59.8243 5.58594 58.8881 5.58594 58.3063 6.13131C57.8875 6.52398 57.7702 7.08896 57.7374 8.02982H67.6425C67.6097 7.08896 67.4924 6.52398 67.0736 6.13131C66.4919 5.58594 65.5556 5.58594 63.683 5.58594Z"
          fill="white" fill-opacity="0.26"/>
    <path fill-rule="evenodd" clip-rule="evenodd"
          d="M61.6969 13.034H63.683C65.5556 13.034 66.4919 13.034 67.0736 12.4886C67.6553 11.9432 67.6553 11.0655 67.6553 9.30995C67.6553 9.10423 67.6553 8.91056 67.6544 8.72807H57.7255C57.7246 8.91056 57.7246 9.10423 57.7246 9.30995C57.7246 11.0655 57.7246 11.9432 58.3063 12.4886C58.8881 13.034 59.8243 13.034 61.6969 13.034ZM59.7107 10.8228C59.5051 10.8228 59.3383 10.9791 59.3383 11.172C59.3383 11.3648 59.5051 11.5211 59.7107 11.5211H61.6969C61.9026 11.5211 62.0693 11.3648 62.0693 11.172C62.0693 10.9791 61.9026 10.8228 61.6969 10.8228H59.7107ZM62.5658 11.172C62.5658 10.9791 62.7326 10.8228 62.9382 10.8228H63.683C63.8887 10.8228 64.0554 10.9791 64.0554 11.172C64.0554 11.3648 63.8887 11.5211 63.683 11.5211H62.9382C62.7326 11.5211 62.5658 11.3648 62.5658 11.172Z"
          fill="white" fill-opacity="0.26"/>
</svg>