<svg width="16" height="11" viewBox="0 0 16 11" fill="none" xmlns="http://www.w3.org/2000/svg">
    <path d="M15.1531 2.33846C15.6172 2.75885 15.8168 3.28816 15.9102 3.91681C16 4.52232 16 5.2922 16 6.24735V6.324C16 7.27915 16 8.04903 15.9102 8.65454C15.8168 9.28319 15.6172 9.8125 15.1531 10.2329C14.689 10.6533 14.1046 10.8341 13.4106 10.9186C12.7421 11 11.8921 11 10.8376 11H6.8976C5.8431 11 4.99313 11 4.32464 10.9186C3.63059 10.8341 3.04621 10.6533 2.58209 10.2329C2.30052 9.97785 2.11628 9.68272 1.99408 9.34965C2.69125 9.42875 3.55376 9.4287 4.55029 9.42865H8.55791C9.58323 9.4287 10.4667 9.42875 11.1741 9.3426C11.9323 9.25027 12.659 9.04206 13.2485 8.50812C13.838 7.97418 14.0679 7.31591 14.1698 6.62917C14.2649 5.98838 14.2649 5.18819 14.2648 4.25949V4.12155C14.2649 3.21869 14.2649 2.43728 14.1775 1.80572C14.5454 1.9164 14.8714 2.08331 15.1531 2.33846Z"
          fill="#373737"/>
    <path d="M6.5541 2.96828C5.80886 2.96828 5.20473 3.51549 5.20473 4.19051C5.20473 4.86553 5.80886 5.41274 6.5541 5.41274C7.29934 5.41274 7.90348 4.86553 7.90348 4.19051C7.90348 3.51549 7.29934 2.96828 6.5541 2.96828Z"
          fill="#373737"/>
    <path fill-rule="evenodd" clip-rule="evenodd"
          d="M0.677524 0.613686C0 1.22737 0 2.21509 0 4.19051C0 6.16594 0 7.15365 0.677524 7.76734C1.35505 8.38102 2.44551 8.38102 4.62642 8.38102H8.48178C10.6627 8.38102 11.7532 8.38102 12.4307 7.76734C13.1082 7.15365 13.1082 6.16594 13.1082 4.19051C13.1082 2.21509 13.1082 1.22737 12.4307 0.613686C11.7532 0 10.6627 0 8.48178 0H4.62643C2.44551 0 1.35505 0 0.677524 0.613686ZM4.04812 4.19051C4.04812 2.9369 5.17009 1.92065 6.5541 1.92065C7.93812 1.92065 9.06008 2.9369 9.06008 4.19051C9.06008 5.44412 7.93812 6.46037 6.5541 6.46037C5.17009 6.46037 4.04812 5.44412 4.04812 4.19051ZM10.795 6.11116C10.4756 6.11116 10.2167 5.87664 10.2167 5.58735V2.79367C10.2167 2.50438 10.4756 2.26986 10.795 2.26986C11.1144 2.26986 11.3733 2.50438 11.3733 2.79367V5.58735C11.3733 5.87664 11.1144 6.11116 10.795 6.11116ZM1.73491 5.58735C1.73491 5.87664 1.99382 6.11116 2.31321 6.11116C2.6326 6.11116 2.89152 5.87664 2.89152 5.58735V2.79367C2.89152 2.50438 2.6326 2.26986 2.31321 2.26986C1.99382 2.26986 1.73491 2.50438 1.73491 2.79367L1.73491 5.58735Z"
          fill="#373737"/>
</svg>