<svg width="15" height="15" viewBox="0 0 15 15" fill="none" xmlns="http://www.w3.org/2000/svg">
    <path fill-rule="evenodd" clip-rule="evenodd"
          d="M1.28571 11.2868L2.52857 2.60126L0 0H9.40426C11.0308 0 12.5769 0.728084 13.6398 1.99465L14.2717 2.74757C14.7415 3.30738 15 4.02231 15 4.7619C15 5.73308 14.5551 6.64746 13.7993 7.22947L11.9658 8.64148L12.6429 6.5252H9.4481H7.28571L9.67341 6.91493L10.9714 11.2868C8.29529 11.2868 6.11923 12.9459 6.11923 15C6.11923 12.9459 3.96185 11.2868 1.28571 11.2868ZM7.02857 2.0281L7.36609 3.23467H9.03163C9.56848 3.23467 10.0919 3.40752 10.5284 3.72899L11.5714 4.49709L10.9533 3.07275C10.6776 2.43731 10.0644 2.0281 9.38795 2.0281H7.02857Z"
          fill="#373737"/>
</svg>