<svg width="940" height="537" viewBox="-217 0 940 537" fill="none" xmlns="http://www.w3.org/2000/svg">
    <path fill-rule="evenodd" clip-rule="evenodd" d="M194.57 452.706L252.814 536.999L311.43 452.706L291.831 298.167L330.436 424.251L369.922 367.332L357.847 325.261L483.789 298.167L565.702 330.488L483.789 227.003L636.931 369.637L605.472 307.991L723 415.576L530.709 93.8845C525.865 85.7802 519.287 79.2365 511.687 74.4539L486.756 113.779L499.815 68.6993C485.564 63.6277 469.393 63.8663 454.732 70.3832C452.894 71.2003 451.19 72.2702 449.571 73.4479L381.474 122.996L312.702 129.432L296.697 79.2973L267.256 74.828H293.919H333.311L324.963 99.0965L347.571 82.9043C356.89 76.2301 362.376 65.7444 362.376 54.6073C362.376 46.1261 359.188 37.9275 353.395 31.5079L345.604 22.8738C332.498 8.34934 313.434 0 293.379 0H177.421L208.599 29.8301L193.274 129.432L124.526 122.996L56.429 73.4479C54.8105 72.2702 53.106 71.2003 51.2677 70.3832C36.6068 63.8663 20.4356 63.6277 6.18484 68.6993L19.2435 113.779L-5.68668 74.4539C-13.2869 79.2365 -19.8647 85.7802 -24.7091 93.8845L-217 415.576L-99.4718 307.991L-130.931 369.637L22.2114 227.003L-59.7022 330.488L22.2114 298.167L148.153 325.261L136.078 367.332L175.564 424.251L214.169 298.167L194.57 452.706ZM264.086 23.2573L268.247 37.0937H288.784C295.403 37.0937 301.857 39.0759 307.24 42.7623L320.1 51.5706L312.479 35.2369C309.079 27.95 301.518 23.2573 293.177 23.2573H264.086Z" fill="#292929"/>
</svg>