<svg width="101" height="59" viewBox="0 0 101 59" fill="none" xmlns="http://www.w3.org/2000/svg">
    <rect width="101" height="59" rx="22" fill="#111111"/>
    <path transform="translate(20,15)" d="M57.3077 13.1767C58.2308 13.7649 58.2308 15.2351 57.3077 15.8233L51.0769 19.793C50.1538 20.3811 49 19.646 49 18.4698L49 10.5302C49 9.35401 50.1538 8.61887 51.0769 9.20699L57.3077 13.1767Z" fill="#F3F3F3"/>
    <path transform="translate(20,15)" fill-rule="evenodd" clip-rule="evenodd" d="M4.84762 14.5C7.0289 9.72378 11.459 6.51157 16.5 6.51157C21.541 6.51157 25.9711 9.72377 28.1524 14.5L33 10.6736C29.726 4.29682 23.5631 0 16.5 0C9.43693 0 3.27407 4.29682 1.6532e-05 10.6736L4.84762 14.5Z" fill="#F3F3F3"/>
    <path transform="translate(20,15)" fill-rule="evenodd" clip-rule="evenodd" d="M28.1524 14.5C25.9711 19.2762 21.541 22.4884 16.5 22.4884C11.459 22.4884 7.0289 19.2762 4.84762 14.5L0 18.3264C3.27405 24.7032 9.4369 29 16.5 29C23.5631 29 29.7259 24.7032 33 18.3264L28.1524 14.5Z" fill="#F3F3F3"/>
    <path transform="translate(20,15)" d="M16.5581 9.40935C16.5581 12.1499 14.541 14.3716 12.0527 14.3716C14.541 14.3716 16.5581 16.5932 16.5581 19.3338C16.5581 16.5932 18.5752 14.3716 21.0634 14.3716C18.5752 14.3716 16.5581 12.1499 16.5581 9.40935Z" fill="#F3F3F3"/>
</svg>