<svg width="101" height="59" viewBox="0 0 101 59" fill="none" xmlns="http://www.w3.org/2000/svg">
    <rect width="101" height="59" rx="22" fill="#111111"/>
    <path transform="translate(27,18)" d="M53.3077 13.1767C54.2308 13.7649 54.2308 15.2351 53.3077 15.8233L47.0769 19.793C46.1538 20.3811 45 19.646 45 18.4698L45 10.5302C45 9.35401 46.1538 8.61887 47.0769 9.20699L53.3077 13.1767Z" fill="#F3F3F3"/>
    <path transform="translate(27,18)" fill-rule="evenodd" clip-rule="evenodd" d="M2.48571 21.8212L4.88857 5.0291L0 0H18.1816C21.3262 0 24.3153 1.40763 26.3703 3.85633L27.5919 5.31196C28.5002 6.39427 29 7.77647 29 9.20635C29 11.084 28.1398 12.8518 26.6787 13.977L23.1339 16.7069L24.4429 12.6154H18.2663H14.0857L18.7019 13.3689L21.2114 21.8212C16.0376 21.8212 11.8305 25.0288 11.8305 29C11.8305 25.0288 7.65958 21.8212 2.48571 21.8212ZM13.5886 3.921L14.2411 6.25369H17.4612C18.4991 6.25369 19.5109 6.58787 20.3549 7.20938L22.3714 8.69438L21.1764 5.94065C20.6433 4.71214 19.4578 3.921 18.15 3.921H13.5886Z" fill="#F3F3F3"/>
</svg>