<svg width="30" height="28" viewBox="0 0 30 28" fill="none" xmlns="http://www.w3.org/2000/svg">
    <path d="M15.8713 0.5C23.1094 0.5 29.135 6.60944 29.135 14C29.135 21.3778 23.1222 27.5 15.885 27.5C8.66103 27.5 2.63502 21.3775 2.63501 14C2.63501 6.60853 8.64776 0.500097 15.8713 0.5Z" fill="#FF0000" fill-opacity="0.2" stroke="#FF0000"/>
    <path d="M11.1464 19.9999C10.5002 19.9999 9.99451 19.4701 9.99451 18.8115C9.99451 18.4963 10.1069 18.1956 10.3316 17.9808L14.2227 13.9999L10.3316 10.0333C10.1069 9.80424 9.99451 9.51783 9.99451 9.2028C9.99451 8.52976 10.5002 8.02858 11.1464 8.02858C11.4695 8.02858 11.7223 8.14313 11.9471 8.35793L15.8663 12.3388L19.8136 8.34361C20.0524 8.10018 20.3052 7.99994 20.6142 7.99994C21.2604 7.99994 21.7802 8.51545 21.7802 9.17416C21.7802 9.50352 21.6818 9.76127 21.429 10.019L17.5239 13.9999L21.415 17.9666C21.6538 18.1814 21.7661 18.482 21.7661 18.8115C21.7661 19.4701 21.2464 19.9999 20.5862 19.9999C20.2631 19.9999 19.9681 19.8854 19.7573 19.6562L15.8663 15.6754L11.9892 19.6562C11.7645 19.8854 11.4695 19.9999 11.1464 19.9999Z" fill="#FF0000"/>
</svg>