<svg width="15" height="10" viewBox="0 0 15 10" fill="none" xmlns="http://www.w3.org/2000/svg">
    <path d="M0.730417 3.95718L2.0701 1.88566C2.93607 0.546637 3.36906 -0.122875 3.77303 0.0186067C4.177 0.160089 4.177 0.981246 4.177 2.62356V2.77841C4.177 3.37076 4.177 3.66693 4.34261 3.85271L4.35137 3.86233C4.52056 4.04418 4.79028 4.04418 5.32973 4.04418C6.30049 4.04418 6.78587 4.04418 6.94991 4.38065C6.95262 4.38622 6.95527 4.39184 6.95783 4.3975C7.11268 4.73918 6.83164 5.17373 6.26957 6.04284L4.92988 8.11433C4.06389 9.45336 3.6309 10.1229 3.22693 9.98139C2.82296 9.8399 2.82297 9.01874 2.82299 7.37641L2.82299 7.22163C2.823 6.62927 2.823 6.33309 2.65739 6.14731L2.64863 6.13769C2.47944 5.95584 2.20972 5.95584 1.67027 5.95584C0.699511 5.95584 0.214133 5.95584 0.0500923 5.61936C0.0473763 5.61379 0.0447359 5.60818 0.042172 5.60252C-0.112682 5.26084 0.168351 4.82629 0.730417 3.95718Z"
          fill="#F8E811"/>
    <path d="M8.73042 3.95718L10.0701 1.88566C10.9361 0.546637 11.3691 -0.122875 11.773 0.0186067C12.177 0.160089 12.177 0.981246 12.177 2.62356V2.77841C12.177 3.37076 12.177 3.66693 12.3426 3.85271L12.3514 3.86233C12.5206 4.04418 12.7903 4.04418 13.3297 4.04418C14.3005 4.04418 14.7859 4.04418 14.9499 4.38065C14.9526 4.38622 14.9553 4.39184 14.9578 4.3975C15.1127 4.73918 14.8316 5.17373 14.2696 6.04284L12.9299 8.11433C12.0639 9.45336 11.6309 10.1229 11.2269 9.98139C10.823 9.8399 10.823 9.01874 10.823 7.37641L10.823 7.22163C10.823 6.62927 10.823 6.33309 10.6574 6.14731L10.6486 6.13769C10.4794 5.95584 10.2097 5.95584 9.67027 5.95584C8.69951 5.95584 8.21413 5.95584 8.05009 5.61936C8.04738 5.61379 8.04473 5.60818 8.04217 5.60252C7.88732 5.26084 8.16835 4.82629 8.73042 3.95718Z"
          fill="#F8E811"/>
</svg>
