<svg width="16" height="17" viewBox="0 0 16 17" fill="none" xmlns="http://www.w3.org/2000/svg">
    <path d="M5.11976 2.55511e-07H8.58131C10.1496 -1.24707e-05 11.3917 -2.25583e-05 12.3639 0.125462C13.3644 0.254604 14.1742 0.526703 14.8128 1.13983C15.4514 1.75295 15.7348 2.53041 15.8693 3.49096C16 4.4243 16 5.61687 16 7.12252V12.0845C16 13.3664 15.1822 14.4649 14.0203 14.9255C14.0801 14.1524 14.08 13.0678 14.08 12.1654L14.08 7.98803L14.08 7.90713C14.08 6.8177 14.0801 5.87903 13.9748 5.12735C13.862 4.32176 13.6076 3.54956 12.9552 2.92323C12.3028 2.29689 11.4985 2.05265 10.6595 1.94434C9.87651 1.84328 8.89881 1.84333 7.76408 1.84339L7.67982 1.84339H5.11976L5.0355 1.84339C3.90077 1.84333 2.92519 1.84328 2.14225 1.94434C2.61064 0.805628 3.76721 2.55511e-07 5.11976 2.55511e-07Z"
          fill="#7211F8"/>
    <path d="M12.8003 7.98786C12.8003 5.67057 12.8003 4.51193 12.0505 3.79204C11.3006 3.07215 10.0938 3.07215 7.68017 3.07215H5.12011C2.70647 3.07215 1.49964 3.07215 0.749821 3.79204C-1.90735e-06 4.51193 0 5.67057 0 7.98786V12.0843C0 14.4016 -1.90735e-06 15.5602 0.749821 16.2801C1.49964 17 2.70647 17 5.12011 17H7.68017C10.0938 17 11.3006 17 12.0505 16.2801C12.8003 15.5602 12.8003 14.4016 12.8003 12.0843V7.98786Z"
          fill="#7211F8"/>
</svg>
