<svg width="14" height="11" viewBox="0 0 14 12" fill="none" xmlns="http://www.w3.org/2000/svg">
    <path d="M8.55204 0.805342C7.55733 0.39822 6.44261 0.398219 5.4479 0.805341L0.764123 2.72236C0.0109219 3.03064 -0.185453 3.89993 0.175 4.50074L0.175 7.52778C0.175 7.78091 0.410051 7.98611 0.7 7.98611C0.98995 7.98611 1.225 7.78091 1.225 7.52778V5.18847L5.44796 6.91688C6.44267 7.324 7.55739 7.324 8.5521 6.91688L13.2359 4.99986C14.2547 4.58286 14.2547 3.13939 13.2359 2.72239L8.55204 0.805342Z"
          fill="#7211F8"/>
    <path d="M2.1 6.559V8.82665C2.1 9.44266 2.45245 10.0194 3.06973 10.3178C4.09759 10.8148 5.7428 11.5 7 11.5C8.2572 11.5 9.90241 10.8148 10.9303 10.3178C11.5475 10.0194 11.9 9.44266 11.9 8.82665V6.55903L8.99781 7.74686C7.72071 8.26956 6.27935 8.26956 5.00225 7.74686L2.1 6.559Z"
          fill="#7211F8"/>
</svg>
