<svg width="22" height="22" viewBox="0 0 22 22" fill="none" xmlns="http://www.w3.org/2000/svg">
    <path fill-rule="evenodd" clip-rule="evenodd"
          d="M21.5 6.92278C21.5 10.7461 18.5293 13.8456 14.8648 13.8456C14.1961 13.8456 12.6736 13.6846 11.9329 13.0406L11.0071 14.0066C10.4627 14.5745 10.6097 14.7418 10.8519 15.0172C10.9529 15.1321 11.0705 15.2659 11.1614 15.4555C11.1614 15.4555 11.9329 16.5825 11.1614 17.7094C10.6984 18.3534 9.40227 19.255 7.92092 17.7094L7.6123 18.0314C7.6123 18.0314 8.53815 19.1584 7.76661 20.2854C7.30369 20.9293 6.06923 21.5733 4.98908 20.4463L3.90893 21.5733C3.16825 22.3461 2.26301 21.8953 1.90297 21.5733L0.977126 20.6073C0.113005 19.7058 0.617075 18.7291 0.977126 18.3534L9.00111 9.98168C9.00111 9.98168 8.22957 8.69372 8.22957 6.92278C8.22957 3.09943 11.2003 0 14.8648 0C18.5293 0 21.5 3.09943 21.5 6.92278ZM14.865 9.3378C16.1433 9.3378 17.1796 8.25661 17.1796 6.92288C17.1796 5.58916 16.1433 4.50796 14.865 4.50796C13.5867 4.50796 12.5504 5.58916 12.5504 6.92288C12.5504 8.25661 13.5867 9.3378 14.865 9.3378Z"
          fill="#F81B11"/>
</svg>