<svg width="11" height="12" viewBox="0 0 11 12" fill="none" xmlns="http://www.w3.org/2000/svg">
    <path fill-rule="evenodd" clip-rule="evenodd"
          d="M6.09766 11.6327L6.39581 11.0831C6.62708 10.6569 6.74271 10.4438 6.92844 10.3259C7.11418 10.2081 7.34802 10.2037 7.81571 10.1949C8.50617 10.1819 8.93921 10.1358 9.30238 9.97168C9.97621 9.6672 10.5116 9.08317 10.7907 8.34809C11 7.79677 11 7.09785 11 5.70002V5.10002C11 3.13595 11 2.15392 10.5948 1.43251C10.368 1.02884 10.0569 0.68945 9.68687 0.442081C9.02558 0 8.12539 0 6.325 0H4.675C2.87461 0 1.97442 0 1.31313 0.442081C0.943101 0.68945 0.631993 1.02884 0.40524 1.43251C0 2.15392 0 3.13595 0 5.10002V5.70002C0 7.09785 0 7.79677 0.209331 8.34809C0.48844 9.08317 1.02379 9.6672 1.69762 9.97168C2.06079 10.1358 2.49382 10.1819 3.18427 10.1949C3.65196 10.2037 3.8858 10.2081 4.07154 10.3259C4.25727 10.4438 4.3729 10.6569 4.60416 11.0831L4.90232 11.6327C5.16806 12.1224 5.83192 12.1224 6.09766 11.6327ZM5.5 2.55001C5.72782 2.55001 5.9125 2.75148 5.9125 3.00001V7.80003C5.9125 8.04856 5.72782 8.25003 5.5 8.25003C5.27218 8.25003 5.0875 8.04856 5.0875 7.80003V3.00001C5.0875 2.75148 5.27218 2.55001 5.5 2.55001ZM3.7125 4.20002C3.7125 3.95149 3.52782 3.75002 3.3 3.75002C3.07218 3.75002 2.8875 3.95149 2.8875 4.20002V6.60003C2.8875 6.84856 3.07218 7.05003 3.3 7.05003C3.52782 7.05003 3.7125 6.84856 3.7125 6.60003V4.20002ZM7.7 3.75002C7.92782 3.75002 8.1125 3.95149 8.1125 4.20002V6.60003C8.1125 6.84856 7.92782 7.05003 7.7 7.05003C7.47218 7.05003 7.2875 6.84856 7.2875 6.60003V4.20002C7.2875 3.95149 7.47218 3.75002 7.7 3.75002Z"
          fill="#7211F8"/>
</svg>
