<svg width="61" height="61" viewBox="0 0 61 61" fill="none" xmlns="http://www.w3.org/2000/svg">
    <path d="M30.5 4C45.1355 4 57 15.8645 57 30.5C57 45.1355 45.1355 57 30.5 57C15.8645 57 4 45.1355 4 30.5C4 15.8645 15.8645 4 30.5 4Z" fill="url(#paint0_linear_4004_8524)" stroke="#110C17" stroke-width="8"/>
    <path fill-rule="evenodd" clip-rule="evenodd" d="M17.7802 30.0571C24.7581 27.1029 29.4034 25.1398 31.736 24.1875C38.3749 21.4859 39.7705 21.0194 40.6677 21C40.867 21 41.3056 21.0389 41.6047 21.2721C41.8439 21.4665 41.9037 21.7191 41.9436 21.9135C41.9835 22.1078 42.0234 22.516 41.9835 22.827C41.6246 26.5198 40.0696 35.4797 39.2721 39.6002C38.9332 41.3494 38.2752 41.9325 37.6373 41.9908C36.2417 42.1074 35.185 41.0967 33.8493 40.2415C31.736 38.9005 30.5597 38.0647 28.5062 36.7431C26.1337 35.2271 27.6688 34.3913 29.0246 33.0308C29.3834 32.681 35.504 27.2389 35.6236 26.753C35.6436 26.6947 35.6436 26.4615 35.504 26.3449C35.3645 26.2283 35.1651 26.2671 35.0056 26.306C34.7863 26.3449 31.4369 28.5217 24.9176 32.817C23.9606 33.4584 23.1033 33.7694 22.3258 33.7499C21.4685 33.7305 19.8337 33.2835 18.5976 32.8948C17.1023 32.4283 15.9061 32.1756 16.0058 31.3593C16.0656 30.9317 16.6637 30.5042 17.7802 30.0571Z" fill="white"/>
    <defs>
        <linearGradient id="paint0_linear_4004_8524" x1="30.4813" y1="8" x2="30.4813" y2="52.644" gradientUnits="userSpaceOnUse">
            <stop stop-color="#7211F8"/>
            <stop offset="1" stop-color="#45079A"/>
        </linearGradient>
    </defs>
</svg>