<svg width="13" height="13" viewBox="0 0 13 13" fill="none" xmlns="http://www.w3.org/2000/svg">
    <path d="M7.93544 5.91058C8.41025 5.91058 8.79516 5.52725 8.79516 5.05438C8.79516 4.58151 8.41025 4.19818 7.93544 4.19818C7.46064 4.19818 7.07573 4.58151 7.07573 5.05438C7.07573 5.52725 7.46064 5.91058 7.93544 5.91058Z"
          fill="#BEF811"/>
    <path fill-rule="evenodd" clip-rule="evenodd"
          d="M0.951903 0.951903C0 1.90381 0 3.43587 0 6.5C0 9.56413 0 11.0962 0.951903 12.0481C1.90381 13 3.43587 13 6.5 13C9.56413 13 11.0962 13 12.0481 12.0481C13 11.0962 13 9.56413 13 6.5C13 3.43587 13 1.90381 12.0481 0.951903C11.0962 0 9.56413 0 6.5 0C3.43587 0 1.90381 0 0.951903 0.951903ZM7.93549 7.50888C9.2966 7.50888 10.4 6.40999 10.4 5.05444C10.4 3.69889 9.2966 2.6 7.93549 2.6C6.57438 2.6 5.47098 3.69889 5.47098 5.05444C5.47098 5.68232 5.75755 6.13896 5.75755 6.13896L2.77722 9.10712C2.64349 9.24031 2.45626 9.58659 2.77722 9.90624L3.1211 10.2487C3.25483 10.3629 3.59106 10.5227 3.86617 10.2487L4.26737 9.84916C4.66857 10.2487 5.12708 10.0204 5.29903 9.79208C5.5856 9.39252 5.24171 8.99296 5.24171 8.99296L5.35634 8.8788C5.90656 9.42677 6.38799 9.10712 6.55994 8.8788C6.84651 8.47924 6.55994 8.07968 6.55994 8.07968C6.52619 8.01246 6.48251 7.96503 6.44498 7.92428C6.35503 7.82662 6.30043 7.76734 6.50262 7.56597L6.84652 7.22348C7.12163 7.4518 7.68713 7.50888 7.93549 7.50888Z"
          fill="#BEF811"/>
</svg>
