<svg width="32" height="26" viewBox="0 0 32 26" fill="none" xmlns="http://www.w3.org/2000/svg">
    <path fill-rule="evenodd" clip-rule="evenodd"
          d="M4.70073 13C6.81591 8.71787 11.1117 5.83796 16 5.83796C20.8883 5.83796 25.1841 8.71787 27.2993 13L32 9.56943C28.8252 3.85232 22.8491 0 16 0C9.15096 0 3.17485 3.85232 1.60311e-05 9.56943L4.70073 13Z"
          fill="#7211F8"/>
    <path fill-rule="evenodd" clip-rule="evenodd"
          d="M27.2993 13C25.1841 17.2821 20.8883 20.162 16 20.162C11.1117 20.162 6.81591 17.2821 4.70073 13L0 16.4306C3.17484 22.1477 9.15094 26 16 26C22.849 26 28.8251 22.1477 32 16.4306L27.2993 13Z"
          fill="#7211F8"/>
    <path d="M16.0563 8.43597C16.0563 10.893 14.1003 12.8849 11.6875 12.8849C14.1003 12.8849 16.0563 14.8767 16.0563 17.3337C16.0563 14.8767 18.0123 12.8849 20.4251 12.8849C18.0123 12.8849 16.0563 10.893 16.0563 8.43597Z"
          fill="#7211F8"/>
</svg>
