<svg width="16" height="22" viewBox="0 0 16 22" fill="none" xmlns="http://www.w3.org/2000/svg">
    <path d="M1.375 0.25C1.78921 0.25 2.125 0.585786 2.125 1V2.85L3.84567 2.50587C5.4962 2.17576 7.20711 2.33284 8.76993 2.95797L8.97357 3.03943C10.5347 3.66389 12.253 3.78051 13.8842 3.3727C14.6415 3.18339 15.375 3.75613 15.375 4.53669V11.9037C15.375 12.548 14.9365 13.1096 14.3114 13.2659L14.097 13.3195C12.3274 13.7619 10.4635 13.6354 8.76993 12.958C7.20711 12.3328 5.4962 12.1758 3.84567 12.5059L2.125 12.85V21C2.125 21.4142 1.78921 21.75 1.375 21.75C0.960786 21.75 0.625 21.4142 0.625 21V1C0.625 0.585786 0.960786 0.25 1.375 0.25Z"
          fill="#7211F8"/>
</svg>
