<svg width="26" height="26" viewBox="0 0 26 26" fill="none" xmlns="http://www.w3.org/2000/svg">
    <path transform="translate(0, 2)"
          d="M11.7995 0.000976562L11.9381 0.691043C13.0685 6.3149 17.3902 10.7099 22.9203 11.8594L23.5989 12.0004L22.9203 12.1415C17.3902 13.2909 13.0685 17.6859 11.9381 23.3098L11.7995 23.9999L11.6608 23.3098C10.5304 17.6859 6.2087 13.2909 0.678565 12.1415L0 12.0004L0.678565 11.8594C6.2087 10.7099 10.5304 6.3149 11.6608 0.691043L11.7995 0.000976562Z"
          fill="#7211F8"/>
    <path transform="translate(18, 0)"
          d="M3.99657 0L4.0436 0.241563C4.42682 2.21024 5.89206 3.74875 7.76699 4.15113L7.99705 4.2005L7.76699 4.24988C5.89206 4.65226 4.42682 6.19076 4.0436 8.15944L3.99657 8.40101L3.94955 8.15944C3.56633 6.19076 2.10109 4.65226 0.226154 4.24988L-0.00390625 4.2005L0.226154 4.15113C2.10109 3.74875 3.56633 2.21024 3.94955 0.241563L3.99657 0Z"
          fill="#7211F8"/>
</svg>
