<svg width="14" height="16" viewBox="0 0 14 16" fill="none" xmlns="http://www.w3.org/2000/svg">
    <path fill-rule="evenodd" clip-rule="evenodd"
          d="M14 5.22008C14 7.8269 12.0195 9.94015 9.57652 9.94015C9.13075 9.94015 8.11575 9.83038 7.62196 9.39131L7.00471 10.05C6.6418 10.4372 6.73981 10.5512 6.90124 10.739C6.9686 10.8174 7.04701 10.9086 7.10758 11.0378C7.10758 11.0378 7.62194 11.8062 7.10758 12.5746C6.79897 13.0137 5.93484 13.6284 4.94728 12.5746L4.74153 12.7942C4.74153 12.7942 5.35876 13.5625 4.84441 14.3309C4.53579 14.77 3.71282 15.2091 2.99272 14.4407L2.27262 15.2091C1.77883 15.736 1.17534 15.4286 0.935313 15.2091L0.318084 14.5505C-0.257997 13.9358 0.0780503 13.2698 0.318084 13.0137L5.6674 7.30569C5.6674 7.30569 5.15305 6.42754 5.15305 5.22008C5.15305 2.61325 7.1335 0.5 9.57652 0.5C12.0195 0.5 14 2.61325 14 5.22008ZM9.57667 6.86668C10.4289 6.86668 11.1197 6.12951 11.1197 5.22015C11.1197 4.31079 10.4289 3.57361 9.57667 3.57361C8.72445 3.57361 8.03359 4.31079 8.03359 5.22015C8.03359 6.12951 8.72445 6.86668 9.57667 6.86668Z"
          fill="#7211F8"/>
</svg>