<svg width="76" height="76" viewBox="0 0 76 82" fill="none" xmlns="http://www.w3.org/2000/svg">
    <circle cx="38.0008" cy="37.5652" r="37.0652" fill="#1C0937" stroke="#7211F8"/>
    <path transform="translate(6.5, 20)" fill-rule="evenodd" clip-rule="evenodd"
          d="M27.584 30.349L31.4876 36L35.416 30.349L34.1025 19.9888L36.6898 28.4414L39.3362 24.6256L38.527 21.8052L46.9677 19.9888L52.4577 22.1556L46.9677 15.2181L57.2316 24.7801L55.1231 20.6474L63 27.8599L50.1124 6.29394C49.7877 5.75063 49.3469 5.31194 48.8375 4.99133L47.1667 7.62763L48.0419 4.60554C47.0868 4.26554 46.0029 4.28154 45.0204 4.71843C44.8972 4.7732 44.7829 4.84493 44.6744 4.92388L40.1105 8.24557L35.5013 8.67702L34.4286 5.31602L32.4555 5.0164H34.2425H36.8826L36.3231 6.64334L37.8383 5.55783C38.4628 5.1104 38.8305 4.40745 38.8305 3.66083C38.8305 3.09225 38.6169 2.54263 38.2286 2.11226L37.7065 1.53344C36.828 0.559732 35.5504 0 34.2062 0H26.4346L28.5242 1.99978L27.4971 8.67702L22.8895 8.24557L18.3256 4.92388C18.2171 4.84493 18.1028 4.7732 17.9796 4.71843C16.9971 4.28154 15.9132 4.26554 14.9581 4.60554L15.8333 7.62763L14.1625 4.99133C13.6531 5.31194 13.2123 5.75063 12.8876 6.29394L0 27.8599L7.87689 20.6474L5.76843 24.7801L16.0323 15.2181L10.5423 22.1556L16.0323 19.9888L24.473 21.8052L23.6638 24.6256L26.3102 28.4414L28.8975 19.9888L27.584 30.349ZM32.243 1.55915L32.5219 2.48673H33.8983C34.3419 2.48673 34.7745 2.61961 35.1352 2.86675L35.9972 3.45725L35.4864 2.36225C35.2585 1.87374 34.7517 1.55915 34.1927 1.55915H32.243Z"
          fill="#7211F8"/>
    <rect transform="translate(19.5, 62)" width="36" height="19" rx="6" fill="#007AFF"/>
    <path transform="translate(19.5, 62)"
          d="M7.71436 5.74951H10.749C12.2529 5.74951 13.3057 6.78613 13.3057 8.29541C13.3057 9.81006 12.2314 10.8521 10.7114 10.8521H8.91748V13.5H7.71436V5.74951ZM8.91748 6.76465V9.84229H10.4321C11.4741 9.84229 12.0757 9.27832 12.0757 8.30078C12.0757 7.32324 11.4795 6.76465 10.4321 6.76465H8.91748ZM15.6269 6.75928V9.54688H17.3564C18.2856 9.54688 18.8227 9.03662 18.8227 8.15039C18.8227 7.28564 18.2534 6.75928 17.3242 6.75928H15.6269ZM15.6269 10.519V13.5H14.4238V5.74951H17.4692C19.0644 5.74951 20.058 6.67334 20.058 8.11816C20.058 9.16553 19.4995 10.0142 18.5541 10.3311L20.2944 13.5H18.9033L17.3242 10.519H15.6269ZM24.6351 5.62061C26.8641 5.62061 28.266 7.16211 28.266 9.62744C28.266 12.0928 26.8641 13.6289 24.6351 13.6289C22.4008 13.6289 21.0043 12.0928 21.0043 9.62744C21.0043 7.16211 22.4008 5.62061 24.6351 5.62061ZM24.6351 6.67871C23.1635 6.67871 22.2343 7.81738 22.2343 9.62744C22.2343 11.4321 23.1635 12.5708 24.6351 12.5708C26.1068 12.5708 27.0306 11.4321 27.0306 9.62744C27.0306 7.81738 26.1068 6.67871 24.6351 6.67871Z"
          fill="white"/>
</svg>
