<svg width="25" height="25" viewBox="0 0 25 25" fill="none" xmlns="http://www.w3.org/2000/svg">
    <path fill-rule="evenodd" clip-rule="evenodd" d="M0 12.5C0 6.60744 0 3.66117 1.83058 1.83058C3.66117 0 6.60744 0 12.5 0C18.3926 0 21.3388 0 23.1694 1.83058C25 3.66117 25 6.60744 25 12.5C25 18.3926 25 21.3388 23.1694 23.1694C21.3388 25 18.3926 25 12.5 25C6.60744 25 3.66117 25 1.83058 23.1694C0 21.3388 0 18.3926 0 12.5ZM18.75 14.0625C19.1408 14.0625 19.4906 14.3049 19.6278 14.6708C19.765 15.0367 19.6609 15.4494 19.3664 15.7063L15.0696 19.4563C14.6795 19.7968 14.0872 19.7565 13.7468 19.3664C13.4063 18.9763 13.4466 18.3841 13.8367 18.0437L16.25 15.9375L6.25 15.9375C5.73223 15.9375 5.3125 15.5178 5.3125 15C5.3125 14.4822 5.73223 14.0625 6.25 14.0625L18.75 14.0625ZM11.2532 5.63356C11.5937 6.02366 11.5534 6.61589 11.1633 6.95634L8.75 9.0625H18.75C19.2678 9.0625 19.6875 9.48223 19.6875 10C19.6875 10.5178 19.2678 10.9375 18.75 10.9375H6.25C5.85921 10.9375 5.50941 10.6951 5.37219 10.3292C5.23497 9.96327 5.33913 9.55062 5.63356 9.29366L9.93044 5.54366C10.3205 5.20322 10.9128 5.24346 11.2532 5.63356Z" fill="#7211F8" fill-opacity="0.3"/>
</svg>