<svg width="22" height="22" viewBox="0 0 22 22" fill="none" xmlns="http://www.w3.org/2000/svg">
    <path d="M5.225 7.15663C5.225 4.08246 7.81056 1.59036 11 1.59036C13.6898 1.59036 15.952 3.36353 16.5931 5.76447C16.7067 6.18978 17.1565 6.44581 17.5977 6.33635C18.039 6.22688 18.3046 5.79336 18.191 5.36806C17.3668 2.28153 14.4609 0 11 0C6.89929 0 3.575 3.20413 3.575 7.15663V9.33501C2.34877 9.42328 1.55024 9.64612 0.966548 10.2087C0 11.1403 0 12.6397 0 15.6386C0 18.6374 0 20.1368 0.966548 21.0684C1.9331 22 3.48873 22 6.6 22H15.4C18.5113 22 20.0669 22 21.0335 21.0684C22 20.1368 22 18.6374 22 15.6386C22 12.6397 22 11.1403 21.0335 10.2087C20.0669 9.27711 18.5113 9.27711 15.4 9.27711H6.6C6.10333 9.27711 5.64631 9.27711 5.225 9.2809V7.15663Z" fill="#BEF811"/>
</svg>