<svg width="63" height="37" viewBox="0 0 63 37" fill="none" xmlns="http://www.w3.org/2000/svg">
    <path d="M0 12.2406C0 5.4803 5.49145 0 12.2655 0H50.7345C57.5086 0 63 5.4803 63 12.2406V24.7594C63 31.5197 57.5086 37 50.7345 37H12.2655C5.49145 37 0 31.5197 0 24.7594V12.2406Z"
          fill="#202020"/>
    <g transform="translate(14,9)">
        <path fill-rule="evenodd" clip-rule="evenodd"
              d="M3.23175 9.57663C4.68594 6.68568 7.63932 4.74138 11 4.74138C14.3607 4.74138 17.3141 6.68568 18.7683 9.57663L22 7.26059C19.8173 3.40084 15.7087 0.800049 11 0.800049C6.29128 0.800049 2.18271 3.40084 1.10214e-05 7.26059L3.23175 9.57663Z"
              fill="var(--content-color)"/>
        <path fill-rule="evenodd" clip-rule="evenodd"
              d="M18.7683 9.57663C17.3141 12.4676 14.3607 14.4119 11 14.4119C7.63931 14.4119 4.68594 12.4676 3.23175 9.57663L0 11.8927C2.1827 15.7524 6.29127 18.3532 11 18.3532C15.7087 18.3532 19.8173 15.7524 22 11.8927L18.7683 9.57663Z"
              fill="var(--content-color)"/>
        <path d="M11.0387 6.49536C11.0387 8.15417 9.69397 9.49891 8.03516 9.49891C9.69397 9.49891 11.0387 10.8436 11.0387 12.5025C11.0387 10.8436 12.3834 9.49891 14.0422 9.49891C12.3834 9.49891 11.0387 8.15417 11.0387 6.49536Z"
              fill="var(--content-color)"/>
    </g>
    <g transform="translate(46,15)">
        <path d="M5.53846 2.65793C6.15385 3.03218 6.15385 3.96782 5.53846 4.34207L1.38461 6.86828C0.76923 7.24253 1.80705e-07 6.77472 2.13423e-07 6.02621L4.34272e-07 0.973788C4.6699e-07 0.225281 0.769231 -0.242534 1.38462 0.131719L5.53846 2.65793Z"
              fill="var(--content-color)"/>
    </g>
</svg>
